<?xml version="1.0" encoding="UTF-8" standalone="no"?>
<!-- Created with Inkscape (http://www.inkscape.org/) -->

<svg
   version="1.1"
   id="svg9"
   width="771.59998"
   height="376.6691"
   viewBox="0 0 771.59998 376.6691"
   xmlns="http://www.w3.org/2000/svg"
   xmlns:svg="http://www.w3.org/2000/svg">
  <defs
     id="defs13">
    <clipPath
       clipPathUnits="userSpaceOnUse"
       id="clipPath27">
      <path
         d="M 0,0 H 5787 V 2825.03 H 0 Z"
         id="path25" />
    </clipPath>
  </defs>
  <g
     id="g17"
     transform="matrix(1.3333333,0,0,-1.3333333,0,376.67066)">
    <g
       id="g19"
       transform="scale(0.1)">
      <g
         id="g21">
        <g
           id="g23"
           clip-path="url(#clipPath27)">
          <path
             d="m 4104.66,2586.93 6.43,-3.73 6.42,-3.84 6.26,-3.88 6.17,-3.96 6.16,-4.04 6.05,-4.12 5.99,-4.22 5.86,-4.32 5.83,-4.41 5.7,-4.48 5.64,-4.6 5.6,-4.77 3,-2.66 13.31,-5.98 31.63,-14.33 31.58,-14.41 31.46,-14.48 31.33,-14.53 31.24,-14.6 31.13,-14.68 31.02,-14.73 30.87,-14.82 30.75,-14.86 30.58,-14.94 30.46,-15 30.34,-15.06 30.13,-15.12 30.01,-15.21 29.83,-15.26 29.64,-15.3 29.49,-15.37 29.3,-15.45 29.11,-15.5 28.91,-15.54 28.74,-15.63 28.5,-15.68 28.29,-15.74 28.11,-15.8 27.84,-15.86 27.66,-15.93 27.42,-15.97 27.18,-16.03 26.94,-16.12 26.7,-16.13 707.73,-433.98 -342.96,90.32 209.21,-90.52 -717.57,69.74 294.89,-128.39 -613.66,3.02 -39.32,-0.1 -38.21,-0.37 -37.05,-0.75 -35.87,-1.08 -34.79,-1.46 -33.73,-1.89 -32.62,-2.26 -31.55,-2.73 -30.52,-3.17 -29.51,-3.66 -28.53,-4.11 -27.57,-4.63 -26.62,-5.15 -18.54,-4.07 h 521.19 l 45.67,-2.92 42.96,-3.32 41.49,-3.77 40.09,-4.25 38.76,-4.66 37.47,-5.1 36.24,-5.52 35.06,-5.92 33.96,-6.31 32.91,-6.67 31.91,-7.06 30.96,-7.43 30.07,-7.76 29.19,-8.1 28.46,-8.41 27.73,-8.72 27.02,-8.99 26.44,-9.28 25.85,-9.55 25.38,-9.8 24.86,-10.02 24.49,-10.23 24.15,-10.42 23.84,-10.61 23.63,-10.78 23.43,-10.92 23.33,-11.09 23.27,-11.21 23.25,-11.31 23.33,-11.41 23.45,-11.5 86.51,-42.42 -71.98,-64.45 -20.45,-17.54 -20.6,-16.94 -20.79,-16.38 -21,-15.82 -21.17,-15.3 -21.31,-14.76 -21.5,-14.27 -21.64,-13.8 -21.77,-13.29 -21.93,-12.86 -22.04,-12.43 -22.19,-12 -22.29,-11.62 -22.42,-11.2 -22.54,-10.851 -22.64,-10.5 -22.73,-10.149 -22.8,-9.832 -22.91,-9.558 -23.02,-9.262 -23.06,-8.988 -23.12,-8.738 -23.2,-8.524 -23.28,-8.328 -23.34,-8.102 -23.38,-7.91 -23.42,-7.777 -23.47,-7.621 -0.5,-0.168 5.62,-5.973 18.56,-18.781 18.88,-18.309 19.25,-17.91 19.54,-17.508 19.89,-17.171 20.13,-16.829 20.39,-16.55 20.6,-16.262 20.89,-16.027 21.09,-15.801 21.26,-15.653 21.47,-15.507 21.62,-15.36 21.74,-15.25 21.85,-15.23 21.95,-15.172 22.04,-15.211 22.06,-15.199 22.14,-15.289 22.14,-15.371 22.14,-15.5 22.09,-15.649 22.09,-15.851 21.98,-16.059 21.91,-16.32 21.79,-16.61 21.69,-16.91 21.48,-17.269 111.53,-92.289 -137.04,-9.981 -20.34,-1.203 -20.41,-0.879 -20.5,-0.609 -20.61,-0.27 -20.68,0.059 -20.73,0.383 -20.89,0.707 -21.01,1.132 -21.05,1.43 -21.18,1.797 -21.3,2.211 -21.46,2.601 -21.49,2.989 -21.67,3.402 -21.8,3.82 -21.92,4.239 -22.01,4.66 -22.19,5.129 -22.29,5.562 -22.47,6.008 -22.6,6.512 -22.75,6.937 -22.88,7.442 -23.07,7.949 -23.2,8.422 -23.36,8.937 -23.55,9.461 -23.7,9.992 -23.86,10.489 -24.08,11.019 -14.29,6.832 -98.24,0.078 -108.96,0.211 -108.92,0.34 -108.96,0.469 -108.93,0.562 -108.93,0.649 -108.9,0.719 -108.92,0.769 -108.9,0.801 -108.91,0.851 -108.86,0.848 -108.91,0.82 -108.88,0.821 -108.86,0.769 -108.88,0.742 -108.84,0.661 -108.88,0.609 -108.82,0.488 -108.85,0.403 -108.82,0.238 -108.83,0.133 -108.81,-0.024 -108.81,-0.207 -108.78,-0.383 -108.79,-0.546 -108.79,-0.801 -108.74,-1.031 -108.79,-1.239 -108.73,-1.511 -108.72,-1.782 -108.73,-2.078 -108.43,-2.359 -39.36,-1.5 -39,-2.629 -38.93,-3.75 -38.9,-4.774 -38.85,-5.769 -38.83,-6.731 -38.79,-7.617 -38.8,-8.511 -38.77,-9.27 -38.75,-10.051 -38.76,-10.75 -38.773,-11.418 -38.762,-12 -38.777,-12.57 -38.825,-13.07 -38.82,-13.571 -38.844,-13.91 -38.882,-14.281 -38.903,-14.578 -38.965,-14.832 -39.004,-15.02 -39.05,-15.16 -39.114,-15.269 -39.195,-15.301 -39.223,-15.27 -39.316,-15.211 -39.418,-15.078 -39.5,-14.922 L 308.945,107.07 269.238,92.6797 229.461,78.6211 0,0.0117188 168.363,170.629 l 27.375,27.73 27.246,27.653 27.11,27.59 27.008,27.558 26.863,27.531 26.699,27.477 26.551,27.531 26.355,27.52 26.188,27.562 25.984,27.578 25.785,27.661 25.559,27.75 25.352,27.832 25.113,27.918 24.832,28.058 24.625,28.192 24.336,28.351 24.062,28.5 23.782,28.688 23.496,28.902 23.179,29.09 22.856,29.328 22.543,29.562 22.191,29.848 21.848,30.102 21.508,30.379 21.144,30.691 20.793,31.019 20.363,31.348 7.649,12.102 -1.738,0.52 -11.997,3.64 -11.949,3.62 -11.972,3.61 -11.942,3.62 -23.808,7.19 -11.879,3.59 -11.903,3.59 -11.886,3.59 -11.848,3.6 -11.875,3.57 -11.898,3.62 -23.704,7.15 -11.894,3.59 -11.895,3.61 -11.894,3.58 -11.922,3.62 -11.957,3.6 -11.953,3.62 -11.965,3.64 -12,3.61 -12.027,3.65 -12.079,3.66 -12.082,3.64 -12.125,3.68 -170.523,51.46 177.047,47.57 17.18,4.68 17.207,4.77 17.179,4.85 17.266,4.88 17.23,4.99 17.297,5.05 17.281,5.08 17.309,5.12 17.328,5.15 17.34,5.21 17.34,5.23 17.383,5.26 17.367,5.28 17.422,5.29 34.82,10.61 17.422,5.31 17.461,5.29 17.43,5.29 17.492,5.29 17.465,5.23 17.484,5.23 17.496,5.17 17.504,5.14 17.537,5.1 17.49,5.05 17.54,5 17.53,4.93 17.53,4.84 14.75,4.04 0.13,0.24 3.09,6.09 3.05,6.07 3.01,6 2.98,5.96 2.96,5.94 2.92,5.86 2.89,5.81 2.86,5.81 2.87,5.8 2.87,5.81 2.82,5.73 2.83,5.75 2.85,5.79 2.85,5.78 2.82,5.76 2.85,5.81 2.88,5.81 2.83,5.7 -21.57,0.86 -25.32,1.4 -25.57,1.71 -25.74,2.04 -25.98,2.36 -26.14,2.69 -26.241,2.97 -26.34,3.25 -26.41,3.53 -26.465,3.81 -26.465,4.01 -26.449,4.29 -26.406,4.48 -26.329,4.74 -26.222,4.92 -26.055,5.12 -25.902,5.29 -25.692,5.48 -25.484,5.61 -25.199,5.78 -24.942,5.91 -24.621,6.03 -24.25,6.14 -23.89,6.27 -23.461,6.34 -23.032,6.44 -22.558,6.48 -22.051,6.57 -158.066,48.45 227.648,80.49 91.949,30.22 90.618,27.51 89.304,24.77 88.055,22.19 86.809,19.51 85.557,16.98 84.38,14.47 83.2,11.99 82.04,9.54 80.94,7.16 79.83,4.79 78.77,2.51 77.7,0.22 76.67,-1.99 75.67,-4.18 74.66,-6.29 73.72,-8.36 72.78,-10.43 71.85,-12.42 70.96,-14.35 70.11,-16.27 69.24,-18.11 68.44,-19.95 67.6,-21.66 66.85,-23.4 66.09,-25.06 65.39,-26.66 50.53,-22.07 -4.58,4.62 -7.8,8.5 -7.43,8.7 -7.07,8.92 -6.65,9.14 -6.28,9.31 -5.86,9.51 -5.49,9.65 -5.06,9.79 -1.98,4.21 -3.42,1.81 -3.49,1.86 -3.47,1.94 -3.46,2.01 -2.73,1.63 -2.75,-0.07 -14.96,0.98 -14.92,2.29 -14.86,3.64 -14.72,5.03 -14.53,6.48 -14.23,7.99 -13.74,9.54 -13.03,11.09 -12.1,12.51 -10.97,13.93 -9.58,15.08 -8.11,16.02 -6.54,16.77 -4.92,17.21 -3.37,17.53 -1.87,17.68 -0.5,17.73 0.81,17.76 2.03,17.73 3.15,17.74 2.03,8.55 -0.41,0.56 -1.6,2.07 -1.53,2.01 -46.74,61.61 38.5,73.17 4.16,7.63 4.27,7.53 4.39,7.49 4.51,7.37 4.58,7.27 4.67,7.2 4.81,7.13 4.88,7.02 4.96,6.95 5.1,6.83 5.12,6.74 5.24,6.67 5.31,6.56 5.39,6.47 5.48,6.38 5.58,6.3 5.61,6.18 5.72,6.1 5.79,5.98 5.83,5.9 5.94,5.82 5.16,4.9 0.19,2.53 1.15,8.63 1.51,8.46 1.9,8.39 2.26,8.18 2.57,8 2.93,7.88 3.24,7.74 3.54,7.54 3.88,7.4 4.16,7.17 4.47,7.07 4.78,6.87 5.03,6.67 5.32,6.44 5.59,6.27 5.89,6.11 6.15,5.82 6.4,5.61 6.14,4.96 3.26,2.49 2.68,1.96 2.69,1.92 2.78,1.93 2.77,1.83 2.75,1.77 2.84,1.75 2.82,1.7 1.08,0.62 2.16,3.97 13.83,20.19 15.03,18.29 15.93,16.67 16.77,15.32 17.47,14.25 18.11,13.35 18.72,12.54 19.3,11.88 19.86,11.28 20.37,10.73 20.84,10.23 21.23,9.73 21.64,9.28 21.99,8.85 22.24,8.35 22.49,7.96 22.67,7.5 22.75,7.05 22.81,6.57 22.82,6.13 22.78,5.68 22.67,5.2 22.48,4.69 22.28,4.18 22.03,3.66 21.74,3.14 21.44,2.57 14.55,1.41 14.5,8 15.65,8.33 16.06,8.14 16.39,7.98 16.68,7.76 16.84,7.54 17.07,7.26 17.17,6.95 17.23,6.61 17.26,6.17 17.26,5.75 17.24,5.26 17.28,4.74 17.37,4.14 17.53,3.47 17.95,2.68 18.59,1.7 19.72,0.42 21.58,-1.54 24.14,-4.64 27.15,-9.83 29.01,-17.99 26.51,-27.83 18.03,-35.17 1.68,-8.21 2.86,-0.35 6.12,-0.74 6.13,-0.82 6.07,-0.8 6.12,-0.8 5.18,-0.74 1.51,0.5 1.54,0.51 1.57,0.53 1.75,0.53 1.64,0.51 1.48,0.48 1.72,0.53 1.67,0.47 1.46,0.44 1.67,0.49 2.09,0.61 24.44,6.6 23.75,5.94 22.88,5.2 22.01,4.45 21.19,3.76 20.47,3.03 19.75,2.3 19.17,1.58 18.62,0.81 18.21,0.04 17.95,-0.85 17.77,-1.84 17.74,-2.94 17.84,-4.35 18.09,-5.99 18.35,-8.14 18.32,-10.79 17.84,-13.85 16.58,-17.2 14.21,-20.31 10.79,-22.63 6.84,-23.58 2.97,-23.31 -0.13,-7.99 0.9,-0.5 6.56,-3.68 v 0"
             style="fill:#ffffff;fill-opacity:1;fill-rule:evenodd;stroke:none"
             id="path29" />
          <path
             d="m 433.871,1637.43 c 1027.569,376.02 1795.319,238.34 2468.469,-141.74 594.52,0 1188.97,0 1783.46,0 476.36,-27.54 679.04,-135.54 933.06,-259.83 -206.6,-189.18 -446.84,-277.551 -696.83,-354.329 191.81,-229.41 452.88,-352.152 673.22,-537.39 -208.67,-16.789 -426.41,12.679 -679.14,135.82 -1161.39,0.019 -2323.14,26.969 -3484.23,0 C 999.574,469.918 589.371,249.641 168.117,107.922 c 293.321,297.25 574.024,578.988 784.66,929.378 -129.925,39.37 -253.156,76.51 -383.086,115.88 185.047,49.21 371.555,113.22 556.579,162.42 35.45,68.91 60.5,123.01 95.95,191.9 -246.068,-3.45 -565.919,60.51 -788.349,129.93 v 0"
             style="fill:#040606;fill-opacity:1;fill-rule:evenodd;stroke:none"
             id="path31" />
          <path
             d="m 527.566,345.91 c 325.489,241.418 449.653,487.442 608.514,772.8 -80.2,13.89 -160.42,27.76 -240.619,41.65 119.209,18.77 186.649,20.82 302.509,50.73 67.87,117.24 164.1,290.15 231.96,407.39 -205.13,7.72 -410.3,15.43 -615.461,23.15 615.481,160.42 1261.011,131.1 1894.971,-164.29 -324.68,-253.74 -783.59,-357.08 -1355.86,-407.23 -122.62,-132.63 -212.87,-346.29 0,-481.251 C 1140.71,579.621 946.355,563.391 527.566,345.91 Z m 907.404,884.83 c 64.25,118.4 140.8,244.53 205.03,362.92 335.03,-17.62 533.23,-45.01 682.81,-144.17 -179.28,-120.72 -584.23,-190.48 -887.84,-218.75 z"
             style="fill:none;stroke:#2c4f37;stroke-width:63.8509;stroke-linecap:butt;stroke-linejoin:round;stroke-miterlimit:22.9256;stroke-dasharray:none;stroke-opacity:1"
             id="path33" />
          <path
             d="m 527.566,345.91 c 325.489,241.418 449.653,487.442 608.514,772.8 -80.2,13.89 -160.42,27.76 -240.619,41.65 119.209,18.77 186.649,20.82 302.509,50.73 67.87,117.24 164.1,290.15 231.96,407.39 -205.13,7.72 -410.3,15.43 -615.461,23.15 615.481,160.42 1261.011,131.1 1894.971,-164.29 -324.68,-253.74 -783.59,-357.08 -1355.86,-407.23 -122.62,-132.63 -212.87,-346.29 0,-481.251 C 1140.71,579.621 946.355,563.391 527.566,345.91 Z m 907.404,884.83 c 64.25,118.4 140.8,244.53 205.03,362.92 335.03,-17.62 533.23,-45.01 682.81,-144.17 -179.28,-120.72 -584.23,-190.48 -887.84,-218.75 v 0"
             style="fill:#ffffff;fill-opacity:1;fill-rule:evenodd;stroke:none"
             id="path35" />
          <path
             d="m 4584.46,1060.53 c 41.61,76.69 91.21,158.41 132.83,235.11 217.02,-11.43 345.4,-29.17 442.3,-93.42 -116.16,-78.2 -378.46,-123.37 -575.13,-141.69 z m -82.39,-471.659 c -110.96,70.367 -94.79,173.707 -42.74,255.899 12.62,19.96 53.55,94.511 69.08,111.179 212.03,-273.179 481.87,-446.269 788.53,-512.668 -318.52,184.957 -467.95,324.93 -580.62,528.449 272.22,38.65 505.49,117.05 673.73,248.55 -410.68,191.35 -828.85,210.34 -1227.57,106.42 132.93,-4.99 265.81,-10 398.71,-15 -43.95,-75.93 -106.31,-187.96 -150.28,-263.9 -75.05,-19.36 -118.75,-20.7 -195.96,-32.87 51.98,-8.99 103.93,-17.969 155.88,-26.981 -71.54,-128.531 -149.91,-311.488 -304.56,-399.648 z"
             style="fill:none;stroke:#2c4f37;stroke-width:64.0689;stroke-linecap:butt;stroke-linejoin:round;stroke-miterlimit:22.9256;stroke-dasharray:none;stroke-opacity:1"
             id="path37" />
          <path
             d="m 4584.45,1060.53 c 41.63,76.69 91.22,158.4 132.82,235.11 217.04,-11.43 345.43,-29.16 442.31,-93.42 -116.13,-78.2 -378.47,-123.38 -575.13,-141.69 z m -82.38,-471.659 c -110.98,70.367 -94.79,173.699 -42.74,255.899 12.61,19.96 53.53,94.5 69.1,111.179 212.02,-273.179 481.83,-446.289 788.52,-512.679 -318.53,184.968 -467.97,324.941 -580.61,528.46 272.21,38.66 505.47,117.05 673.71,248.54 -410.67,191.36 -828.86,210.35 -1227.55,106.43 132.92,-4.99 265.79,-10 398.69,-15 -43.96,-75.93 -106.3,-187.96 -150.29,-263.9 -75.04,-19.36 -118.74,-20.69 -195.95,-32.87 51.98,-8.98 103.92,-17.981 155.88,-26.981 -71.56,-128.531 -149.89,-311.488 -304.56,-399.648 l 415.8,0.57 v 0"
             style="fill:#ffffff;fill-opacity:1;fill-rule:evenodd;stroke:none"
             id="path39" />
          <path
             d="m 3562.93,588.621 226.03,411.168 h 348.25 l -54.16,-98.519 h -208.27 l -30.12,-54.801 h 176.04 l -51.84,-94.34 h -176.04 l -34.95,-63.559 h 216.86 l -54.94,-99.949 z m -550.53,0 226.03,411.168 h 139.97 l -76.7,-139.598 h 130.38 l 76.73,139.598 h 140.01 L 3422.79,588.621 h -140 l 87.57,159.328 h -130.37 l -87.58,-159.328 z m -368.51,0 166.47,302.82 h -125.45 l 59.55,108.348 h 388.25 l -59.55,-108.348 h -122.8 l -166.47,-302.82 z m -642.81,0 226.01,411.168 H 2359.9 L 2377,808.551 c 0.79,-5.34 0.65,-12.973 -0.57,-22.883 -1.13,-9.809 -3.25,-21.719 -6.2,-35.719 2.76,7.231 6.36,15.231 10.57,24.012 4.22,8.769 9.73,19.348 16.58,31.82 l 106.66,194.008 h 133.43 L 2411.44,588.621 h -133.41 l -17.87,189.809 c -0.66,5.629 -0.46,13.539 0.69,23.73 1.18,10.199 3.17,21.918 5.89,35.16 -2.54,-7.25 -5.84,-14.851 -9.58,-22.769 -3.74,-7.922 -9.52,-18.973 -17.43,-33.352 L 2133.88,588.621 Z m -546.19,0 379.33,411.168 h 141.71 l -72.76,-411.168 h -138.78 l 13.63,54.41 h -138.77 l -46.79,-54.41 z m 257.22,140.629 h 87.87 l 34.83,142.379 z"
             style="fill:none;stroke:#1a4529;stroke-width:63.8509;stroke-linecap:butt;stroke-linejoin:round;stroke-miterlimit:22.9256;stroke-dasharray:none;stroke-opacity:1"
             id="path41" />
          <path
             d="m 3562.93,588.621 226.03,411.168 h 348.25 l -54.16,-98.519 h -208.27 l -30.12,-54.801 h 176.04 l -51.84,-94.34 h -176.04 l -34.95,-63.559 h 216.86 l -54.94,-99.949 z m -550.53,0 226.03,411.168 h 139.97 l -76.7,-139.598 h 130.38 l 76.73,139.598 h 140.01 L 3422.79,588.621 h -140 l 87.57,159.328 h -130.37 l -87.58,-159.328 z m -368.51,0 166.47,302.82 h -125.45 l 59.55,108.348 h 388.25 l -59.55,-108.348 h -122.8 l -166.47,-302.82 z m -642.81,0 226.01,411.168 H 2359.9 L 2377,808.551 c 0.79,-5.34 0.65,-12.973 -0.57,-22.883 -1.13,-9.809 -3.25,-21.719 -6.2,-35.719 2.76,7.231 6.36,15.231 10.57,24.012 4.22,8.769 9.73,19.348 16.58,31.82 l 106.66,194.008 h 133.43 L 2411.44,588.621 h -133.41 l -17.87,189.809 c -0.67,5.629 -0.46,13.539 0.69,23.73 1.18,10.199 3.17,21.918 5.89,35.16 -2.54,-7.25 -5.84,-14.851 -9.58,-22.769 -3.74,-7.922 -9.52,-18.973 -17.43,-33.352 L 2133.88,588.621 Z m -546.19,0 379.33,411.168 h 141.71 l -72.76,-411.168 h -138.78 l 13.63,54.41 h -138.77 l -46.79,-54.41 z m 257.22,140.629 h 87.87 l 34.83,142.379 -122.7,-142.379 v 0"
             style="fill:#ffffff;fill-opacity:1;fill-rule:evenodd;stroke:none"
             id="path43" />
          <path
             d="m 2825.68,1626.82 -0.31,-3.43 -0.61,-9.87 -0.33,-9.9 0.04,-9.96 0.39,-10.01 0.75,-10.02 1.13,-10.05 1.57,-10.06 2.01,-10.06 2.46,-10.03 2.95,-10.01 3.48,-9.88 3.95,-9.83 4.48,-9.68 4.99,-9.53 5.52,-9.29 6.01,-9.1 5.51,-7.55 0.29,-2.57 1.25,-6.51 1.56,-6.31 1.94,-6.05 2.22,-5.83 2.55,-5.59 2.79,-5.33 3.02,-5.08 3.26,-4.87 3.5,-4.66 3.63,-4.42 3.85,-4.14 4,-3.99 4.2,-3.73 4.34,-3.54 4.5,-3.3 4.76,-3.13 4.9,-2.9 5.02,-2.67 5.19,-2.44 5.39,-2.19 3.57,-1.25 15.09,-16.34 17.02,-17.05 17.34,-15.99 17.75,-14.88 18.1,-13.76 18.51,-12.55 18.94,-11.35 19.35,-10.06 19.81,-8.68 20.26,-7.19 20.62,-5.67 21.01,-4.02 21.32,-2.26 21.42,-0.45 21.45,1.41 21.41,3.32 21.1,5.23 20.75,7.02 20.29,8.85 19.75,10.53 19.15,12.18 18.57,13.74 17.97,15.28 17.4,16.73 16.86,18.18 16.36,19.62 15.83,21.06 15.38,22.49 13.31,21.28 8.52,-7.3 10.05,-8.44 9.89,-8.08 9.8,-7.73 9.76,-7.38 9.71,-7.06 9.78,-6.67 9.84,-6.32 9.97,-5.95 10.13,-5.54 10.41,-5.06 10.7,-4.58 11.02,-4.01 11.43,-3.39 11.8,-2.63 12.15,-1.79 12.4,-0.84 12.57,0.15 12.59,1.23 12.47,2.3 12.2,3.27 11.82,4.26 11.38,5.08 10.92,5.86 10.45,6.49 13.9,9.84 24.36,25.24 19.18,18.59 19.36,17.51 19.56,16.5 19.81,15.53 20.1,14.55 20.45,13.7 20.78,12.83 21.22,12.02 21.65,11.21 22.21,10.49 22.73,9.76 23.34,9.05 24,8.41 24.65,7.76 25.41,7.12 26.18,6.53 26.97,5.91 27.78,5.37 28.64,4.8 29.53,4.28 30.47,3.75 31.39,3.27 32.35,2.79 33.33,2.33 34.37,1.9 35.37,1.5 36.43,1.09 37.53,0.75 38.58,0.41 39.75,0.08 384.45,-1.9 -329.84,143.62 -15.56,6.56 -3.66,1.5 5.59,-0.37 33.18,-2.33 34.15,-2.56 35.1,-2.81 36.13,-3.07 37.07,-3.3 38.06,-3.54 487.02,-47.31 -440.56,190.56 -28.03,11.84 -26.45,10.87 11.02,-2.44 36.81,-8.52 37.38,-9.07 38,-9.61 502.53,-132.31 -434.7,266.52 -26.44,16.02 -26.72,15.97 -26.95,15.9 -27.22,15.84 -27.43,15.82 -27.65,15.73 -27.87,15.7 -28.14,15.63 -28.32,15.57 -28.52,15.51 -28.72,15.46 -28.95,15.4 -29.12,15.35 -29.3,15.3 -29.48,15.22 -29.68,15.16 -29.82,15.13 -29.99,15.03 -30.18,14.98 -30.31,14.93 -30.44,14.87 -30.59,14.79 -30.71,14.74 -30.9,14.67 -30.99,14.61 -31.08,14.53 -31.23,14.5 -31.32,14.41 -31.45,14.34 -31.52,14.28 -20.08,9.03 -3.04,2.8 -4.73,4.2 -4.87,4.14 -4.91,4.02 -5.03,3.97 -5.16,3.92 -5.24,3.8 -5.36,3.78 -5.43,3.71 -5.52,3.64 -5.62,3.59 -5.73,3.54 -5.83,3.47 -5.92,3.47 -6.01,3.38 -6.1,3.37 -6.19,3.27 -6.28,3.25 -6.35,3.2 -3.09,1.51 0.54,2 2.15,14.79 0.26,15.71 -2.1,16.32 -4.72,16.37 -7.48,15.6 -9.86,14.09 -11.64,12.09 -12.75,9.9 -13.41,7.9 -13.8,6.12 -14.02,4.67 -14.27,3.44 -14.61,2.45 -15.01,1.53 -15.48,0.72 -16.07,-0.03 -16.73,-0.74 -17.47,-1.43 -18.25,-2.12 -19.1,-2.81 -19.96,-3.53 -20.87,-4.24 -21.84,-4.96 -22.81,-5.7 -23.62,-6.43 -1.75,-0.46 -1.43,-0.43 -1.39,-0.4 -1.42,-0.46 -1.44,-0.39 -1.44,-0.45 -1.42,-0.48 -1.46,-0.45 -1.43,-0.45 -1.35,-0.45 -1.44,-0.48 -1.46,-0.47 -1.38,-0.48 -1.42,-0.5 -1.39,-0.48 -1.38,-0.51 -1.42,-0.49 -1.41,-0.51 -0.21,-0.09 -4.46,0.64 -5.94,0.85 -5.91,0.8 -5.91,0.8 -5.97,0.79 -5.96,0.74 -6,0.78 -5.99,0.73 -6.02,0.69 -6.02,0.69 -6.04,0.66 -6.03,0.7 -6.09,0.61 -2.84,0.31 0.29,10.93 -4.96,24.26 -11.98,23.36 -17.63,18.56 -19.68,12.17 -19.06,6.89 -17.72,3.43 -16.63,1.17 -15.89,-0.33 -15.57,-1.46 -15.52,-2.31 -15.57,-3.06 -15.69,-3.78 -15.86,-4.31 -16.04,-4.91 -16.17,-5.39 -16.31,-5.83 -16.36,-6.25 -16.33,-6.63 -16.28,-6.92 -16.15,-7.21 -15.94,-7.43 -15.64,-7.63 -15.35,-7.8 -14.92,-7.91 -14.44,-8 -8.09,-4.69 -4.19,-0.28 -19.8,-1.87 -20.26,-2.44 -20.71,-2.99 -21.03,-3.5 -21.34,-4.02 -21.62,-4.47 -21.76,-5.02 -21.87,-5.45 -22,-5.89 -21.97,-6.36 -21.9,-6.76 -21.77,-7.21 -21.56,-7.64 -21.32,-8.01 -21,-8.45 -20.6,-8.84 -20.18,-9.23 -19.65,-9.64 -19.09,-10.06 -18.5,-10.51 -17.8,-10.97 -17.13,-11.47 -16.31,-12 -15.51,-12.67 -14.64,-13.38 -13.65,-14.27 -12.55,-15.27 -11.29,-16.51 -7.79,-14.32 -0.67,-0.29 -2.25,-1.13 -2.25,-1.18 -2.22,-1.15 -2.22,-1.26 -2.25,-1.3 -2.21,-1.31 -2.15,-1.36 -2.15,-1.37 -2.15,-1.41 -2.15,-1.49 -2.07,-1.49 -2.08,-1.51 -2.43,-1.85 -4.88,-3.93 -4.93,-4.33 -4.77,-4.52 -4.55,-4.7 -4.31,-4.84 -4.11,-4.98 -3.86,-5.13 -3.67,-5.27 -3.42,-5.41 -3.18,-5.53 -2.95,-5.61 -2.7,-5.75 -2.48,-5.87 -2.22,-5.97 -1.93,-6.04 -1.72,-6.18 -1.43,-6.31 -1.12,-6.33 -0.85,-6.42 -0.55,-6.51 -0.22,-6.57 0.07,-5.95 -2.12,-1.86 -5.65,-5.05 -5.56,-5.15 -5.5,-5.24 -5.43,-5.31 -5.36,-5.43 -5.33,-5.53 -5.23,-5.59 -5.17,-5.69 -5.13,-5.78 -5.05,-5.85 -4.95,-5.94 -4.87,-6.04 -4.83,-6.12 -4.71,-6.2 -4.67,-6.29 -4.56,-6.37 -4.48,-6.44 -4.4,-6.54 -4.28,-6.59 -4.21,-6.68 -4.12,-6.77 -4,-6.84 -3.93,-6.89 -3.79,-6.96 -24.37,-46.3 28.56,-37.63 1.42,-1.91 1.49,-1.93 1.54,-1.95 1.55,-2 1.6,-2 1.6,-2.01 1.69,-2.04 1.71,-2.08 1.74,-2.06 1.81,-2.11 1.78,-2 -4.11,-13.97 -3.63,-15.28 -2.67,-14.97 -1.66,-14.69 -0.67,-14.42 0.39,-14.17 1.48,-13.86 2.59,-13.51 3.76,-13.11 4.9,-12.58 6.01,-11.91 7.09,-11.12 8.02,-10.2 8.85,-9.18 9.5,-8.06 10,-6.95 10.36,-5.81 10.57,-4.71 10.75,-3.66 10.82,-2.65 10.83,-1.67 10.84,-0.72 10.85,0.23 3.57,0.42 2.37,-1.58 2.83,-1.83 2.87,-1.79 2.88,-1.77 2.9,-1.73 2.94,-1.67 2.91,-1.66 2.98,-1.59 2.99,-1.59 3,-1.52 3.02,-1.47 3.05,-1.47 3.07,-1.42 2.35,-1.06 0.61,-1.6 3.53,-8.34 3.89,-8.28 4.22,-8.19 4.57,-8.09 4.94,-7.94 5.25,-7.83 5.62,-7.68 5.94,-7.52 6.28,-7.38 6.64,-7.18 6.91,-7 7.27,-6.83 7.58,-6.63 7.91,-6.41 8.19,-6.21 8.51,-5.99 8.83,-5.8 9.1,-5.55 9.44,-5.32 9.7,-5.11 10,-4.88 10.29,-4.63 10.61,-4.4 10.86,-4.17 11.16,-3.92 9.07,-2.92 v 0"
             style="fill:#040606;fill-opacity:1;fill-rule:evenodd;stroke:none"
             id="path45" />
          <path
             d="m 2627.53,2257.77 c -54.7,-39.18 -104.64,-95.04 -138.03,-159.87 14.1,-18.65 27.41,-34.8 47.21,-45.48 -74.31,-157.87 29.95,-184.84 58.16,-159.13 3.94,-3.56 8.54,-7.18 13.61,-10.73 -0.16,-0.04 -0.32,-0.1 -0.46,-0.15 20.88,-16.5 44.41,-28.3 70.58,-35.42 12.3,-63.89 64.17,-126.14 172.56,-156.34 -20.34,78.98 -33.82,130.12 -26.14,158.35 14.93,3.42 30.3,7.69 46.22,12.84 16.75,-72.8 61.92,-117.03 124.17,-129.54 -14.39,68.73 -10.1,109.49 2.04,155.84 0.08,0 0.16,-0.03 0.25,-0.04 68.4,-16.24 153.89,-63.99 76.17,-190.55 -1.86,-3.03 -9.92,-14.91 -11.95,-18.04 -13.56,10.92 -22.05,26.76 -31.48,45.94 -4.82,-22.26 -9.62,-36.58 -10.02,-56.09 -12.95,3.29 -48.39,-7.1 -57.75,-38.53 -16.18,15.7 -35.96,50.7 -52.64,86.64 -30.36,-93.33 -37.15,-174.86 24.42,-234.24 -9.7,-22.13 9.74,-46.57 33.31,-50.08 12.04,-1.75 12.73,-6.87 21.18,-16.39 158.2,-177.95 336.35,-168.81 470.9,121.06 126.34,-116.14 186.94,-168.01 259.48,-113.57 218.39,233.46 478.5,275.3 925.11,271.63 -154.86,68.54 -347.73,119.74 -531,131.42 107.25,38.47 365.73,38.52 790.3,-3.53 -290.21,127.15 -610.23,216.32 -889.1,232.85 275.31,24.06 593.03,8.36 1015.21,-104.99 -274.25,169.32 -594.83,330.93 -930.62,481.3 -33.63,34.96 -90.77,67.05 -163.51,94.22 71.97,84.16 19.84,148.06 -226.54,78.77 -11.99,-3.37 -24.22,-7.81 -36.76,-13.04 -59.87,9.32 -122.68,15.92 -186.51,19.31 113.89,165.33 -138.76,75.91 -270.04,-2.04 l -11.52,-5.45 c -180.13,-9.25 -491,-114.82 -512.88,-236.23 -13.82,-2 -27.89,-7.81 -40.38,-17.45 -31.94,-24.7 -42.04,-65.85 -23.55,-93.25 v 0"
             style="fill:#ffffff;fill-opacity:1;fill-rule:evenodd;stroke:none"
             id="path47" />
          <path
             d="m 3466.55,1558.94 c 109.8,-91.34 187.6,-193.02 294.32,-64.64 108.96,131.02 419.54,244.41 816.98,213.12 -167.26,65.57 -340.11,100.19 -516.85,113.66 109.97,50.3 329.36,63.99 718.72,33.75 -276.11,114.19 -596.56,176.5 -860.84,200.69 87.96,-9.5 297.26,108.34 1016.01,-63.94 -278.65,167.53 -563.6,306.76 -851.74,431.66 -49.52,35.39 -99.95,67.57 -161.81,88.46 -64.05,-63.69 -193.53,-134.72 -360.26,-167.57 487.83,239.36 456.1,317.48 -1.2,192.39 29.92,15.56 57.49,30.59 83.53,43.2 -49.9,7.64 -102.35,13.46 -155.94,17.04 -3.72,-0.3 -7.51,-0.62 -11.38,-0.97 -345.4,13.23 -581.62,-103.18 -580.14,-197.49 -46.77,54.71 5.04,116.71 122.96,158.83 -105.25,-29.95 -207.17,-76.39 -275.03,-145.3 -17.31,-17.56 -24.61,-36.55 -32.27,-57.03 -12.88,-0.37 -32.11,-5.62 -43.91,-14.75 -24.97,-19.34 -32.81,-51.64 -18.1,-72.98 7.04,4.59 14.23,8.78 21.71,12.47 0.03,-0.05 0,-0.07 0,-0.12 65.67,30.36 116.05,40.73 171.37,64.86 -30.91,-31.94 -122.38,-51.08 -170.02,-82.13 l -4.64,-2.05 c -51.84,-30.22 -107.97,-82.66 -150.97,-159.71 42.51,-65.37 126.23,-57.7 194.33,-38.71 l 1.18,-5.59 c -67.88,-31.37 -113.85,-62.98 -109.22,-119.51 l -5.1,-0.69 c -11.6,66.88 -28.21,95.18 -44.73,106.03 l -0.1,-0.16 c -23.3,-47.57 -36.35,-176.18 43.6,-129.22 1.6,1.26 6.6,2.39 8.26,0.53 13.32,-17.86 59.25,-60.69 146.27,-56 156.19,16.43 318.89,118.67 456.08,101.56 111.63,-2.79 243.76,-63.7 170.12,-177.37 -4.16,-11.25 -31.34,-34.66 -51.41,-50.21 -14.47,-11.22 -25.03,-17.61 -22.12,-29.72 26.06,-59.4 -65.04,-28.69 -5.91,25.87 181.27,102.53 -1.77,210.58 -114.68,208.64 -0.82,0.09 -1.69,0.14 -2.53,0.19 -0.28,0.03 -0.6,0.04 -0.88,0.05 -34.98,2.28 -71.07,-4.01 -104.98,-11.87 -0.08,-0.01 -0.19,-0.04 -0.25,-0.05 -23.47,-5.43 -47.69,-12.25 -72.09,-19.56 134.12,-15.69 151.75,-120.46 70.5,-232.73 -4.95,-5.88 -11.4,-10.27 -19.3,-13.2 -14.28,-3.89 -26.01,-16.29 -31.63,1.07 -39.77,-1.26 -57.89,-37.21 -53.62,-57.29 -21.97,22.27 -40.32,50.52 -57.64,80.53 -24.85,-83.81 -12.01,-146.74 35.27,-189.69 -3.18,-0.74 -12.12,-47.98 26.35,-45.23 195.9,-202.98 319.41,-127.15 452.39,64.63 32.61,47.09 61.83,95.23 87.21,146.62 -31.69,-68.24 -18.11,-40.44 -45.87,-100.37 v 0"
             style="fill:#040606;fill-opacity:1;fill-rule:evenodd;stroke:none"
             id="path49" />
          <path
             d="m 2919.07,1643.52 c 28.27,-57.4 70.8,-109.38 107.63,-109.39 -5.54,-15.9 -28.83,-29.79 -50.29,-30.22 -51.45,27.58 -71.63,88.29 -57.34,139.61 v 0"
             style="fill:#ffffff;fill-opacity:1;fill-rule:evenodd;stroke:none"
             id="path51" />
          <path
             d="m 3047.73,2293.39 c -6.23,2.08 -11.14,5.87 -14.69,11.4 -5.12,-6.53 -1.49,-18.16 8.06,-25.95 9.67,-7.92 21.89,-9.07 27.23,-2.55 5.33,6.52 1.81,18.28 -7.87,26.19 -3.55,2.93 -7.79,5.06 -11.75,6.07 -1.76,-5.03 -1.91,-10.09 -0.98,-15.16 v 0"
             style="fill:#eb1c26;fill-opacity:1;fill-rule:evenodd;stroke:none"
             id="path53" />
          <path
             d="m 3047.73,2293.39 c -6.23,2.08 -11.14,5.87 -14.69,11.4 -5.12,-6.53 -1.49,-18.16 8.06,-25.95 9.67,-7.92 21.89,-9.07 27.23,-2.55 5.33,6.52 1.81,18.28 -7.87,26.19 -3.55,2.93 -7.79,5.06 -11.75,6.07 -1.76,-5.03 -1.91,-10.09 -0.98,-15.16 v 0"
             style="fill:#c21d2b;fill-opacity:1;fill-rule:nonzero;stroke:none"
             id="path55" />
          <path
             d="m 3047.73,2293.39 c -6.23,2.08 -11.14,5.87 -14.69,11.4 -5.12,-6.53 -1.49,-18.16 8.06,-25.95 9.67,-7.92 21.89,-9.07 27.23,-2.55 5.33,6.52 1.81,18.28 -7.87,26.19 -3.55,2.93 -7.79,5.06 -11.75,6.07 -1.76,-5.03 -1.91,-10.09 -0.98,-15.16 z"
             style="fill:none;stroke:#eb1c26;stroke-width:0.65388;stroke-linecap:butt;stroke-linejoin:miter;stroke-miterlimit:22.9256;stroke-dasharray:none;stroke-opacity:1"
             id="path57" />
          <path
             d="m 3085.75,2269.11 c 86.05,28.3 65.92,65.02 51.28,75.83 -9.68,7.17 -35.1,17.72 -32.91,-16.65 -13.17,-6.67 -21.78,-10.94 -35.28,-13.41 10.92,-8.15 30.25,-17.96 16.91,-45.77 v 0"
             style="fill:#ffffff;fill-opacity:1;fill-rule:evenodd;stroke:none"
             id="path59" />
          <path
             d="m 3085.75,2269.11 c 86.05,28.3 65.92,65.02 51.28,75.83 -9.68,7.17 -35.1,17.72 -32.91,-16.65 -13.17,-6.67 -21.78,-10.94 -35.28,-13.41 10.92,-8.15 30.25,-17.96 16.91,-45.77 z"
             style="fill:none;stroke:#ffffff;stroke-width:0.57115;stroke-linecap:butt;stroke-linejoin:miter;stroke-miterlimit:22.9256;stroke-dasharray:none;stroke-opacity:1"
             id="path61" />
          <path
             d="m 3122.8,1720.13 c -12.14,-32.92 -35.32,-57.4 -58.02,-72.47 -15.48,-10.3 -37.07,-23.53 -50.51,-3.76 -68.02,-21.16 -22.38,-93.31 46.48,-92.52 23.2,0.27 71.57,5.81 102.43,21.34 3.66,1.85 7.32,3.87 10.97,6.09 35.33,21.45 66.48,59.59 75.05,92.38 6.89,26.36 14.6,65.39 41.2,78.52 57.8,15.79 11.32,55.74 -44.54,45.17 -45.08,-8.5 -86.92,-139.23 -118.85,-147.11 36.35,23.92 51.16,140.84 96.35,148.18 7.59,9.88 -3.68,15.22 -23.96,15.32 -64.27,0.3 -57.7,-39.88 -76.6,-91.14 v 0"
             style="fill:#e11d26;fill-opacity:1;fill-rule:evenodd;stroke:none"
             id="path63" />
          <path
             d="m 3122.8,1720.13 c -12.13,-32.93 -35.34,-57.41 -58,-72.47 -15.52,-10.3 -37.09,-23.53 -50.55,-3.77 -68.02,-21.15 -22.36,-93.3 46.5,-92.52 23.19,0.28 71.56,5.82 102.43,21.34 3.67,1.86 7.32,3.88 10.97,6.1 35.33,21.45 66.49,59.59 75.04,92.37 6.9,26.38 14.61,65.4 41.21,78.52 57.8,15.8 11.32,55.75 -44.54,45.19 -45.07,-8.51 -86.93,-139.24 -118.86,-147.12 36.36,23.92 51.16,140.85 96.36,148.18 7.59,9.87 -3.68,15.22 -23.97,15.32 -64.26,0.3 -57.68,-39.88 -76.59,-91.14 v 0"
             style="fill:#c21d2b;fill-opacity:1;fill-rule:nonzero;stroke:none"
             id="path65" />
          <path
             d="m 3122.8,1720.13 c -12.13,-32.93 -35.34,-57.41 -58,-72.47 -15.52,-10.3 -37.09,-23.53 -50.55,-3.77 -68.02,-21.15 -22.36,-93.3 46.5,-92.52 23.19,0.28 71.56,5.82 102.43,21.34 3.67,1.86 7.32,3.88 10.97,6.1 35.33,21.45 66.49,59.59 75.04,92.37 6.9,26.38 14.61,65.4 41.21,78.52 57.8,15.8 11.32,55.75 -44.54,45.19 -45.07,-8.51 -86.93,-139.24 -118.86,-147.12 36.36,23.92 51.16,140.85 96.36,148.18 7.59,9.87 -3.68,15.22 -23.97,15.32 -64.26,0.3 -57.68,-39.88 -76.59,-91.14 z"
             style="fill:none;stroke:#eb1c26;stroke-width:0.49611;stroke-linecap:butt;stroke-linejoin:miter;stroke-miterlimit:22.9256;stroke-dasharray:none;stroke-opacity:1"
             id="path67" />
          <path
             d="m 2999.77,1460.06 c 1.32,-1.58 3.54,1.35 4.98,-0.24 43.61,-48.85 139.73,-91.64 194.25,-74.43 -62.52,-38.46 -127.04,1.59 -199.23,74.67 v 0"
             style="fill:#ffffff;fill-opacity:1;fill-rule:evenodd;stroke:none"
             id="path69" />
          <path
             d="m 2999.77,1460.05 c 1.31,-1.58 3.55,1.36 4.96,-0.23 43.62,-48.86 139.75,-91.64 194.28,-74.44 -62.54,-38.45 -127.06,1.6 -199.24,74.67 z"
             style="fill:none;stroke:#171717;stroke-width:0.62392;stroke-linecap:butt;stroke-linejoin:miter;stroke-miterlimit:22.9256;stroke-dasharray:none;stroke-opacity:1"
             id="path71" />
          <path
             d="m 3264.49,2615.86 206.01,3.57 c 96.88,129.13 -178.63,21.95 -206.01,-3.57 v 0"
             style="fill:#070b0d;fill-opacity:1;fill-rule:evenodd;stroke:none"
             id="path73" />
          <path
             d="m 3264.49,2615.86 206.01,3.57 c 96.88,129.13 -178.63,21.95 -206.01,-3.57 v 0"
             style="fill:#040606;fill-opacity:1;fill-rule:evenodd;stroke:none"
             id="path75" />
          <path
             d="m 3264.49,2615.86 206.01,3.57 c 96.88,129.13 -178.63,21.95 -206.01,-3.57 z"
             style="fill:none;stroke:#070b0d;stroke-width:0.57115;stroke-linecap:butt;stroke-linejoin:miter;stroke-miterlimit:22.9256;stroke-dasharray:none;stroke-opacity:1"
             id="path77" />
          <path
             d="m 2937.21,2049.27 c 191.95,98.43 552.01,224.25 856.46,149.27 l 28.45,107.61 c -369.41,-6.34 -605.21,-66.37 -884.91,-256.88 v 0"
             style="fill:#c21d2b;fill-opacity:1;fill-rule:evenodd;stroke:none"
             id="path79" />
          <path
             d="m 2898.5,1998.92 c 184.36,76.74 598.65,189.28 878.63,38.48 l 44.81,103.92 c -364.14,61.88 -671.28,-5.25 -923.44,-142.4 v 0"
             style="fill:#2c4f37;fill-opacity:1;fill-rule:evenodd;stroke:none"
             id="path81" />
          <path
             d="m 2946.02,1983.54 c 201.01,53.23 562.11,69.68 797.64,-137.88 l 63.22,95.54 c -314.91,148.3 -551.88,170.44 -860.86,42.34 v 0"
             style="fill:#ffffff;fill-opacity:1;fill-rule:evenodd;stroke:none"
             id="path83" />
          <path
             d="m 2944,2303.1 c -64.35,-13.99 -81.94,69.44 -34.47,67.53 55.09,-116.63 240.55,179.13 343.88,-73.45 -113.09,186.53 -237.5,-13.35 -309.41,5.92 v 0"
             style="fill:#ffffff;fill-opacity:1;fill-rule:evenodd;stroke:none"
             id="path85" />
          <path
             d="m 3034.02,1691.04 c -0.61,-25.14 -2.5,-50.45 -0.24,-75.56 1.32,-11.37 3.43,-22.07 6.71,-33.06 1.53,-4.6 3.15,-9.06 5.04,-13.55 6.36,-13.94 13.89,-25.45 24.26,-36.75 2.47,-2.36 4.94,-4.72 7.37,-7.08 8.92,-7.56 18.29,-14.57 29.12,-19.15 2.73,-0.72 5.4,-1.46 8.11,-2.21 9.87,-1.32 17.82,-0.57 27.33,2.19 2.39,0.94 4.76,1.82 7.11,2.72 11.9,5.75 20.92,12.88 28.98,23.32 3.85,5.58 6.42,10.68 8.62,17.08 12.33,48.42 -7.32,38.84 -31.31,34.62 -14.91,4.84 -29.65,12.5 -41.97,22.19 -14.77,12.08 -27.58,26.27 -40.18,40.54 -13.05,14.87 -25.99,29.79 -38.95,44.7 v 0"
             style="fill:#040606;fill-opacity:1;fill-rule:evenodd;stroke:none"
             id="path87" />
          <path
             d="m 3050.91,1644.19 c -1.7,-48.71 12.49,-93.27 56.85,-119.07 24.63,-14.87 64.35,12.7 62.52,38.78 -13.63,-2.88 -38.32,9.04 -51.25,16.16 -23.04,12.67 -45.35,37.93 -68.12,64.13 v 0"
             style="fill:#ffffff;fill-opacity:1;fill-rule:evenodd;stroke:none"
             id="path89" />
          <path
             d="m 3578.59,2507.21 c 169.26,71.87 273.34,-7.84 -13.45,-140.95 87.02,75.24 122.63,121.03 13.45,140.95 v 0"
             style="fill:#ffffff;fill-opacity:1;fill-rule:evenodd;stroke:none"
             id="path91" />
          <path
             d="m 3182.34,1530.22 c 2.85,-28.3 -13.89,-59.26 -57.21,-58.26 -16.18,4.94 -18.48,21.56 -12.86,30 16.86,-16.34 49.28,2.86 70.07,28.26 v 0"
             style="fill:#ffffff;fill-opacity:1;fill-rule:evenodd;stroke:none"
             id="path93" />
          <path
             d="m 3059.92,2259.2 c -25.49,-6.84 -37.25,-3.4 -49.66,-3.29 -1.29,0.02 -2.59,0.06 -3.79,0.14 0.04,-1.18 0.03,-2.35 -0.11,-3.4 -0.4,-3.69 -1.93,-6.42 -4.4,-7.19 -4.64,-1.44 -10.92,4.51 -14,13.3 -1.75,5.1 -2.07,10.05 -1.11,13.59 1.91,9.61 12.09,21 21.27,27.1 4.37,-32.67 30.28,-45.11 51.8,-40.25 v 0"
             style="fill:#ffffff;fill-opacity:1;fill-rule:evenodd;stroke:none"
             id="path95" />
          <path
             d="m 3059.92,2259.2 c -25.49,-6.84 -37.25,-3.4 -49.66,-3.29 l -3.79,0.14 -0.11,-3.4 c 0,-3.69 -1.93,-6.42 -4.4,-7.19 -4.64,-1.44 -10.92,4.51 -14,13.3 -1.75,5.1 -2.07,10.05 -1.11,13.59 1.91,9.61 12.09,21 21.27,27.1 4.37,-32.67 30.28,-45.11 51.8,-40.25 z"
             style="fill:none;stroke:#ffffff;stroke-width:0.57115;stroke-linecap:butt;stroke-linejoin:miter;stroke-miterlimit:22.9256;stroke-dasharray:none;stroke-opacity:1"
             id="path97" />
          <path
             d="m 2984.17,1897.32 c -15.46,-39.14 -21.29,-109.08 -4.73,-145.38 -56.49,10.28 -85.21,68.25 -96.64,113.49 0.47,0.27 0.9,0.5 1.35,0.76 0.82,0.29 1.59,0.54 2.39,0.83 32.53,10.1 65.1,20.18 97.63,30.3 v 0"
             style="fill:#040606;fill-opacity:1;fill-rule:evenodd;stroke:none"
             id="path99" />
          <path
             d="m 2956.43,1858.32 c -3.71,-23.18 -4.16,-51.37 0.24,-80.16 -22.62,10.14 -38.52,34 -48.92,57.45 -16.97,22.59 6.26,20.05 21.67,25.59 15.4,5.56 32.95,18.4 27.01,-2.88 v 0"
             style="fill:#ffffff;fill-opacity:1;fill-rule:evenodd;stroke:none"
             id="path101" />
          <path
             d="m 2715.14,1840 2.3,0.06 c 22.65,-2.13 46.99,-1.31 73,2.44 l 4.67,0.17 c 3.08,0.47 6.18,0.97 9.33,1.54 2.17,0.43 4.41,0.85 6.64,1.32 -9.6,-24.11 2.28,-73.49 21.16,-132.55 -92.28,31.73 -126.14,85.04 -133.96,129.34 5.41,-0.95 11.02,-1.72 16.86,-2.32 v 0"
             style="fill:#040606;fill-opacity:1;fill-rule:evenodd;stroke:none"
             id="path103" />
          <path
             d="m 2715.14,1840 2.3,0.06 c 22.65,-2.13 46.99,-1.31 73,2.44 l 4.67,0.17 c 3.08,0.47 6.18,0.97 9.33,1.54 2.17,0.43 4.41,0.85 6.64,1.32 -9.6,-24.11 2.28,-73.49 21.16,-132.55 -92.28,31.73 -126.14,85.04 -133.96,129.34 5.41,-0.95 11.02,-1.72 16.86,-2.32 z"
             style="fill:none;stroke:#070b0d;stroke-width:0.57115;stroke-linecap:butt;stroke-linejoin:miter;stroke-miterlimit:22.9256;stroke-dasharray:none;stroke-opacity:1"
             id="path105" />
          <path
             d="m 2728.21,1804.78 c 16.95,-29.44 48.08,-58.02 85.36,-71.36 -11.73,23.45 -18.46,48.02 -20.26,71.92 -2.36,31.23 -13.21,17.11 -35.13,16.88 -20.07,-0.2 -50.25,9.72 -29.97,-17.44 v 0"
             style="fill:#ffffff;fill-opacity:1;fill-rule:evenodd;stroke:none"
             id="path107" />
          <path
             d="m 4155.65,1079.38 93.72,167.31 h 86.47 c 27.07,0 44.29,-3.75 51.71,-11.24 7.34,-7.49 6.23,-19.82 -3.37,-36.92 -5.72,-10.22 -12.83,-18.68 -21.34,-25.44 -8.51,-6.74 -18.86,-12.09 -30.92,-16.01 8.93,-1.97 14.1,-5.86 15.41,-11.67 1.37,-5.78 -0.99,-14.27 -6.9,-25.48 l -12.09,-23.3 c -0.09,-0.15 -0.16,-0.35 -0.19,-0.55 -3.5,-6.67 -3.72,-10.16 -0.69,-10.47 l -3.52,-6.23 h -58.5 c 1.22,4.03 2.36,7.51 3.51,10.5 1.11,2.98 2.16,5.3 3.1,6.98 l 9.36,16.72 c 4.82,8.61 6.38,14.69 4.68,18.21 -1.68,3.54 -7.09,5.28 -16.2,5.28 l -24.63,0.01 -32.35,-57.7 z m 110.72,95.42 h 26.4 c 9.23,0 16.26,1.16 21.04,3.45 4.84,2.34 8.85,6.36 12.06,12.1 3.32,5.9 3.84,10 1.65,12.32 -2.26,2.31 -8.47,3.46 -18.67,3.46 l -24.92,0.01 z m -294.14,-95.42 93.71,167.31 h 144.4 l -22.46,-40.09 h -86.37 l -12.48,-22.31 h 73.02 l -21.52,-38.38 h -73 l -14.47,-25.87 h 89.9 l -22.77,-40.66 z m -78.59,0 5.28,14.41 c -10.19,-6.43 -20.74,-11.21 -31.75,-14.35 -10.98,-3.13 -22.65,-4.74 -34.89,-4.74 -25.85,0 -41.79,7.88 -47.91,23.58 -6.08,15.72 -1.47,37.23 13.86,64.61 15.65,27.93 36.06,49.6 61.33,65.04 25.22,15.39 52.82,23.11 82.76,23.11 23.55,0 39.54,-5.43 47.86,-16.25 8.41,-10.82 8.43,-26.1 0.08,-45.79 h -55.07 c 1.51,6.66 0.8,11.74 -2.2,15.22 -3.01,3.5 -8.17,5.25 -15.43,5.25 -11.62,0 -22.65,-4.11 -33.02,-12.37 -10.39,-8.26 -20.17,-20.6 -29.35,-36.96 -8.46,-15.11 -11.91,-26.43 -10.32,-33.96 1.65,-7.48 8.38,-11.26 20.21,-11.26 8.51,0.01 16.78,1.83 24.74,5.52 8.03,3.69 14.43,8.6 19.3,14.81 h -26.14 l 20.04,35.8 h 79.39 l -51.33,-91.67 z m -334.48,0 93.71,167.31 h 86.5 c 27.09,0 44.27,-3.75 51.7,-11.24 7.38,-7.49 6.24,-19.82 -3.33,-36.92 -5.74,-10.22 -12.87,-18.68 -21.38,-25.44 -8.52,-6.74 -18.85,-12.09 -30.92,-16.01 8.95,-1.97 14.08,-5.86 15.41,-11.67 1.38,-5.78 -0.96,-14.27 -6.89,-25.48 l -12.09,-23.3 c -0.08,-0.15 -0.16,-0.35 -0.19,-0.55 -3.48,-6.67 -3.72,-10.16 -0.71,-10.47 l -3.48,-6.23 h -58.52 c 1.22,4.03 2.36,7.51 3.49,10.5 1.14,2.98 2.19,5.3 3.11,6.98 l 9.38,16.72 c 4.81,8.61 6.38,14.69 4.64,18.21 -1.69,3.54 -7.08,5.28 -16.17,5.28 l -24.63,0.01 -32.32,-57.7 z m 110.73,95.42 h 26.39 c 9.28,0 16.28,1.16 21.07,3.45 4.83,2.34 8.84,6.36 12.05,12.1 3.32,5.9 3.87,10 1.64,12.32 -2.22,2.31 -8.46,3.46 -18.67,3.46 l -24.92,0.01 z m -230.52,71.89 h 58.01 l -57.75,-103.15 c -5.32,-9.53 -7.02,-16.32 -4.96,-20.35 1.99,-4.07 8.07,-6.08 18.11,-6.08 9.82,0 17.93,1.97 24.37,5.95 6.44,3.97 12.38,10.84 17.79,20.48 l 57.79,103.15 h 58.03 l -60.1,-107.33 c -11.77,-20.99 -28,-37.01 -48.82,-48.05 -20.81,-11.05 -45.05,-16.61 -72.79,-16.61 -27.9,0 -46.11,5.56 -54.64,16.65 -8.49,11.1 -6.9,27.1 4.82,48 z m -292.03,-167.31 93.72,167.31 h 74.14 c 15.95,0 27.33,-0.39 34.2,-1.11 6.87,-0.79 12.41,-2.03 16.65,-3.78 7.42,-3.17 11.62,-8.12 12.73,-14.88 1.11,-6.74 -1.06,-14.93 -6.44,-24.56 -4.24,-7.56 -9.77,-14.18 -16.55,-19.81 -6.81,-5.65 -14.87,-10.27 -24.24,-13.91 7.84,-3.19 12.22,-7.94 13.27,-14.32 1,-6.35 -1.33,-14.61 -7.02,-24.73 -5.55,-9.93 -12.61,-18.54 -21.18,-25.87 -8.51,-7.29 -18.16,-12.91 -28.9,-16.86 -7.24,-2.72 -14.88,-4.67 -22.86,-5.79 -7.94,-1.13 -20.46,-1.71 -37.49,-1.71 z m 112.64,100.5 h 23.9 c 8.05,0 14.31,1.08 18.83,3.29 4.5,2.23 8.19,5.9 11.13,11.14 3.1,5.54 3.45,9.29 1.09,11.35 -2.39,2.06 -9.95,3.07 -22.72,3.07 l -16.08,0.01 z m -34.41,-61.43 h 26.88 c 8.89,0 15.91,1.2 21.01,3.64 5.14,2.42 9.26,6.4 12.35,11.92 3.08,5.51 3.34,9.46 0.79,11.78 -2.46,2.38 -8.26,3.53 -17.35,3.53 h -26.4 z m -244.89,13.08 h 56.44 c -1.83,-6.04 -1.48,-10.44 1.14,-13.08 2.6,-2.66 7.95,-3.98 16.02,-3.98 6.81,0 12.72,1.07 17.82,3.24 5.11,2.15 8.69,5.11 10.82,8.93 3.39,6.06 -1.96,10.97 -16.1,14.77 -2.83,0.74 -5.04,1.32 -6.53,1.71 -11.53,3.19 -20.57,6.05 -26.96,8.67 -6.47,2.62 -10.85,5.05 -13.15,7.34 -4.38,4.64 -6.47,10.15 -6.34,16.6 0.14,6.45 2.47,13.76 7.11,22.04 9.31,16.59 23.33,29.62 42.13,39.07 18.84,9.46 40.01,14.2 63.64,14.2 23.25,0 39,-4.54 47.25,-13.58 8.25,-9.06 8.51,-22.02 0.8,-38.93 l -55.08,0.01 c 1.85,4.91 1.53,8.59 -0.9,11.02 -2.41,2.44 -7.22,3.62 -14.24,3.62 -6.17,0.02 -11.33,-0.93 -15.44,-2.82 -4.08,-1.9 -7.19,-4.78 -9.37,-8.65 -3.06,-5.5 2.22,-10.16 16.03,-13.84 1.2,-0.37 2.1,-0.67 2.74,-0.81 2.01,-0.51 5.04,-1.32 9.09,-2.37 18.27,-4.92 29.52,-9.39 33.7,-13.42 5.31,-4.92 7.98,-10.5 8.12,-16.84 0.18,-6.26 -2.14,-13.67 -6.92,-22.25 -10.35,-18.45 -25.25,-32.65 -44.76,-42.57 -19.49,-9.93 -42.27,-14.91 -68.28,-14.91 -23.97,0 -40.18,4.97 -48.63,14.91 -8.49,9.94 -8.53,23.88 -0.15,41.92 z m -99.33,-52.15 5.27,14.41 c -10.18,-6.43 -20.77,-11.21 -31.75,-14.35 -10.97,-3.13 -22.63,-4.74 -34.89,-4.74 -25.85,0 -41.79,7.88 -47.91,23.58 -6.07,15.72 -1.48,37.23 13.87,64.61 15.64,27.93 36.05,49.6 61.33,65.04 25.21,15.39 52.82,23.11 82.76,23.11 23.54,0 39.5,-5.43 47.85,-16.25 8.41,-10.82 8.41,-26.1 0.08,-45.79 h -55.1 c 1.52,6.66 0.83,11.74 -2.17,15.22 -3.02,3.5 -8.17,5.25 -15.46,5.25 -11.59,0 -22.61,-4.11 -32.98,-12.37 -10.37,-8.26 -20.18,-20.6 -29.36,-36.96 -8.46,-15.11 -11.93,-26.43 -10.31,-33.96 1.64,-7.48 8.35,-11.26 20.2,-11.26 8.52,0.01 16.78,1.83 24.75,5.52 8.03,3.69 14.41,8.6 19.3,14.81 h -26.17 l 20.07,35.8 h 79.39 l -51.34,-91.67 z m -254.29,167.31 h 58.04 l -57.77,-103.15 c -5.34,-9.53 -7.03,-16.32 -4.96,-20.35 2.01,-4.07 8.07,-6.08 18.11,-6.08 9.8,0 17.94,1.97 24.38,5.95 6.45,3.97 12.37,10.84 17.8,20.48 l 57.76,103.15 h 58.06 l -60.14,-107.33 c -11.74,-20.99 -28,-37.01 -48.81,-48.05 -20.79,-11.05 -45.06,-16.61 -72.79,-16.61 -27.87,0 -46.09,5.56 -54.64,16.65 -8.47,11.1 -6.88,27.1 4.83,48 z m -299.63,-167.31 157.3,167.31 h 58.74 l -30.16,-167.31 h -57.55 l 5.67,22.14 h -57.56 l -19.4,-22.14 z m 106.64,57.22 h 36.44 l 14.45,57.95 -50.89,-57.95 v 0"
             style="fill:#c21d2b;fill-opacity:1;fill-rule:evenodd;stroke:none"
             id="path109" />
        </g>
      </g>
    </g>
  </g>
</svg>
