<?xml version="1.0" encoding="UTF-8"?>
<svg id="Ebene_1" data-name="Ebene 1" xmlns="http://www.w3.org/2000/svg" viewBox="0 0 165.75 183.25">
  <defs>
    <style>
      .cls-1 {
        fill: none;
      }

      .cls-1, .cls-2, .cls-3, .cls-4, .cls-5 {
        stroke-width: 0px;
      }

      .cls-3 {
        fill: #1d1d1b;
      }

      .cls-4 {
        fill: #d61726;
      }

      .cls-5 {
        fill: #fff;
      }
    </style>
  </defs>
  <g>
    <path class="cls-3" d="m55.03,134.63l-6.22-4.54h-.01s-7.28,9.95-7.28,9.95h0s6.4,4.69,6.4,4.69c.82.6,1.6.9,2.32.9.05,0,.1-.01.15-.02,0,0,0,0,0,0,.76-.05,1.42-.43,1.96-1.17l.74-1.02c.71-.97.72-1.83.05-2.79.17.03.33.04.47.04.07,0,.12-.02.19-.02.02,0,.04,0,.05,0,.19-.02.36-.07.51-.13,0,0,.02,0,.03-.01.35-.16.6-.42.81-.71l.83-1.13c1.06-1.46.74-2.73-1.01-4.02Zm-7.52.9l2-2.73,4.3,3.14c.7.51.82.97.41,1.54l-.7.96c-.27.36-.55.54-.87.54-.27,0-.58-.13-.94-.4l-4.19-3.06Zm-3.19,4.36l2.13-2.92,4.41,3.23c.44.32.69.63.78.93.08.3,0,.62-.26.97l-.69.94c-.26.36-.55.53-.88.53-.3,0-.63-.14-1.02-.42l-4.47-3.27Zm5.36,3.69c-.06,0-.12-.02-.19-.04.06.02.13.03.19.04Zm-.55-.19s-.08-.04-.11-.06c.04.02.08.05.11.06Zm3.39-4.39c-.05,0-.1-.02-.16-.04.05.02.11.03.16.04Zm-.52-.18s-.05-.03-.08-.05c.03.01.05.03.08.05Zm1.62,1.83s-.1-.01-.15-.01c.06,0,.13,0,.19,0-.01,0-.02,0-.03,0Zm.46-.06s.09-.02.13-.03c-.04.01-.08.02-.13.03Zm.55-.25s-.06.04-.09.06c.03-.02.06-.04.09-.06Zm6.17-2.28l9.99,3.6h0s-.65,1.81-.65,1.81h-.01s-7.94-2.87-7.94-2.87l-1.09,3.02,6.98,2.52h0s-.65,1.81-.65,1.81h-.01s-6.96-2.52-6.96-2.52l-1.14,3.16,7.98,2.88h0s-.65,1.81-.65,1.81h-.01s-10.02-3.62-10.02-3.62h0s4.18-11.62,4.18-11.62h.01Zm24.64,10.22l.13-1.91c.08-1.12-.18-1.93-.77-2.5-.6-.56-1.55-.88-2.9-.97l-7.3-.5h-.02l-.84,12.3h0s2.18.16,2.18.16l.27-4.01,4.96.34,2.4,4.15.03.05,2.44.17h.03s-2.6-4.51-2.6-4.51c1.25-.35,1.88-1.23,1.98-2.77Zm-8.81-3.81l5.25.36c.67.05,1.07.18,1.29.45.19.23.25.56.21,1.13l-.11,1.58c-.06.91-.29,1.37-1.38,1.37-.1,0-.21,0-.33-.01l-5.25-.36.31-4.51Zm24.51,6.27l.42,1.89h-.01s-9.47,2.11-9.47,2.11h0s-2.68-12.05-2.68-12.05h.01s2.11-.47,2.11-.47h0s2.26,10.15,2.26,10.15l7.36-1.64h0Zm1.7-11.78l4.49,11.49h-.01s-2.02.79-2.02.79h0s-4.49-11.5-4.49-11.5h.01s2.02-.79,2.02-.79h0Zm21.18,1.36h-.01s-2.17,1.49-2.17,1.49l-.05-.02-11.41-3.71,5.4,7.88h-.01s-1.71,1.18-1.71,1.18h0s-6.97-10.18-6.97-10.18h.01s2.17-1.5,2.17-1.5l.04.02,11.41,3.71-5.4-7.88h.01s1.71-1.18,1.71-1.18h0s6.97,10.18,6.97,10.18Z"/>
    <g>
      <path id="Outline" class="cls-2" d="m82.77,29.71l-4.5-1.93-29.47,9.03-4.87,7.82h-11.47l-4.8,9.83,7.82,6.97-2.41,25.81,6.34,15.18v11.21h7.14v6.28s4.74.52,4.74.52l11.03,5.4v6.24h8.68l3.88,3.26h15.81l3.88-3.26h8.68v-6.24l11.03-5.4,4.74-.52v-6.28s7.13,0,7.13,0v-11.21l6.35-15.18-2.41-25.81,7.83-6.97-4.8-9.83h-11.47l-4.87-7.82-29.47-9.03-4.51,1.93"/>
      <polyline class="cls-5" points="82.78 32.03 87.43 30.06 115.39 38.62 120.46 46.77 131.78 46.77 135.28 53.94 127.87 60.55 130.32 86.9 124.02 101.98 124.02 111.49 116.87 111.48 116.87 117.98 113.68 118.34 103.25 123.43 103.25 111.23 102.88 111.23 101.1 124.32 101.1 126.29 101.11 129.92 93.79 129.92 89.91 133.18 75.67 133.18 71.78 129.92 64.47 129.92 64.48 126.29 64.48 124.32 62.69 111.23 62.32 111.23 62.32 123.43 51.9 118.34 48.7 117.98 48.7 111.48 41.56 111.49 41.56 101.98 35.26 86.9 37.71 60.55 30.29 53.94 33.79 46.77 45.11 46.77 50.19 38.62 78.15 30.06 82.78 32.03"/>
      <path class="cls-3" d="m97.35,91.01l2.3-4.82-4.76-22.3,2.22,21.94-2.48,3.38h-10.4s.02-2.97.76-3.61c.41-.36,1-.27,1.39.07.32.29.31.73.31.73v.77c.98.5,2.92.35,2.92.35l2.13-7.56s-2.59-1.48-4.31-2.09h-9.15c-1.71.61-4.3,2.09-4.3,2.09l2.13,7.56s1.94.15,2.92-.35v-.77s0-.44.32-.73c.39-.34.97-.43,1.39-.07.73.64.76,3.61.76,3.61h-10.41l-2.48-3.38,2.22-21.94-4.76,22.3,2.3,4.82,2.31,13.12-3.07,17.91,6.85,6.03h8.4s8.41,0,8.41,0l6.86-6.03-3.08-17.91,2.31-13.12Zm-22.89,8.26l-2.54-7.73h2.54v7.73Zm.48,26.79v-7.73l2.54,7.73h-2.54Zm2.3-30.81l-1.06-3.71h2.54l-1.48,3.71Zm2.37,30.81l1.07-3.71,1.53,3.71h-2.6Zm1.07-30.81l-1.07-3.71h2.6l-1.53,3.71Zm3.16,30.81l1.54-3.71,1.07,3.71h-2.6Zm1.54-30.81l-1.54-3.71h2.6l-1.07,3.71Zm4.49-3.71l-1.06,3.71-1.48-3.71h2.54Zm1.24,34.52h-2.54l2.54-7.73v7.73Zm.48-26.79v-7.73h2.54l-2.54,7.73Z"/>
      <polygon id="Zunge" class="cls-4" points="90.43 100.35 88.47 100.35 82.98 103.72 77.5 100.35 75.53 100.35 78.69 106.95 75.53 116.66 90.43 116.66 87.27 106.95 90.43 100.35"/>
      <path id="Auge_l" data-name="Auge l" class="cls-3" d="m94.68,53.8v8.61s-2.65-12.46-2.65-12.46c0,0,2.9-1.36,6.43-2.07,1.93-.38,8.08-1.26,8.08-1.26l-8.54,3s-.36,1.69-.84,2.36c-.89,1.23-2.48,1.83-2.48,1.83Z"/>
      <path id="Auge_r" data-name="Auge r" class="cls-3" d="m71.12,53.8v8.61s2.65-12.46,2.65-12.46c0,0-2.9-1.36-6.43-2.07-1.94-.38-8.08-1.26-8.08-1.26l8.54,3s.36,1.69.85,2.36c.9,1.23,2.48,1.83,2.48,1.83Z"/>
      <path class="cls-3" d="m75.12,49.94l-.21,1.58,7.96-1.85c0-1.92,0-9.55,0-14.93l-1.13-.61v14.23l-6.61,1.59Z"/>
      <path class="cls-3" d="m90.59,49.94l-6.42-1.54v1.58l6.64,1.54-.22-1.58Z"/>
    </g>
  </g>
  <rect class="cls-1" width="165.75" height="183.25"/>
</svg>