<?xml version="1.0" encoding="UTF-8" standalone="no"?>
<!-- Created with Inkscape (http://www.inkscape.org/) -->

<svg
   version="1.1"
   id="svg355"
   width="230"
   height="250"
   viewBox="0 0 230 250"
   xmlns="http://www.w3.org/2000/svg"
   xmlns:svg="http://www.w3.org/2000/svg">
  <defs
     id="defs359" />
  <g
     id="g363"
     transform="matrix(1.3333333,0,0,-1.3333333,0,1056)">
    <g
       id="g365"
       transform="matrix(0.1,0,0,0.1,2.6763612,610.21036)">
      <path
         d="m 1132.85,1427.43 34.29,56.68 20.82,-68.55 -1,-30.49 -4.8,-21.54 2.95,-3.82 15.62,22.33 12.46,16.05 32.35,-41.35 -17.82,-52.24 1.87,-2.43 94,89.67 1.94,-1.61 36.64,-30.45 0.26,-0.21 -1.93,-2.96 -55.4,-105.29 33.77,19.54 17.03,-24.01 14.43,-16.4 -32.83,-37.08 104.52,48.43 -30.52,-73.72 -5.31,-29.76 -34.45,-20.36 317.52,-411.485 -243.64,-299.18 h 123.67 L 1469.76,205.504 1589.79,5.48047 H 110.504 L 231.758,206.926 130.891,409.355 H 250.477 L 1.13281,706.418 334.785,1123.47 l -24.965,14.76 -3.937,22.19 -33.52,81.22 107.289,-49.71 -27.269,30.79 -6.867,5.89 0.73,1.03 -0.613,0.7 5.734,6.52 24.055,33.9 36.277,-20.99 -48.59,92.34 1.2,74.02 26.316,-24.39 90.063,-85.9 5.007,6.27 -9.304,27.37 3.343,59.63 46.922,-35.8 5.688,7.11 -3.266,14.63 -0.777,23.09 20.301,53.43 31.332,-31.67 280.476,350.59 272.44,-353.06"
         style="fill:#ffffff;fill-opacity:1;fill-rule:nonzero;stroke:none"
         id="path367" />
      <path
         d="m 1155.05,744.762 v 173.617 h 44.1 v 22.969 h 38 v -23.821 h 40.46 V 490.898 h -123.14 l 0.58,253.864"
         style="fill:#656263;fill-opacity:1;fill-rule:nonzero;stroke:none"
         id="path369" />
      <path
         d="M 860.008,1734.61 37.7813,706.848 583.195,57.0508 1120.61,53.0117 1653.09,706.848 860.008,1734.61"
         style="fill:#131b42;fill-opacity:1;fill-rule:nonzero;stroke:none"
         id="path371" />
      <path
         d="M 858.938,1625.8 C 1095.04,1319.85 1331.17,1013.88 1567.32,707.887 L 1041.47,68.9961 669.523,62.0273 124.633,707.887 858.938,1625.8"
         style="fill:#ffffff;fill-opacity:1;fill-rule:nonzero;stroke:none"
         id="path373" />
      <path
         d="m 556.656,1408.25 0.664,-19.61 39.25,-175.82 -91.324,129.84 44.609,-131.24 39.915,-47.98 -199.54,188.01 102.836,-195.45 -109.628,74.41 115.054,-129.89 -167.109,78.44 4.074,-22.96 215.117,-127.17 71.641,6.72 229.781,-163.765 0.309,-3.281 5.172,-0.621 0.16,-0.016 0.324,0.016 0.383,-0.016 0.113,0.016 5.242,0.621 0.266,3.281 229.795,163.765 71.7,-6.72 215.11,127.17 4.09,22.96 -167.1,-78.44 114.96,129.89 -109.55,-74.41 102.83,195.45 -199.55,-188.01 39.87,47.98 44.64,131.24 -91.29,-129.84 39.25,175.82 0.64,19.61 -140.01,-231.29 12.85,33.78 -0.66,110.24 -66.95,-137.23 7.437,36.5 -12.203,136.61 -7.445,12.85 -50.063,-240.82 1.391,108.97 -45.363,114.97 -0.383,-2.04 -0.324,2.04 -45.344,-114.97 1.383,-108.97 -50.039,240.82 -7.438,-12.85 -12.183,-136.61 7.437,-36.5 -66.965,137.23 -0.656,-110.24 12.856,-33.78 -140.032,231.29"
         style="fill:#fff200;fill-opacity:1;fill-rule:nonzero;stroke:none"
         id="path375" />
      <path
         d="m 434.207,401.133 -186.703,178.551 40.605,93.332 127.133,231.32 181.321,60.902 -6.793,39.232 -162.325,-1.37 205.625,63.59 78.485,-59.53 146.082,-127.148 152.843,131.198 71.69,51.45 196.17,-60.9 h -158.3 l -2.69,-29.733 196.15,-70.39 119.09,-216.438 29.07,-103.066 L 1322.46,420.754 1157.59,214.422 1013.17,39.8906 681.176,44 549.309,205.133 l -115.102,196"
         style="fill:#000000;fill-opacity:1;fill-rule:nonzero;stroke:none"
         id="path377" />
      <path
         d="m 293.523,590.484 117.7,232.719 212.39,-101.488 4.047,-59.512 215.055,-162.363 13.531,-37.867 13.512,39.222 215.132,165.09 9.49,109.559 101.44,32.457 78.45,-44.668 -66.26,81.211 -106.9,-24.36 43.31,52.739 48.69,18.984 -60.86,8.109 -25.73,-29.793 8.11,77.094 194.86,-101.453 75.72,-165.039 33.84,-96.043 L 1234.68,343.754 1153.03,226.992 1004.27,64.5938 747.176,57.0742 681.777,46.3633 584.301,180.098 484.531,388.859 293.523,590.484"
         style="fill:#ffffff;fill-opacity:1;fill-rule:nonzero;stroke:none"
         id="path379" />
      <path
         d="m 438.266,856.992 161.015,83.887 21.633,-204.27 z"
         style="fill:#ffffff;fill-opacity:1;fill-rule:nonzero;stroke:none"
         id="path381" />
      <path
         d="m 366.555,667.605 87.929,66.286 116.356,-91.989 -116.356,43.305 -89.269,-29.793 1.34,12.191"
         style="fill:#000000;fill-opacity:1;fill-rule:nonzero;stroke:none"
         id="path383" />
      <path
         d="m 366.555,598.613 58.172,25.719 90.644,-242.148 33.832,-31.161 -50.055,32.477 -132.593,215.113"
         style="fill:#000000;fill-opacity:1;fill-rule:nonzero;stroke:none"
         id="path385" />
      <path
         d="m 524.871,608.105 52.692,-213.773 -1.309,39.234 50.07,75.793 -101.453,98.746"
         style="fill:#000000;fill-opacity:1;fill-rule:nonzero;stroke:none"
         id="path387" />
      <path
         d="m 998.324,529.629 17.566,41.953 186.72,188.027 98.76,-47.351 25.67,-45.973 -113.61,40.563 -215.106,-177.219"
         style="fill:#000000;fill-opacity:1;fill-rule:nonzero;stroke:none"
         id="path389" />
      <path
         d="M 1249.93,624.332 1033.49,522.871 771.816,365.953 l -4.082,-82.539 17.598,74.422 166.957,94.668 66.311,36.535 39.22,-60.867 -4.02,83.871 36.49,-21.688 -4.04,-101.441 33.79,89.313 33.83,-24.348 96.06,170.453"
         style="fill:#000000;fill-opacity:1;fill-rule:nonzero;stroke:none"
         id="path391" />
      <path
         d="m 657.445,652.695 59.493,-263.781 -2.688,-66.293 13.539,89.313 -36.555,220.492 -33.789,20.269"
         style="fill:#000000;fill-opacity:1;fill-rule:nonzero;stroke:none"
         id="path393" />
      <path
         d="m 624.945,1013.92 235.403,-160.963 220.492,152.863 2.72,-4.07 L 1048.39,677.082 884.676,549.93 952.309,747.41 854.91,806.93 761.594,746.074 823.77,548.539 662.848,675.727 624.945,1013.92"
         style="fill:#ffffff;fill-opacity:1;fill-rule:nonzero;stroke:none"
         id="path395" />
      <path
         d="m 676.387,938.188 27.039,-4.11 133.898,-108.164 -75.73,-17.613 -6.758,2.726 -56.809,91.981 -21.64,35.18"
         style="fill:#000000;fill-opacity:1;fill-rule:nonzero;stroke:none"
         id="path397" />
      <path
         d="m 705.594,915.582 3.523,-5.73 54.207,-87.77 45.039,10.477 -102.769,83.023"
         style="fill:#131b42;fill-opacity:1;fill-rule:evenodd;stroke:none"
         id="path399" />
      <path
         d="m 751.941,878.285 c -3.277,-3.922 -5.242,-8.961 -5.242,-14.508 0,-2.136 0.344,-4.175 0.86,-6.175 l 7.171,-11.254 c 4.028,-3.442 9.262,-5.594 14.989,-5.594 7.511,0 14.105,3.629 18.32,9.18 l -36.098,28.351"
         style="fill:#ed1c25;fill-opacity:1;fill-rule:nonzero;stroke:none"
         id="path401" />
      <path
         d="m 1042.93,938.188 -27.04,-4.11 -133.933,-108.164 75.742,-17.613 6.817,2.726 56.774,91.981 21.64,35.18"
         style="fill:#000000;fill-opacity:1;fill-rule:nonzero;stroke:none"
         id="path403" />
      <path
         d="m 1013.73,915.578 -102.808,-83.023 45.098,-10.485 54.18,87.77 3.53,5.738"
         style="fill:#131b42;fill-opacity:1;fill-rule:evenodd;stroke:none"
         id="path405" />
      <path
         d="m 967.367,878.285 c 3.285,-3.922 5.242,-8.961 5.242,-14.508 0,-2.136 -0.293,-4.175 -0.851,-6.175 l -7.168,-11.254 c -4.039,-3.442 -9.219,-5.594 -14.957,-5.594 -7.52,0 -14.121,3.629 -18.356,9.18 l 36.09,28.351"
         style="fill:#ed1c25;fill-opacity:1;fill-rule:nonzero;stroke:none"
         id="path407" />
      <path
         d="m 857.637,901.637 -65.61,64.254 66.274,-25.668 59.492,26.328 -60.156,-64.914"
         style="fill:#000000;fill-opacity:1;fill-rule:nonzero;stroke:none"
         id="path409" />
      <path
         d="M 1388.05,1185.45 1158,1078.84 l 36.81,-17.77 186.11,107.16 z m -1061.831,0 7.105,-17.22 186.117,-107.16 36.844,17.77 z m 1004.481,47.84 -246.33,-142.56 124.33,37.79 z m -947.114,0 122,-104.77 124.332,-37.79 z m 647.664,103.75 -96.148,-216.19 86.608,98.06 z m -348.223,0 9.536,-118.13 86.605,-98.06 z m 526.173,7.66 -172.68,-246.75 115.27,117.18 z m -704.118,0 57.41,-129.57 115.285,-117.18 z m 819.808,9.1 -259.18,-247.26 164.06,101.38 z m -467.796,0 -20.594,-114.3 19.902,-100.18 0.27,-5.96 0.422,2.19 0.488,-2.19 v 4.37 l 20.16,101.77 -20.617,114.3 -0.031,-0.78 z m -467.766,0 95.203,-145.88 164.055,-101.38 z m 561.555,26.76 -52.125,-246.79 56.418,78.97 z m -187.52,0 -4.25,-167.82 56.352,-78.97 z m 395.117,34.47 -199.929,-330.51 149.659,142.08 z m -602.683,0 50.215,-188.43 149.738,-142.08 z"
         style="fill:#000000;fill-opacity:1;fill-rule:nonzero;stroke:none"
         id="path411" />
      <path
         d="m 853.563,774.461 -66.278,-29.734 67.633,-229.957 64.918,231.269 -66.273,28.422"
         style="fill:#ed1c25;fill-opacity:1;fill-rule:nonzero;stroke:none"
         id="path413" />
      <path
         d="m 854.918,706.141 -7.703,20.312 -7.668,20.266 h 30.762 l -7.696,-20.266 -7.695,-20.312"
         style="fill:#000000;fill-opacity:1;fill-rule:nonzero;stroke:none"
         id="path415" />
      <path
         d="m 371.121,462.953 h 970.159 v -84.101 h 182.41 L 1437.5,204.184 1539.73,33.8242 H 160.652 L 264.07,205.641 176.688,381.008 h 194.433 v 81.945"
         style="fill:#ed1c25;fill-opacity:1;fill-rule:evenodd;stroke:none"
         id="path417" />
      <path
         d="m 1292.47,409.488 v -255.8 l -876.454,1.289 v 254.511 h 876.454"
         style="fill:#ffffff;fill-opacity:1;fill-rule:evenodd;stroke:none"
         id="path419" />
      <path
         d="M 362.168,342.984 H 213.684 l 19.496,-38.722 h 128.988 v 38.722"
         style="fill:#ffffff;fill-opacity:1;fill-rule:evenodd;stroke:none"
         id="path421" />
      <path
         d="M 361.641,266.074 H 251.418 l 19.383,-42.347 h 90.84 v 42.347"
         style="fill:#ffffff;fill-opacity:1;fill-rule:evenodd;stroke:none"
         id="path423" />
      <path
         d="m 361.641,184.637 -91.446,0.648 -23.621,-39.09 h 115.067 v 38.442"
         style="fill:#ffffff;fill-opacity:1;fill-rule:evenodd;stroke:none"
         id="path425" />
      <path
         d="M 361.641,110.363 H 222.957 L 198.129,71.2695 h 163.512 v 39.0935"
         style="fill:#ffffff;fill-opacity:1;fill-rule:evenodd;stroke:none"
         id="path427" />
      <path
         d="m 1492.3,339.758 h -154.73 v -38.192 h 136.19 l 18.54,38.192"
         style="fill:#ffffff;fill-opacity:1;fill-rule:evenodd;stroke:none"
         id="path429" />
      <path
         d="m 1337.57,262.801 v -42.758 h 93.27 l 23.31,42.758 h -116.58"
         style="fill:#ffffff;fill-opacity:1;fill-rule:evenodd;stroke:none"
         id="path431" />
      <path
         d="m 1338.11,181.285 v -38.199 l 119.75,0.57 -23.84,38.196 -95.91,-0.567"
         style="fill:#ffffff;fill-opacity:1;fill-rule:evenodd;stroke:none"
         id="path433" />
      <path
         d="M 1337.57,106.602 V 68.9766 h 171.69 l -26.49,37.6254 h -145.2"
         style="fill:#ffffff;fill-opacity:1;fill-rule:evenodd;stroke:none"
         id="path435" />
      <path
         d="m 395.172,52 h 930.078 v 91.508 H 395.172 V 52"
         style="fill:#131b42;fill-opacity:1;fill-rule:evenodd;stroke:none"
         id="path437" />
      <path
         d="m 475.105,216.723 c 10.829,3.281 15.774,3.507 24.067,8.929 10.086,6.594 20.687,20.403 20.199,26.778 -0.484,6.273 -2.008,12.355 -7.98,14.57 -5.203,1.938 -13.453,2.695 -19.793,2.695 -5.727,0 -9.868,-0.691 -12.41,-2.054 -2.715,-1.461 -4.083,-4.7 -4.083,-9.711 v -41.207"
         style="fill:#ffffff;fill-opacity:1;fill-rule:evenodd;stroke:none"
         id="path439" />
      <path
         d="m 570.719,371.496 c -0.77,0 -1.625,0.152 -2.547,0.449 -4.313,1.418 -9.582,2.129 -15.797,2.129 -2.035,0 -4.375,-0.14 -7.027,-0.398 -2.653,-0.278 -5.61,-0.692 -8.844,-1.231 0.062,-6.488 0.062,-12.058 0,-16.718 5.078,1.25 9.289,1.871 12.621,1.871 6.215,0 11.637,-0.293 16.238,-0.868 4.313,-0.535 6.469,-2.835 6.469,-6.882 0,-1.973 -0.684,-3.618 -2.055,-4.934 -1.367,-1.316 -3.043,-1.973 -5.011,-1.973 -1.746,0 -4.344,0.137 -7.817,0.414 -3.476,0.262 -6.078,0.399 -7.824,0.399 -2.426,0 -6.637,-0.777 -12.621,-2.32 v -31.793 c 0,-1.973 -0.754,-3.618 -2.277,-4.93 -1.524,-1.316 -3.27,-1.973 -5.235,-1.973 -1.953,0 -3.512,0.657 -4.722,1.953 -1.2,1.301 -1.797,2.946 -1.797,4.934 v 58.113 c 0,1.317 0.019,3.325 0.066,5.989 0.051,2.668 0.09,4.656 0.09,5.988 0,1.988 0.648,3.652 1.965,4.965 1.336,1.316 2.992,1.972 4.996,1.972 1.265,0 2.379,-0.257 3.351,-0.757 3.868,0.675 7.43,1.175 10.68,1.488 3.231,0.328 6.156,0.484 8.754,0.484 3.82,0 8.609,-0.797 14.395,-2.371 7.234,-1.992 10.863,-4.308 10.863,-6.957 0,-1.922 -0.688,-3.582 -2.039,-4.969 -1.352,-1.382 -2.977,-2.074 -4.875,-2.074 z m 56.273,-3.445 c -1.594,0 -5.988,0.469 -13.176,1.418 -0.461,-6.211 -0.699,-14.485 -0.699,-24.797 l -0.054,-22.758 c 4.453,0.102 8.968,0.156 13.585,0.156 2.004,0 3.661,-0.675 4.981,-2.027 1.316,-1.348 1.984,-2.977 1.984,-4.879 0,-1.887 -0.668,-3.496 -2.019,-4.828 -1.352,-1.336 -3.043,-2.008 -5.098,-2.008 -1.918,0 -4.773,-0.035 -8.609,-0.121 -3.813,-0.086 -6.688,-0.137 -8.606,-0.137 -2.242,0 -5.625,-0.297 -10.129,-0.886 -4.515,-0.586 -7.886,-0.879 -10.14,-0.879 -2.055,0 -3.746,0.672 -5.102,2.004 -1.351,1.332 -2.019,2.961 -2.019,4.847 0,1.903 0.703,3.512 2.125,4.879 1.398,1.352 3.179,2.028 5.32,2.028 2.43,0 5.625,0.242 9.598,0.742 -0.071,3.98 -0.102,11.633 -0.102,22.914 0,9.187 0.34,17.961 1.008,26.304 l -10.883,-0.296 c -2,0 -3.676,0.66 -5.031,1.976 -1.348,1.313 -2.035,2.957 -2.035,4.914 0,1.988 0.652,3.617 1.949,4.863 1.199,1.161 2.672,1.817 4.418,1.989 2.836,0.261 7.801,0.398 14.847,0.398 6.352,0 14.528,-0.707 24.536,-2.129 3.988,-0.57 5.972,-2.906 5.972,-6.988 0,-2.164 -0.769,-3.879 -2.308,-5.125 -1.266,-1.055 -2.703,-1.574 -4.313,-1.574 z m 37.848,-63.028 c -8.488,0 -15.18,1.903 -20.055,5.727 -4.105,3.184 -6.16,6.855 -6.16,11.008 0,2.129 0.637,3.894 1.902,5.297 1.282,1.402 3.028,2.109 5.27,2.109 3.008,0 5.219,-1.559 6.621,-4.676 1.895,-4.152 6.211,-6.226 12.934,-6.226 5.73,0 11.308,1.261 16.683,3.808 5.574,2.594 8.363,5.45 8.363,8.567 0,4.258 -1.746,7.058 -5.218,8.41 -2.465,0.984 -7.426,1.555 -14.883,1.726 -5.785,0.141 -10.953,1.231 -15.535,3.29 -6.176,2.824 -9.223,6.839 -9.121,12.082 0.105,6.578 3.574,12.632 10.418,18.121 6.859,5.484 14.41,8.234 22.668,8.234 3.269,0 7.308,-0.762 12.132,-2.285 5.973,-1.883 8.969,-4.067 8.969,-6.539 0,-1.746 -0.601,-3.309 -1.797,-4.656 -1.355,-1.524 -3.066,-2.286 -5.168,-2.286 -1.574,0 -3.918,0.348 -7.047,1.02 -3.132,0.68 -5.496,1.008 -7.105,1.008 -4.309,-0.035 -8.398,-1.074 -12.266,-3.153 -4.023,-2.089 -6.019,-4.359 -6.019,-6.836 0,-1.281 0.613,-2.332 1.828,-3.164 1.215,-0.832 3.047,-1.402 5.492,-1.75 4.277,-0.242 8.535,-0.468 12.781,-0.707 7.407,-0.574 13.278,-2.683 17.586,-6.336 4.742,-4.066 7.117,-9.675 7.117,-16.839 0,-8.719 -4.906,-15.332 -14.73,-19.832 -7.492,-3.407 -16.047,-5.122 -25.66,-5.122 z m 97.875,57.09 c -3.008,0 -5.231,1.61 -6.672,4.813 -0.664,1.523 -1.332,2.441 -2,2.75 -0.496,0.226 -1.828,0.347 -3.969,0.347 -4.207,0 -9.07,-3.304 -14.578,-9.933 -7.719,-9.258 -11.582,-17.93 -11.582,-26.012 0,-3.687 1.215,-6.836 3.66,-9.484 2.446,-2.629 5.356,-3.946 8.778,-3.946 3.3,0 6.656,0.887 10.078,2.633 1.199,0.657 3.73,2.301 7.613,4.981 2.602,1.75 4.586,2.633 5.918,2.633 2,0 3.715,-0.743 5.121,-2.231 1.297,-1.387 1.949,-2.976 1.949,-4.762 0,-2.004 -0.875,-3.738 -2.601,-5.226 -9.188,-7.836 -18.547,-11.766 -28.078,-11.766 -7.528,0 -13.875,2.766 -19.039,8.305 -4.946,5.348 -7.43,11.633 -7.43,18.863 0,11.32 4.894,22.879 14.683,34.684 8.329,10 16.832,15.004 25.524,15.004 1.453,0 2.789,-0.055 3.969,-0.157 1.199,-0.105 2.242,-0.242 3.148,-0.449 1.457,1.453 3.234,2.18 5.305,2.18 3.406,0 5.511,-1.973 6.316,-5.938 0.563,-2.836 0.852,-6.14 0.852,-9.933 0,-1.696 -0.477,-3.235 -1.453,-4.617 -1.266,-1.821 -3.114,-2.739 -5.512,-2.739 z m 83.406,16.649 c -0.668,-2.473 -0.992,-4.637 -0.992,-6.473 0,-0.949 -0.102,-2.406 -0.27,-4.394 -0.191,-1.989 -0.277,-3.461 -0.277,-4.415 0,-3.218 -0.168,-8.011 -0.512,-14.363 -0.324,-6.332 -0.496,-11.125 -0.496,-14.344 0,-2.492 0.188,-6.179 0.547,-11.113 0.359,-4.914 0.547,-8.617 0.547,-11.094 0,-1.867 -0.652,-3.461 -1.949,-4.742 -1.301,-1.297 -2.926,-1.937 -4.86,-1.937 -1.988,0 -3.679,0.64 -5.117,1.906 -1.437,1.262 -2.152,2.801 -2.152,4.637 0,2.457 -0.106,6.16 -0.328,11.109 -0.219,4.934 -0.324,8.637 -0.324,11.094 0,1.922 0.035,3.633 0.105,5.121 -5.258,-0.238 -11.738,-1.055 -19.457,-2.473 -6.414,-1.176 -12.832,-2.371 -19.246,-3.586 -0.07,-2.144 -0.293,-5.722 -0.703,-10.742 -0.324,-4.433 -0.496,-8.051 -0.496,-10.851 0,-1.747 -0.649,-3.219 -1.95,-4.414 -1.3,-1.196 -2.925,-1.801 -4.859,-1.801 -1.934,0 -3.559,0.625 -4.859,1.886 -1.297,1.247 -1.95,2.79 -1.95,4.606 0,3.32 0.29,8.305 0.875,14.934 0.579,6.644 0.868,11.628 0.868,14.949 0,4.226 0.105,10.593 0.308,19.09 0.188,8.5 0.293,14.851 0.293,19.07 0,1.82 0.649,3.359 1.949,4.605 1.301,1.266 2.926,1.887 4.86,1.887 1.933,0 3.562,-0.641 4.859,-1.922 1.301,-1.281 1.949,-2.855 1.949,-4.726 0,-2.559 -0.086,-6.418 -0.269,-11.575 -0.192,-5.156 -0.277,-9.015 -0.277,-11.578 0,-0.847 -0.118,-2.472 -0.36,-4.863 -0.187,-2.23 -0.273,-3.945 -0.238,-5.121 l 19.246,3.648 c 7.527,1.332 14.012,2.114 19.457,2.321 0.133,2.285 0.34,8.445 0.648,18.449 0.067,2.629 0.856,5.641 2.344,9.07 1.863,4.203 4.004,6.297 6.363,6.297 1.782,0 3.356,-0.59 4.723,-1.781 1.473,-1.301 2.207,-2.91 2.207,-4.844 0,-0.508 -0.07,-1.008 -0.207,-1.527 z m 68.574,-9.864 c -2.597,0 -6.672,0.192 -12.179,0.555 -5.321,0.379 -9.375,0.555 -12.18,0.52 0.133,-3.864 0.578,-10.711 1.352,-20.578 0.699,-8.723 1.039,-15.61 1.039,-20.68 0,-1.16 0.121,-2.856 0.359,-5.125 0.227,-2.266 0.348,-3.977 0.348,-5.121 0,-2.524 -0.536,-4.809 -1.594,-6.836 -1.371,-2.613 -3.32,-3.91 -5.867,-3.91 -1.836,0 -3.457,0.586 -4.86,1.781 -1.574,1.316 -2.363,2.961 -2.363,4.969 0,0.465 0.086,1.175 0.258,2.144 0.156,0.969 0.238,1.696 0.238,2.199 0,1.555 -0.101,3.911 -0.324,7.059 -0.223,3.133 -0.324,5.504 -0.324,7.098 0,4.515 -0.344,10.66 -1.043,18.394 -0.805,8.879 -1.27,15.024 -1.407,18.399 h -2.601 c -7.453,0 -13.375,0.535 -17.758,1.605 -3.711,0.918 -5.559,3.133 -5.559,6.649 0,1.73 0.602,3.289 1.797,4.671 1.422,1.661 3.25,2.407 5.524,2.235 1.168,-0.071 3.82,-0.348 7.976,-0.867 3.301,-0.364 5.973,-0.555 8.004,-0.555 2.055,0 5.102,0.035 9.157,0.105 4.054,0.067 7.113,0.102 9.152,0.102 2.531,0 6.348,-0.172 11.43,-0.52 5.078,-0.363 8.878,-0.535 11.425,-0.535 2.004,0 3.68,-0.656 5.032,-1.972 1.351,-1.332 2.039,-2.957 2.039,-4.879 0,-1.938 -0.688,-3.567 -2.039,-4.899 -1.352,-1.332 -3.028,-2.008 -5.032,-2.008 z m 45.871,-63.875 c -9.89,0 -18.324,2.872 -25.269,8.618 -7.41,6.144 -11.121,14.105 -11.121,23.882 0,11.493 3.554,21.961 10.676,31.43 7.988,10.641 18.031,15.973 30.164,15.973 11.668,0 20.41,-2.703 26.211,-8.121 5.816,-5.395 8.722,-13.532 8.722,-24.383 0,-11.492 -3.265,-21.891 -9.816,-31.219 -7.543,-10.781 -17.418,-16.18 -29.567,-16.18 z m 4.45,66.161 c -7.442,0 -13.825,-3.653 -19.145,-10.954 -4.98,-6.82 -7.461,-14.402 -7.461,-22.707 0,-5.605 2.156,-10.175 6.469,-13.691 4.137,-3.371 9.375,-5.066 15.687,-5.066 7.34,0 13.481,3.648 18.391,10.953 4.5,6.644 6.762,14.226 6.762,22.703 0,7.098 -1.578,12.027 -4.707,14.816 -3.012,2.629 -8.348,3.946 -15.996,3.946 z m 140.964,1.988 c -0.57,-1.383 -1.23,-3.098 -2,-5.121 -0.57,-1.957 -1.49,-4.863 -2.76,-8.723 -1.9,-4.965 -4.93,-12.199 -9.07,-21.703 -4.24,-9.652 -7.29,-16.871 -9.11,-21.648 -1.38,-3.547 -2.67,-6.387 -3.87,-8.516 -1.58,-2.801 -3.97,-4.207 -7.17,-4.207 -1.9,0 -3.63,0.523 -5.17,1.578 -1.81,1.211 -2.77,2.82 -2.91,4.809 -1.54,3.898 -2.51,7.062 -2.9,9.539 -1.48,7.234 -3.51,18.101 -6.13,32.601 -2.17,-6.801 -4.5,-12.906 -7.01,-18.308 -3.75,-8.114 -6.22,-14.485 -7.38,-19.121 0.31,-0.747 0.45,-1.539 0.45,-2.375 0,-2.09 -0.91,-3.805 -2.76,-5.122 -1.61,-1.125 -3.37,-1.675 -5.3,-1.675 -2.45,0 -4.46,0.621 -6.08,1.867 -1.72,1.387 -2.63,3.289 -2.7,5.695 l -1.56,5.918 c -1.09,5.278 -2.91,13.153 -5.41,23.641 -2.2,8.012 -5.9,19.418 -11.08,34.215 -0.29,0.847 -0.45,1.695 -0.45,2.543 0,2.023 0.78,3.632 2.32,4.808 1.36,1.09 3.01,1.629 4.96,1.629 2.53,0 4.55,-1.09 6.05,-3.254 0.84,-1.179 1.8,-3.324 2.86,-6.437 3.29,-9.52 6.98,-23.414 11.09,-41.676 2.66,6.594 5.39,14.363 8.17,23.332 2.23,7.301 4.06,12.496 5.46,15.555 3.34,7.375 6.76,11.062 10.24,11.062 3.26,0 5.66,-1.801 7.16,-5.418 0.74,-1.73 1.46,-4.863 2.16,-9.398 0.21,-1.383 0.63,-4.774 1.3,-10.176 0.7,-5.816 2.8,-16.406 6.33,-31.754 3.54,8.391 8.3,20.469 14.29,36.254 0.36,0.953 1.23,4.066 2.6,9.328 0.97,3.789 2.19,6.785 3.66,8.981 1.61,2.371 3.74,3.55 6.41,3.55 2.04,0 3.73,-0.64 5.07,-1.906 1.33,-1.262 2,-2.891 2,-4.894 0,-0.711 -0.58,-2.532 -1.76,-5.473 z m 83.08,-52.574 c 0,-1.696 -0.27,-4.364 -0.84,-8.012 -0.67,-4.359 -3.11,-6.543 -7.32,-6.543 -2.35,0 -4.98,1.332 -7.92,4 -12.87,11.73 -27.39,28.172 -43.56,49.34 -0.21,-8.793 -0.31,-14.176 -0.31,-16.168 0,-2.68 0.07,-6.695 0.19,-12.078 0.12,-5.367 0.17,-9.395 0.17,-12.063 0,-9.969 -2.4,-14.949 -7.2,-14.949 -2.45,0 -4.4,0.758 -5.88,2.281 -1.29,1.352 -1.94,2.996 -1.94,4.914 0,1.352 0.1,3.395 0.32,6.129 0.21,2.75 0.33,4.793 0.33,6.141 0,1.992 0.06,4.984 0.19,8.965 0.13,4 0.2,6.992 0.2,8.984 0,2.129 -0.05,5.328 -0.15,9.641 -0.11,4.289 -0.14,7.492 -0.14,9.621 0,2.023 -0.2,5.051 -0.6,9.066 -0.39,4.035 -0.6,7.063 -0.6,9.086 0,2.027 0.86,3.844 2.59,5.418 1.71,1.59 3.68,2.387 5.88,2.387 2.46,0 5.2,-2.16 8.21,-6.492 15.16,-21.907 30.13,-39.766 44.9,-53.594 0.03,1.09 0.05,3.652 0.05,7.719 0,16.668 -0.17,27.898 -0.5,33.714 -0.07,0.985 -0.29,2.801 -0.65,5.465 -0.32,2.371 -0.5,4.243 -0.5,5.594 0,4.652 2.45,6.988 7.33,6.988 5.44,0 8.16,-8.496 8.16,-25.507 0,-0.364 -0.04,-3.028 -0.1,-8.016 -0.21,-17.164 -0.31,-27.844 -0.31,-32.031"
         style="fill:#ed1c25;fill-opacity:1;fill-rule:nonzero;stroke:none"
         id="path441" />
      <path
         d="m 532.629,216.082 c -0.734,0 -2.57,0.156 -5.5,0.469 -0.246,-6.141 -0.379,-16.207 -0.379,-30.219 0,-2.332 -0.805,-4.305 -2.418,-5.988 -1.633,-1.656 -3.687,-2.489 -6.168,-2.489 -2.484,0 -4.566,0.833 -6.199,2.489 -1.629,1.683 -2.457,3.656 -2.457,5.988 v 18.316 c 0,6.793 0.445,16.836 1.32,30.153 0.824,13.539 1.25,23.629 1.293,30.285 0.047,11.391 3.242,16.836 9.574,16.344 1.477,0.406 3.535,0.695 6.153,0.898 2.613,0.199 5.812,0.293 9.566,0.293 8.566,0 16.594,-2.781 24.109,-8.34 8.344,-6.211 12.52,-13.789 12.52,-22.734 0,-11.207 -4.422,-20.109 -13.301,-26.723 -7.847,-5.828 -17.222,-8.742 -28.113,-8.742 z m 3.266,49.59 c -1.383,0 -2.637,0 -3.688,-0.024 -1.074,-0.023 -1.992,-0.089 -2.73,-0.179 0,-2.063 -0.02,-5.137 -0.067,-9.258 -0.09,-4.867 -0.488,-12.441 -1.23,-22.734 2.238,-0.336 3.715,-0.516 4.449,-0.516 6.82,0 12.484,1.613 16.976,4.867 4.805,3.449 7.2,8.024 7.2,13.719 0,3.723 -2.258,7.039 -6.754,9.933 -4.317,2.801 -9.035,4.192 -14.156,4.192 z m 102.421,-8.609 c -2.078,0 -7.824,0.605 -17.218,1.835 -0.602,-8.046 -0.918,-18.761 -0.918,-32.125 l -0.067,-29.48 c 5.813,0.137 11.719,0.203 17.758,0.203 2.613,0 4.785,-0.875 6.508,-2.621 1.719,-1.75 2.594,-3.855 2.594,-6.324 0,-2.442 -0.875,-4.528 -2.641,-6.254 -1.766,-1.727 -3.98,-2.602 -6.664,-2.602 -2.504,0 -6.238,-0.043 -11.246,-0.156 -4.988,-0.113 -8.746,-0.18 -11.254,-0.18 -2.926,0 -7.355,-0.379 -13.234,-1.144 -5.903,-0.762 -10.309,-1.141 -13.258,-1.141 -2.688,0 -4.899,0.875 -6.668,2.602 -1.766,1.722 -2.637,3.832 -2.637,6.273 0,2.465 0.914,4.555 2.77,6.324 1.836,1.75 4.16,2.622 6.957,2.622 3.175,0 7.359,0.316 12.547,0.964 -0.094,5.157 -0.137,15.067 -0.137,29.684 0,11.902 0.445,23.27 1.32,34.074 l -14.223,-0.379 c -2.617,0 -4.808,0.848 -6.574,2.551 -1.765,1.707 -2.66,3.836 -2.66,6.371 0,2.578 0.848,4.684 2.547,6.297 1.566,1.504 3.488,2.356 5.77,2.578 3.71,0.336 10.199,0.516 19.41,0.516 8.297,0 18.988,-0.918 32.07,-2.758 5.211,-0.738 7.805,-3.766 7.805,-9.055 0,-2.8 -1.004,-5.023 -3.02,-6.636 -1.652,-1.368 -3.535,-2.039 -5.637,-2.039 z M 753.934,195.59 c 0,-2.195 -0.356,-5.649 -1.094,-10.379 -0.871,-5.652 -4.07,-8.473 -9.57,-8.473 -3.067,0 -6.512,1.727 -10.356,5.18 -16.816,15.199 -35.805,36.492 -56.937,63.91 -0.266,-11.387 -0.403,-18.359 -0.403,-20.937 0,-3.473 0.094,-8.676 0.25,-15.645 0.153,-6.953 0.219,-12.176 0.219,-15.629 0,-12.91 -3.129,-19.367 -9.41,-19.367 -3.199,0 -5.75,0.984 -7.672,2.957 -1.699,1.75 -2.551,3.879 -2.551,6.367 0,1.75 0.133,4.395 0.426,7.938 0.269,3.562 0.426,6.207 0.426,7.957 0,2.578 0.09,6.457 0.246,11.613 0.176,5.18 0.265,9.055 0.265,11.637 0,2.754 -0.066,6.906 -0.199,12.484 -0.133,5.559 -0.179,9.707 -0.179,12.465 0,2.621 -0.27,6.547 -0.782,11.746 -0.515,5.227 -0.785,9.149 -0.785,11.77 0,2.621 1.117,4.98 3.379,7.019 2.234,2.063 4.805,3.094 7.691,3.094 3.223,0 6.797,-2.805 10.735,-8.41 19.816,-28.379 39.383,-51.516 58.68,-69.426 0.046,1.41 0.07,4.73 0.07,9.996 0,21.59 -0.227,36.141 -0.653,43.672 -0.089,1.277 -0.378,3.633 -0.847,7.086 -0.426,3.07 -0.649,5.488 -0.649,7.238 0,6.031 3.196,9.059 9.571,9.059 7.109,0 10.668,-11.008 10.668,-33.043 0,-0.473 -0.047,-3.926 -0.137,-10.383 -0.27,-22.238 -0.402,-36.07 -0.402,-41.496 z m 92.961,22.465 c -2.973,-13.047 -8.946,-23.496 -17.957,-31.344 -9.125,-7.867 -19.813,-11.813 -32.09,-11.813 -11.606,0 -20.328,3.071 -26.118,9.239 -5.816,6.14 -8.722,15.379 -8.722,27.683 0,11.211 2.75,22.692 8.25,34.481 5.5,11.769 12.57,21.32 21.222,28.629 6.059,5.133 12.571,7.691 19.524,7.691 4.226,0 10,-1.527 17.289,-4.598 8.652,-3.632 12.969,-7.511 12.969,-11.636 0,-2.356 -0.895,-4.461 -2.684,-6.321 -1.789,-1.863 -4.004,-2.804 -6.621,-2.804 -1.293,0 -4.203,1.234 -8.676,3.722 -4.468,2.469 -8.566,3.7 -12.277,3.7 -3.934,0 -9.234,-4.239 -15.918,-12.731 -9.734,-12.355 -14.609,-25.738 -14.609,-40.133 0,-7.328 1.074,-12.285 3.222,-14.906 2.262,-2.758 6.645,-4.148 13.149,-4.148 6.687,0 12.547,1.906 17.625,5.714 5.363,4.04 9.343,9.887 11.918,17.602 -10.133,-0.785 -18.942,-2.871 -26.457,-6.234 -1.364,-0.602 -2.704,-0.918 -4.071,-0.918 -2.707,0 -4.961,1.008 -6.75,3.023 -1.613,1.797 -2.418,3.813 -2.418,6.102 0,6.703 7.895,11.363 23.703,14.031 8.926,1.504 19.325,2.242 31.2,2.242 2.617,0 4.808,-0.851 6.574,-2.555 1.766,-1.703 2.66,-3.812 2.66,-6.3 0,-3.207 -1.32,-5.668 -3.937,-7.418 z m 79.367,-27.262 c -3.172,-4.352 -7.02,-7.957 -11.516,-10.852 -5.519,-3.496 -11.156,-5.246 -16.969,-5.246 -11.14,0 -19.414,2.11 -24.824,6.325 -11.449,8.898 -17.176,24.367 -17.176,46.382 0,2.106 0.114,5.246 0.336,9.414 0.2,4.172 0.309,7.309 0.309,9.418 0,1.68 0.047,4.192 0.137,7.532 0.093,3.32 0.132,5.828 0.132,7.511 0,3.43 0.629,6.68 1.903,9.731 1.703,4.055 4.07,6.074 7.133,6.074 2.418,0 4.519,-0.766 6.351,-2.309 2.016,-1.636 3.02,-3.722 3.02,-6.3 0,-2.446 -0.024,-6.145 -0.086,-11.098 -0.071,-4.93 -0.094,-8.652 -0.094,-11.141 0,-2.062 -0.113,-5.156 -0.336,-9.328 -0.223,-4.144 -0.332,-7.261 -0.332,-9.324 0,-6.637 0.781,-12.801 2.344,-18.496 1.84,-6.813 4.547,-11.566 8.074,-14.281 1.836,-1.41 6.195,-2.153 13.109,-2.242 11.516,-0.18 19.297,9.687 23.301,29.55 2.102,10.289 3.152,24.746 3.152,43.356 0,2.445 0.715,4.797 2.168,7.086 1.969,3.023 4.762,4.527 8.387,4.527 2.973,0 5.188,-1.098 6.688,-3.277 1.136,-1.633 1.695,-3.43 1.695,-5.403 0,-17.281 -0.805,-30.777 -2.41,-40.441 -2.461,-14.93 -7.293,-27.324 -14.496,-37.168 z m 84.508,66.27 c -2.08,0 -7.82,0.605 -17.219,1.835 -0.598,-8.046 -0.914,-18.761 -0.914,-32.125 l -0.067,-29.48 c 5.813,0.137 11.72,0.203 17.76,0.203 2.62,0 4.78,-0.875 6.5,-2.621 1.73,-1.75 2.6,-3.855 2.6,-6.324 0,-2.442 -0.87,-4.528 -2.64,-6.254 -1.77,-1.727 -3.98,-2.602 -6.66,-2.602 -2.51,0 -6.24,-0.043 -11.255,-0.156 -4.984,-0.113 -8.742,-0.18 -11.246,-0.18 -2.934,0 -7.359,-0.379 -13.242,-1.144 -5.903,-0.762 -10.305,-1.141 -13.258,-1.141 -2.684,0 -4.899,0.875 -6.664,2.602 -1.77,1.722 -2.637,3.832 -2.637,6.273 0,2.465 0.914,4.555 2.77,6.324 1.836,1.75 4.16,2.622 6.953,2.622 3.179,0 7.359,0.316 12.547,0.964 -0.086,5.157 -0.133,15.067 -0.133,29.684 0,11.902 0.445,23.27 1.316,34.074 l -14.218,-0.379 c -2.618,0 -4.809,0.848 -6.575,2.551 -1.769,1.707 -2.66,3.836 -2.66,6.371 0,2.578 0.848,4.684 2.547,6.297 1.566,1.504 3.488,2.356 5.77,2.578 3.71,0.336 10.199,0.516 19.41,0.516 8.293,0 18.988,-0.918 32.075,-2.758 5.2,-0.738 7.8,-3.766 7.8,-9.055 0,-2.8 -1.01,-5.023 -3.02,-6.636 -1.66,-1.368 -3.53,-2.039 -5.64,-2.039 z m 115.62,-61.473 c 0,-2.195 -0.36,-5.649 -1.09,-10.379 -0.88,-5.652 -4.07,-8.473 -9.57,-8.473 -3.07,0 -6.51,1.727 -10.36,5.18 -16.82,15.199 -35.8,36.492 -56.94,63.91 -0.26,-11.387 -0.4,-18.359 -0.4,-20.937 0,-3.473 0.09,-8.676 0.25,-15.645 0.15,-6.953 0.22,-12.176 0.22,-15.629 0,-12.91 -3.13,-19.367 -9.41,-19.367 -3.2,0 -5.75,0.984 -7.68,2.957 -1.69,1.75 -2.54,3.879 -2.54,6.367 0,1.75 0.13,4.395 0.42,7.938 0.27,3.562 0.43,6.207 0.43,7.957 0,2.578 0.09,6.457 0.24,11.613 0.18,5.18 0.27,9.055 0.27,11.637 0,2.754 -0.07,6.906 -0.2,12.484 -0.14,5.559 -0.18,9.707 -0.18,12.465 0,2.621 -0.27,6.547 -0.78,11.746 -0.52,5.227 -0.78,9.149 -0.78,11.77 0,2.621 1.11,4.98 3.37,7.019 2.24,2.063 4.81,3.094 7.7,3.094 3.21,0 6.8,-2.805 10.73,-8.41 19.81,-28.379 39.38,-51.516 58.68,-69.426 0.05,1.41 0.07,4.73 0.07,9.996 0,21.59 -0.23,36.141 -0.66,43.672 -0.08,1.277 -0.37,3.633 -0.84,7.086 -0.43,3.07 -0.65,5.488 -0.65,7.238 0,6.031 3.2,9.059 9.57,9.059 7.11,0 10.67,-11.008 10.67,-33.043 0,-0.473 -0.05,-3.926 -0.14,-10.383 -0.27,-22.238 -0.4,-36.07 -0.4,-41.496 z m 42.93,-20.176 c -11.08,0 -19.83,2.465 -26.2,7.422 -5.37,4.121 -8.05,8.875 -8.05,14.258 0,2.758 0.82,5.043 2.48,6.859 1.68,1.817 3.96,2.735 6.89,2.735 3.93,0 6.82,-2.02 8.65,-6.051 2.48,-5.379 8.12,-8.074 16.91,-8.074 7.49,0 14.78,1.64 21.8,4.933 7.29,3.363 10.94,7.063 10.94,11.098 0,5.515 -2.28,9.148 -6.82,10.894 -3.22,1.282 -9.71,2.02 -19.46,2.242 -7.56,0.18 -14.31,1.59 -20.3,4.258 -8.08,3.657 -12.06,8.856 -11.92,15.653 0.13,8.515 4.67,16.363 13.62,23.468 8.96,7.106 18.82,10.672 29.62,10.672 4.28,0 9.56,-0.988 15.86,-2.957 7.8,-2.449 11.72,-5.269 11.72,-8.476 0,-2.266 -0.78,-4.282 -2.35,-6.032 -1.76,-1.972 -4,-2.957 -6.75,-2.957 -2.06,0 -5.12,0.45 -9.22,1.321 -4.09,0.875 -7.17,1.3 -9.28,1.3 -5.63,-0.042 -10.98,-1.386 -16.03,-4.078 -5.25,-2.714 -7.87,-5.648 -7.87,-8.855 0,-1.66 0.8,-3.027 2.39,-4.106 1.59,-1.074 3.98,-1.812 7.18,-2.261 5.59,-0.317 11.16,-0.606 16.7,-0.922 9.69,-0.738 17.36,-3.473 22.99,-8.203 6.2,-5.27 9.31,-12.532 9.31,-21.813 0,-11.297 -6.42,-19.863 -19.26,-25.691 -9.8,-4.418 -20.98,-6.637 -33.55,-6.637"
         style="fill:#ed1c25;fill-opacity:1;fill-rule:nonzero;stroke:none"
         id="path443" />
      <path
         d="m 523.711,127.25 h 25.488 c 5.047,0 8.821,-0.223 11.297,-0.687 2.481,-0.454 4.692,-1.399 6.652,-2.844 1.957,-1.446 3.575,-3.356 4.883,-5.762 1.305,-2.391 1.961,-5.09 1.961,-8.062 0,-3.223 -0.804,-6.196 -2.406,-8.891 -1.617,-2.6954 -3.801,-4.7188 -6.547,-6.0704 3.871,-1.2188 6.871,-3.3047 8.953,-6.2422 2.09,-2.9531 3.133,-6.4219 3.133,-10.4023 0,-3.1328 -0.672,-6.1797 -2.02,-9.1485 -1.351,-2.9531 -3.195,-5.332 -5.523,-7.0976 -2.332,-1.7657 -5.211,-2.8594 -8.641,-3.2735 -2.136,-0.2422 -7.32,-0.4023 -15.527,-0.4648 h -21.703 z m 12.887,-11.477 V 99.832 h 8.429 c 5.02,0 8.137,0.0821 9.352,0.242 2.199,0.274 3.937,1.09 5.195,2.453 1.266,1.364 1.887,3.164 1.887,5.395 0,2.137 -0.531,3.871 -1.617,5.203 -1.102,1.332 -2.715,2.133 -4.856,2.406 -1.277,0.16 -4.941,0.242 -11,0.242 z m 0,-27.4214 V 69.9258 H 548.5 c 4.648,0 7.586,0.125 8.836,0.414 1.914,0.375 3.473,1.3047 4.676,2.75 1.203,1.4571 1.812,3.418 1.812,5.8594 0,2.0664 -0.476,3.8203 -1.394,5.2617 -0.942,1.4454 -2.274,2.5079 -4.028,3.1641 -1.75,0.6563 -5.566,0.9766 -11.414,0.9766 z M 588.035,58.3047 V 127.25 h 27.106 c 6.812,0 11.757,-0.625 14.847,-1.863 3.086,-1.235 5.567,-3.434 7.418,-6.594 1.86,-3.18 2.778,-6.793 2.778,-10.871 0,-5.168 -1.411,-9.4532 -4.215,-12.8243 -2.809,-3.3555 -7.024,-5.4922 -12.617,-6.3594 2.789,-1.7656 5.089,-3.6914 6.902,-5.793 1.809,-2.1055 4.246,-5.8281 7.316,-11.1875 l 7.793,-13.4531 h -15.39 l -9.309,15.0078 c -3.312,5.3633 -5.566,8.7344 -6.785,10.1289 -1.219,1.3984 -2.508,2.3438 -3.875,2.875 -1.363,0.5117 -3.52,0.7695 -6.484,0.7695 h -2.598 V 58.3047 Z m 12.887,39.793 h 9.516 c 6.175,0 10.031,0.2734 11.574,0.8359 1.531,0.5625 2.734,1.5394 3.609,2.9214 0.863,1.379 1.309,3.098 1.309,5.168 0,2.329 -0.578,4.192 -1.723,5.622 -1.141,1.425 -2.762,2.324 -4.855,2.71 -1.039,0.145 -4.172,0.223 -9.399,0.223 h -10.031 z m 51.406,-39.793 V 127.25 h 47.266 v -11.672 h -34.395 v -15.281 h 32.004 V 88.6914 H 665.199 V 69.9258 h 35.614 V 58.3047 Z m 59.231,0 V 127.25 h 19.269 L 742.391,80.2148 753.82,127.25 h 19.317 V 58.3047 H 761.184 V 112.578 L 748.523,58.3047 H 736.129 L 723.512,112.578 V 58.3047 Z m 74.375,0 V 127.25 h 47.261 v -11.672 h -34.39 v -15.281 h 32.004 V 88.6914 H 798.805 V 69.9258 h 35.609 V 58.3047 Z m 59.437,0 V 127.25 h 27.106 c 6.812,0 11.757,-0.625 14.843,-1.863 3.09,-1.235 5.567,-3.434 7.426,-6.594 1.852,-3.18 2.774,-6.793 2.774,-10.871 0,-5.168 -1.407,-9.4532 -4.219,-12.8243 -2.801,-3.3555 -7.016,-5.4922 -12.617,-6.3594 2.793,-1.7656 5.093,-3.6914 6.902,-5.793 1.812,-2.1055 4.25,-5.8281 7.32,-11.1875 l 7.793,-13.4531 h -15.39 L 878,73.3125 c -3.309,5.3633 -5.57,8.7344 -6.785,10.1289 -1.219,1.3984 -2.508,2.3438 -3.871,2.875 -1.367,0.5117 -3.524,0.7695 -6.489,0.7695 h -2.597 V 58.3047 Z m 12.887,39.793 h 9.512 c 6.179,0 10.035,0.2734 11.582,0.8359 1.527,0.5625 2.726,1.5394 3.605,2.9214 0.859,1.379 1.309,3.098 1.309,5.168 0,2.329 -0.582,4.192 -1.723,5.622 -1.145,1.425 -2.766,2.324 -4.855,2.71 -1.043,0.145 -4.172,0.223 -9.399,0.223 h -10.031 z m 51.433,-39.793 V 127.25 h 12.887 v -27.129 h 25.219 v 27.129 h 12.875 V 58.3047 H 947.797 V 88.4492 H 922.578 V 58.3047 Z m 121.789,0 h -14.01 l -5.57,15.6641 H 986.414 L 981.156,58.3047 H 967.5 l 24.832,68.9453 h 13.618 z m -23.71,27.2734 -8.782,25.5899 -8.609,-25.5899 z m 40.19,-27.2734 -22.79,68.9453 h 13.97 l 16.12,-51.0312 15.62,51.0312 h 13.66 l -22.83,-68.9453 z m 43.16,0 V 127.25 h 47.26 v -11.672 h -34.4 v -15.281 h 32.01 V 88.6914 h -32.01 V 69.9258 h 35.62 V 58.3047 Z m 59.52,0 V 127.25 h 12.53 l 26.1,-46.0391 V 127.25 h 11.96 V 58.3047 H 1188.3 L 1162.61,103.27 V 58.3047 h -11.97"
         style="fill:#ffffff;fill-opacity:1;fill-rule:nonzero;stroke:none"
         id="path445" />
    </g>
  </g>
</svg>
