<?xml version="1.0" encoding="UTF-8" standalone="no"?>
<!-- Created with Inkscape (http://www.inkscape.org/) -->

<svg
   version="1.1"
   id="svg1438"
   width="430"
   height="430"
   viewBox="0 0 429.99999 430"
   xmlns="http://www.w3.org/2000/svg"
   xmlns:svg="http://www.w3.org/2000/svg">
  <defs
     id="defs1442">
    <clipPath
       clipPathUnits="userSpaceOnUse"
       id="clipPath1454">
      <path
         d="M 0,595.28 H 841.89 V 0 H 0 Z"
         id="path1452" />
    </clipPath>
  </defs>
  <g
     id="g1446"
     transform="matrix(1.3333333,0,0,-1.3333333,0,793.70667)">
    <g
       id="g1448"
       transform="translate(-261.72407,144.37496)">
      <g
         id="g1450"
         clip-path="url(#clipPath1454)">
        <g
           id="g1456"
           transform="translate(545.7397,302.9372)">
          <path
             d="m 0,0 c 0.232,-0.136 0.457,-0.281 0.674,-0.436 1.045,-0.75 2.302,-2.052 2.481,-4.009 l 2.522,-27.264 c 1.32,-0.781 2.395,-1.623 3.181,-2.278 2.002,-1.634 5.918,-5.225 6.41,-10.788 l 5.336,-59.896 7.861,-2.432 3.261,-34.057 -17.056,5.714 c -4.129,1.383 -8.374,2.703 -12.725,3.958 l 1.975,-25.125 -5.152,1.566 c -29.991,9.114 -69.872,15.933 -120.886,15.933 -51.014,0 -90.896,-6.819 -120.886,-15.933 l -5.163,-1.57 2.022,25.139 c -4.359,-1.256 -8.61,-2.578 -12.746,-3.963 l -17.087,-5.723 3.326,34.106 7.695,2.345 4.705,52.354 -22.215,22.861 h 27.604 l 2.556,27.352 2.783,0.381 0.246,2.853 c 0.171,1.869 1.327,3.147 2.341,3.911 l 0.104,1.195 c 0.109,1.2 0.67,2.138 1.296,2.812 l 14.753,22.909 10.567,-23.587 1.514,22.134 3.682,0.972 c -0.308,3.368 -0.465,6.803 -0.465,10.299 0,4.715 1.669,8.315 3.333,10.716 0.168,0.243 0.337,0.475 0.504,0.694 -3.3,3.693 -6.832,9.9 -6.832,19.454 v 3.674 h 10.035 c 0.822,0 1.207,0.243 1.759,1.162 0.963,1.605 10.915,19.812 14.329,25.883 2.051,3.65 4.288,6.257 6.316,8.097 l -4.24,2.025 1.831,3.396 c 5.306,9.835 13.905,13.898 20.927,15.489 2.019,0.457 3.931,0.717 5.629,0.854 l -2.131,3.355 c 0,0 9.045,2.742 14.638,3.33 4.543,0.477 10.592,0.55 15.698,-1.584 0.468,0.408 1.006,0.859 1.602,1.331 2.119,1.677 5.176,3.785 8.559,5.02 l 1.261,0.46 1.26,-0.46 c 3.384,-1.236 6.439,-3.344 8.555,-5.022 0.595,-0.471 1.131,-0.921 1.598,-1.328 5.106,2.133 11.153,2.06 15.696,1.583 5.594,-0.588 14.638,-3.33 14.638,-3.33 l -2.131,-3.355 c 1.698,-0.137 3.61,-0.397 5.63,-0.854 7.021,-1.591 15.62,-5.654 20.925,-15.489 l 1.832,-3.396 -4.24,-2.025 c 2.028,-1.84 4.264,-4.447 6.317,-8.097 3.413,-6.071 13.365,-24.278 14.328,-25.883 0.551,-0.919 0.937,-1.162 1.758,-1.162 h 10.036 v -3.674 c 0,-9.554 -3.532,-15.761 -6.832,-19.454 0.167,-0.219 0.335,-0.451 0.504,-0.694 1.665,-2.401 3.334,-6.001 3.334,-10.716 0,-2.65 -0.091,-5.264 -0.269,-7.841 l 3.524,-0.931 1.874,-27.383 c 0.705,0.467 1.493,0.845 2.282,1.151 0.784,0.306 1.648,0.57 2.568,0.792 -0.631,9.25 -1.224,18.295 -1.224,18.295 0,1.666 0.904,2.93 1.555,3.487 0.551,0.472 1.113,0.729 1.464,0.865 0.737,0.287 1.501,0.409 2.161,0.441 0.652,0.033 1.425,-0.011 2.191,-0.228 0.366,-0.103 0.958,-0.309 1.559,-0.74 0.542,-0.389 1.673,-1.413 1.836,-3.187 L -7.903,7.045 C -7.007,6.916 -6.175,6.743 -5.427,6.531 -4.329,6.22 -3.215,5.772 -2.293,5.111 -1.412,4.479 -0.308,3.35 -0.151,1.63 Z"
             style="fill:#b0baba;fill-opacity:1;fill-rule:nonzero;stroke:none"
             id="path1458" />
        </g>
        <g
           id="g1460"
           transform="translate(530.4863,308.2229)">
          <path
             d="m 0,0 -1.382,20.653 c 0,0.268 0.155,0.471 0.275,0.574 0.121,0.103 0.267,0.178 0.406,0.232 0.282,0.109 0.64,0.177 1.013,0.196 0.366,0.018 0.722,-0.013 1.006,-0.094 0.14,-0.04 0.291,-0.099 0.42,-0.191 C 1.86,21.282 2.03,21.112 2.055,20.846 L 3.796,0.186 C 3.172,0.194 2.532,0.183 1.88,0.15 1.241,0.118 0.613,0.068 0,0 m -195.782,23.401 c -0.514,4.236 -0.777,8.589 -0.777,13.047 0,7.612 5.357,11.537 5.357,11.537 -2.994,2.364 -8.352,8.155 -8.352,19.326 h 6.362 c 2.53,0 3.942,1.335 4.908,2.946 0.967,1.611 10.956,19.881 14.381,25.973 4.828,8.588 10.564,10.41 10.564,10.41 l -6.625,3.164 c 9.299,17.239 30.035,14.371 30.035,14.371 l -3.15,4.959 c 0,0 16.456,4.963 25.26,-0.58 0,0 5.105,5.257 10.804,7.338 5.699,-2.081 10.793,-7.338 10.793,-7.338 8.805,5.543 25.261,0.58 25.261,0.58 l -3.15,-4.959 c 0,0 20.736,2.868 30.035,-14.371 l -6.625,-3.164 c 0,0 5.735,-1.822 10.563,-10.41 3.426,-6.092 13.415,-24.362 14.382,-25.973 0.966,-1.611 2.377,-2.946 4.908,-2.946 h 6.361 c 0,-11.171 -5.358,-16.962 -8.352,-19.326 0,0 5.358,-3.925 5.358,-11.537 0,-3.607 -0.172,-7.145 -0.51,-10.607 l 3.955,-1.045 2.443,-35.708 c 0.172,1 0.801,1.826 1.482,2.41 0.273,0.233 0.579,0.455 0.908,0.663 l -0.193,2.77 c 0,0.998 0.585,1.817 1.227,2.367 0.657,0.563 1.537,1.031 2.522,1.414 1.266,0.493 2.811,0.884 4.514,1.14 l 0.137,-1.837 c 0.934,0.146 1.931,0.249 2.968,0.3 2.694,0.135 5.111,-0.111 6.853,-0.605 0.873,-0.247 1.545,-0.548 1.994,-0.87 0.457,-0.327 0.606,-0.617 0.626,-0.832 l 0.164,-1.781 c -2.46,0.687 -5.707,0.996 -9.211,0.82 -1.081,-0.053 -2.137,-0.15 -3.151,-0.285 l 0.136,-1.835 c 0.992,0.135 2.033,0.233 3.107,0.286 3.388,0.169 6.448,-0.138 8.675,-0.77 1.114,-0.315 2.004,-0.708 2.622,-1.15 0.62,-0.445 0.923,-0.908 0.964,-1.36 l 2.707,-29.265 c 1.744,-0.761 3.209,-1.852 4.3,-2.762 1.878,-1.529 4.75,-4.292 5.104,-8.291 l 5.555,-62.353 7.878,-2.437 2.488,-25.991 -11.692,3.917 c -5.774,1.934 -11.77,3.747 -17.967,5.431 l 1.965,-25 c -30.368,9.229 -70.613,16.092 -121.954,16.092 -51.34,0 -91.585,-6.863 -121.954,-16.092 l 2.011,25.012 c -6.208,-1.686 -12.213,-3.501 -17.996,-5.437 l -11.714,-3.924 2.538,26.025 7.713,2.35 5.079,56.497 -17.333,17.838 h 22.257 l 2.597,27.781 16.246,2.212 0.148,1.883 -4.227,-0.578 0.318,4.096 c -2,-0.078 -3.748,-0.34 -5.097,-0.722 -1.003,-0.284 -1.672,-0.603 -2.052,-0.876 -0.111,-0.08 -0.179,-0.141 -0.218,-0.182 l -0.287,-3.319 -1.866,-0.255 0.336,3.894 c 0.042,0.452 0.344,0.91 0.964,1.354 0.617,0.443 1.508,0.836 2.622,1.151 2.227,0.631 5.287,0.939 8.675,0.77 l 0.451,-0.025 0.144,1.831 -0.503,0.028 c -3.531,0.177 -6.8,-0.137 -9.268,-0.837 -0.249,-0.07 -0.493,-0.146 -0.732,-0.226 l 0.092,1.06 c 0.026,0.283 0.218,0.617 0.721,0.977 0.497,0.357 1.231,0.684 2.174,0.951 1.88,0.532 4.481,0.796 7.372,0.652 l 0.348,-0.02 0.153,1.831 0.75,10.124 -6.64,-10.311 c -0.901,-0.126 -1.735,-0.297 -2.484,-0.509 l 9.415,14.663 7.011,-15.648 c 0.889,-0.377 1.679,-0.823 2.29,-1.347 0.687,-0.589 1.313,-1.465 1.313,-2.532 l -0.178,-2.235 0.172,-0.142 c 0.799,-0.685 1.528,-1.705 1.528,-2.947 l -0.424,-5.328 2.09,-0.759 2.346,34.294 z"
             style="fill:#231f20;fill-opacity:1;fill-rule:nonzero;stroke:none"
             id="path1462" />
        </g>
        <g
           id="g1464"
           transform="translate(533.7358,185.6301)">
          <path
             d="m 0,0 -1.998,0.463 c -6.687,1.551 -13.571,2.962 -20.63,4.223 l -1.347,0.241 -0.591,11.008 7.553,-1.372 -3.359,54.139 -10.011,9.002 H 9.93 c 1.221,0 2.706,-0.775 4.414,-2.199 1.702,-1.376 2.686,-2.674 2.792,-3.873 l 5.942,-66.7 7.907,-2.446 1.122,-11.714 -2.201,0.738 C 23.243,-6.258 16.29,-4.185 9.078,-2.28 L 7.846,-1.955 2.377,67.833 h -7.35 z m -69.688,59.241 -9.8,9.057 h 47.332 l 0.913,-17.092 h -15.45 l -0.347,7.161 h -7.25 l 0.487,-12.902 h 8.117 l 0.523,-11.49 h -8.181 l 0.51,-14.148 7.552,-0.89 -0.349,7.361 h 15.721 l 1.168,-20.559 -1.869,0.299 c -14,2.238 -28.65,3.903 -43.787,4.926 l -1.498,0.102 -0.225,10.815 7.456,-0.55 z m -80.082,-0.008 -9.4,9.065 h 24.75 l -0.789,-45.943 7.581,0.275 0.555,45.668 h 15.266 L -111.87,22.92 h 7.575 l -0.164,45.378 h 22.614 l 0.146,-9.931 h -7.254 l 0.497,-35.861 7.516,-0.334 0.219,-10.817 -1.679,0.088 c -9.078,0.473 -18.327,0.717 -27.714,0.717 -11.776,0 -23.336,-0.384 -34.615,-1.122 l -0.215,-0.014 -0.18,0.037 c -1.002,0.125 -2.219,1.045 -3.599,2.567 -1.404,1.669 -2.197,3.076 -2.192,4.103 z M -166.028,9.191 c -9.283,-1.005 -18.344,-2.256 -27.141,-3.736 l -0.223,-0.038 -0.221,0.026 c -0.945,0.109 -2.146,0.994 -3.597,2.664 -1.394,1.725 -2.158,3.103 -2.079,4.046 l 3.043,49.995 c 0.074,1.214 1.008,2.559 2.655,4.008 1.688,1.44 3.184,2.214 4.454,2.214 h 24.302 c 1.177,0 2.567,-0.775 4.156,-2.216 1.592,-1.442 2.447,-2.754 2.412,-3.927 l -1.611,-46.451 c -0.061,-0.993 -0.997,-2.383 -2.612,-4.07 -1.449,-1.47 -2.471,-2.168 -3.146,-2.421 l -0.2,-0.075 z m -9.495,9.699 1.705,39.477 h -7.324 l -1.952,-40.516 z m -62.172,49.799 -8.691,8.944 h 31.937 l -0.781,-10.907 h -7.357 l -4.544,-57.407 7.628,1.824 1.087,15.165 h 15.795 l -1.384,-22.814 -1.32,-0.261 c -15.988,-3.162 -31.015,-7.104 -44.793,-11.718 l -2.205,-0.738 1.143,11.72 7.748,2.361 z m 43.628,12.784 h 13.076 l -0.505,-10.107 z m 15.844,0 h 13.077 l -0.392,-10.106 z"
             style="fill:#f2522a;fill-opacity:1;fill-rule:nonzero;stroke:none"
             id="path1466" />
        </g>
        <g
           id="g1468"
           transform="translate(495.939,179.6169)">
          <path
             d="m 0,0 0.104,-2.173 4.921,-0.706 -0.112,2.175 z m 6.217,-9.387 -2.724,4.271 -3.27,0.47 0.188,-3.905 -4.362,0.628 -0.422,9.336 -2.056,1.931 15.554,-2.224 0.386,-7.1 -1.661,0.238 2.721,-4.272 z m -26.578,14.328 4.31,-0.384 0.411,-10.961 -13.588,1.221 -0.266,9.302 -2.017,1.817 6.26,-0.558 0.266,-8.474 4.918,-0.441 z m -20.671,1.544 0.051,-2.444 -8.351,0.447 0.039,-2.515 8.365,-0.449 0.051,-2.461 -8.378,0.451 0.054,-3.509 -4.498,0.243 -0.115,9.268 -1.969,1.758 z m -24.478,1.012 -3.474,-5.457 3.524,-5.461 -4.319,-0.022 -2.721,4.236 -2.887,-0.015 -0.008,-4.25 -4.319,-0.022 0.045,9.265 -1.94,1.644 6.236,0.031 -0.008,-4.213 2.881,0.015 2.703,4.227 z m -30.002,-0.453 4.292,0.229 -0.138,-10.921 -2.502,-0.135 -6.892,5.398 -0.109,-5.775 -4.327,-0.233 0.202,9.277 -1.915,1.551 4.437,0.237 6.863,-5.361 z m -30.546,-7.223 3.438,0.369 -0.88,2.418 -1.503,-0.161 z m -3.914,4.534 10.296,1.103 3.818,-10.499 -4.688,-0.505 -1.235,3.387 -5.301,-0.571 -1.464,-3.679 -3.423,-0.369 3.895,9.699 z m -21.031,-5.297 -0.113,-2.176 4.926,0.795 0.107,2.174 z m 5.365,-7.62 -2.333,3.498 -3.275,-0.53 -0.204,-3.909 -4.375,-0.71 0.516,9.364 -1.899,1.331 15.579,2.509 -0.327,-7.083 -1.658,-0.268 2.326,-3.496 z m -20.863,7.276 -0.155,-2.47 -8.512,-1.836 -0.173,-2.549 8.526,1.842 -0.155,-2.487 -8.541,-1.848 -0.242,-3.555 -4.596,-0.998 0.669,9.41 -1.875,1.25 z m 201.473,-5.243 -4.714,1.016 0.585,-8.613 -4.59,0.995 -0.558,8.602 -3.307,0.714 -3.18,3.105 15.589,-3.357 z"
             style="fill:#b0baba;fill-opacity:1;fill-rule:nonzero;stroke:none"
             id="path1470" />
        </g>
        <g
           id="g1472"
           transform="translate(423.4404,268.6418)">
          <path
             d="m 0,0 c -8.681,0 -12.388,1.415 -12.388,1.415 -1.768,2.557 -2.204,5.651 -2.204,5.651 -1.143,-2.387 -2.521,-6.753 -2.521,-6.753 0,0 -9.279,10.317 -6.558,19.077 0,0 4.484,12.675 3.156,22.632 4.276,-5.935 4.701,-13.746 3.177,-21.242 0,0 -1.472,-1.821 -2.417,-3.029 l -0.39,-2.43 c 0,0 1.835,1.56 3.823,2.452 0,0 4.661,0.343 16.322,0.343 11.66,0 16.321,-0.343 16.321,-0.343 1.989,-0.892 3.824,-2.452 3.824,-2.452 l -0.191,1.286 c -0.753,1.097 -2.33,2.949 -2.33,2.949 -1.97,8.137 -1.386,16.531 2.891,22.466 C 19.187,32.065 23.67,19.39 23.67,19.39 26.391,10.63 17.112,0.313 17.112,0.313 c 0,0 -1.378,4.366 -2.521,6.753 0,0 -0.436,-3.094 -2.204,-5.651 C 12.387,1.415 8.68,0 0,0 m 0.061,77.081 c -9.115,0 -13.682,1.449 -13.682,1.449 l -1.318,2.768 c 0,0 -1.014,-1.101 -1.629,-2.771 0,0 0.886,-4.126 2.599,-8.431 l 1.886,1.23 c 0,0 10.455,-0.484 10.455,-4.701 v -6.502 c 0,-1.01 -0.747,-2.636 -1.757,-3.471 -7.81,-0.858 -16.053,-4.192 -16.053,-4.192 0,0 -4.328,0.561 -8.316,4.2 0,0 -4.282,7.172 -5.777,15.099 l 1.982,9.825 c 0,0 -4.847,-3.584 -6.326,-10.67 0,0 0.702,-8.078 5.835,-17.696 5.955,-11.154 9.531,-14.519 5.084,-26.967 0,0 0.7,5.684 -3.336,9.241 -2.563,2.259 -7.872,6.716 -12.209,10.664 -4.338,3.947 -4.263,11.279 -1.877,16.007 l -1.118,2.881 -6.235,-11.136 c -4.207,7.652 -1.103,15.833 0.319,18.374 1.651,2.947 2.982,5.29 2.982,5.29 -8.852,0 -9.826,6.362 -9.826,6.362 4.091,0 6.942,1.459 8.629,4.314 0.823,1.393 4.133,7.315 7.316,13.069 l -6.473,2.754 c 0,0 2.203,4.324 9.189,2.311 1.509,2.578 0.133,5.518 -2.072,6.559 -2.562,1.209 -3.439,1.624 -5.134,2.272 -2.37,0.906 -4.938,-1.196 -4.938,-1.196 l 3.217,-1.323 c 0,0 -0.924,-1.478 -2.384,-4.358 -1.866,-3.684 -2.848,-7.428 -0.701,-13.235 l -1.403,-2.572 c -4.878,8.61 -5.229,15.935 -3.594,19.161 1.142,2.25 3.88,7.268 4.163,7.74 1.776,2.96 4.262,4.025 8.051,2.368 2.766,-1.21 5.802,-2.648 5.802,-2.648 0.356,-4.736 2.479,-6.808 2.479,-6.808 1.508,2.711 2.678,4.846 3.23,5.821 3.11,5.497 7.902,7.273 14.068,4.699 7.634,-3.315 13.353,-5.999 13.353,-5.999 1.543,-1.912 3.478,-3.673 5.478,-5.141 2.001,1.468 3.977,3.229 5.52,5.141 0,0 5.718,2.684 13.352,5.999 6.167,2.574 10.959,0.798 14.068,-4.699 0.553,-0.975 1.723,-3.11 3.231,-5.821 0,0 2.123,2.072 2.478,6.808 0,0 3.037,1.438 5.803,2.648 3.788,1.657 6.275,0.592 8.051,-2.368 0.283,-0.472 3.021,-5.49 4.162,-7.74 1.636,-3.226 1.285,-10.551 -3.593,-19.161 l -1.404,2.572 c 2.148,5.807 1.165,9.551 -0.701,13.235 -1.459,2.88 -2.383,4.358 -2.383,4.358 l 3.217,1.323 c 0,0 -2.568,2.102 -4.939,1.196 -1.694,-0.648 -2.571,-1.063 -5.133,-2.272 -2.206,-1.041 -3.581,-3.981 -2.072,-6.559 6.986,2.013 9.189,-2.311 9.189,-2.311 l -6.473,-2.754 c 3.183,-5.754 6.493,-11.676 7.317,-13.069 1.686,-2.855 4.538,-4.314 8.628,-4.314 0,0 -0.974,-6.362 -9.826,-6.362 0,0 1.331,-2.343 2.982,-5.29 1.422,-2.541 4.526,-10.722 0.319,-18.374 L 45.578,65.044 44.46,62.163 c 2.386,-4.728 2.461,-12.06 -1.877,-16.007 -4.338,-3.948 -9.646,-8.405 -12.21,-10.664 -4.035,-3.557 -3.336,-9.241 -3.336,-9.241 -4.446,12.448 -0.87,15.813 5.084,26.967 5.134,9.618 5.836,17.696 5.836,17.696 -1.479,7.086 -6.326,10.67 -6.326,10.67 l 1.982,-9.825 C 32.118,63.832 27.836,56.66 27.836,56.66 c -3.988,-3.639 -8.316,-4.2 -8.316,-4.2 0,0 -8.244,3.334 -16.053,4.192 -1.01,0.835 -1.757,2.461 -1.757,3.471 v 6.502 c 0,4.217 10.456,4.701 10.456,4.701 l 1.885,-1.23 c 1.713,4.305 2.598,8.431 2.598,8.431 -0.614,1.67 -1.628,2.771 -1.628,2.771 L 13.703,78.53 c 0,0 -4.527,-1.449 -13.642,-1.449 M 0,23.866 1.846,26.245 c 1.382,-0.828 2.075,-2.513 2.075,-2.513 l 1.888,2.345 C 7.19,25.248 7.932,23.529 7.932,23.529 l 2.514,3.997 c 2.864,-2.615 2.928,-6.052 2.928,-6.052 0,0 -5.149,0.206 -13.374,0.206 -8.226,0 -13.375,-0.206 -13.375,-0.206 0,0 0.064,3.437 2.929,6.052 l 2.513,-3.997 c 0,0 0.742,1.719 2.123,2.548 l 1.888,-2.345 c 0,0 0.694,1.685 2.075,2.513 z m -18.701,24.272 c 0.919,0.38 3.002,1.253 5.109,1.893 l 0.581,0.17 V 39.115 c 0,0 -4.481,3.871 -5.69,9.023 m 37.402,0 C 17.492,42.986 13.01,39.115 13.01,39.115 v 11.086 l 0.582,-0.17 c 2.106,-0.64 4.19,-1.513 5.109,-1.893"
             style="fill:#ffffff;fill-opacity:1;fill-rule:nonzero;stroke:none"
             id="path1474" />
        </g>
        <g
           id="g1476"
           transform="translate(423.4609,302.7785)">
          <path
             d="m 0,0 c 3.783,3.234 8.046,4.742 9.616,-0.884 0,0 -0.488,-1.137 -2.762,-3.566 0,0 -2.032,0.1 -6.854,0.1 -4.822,0 -6.853,-0.1 -6.853,-0.1 -2.274,2.429 -2.763,3.566 -2.763,3.566 C -8.045,4.742 -3.782,3.234 0,0 m 60.253,58.867 c 0,0.382 0.049,0.749 0.167,1.09 3.339,7.773 3.939,15.339 1.447,20.254 -1.196,2.357 -4.069,7.612 -4.364,8.106 -0.869,1.448 -1.961,2.707 -3.137,3.657 l 3.562,1.593 c 0,0 -6.051,3.694 -14.246,0.108 0,0 -2.517,-1.068 -4.303,-1.853 L 39.17,91.73 38.89,91.606 c -2.141,-0.898 -3.826,-0.438 -5.183,0.631 l -0.174,0.125 c -0.761,0.621 -1.563,1.16 -2.401,1.614 l 8.873,3.968 c 0,0 -6.051,3.046 -14.246,-0.54 0,0 -9.084,-3.509 -14.096,-5.519 2.222,4.41 4.125,9.919 4.993,16.636 l -2.523,-0.926 c 0,0 -2.763,-11.24 -14.133,-21.456 -11.37,10.216 -14.132,21.456 -14.132,21.456 l -2.523,0.926 c 0.867,-6.717 2.771,-12.226 4.993,-16.636 -5.012,2.01 -14.097,5.519 -14.097,5.519 -8.195,3.586 -14.245,0.54 -14.245,0.54 l 8.873,-3.968 c -0.838,-0.454 -1.64,-0.993 -2.402,-1.614 l -0.173,-0.125 c -1.358,-1.069 -3.042,-1.529 -5.184,-0.631 l -0.279,0.124 -0.21,0.092 c -1.785,0.785 -4.302,1.853 -4.302,1.853 -8.196,3.586 -14.246,-0.108 -14.246,-0.108 l 3.562,-1.593 c -1.177,-0.95 -2.268,-2.209 -3.137,-3.657 -0.296,-0.494 -3.169,-5.749 -4.364,-8.106 -2.484,-4.898 -1.895,-12.423 1.414,-20.168 0.15,-0.427 0.2,-0.794 0.2,-1.176 0,-1.8 -1.459,-3.26 -3.259,-3.26 l -7.43,-0.005 c -12.129,0 -14.089,10.839 -14.089,10.839 5.2,0 6.906,1.324 8.459,4.2 1.68,3.11 11.591,21.18 15.68,28.52 4.09,7.34 14.094,12.517 27.313,7.167 l 0.982,-0.402 1.968,1.364 -22.103,10.22 c 0,0 6.193,9.723 32.242,3.954 l -5.213,8.735 c 0,0 10.838,2.071 16.187,-5.939 0,0 2.648,6.329 9.515,9.859 6.868,-3.53 9.515,-9.859 9.515,-9.859 5.35,8.01 16.187,5.939 16.187,5.939 l -5.213,-8.735 c 26.049,5.769 32.242,-3.954 32.242,-3.954 l -22.102,-10.22 1.967,-1.364 0.982,0.402 c 13.22,5.35 23.223,0.173 27.313,-7.167 4.09,-7.34 14,-25.41 15.68,-28.52 1.554,-2.876 3.26,-4.2 8.46,-4.2 0,0 -1.96,-10.839 -14.09,-10.839 l -7.429,0.005 c -1.8,0 -3.259,1.46 -3.259,3.26 M 57.31,39.623 c 5.113,1.994 6.808,7.428 7.35,11.404 l 2.094,0.002 7.038,10e-4 c 5.102,0 9.249,-4.122 9.249,-9.224 0,-18.05 -5.595,-38.542 -17.999,-54.925 C 63.896,-2.452 56.187,4.705 56.187,4.705 L 54.954,2.694 c 0,0 8.246,-17.47 -1.737,-28.278 -9.32,-7.814 -20.993,-13.684 -35.246,-16.37 20.185,21.518 8.929,32.522 17.236,39.681 2.848,2.454 10.241,8.933 11.815,10.364 1.087,0.99 1.987,2.079 2.721,3.238 l 2.056,-3.673 5.104,9.283 c 5.011,9.116 2.351,18.425 0.407,22.684 m -75.281,-81.577 c -14.253,2.686 -25.925,8.556 -35.246,16.37 -9.983,10.808 -1.737,28.278 -1.737,28.278 l -1.233,2.011 c 0,0 -7.708,-7.157 -8.854,-17.824 -12.405,16.383 -17.999,36.875 -17.999,54.925 0,5.102 4.147,9.224 9.249,9.224 l 7.038,-10e-4 2.094,-0.002 c 0.542,-3.976 2.237,-9.41 7.35,-11.404 -1.944,-4.259 -4.604,-13.568 0.407,-22.684 l 5.103,-9.283 2.057,3.673 c 0.733,-1.159 1.634,-2.248 2.721,-3.238 1.573,-1.431 8.966,-7.91 11.815,-10.364 8.307,-7.159 -2.95,-18.163 17.235,-39.681 M -36.356,65.525 c -0.79,-1.206 -1.478,-2.56 -2.183,-3.973 7.792,0.512 16.291,-1.379 16.291,-1.379 -1.478,-2.908 -1.875,-5.116 -1.875,-5.116 l 0.192,-2.222 c 1.027,1.756 2.061,3.26 3.06,4.543 0.152,0.241 1.431,2.203 4.135,4.405 -12.665,3.945 -19.602,3.741 -19.62,3.742 M -3.583,25.357 c 0,0 1.253,0.768 1.935,2.357 v -1.728 c 0,-1.01 -0.747,-2.635 -1.757,-3.47 -7.81,-0.858 -16.053,-4.193 -16.053,-4.193 0,0 -4.329,0.561 -8.316,4.2 0,0 -4.283,7.173 -5.777,15.099 l 1.982,9.825 c 0,0 -4.847,-3.584 -6.326,-10.67 0,0 0.701,-8.077 5.835,-17.695 5.955,-11.155 9.531,-14.52 5.084,-26.968 1.009,5.494 0.588,9.636 -2.346,12.618 -2.666,2.708 -6.724,6.736 -11.26,11.221 -2.703,2.672 -3.365,6.185 -3.212,9.949 l -0.631,2.073 -1.092,2.932 -6.234,-11.136 c -0.147,2.434 -0.282,9.435 2.545,14.328 2.688,4.651 6.586,11.518 8.129,14.234 0,0 -0.904,-0.31 -6.861,-1.739 -5.408,-1.299 -9.687,2.574 -10.339,3.203 4.091,0 6.943,1.459 8.629,4.314 0.823,1.393 4.133,7.315 7.317,13.07 l -6.473,2.753 c 0,0 2.203,4.324 9.188,2.311 1.509,2.578 0.134,5.518 -2.072,6.559 -2.561,1.21 -3.439,1.624 -5.133,2.272 -2.37,0.906 -4.938,-1.196 -4.938,-1.196 l 3.216,-1.323 c 0,0 -0.924,-1.477 -2.383,-4.358 -1.866,-3.684 -2.848,-7.428 -0.701,-13.235 l -1.403,-2.571 c -4.879,8.609 -5.23,15.934 -3.594,19.16 0.738,1.455 2.143,4.067 3.121,5.859 1.68,2.082 4.87,2.929 7.004,2.156 1.938,-0.702 2.028,-0.748 4.172,-1.658 2.484,-1.053 2.399,-3.992 6.192,-5.7 1.509,2.71 2.684,4.841 3.236,5.816 3.11,5.497 7.902,7.273 14.068,4.699 7.634,-3.315 13.353,-5.998 13.353,-5.998 1.456,-1.806 3.262,-3.477 5.144,-4.893 l -16.075,5.649 -1.64,-0.309 c 2.779,-2.599 5.388,-5.771 7.131,-8.212 -0.988,-1.278 -2.784,-1.506 -2.784,-1.506 0,0 -2.944,1.264 -6.77,2.639 -3.636,-0.367 -6.595,-1.021 -8.929,-1.733 -4.758,-1.452 0,-2.608 0,-2.608 l 1.28,0.685 13.62,-4.685 3.739,0.249 0.742,1.267 1.964,1.115 c 0.731,-2.33 0.128,-4.329 0.128,-4.329 3.997,-0.726 6.523,-1.784 6.523,-1.784 l 0.886,-1.61 c -3.248,0 -6.042,-0.37 -8.435,-0.94 0,0 -3.844,-6.902 -5.983,-14.608 -0.022,0.047 -1.036,-1.054 -1.651,-2.723 0,0 0.885,-4.126 2.599,-8.431 -4.958,-1.269 -7.165,-2.253 -7.165,-2.253 -1.655,-2.103 -1.431,-4.736 -1.431,-4.736 0.671,-3.087 1.698,-5.143 1.698,-5.143 1.114,-1.339 2.769,-1.518 2.769,-1.518 0,0 6.602,2.387 14.535,3.047 m 41.52,11.42 -0.039,0.205 C 39.876,29.311 38.851,20.303 35.679,15.677 32.73,11.378 31.648,9.875 29.124,5.833 c -2.331,-3.732 -3.153,-8.117 -2.185,-13.5 -4.327,12.269 -0.757,15.66 5.162,26.749 5.134,9.618 5.836,17.695 5.836,17.695 m -13.563,21.39 -0.256,-3.079 c -0.054,0.277 -0.493,2.378 -1.869,5.085 0,0 8.486,1.888 16.274,1.38 0.694,-1.369 1.365,-2.749 1.757,-3.564 -8.548,0.984 -15.906,0.178 -15.906,0.178 M 13.045,75.925 c 6.488,3.651 12.164,5.541 12.164,5.541 4.955,-1.271 6.91,-3.552 6.91,-3.552 l 0.85,-1.37 c -3.945,1.598 -6.227,1.58 -6.227,1.58 -6.301,-1.777 -13.009,-4.668 -13.009,-4.668 0,0 -1.896,0.019 -3.559,2.041 l 0.557,1.439 c 0,0 1.108,-0.881 2.314,-1.011 m -0.9,-38.736 1.85,-1.202 C 4.822,34.297 4.636,31.845 4.636,31.845 4.544,29.869 4.682,27.814 4.682,27.814 c 0.46,-1.701 1.607,-2.703 1.607,-2.703 0,0 6.653,-0.795 14.263,-3.589 0,0 3.897,-0.05 7.264,1.001 -3.989,-3.639 -8.317,-4.2 -8.317,-4.2 0,0 -8.243,3.335 -16.053,4.193 -1.01,0.835 -1.757,2.46 -1.757,3.47 v 6.502 c 0,4.218 10.456,4.701 10.456,4.701 M 42.327,83.91 c -2.468,-1.046 -2.4,-3.954 -6.12,-5.667 0.279,0.297 2.114,2.398 2.442,6.77 0,0 3.037,1.438 5.802,2.648 3.789,1.657 6.276,0.592 8.052,-2.368 0.105,-0.177 0.556,-0.991 1.138,-2.059 -1.639,2.212 -4.948,3.129 -7.141,2.334 -1.938,-0.702 -2.028,-0.748 -4.173,-1.658 m 6.257,-5.353 3.182,1.309 c 0.045,0.003 1.094,-1.982 2.342,-4.379 1.649,-3.167 -0.182,-9.789 -2.28,-14.078 1.936,5.555 0.957,9.201 -0.861,12.79 -1.459,2.881 -2.383,4.358 -2.383,4.358 m -70.445,-96.303 c 0.493,5.507 5.406,13.751 1.325,25.632 4.277,-5.936 4.702,-13.747 3.178,-21.243 0,0 -1.472,-1.821 -2.418,-3.029 l -0.389,-2.429 -0.153,-1.214 4.151,1.051 c 5.136,0.366 13.317,0.361 17.196,0.338 L 0.42,-20.896 c -1.494,-0.54 -2.511,-1.882 -2.535,-3.056 -0.055,-2.711 0.01,-3.448 0.175,-5.994 0.173,-2.665 1.673,-3.951 1.985,-4.191 -8.746,0 -12.453,1.415 -12.453,1.415 -1.768,2.558 -2.204,5.652 -2.204,5.652 -1.143,-2.387 -2.521,-6.754 -2.521,-6.754 -3.245,5.72 -5.137,11.493 -4.728,16.078 M 20.492,7.873 c -4.027,-11.727 -1.122,-19.875 -0.575,-25.378 -0.76,1.1 -2.313,2.924 -2.313,2.924 -1.971,8.138 -1.386,16.531 2.89,22.467 z"
             style="fill:#b0baba;fill-opacity:1;fill-rule:nonzero;stroke:none"
             id="path1478" />
        </g>
        <g
           id="g1480"
           transform="translate(449.9717,371.3996)">
          <path
             d="m 0,0 c 0,-1.995 -0.979,-3.76 -2.484,-4.842 -1.299,-0.304 -2.695,-0.66 -4.187,-1.078 -2.271,0.27 -4.151,1.816 -4.902,3.902 2.459,0.903 6.369,2.246 11.349,3.643 C -0.078,1.109 0,0.563 0,0 m -53.021,0 c 0,0.563 0.078,1.109 0.224,1.625 4.98,-1.397 8.89,-2.74 11.349,-3.643 -0.751,-2.086 -2.631,-3.632 -4.903,-3.902 -1.491,0.418 -2.887,0.774 -4.187,1.077 -1.504,1.082 -2.483,2.848 -2.483,4.843"
             style="fill:#f2522a;fill-opacity:1;fill-rule:nonzero;stroke:none"
             id="path1482" />
        </g>
        <g
           id="g1484"
           transform="translate(440.1978,364.5617)">
          <path
             d="M 0,0 C 2.887,-2.352 4.15,-4.43 4.15,-4.43 L 3.917,-5.993 c -3.197,2.564 -7.093,4.722 -11.683,5.898 0.55,2.746 2.11,4.12 2.11,4.12 -2.588,1.674 -3.05,4.501 -3.05,4.501 l 0.788,1.9 c 1.289,-3.037 4.785,-2.994 4.785,-2.994 8.281,3.54 14.813,5.429 14.813,5.429 5.185,-1.251 7.972,-3.437 7.972,-3.437 L 15.117,7.827 c 0,0 2.323,-0.839 4.485,-4.086 0,0 -4.302,0.126 -12.312,-1.745 1.504,1.082 2.484,2.847 2.484,4.842 0,0.563 -0.078,1.109 -0.224,1.625 C 8.466,8.159 7.433,7.858 6.455,7.562 6.633,7.183 6.733,6.759 6.733,6.312 6.733,4.689 5.417,3.373 3.793,3.373 2.352,3.373 1.153,4.409 0.902,5.777 -0.131,5.423 -1.035,5.101 -1.799,4.82 -1.048,2.734 0.832,1.187 3.103,0.918 2.11,0.64 1.076,0.335 0,0 m -33.473,0 c -1.076,0.335 -2.111,0.64 -3.104,0.918 2.272,0.269 4.152,1.816 4.903,3.902 -0.765,0.281 -1.668,0.603 -2.701,0.957 -0.251,-1.368 -1.451,-2.404 -2.892,-2.404 -1.623,0 -2.94,1.316 -2.94,2.939 0,0.447 0.1,0.871 0.279,1.25 -0.979,0.296 -2.011,0.597 -3.095,0.901 -0.146,-0.516 -0.225,-1.062 -0.225,-1.625 0,-1.995 0.98,-3.761 2.484,-4.843 -8.011,1.872 -12.311,1.746 -12.311,1.746 2.161,3.247 4.485,4.086 4.485,4.086 l -4.535,1.597 c 0,0 2.787,2.186 7.971,3.437 0,0 6.532,-1.889 14.814,-5.429 0,0 3.495,-0.043 4.784,2.994 l 0.788,-1.9 c 0,0 -0.461,-2.827 -3.049,-4.501 0,0 1.56,-1.374 2.109,-4.12 -4.589,-1.176 -8.485,-3.334 -11.683,-5.898 l -0.232,1.563 c 0,0 1.263,2.078 4.15,4.43"
             style="fill:#231f20;fill-opacity:1;fill-rule:nonzero;stroke:none"
             id="path1486" />
        </g>
        <g
           id="g1488"
           transform="translate(399.082,372.4773)">
          <path
             d="M 0,0 C 1.092,-0.32 2.123,-0.634 3.088,-0.939 3.02,-1.788 2.309,-2.457 1.442,-2.457 c -0.912,0 -1.651,0.74 -1.651,1.651 0,0.293 0.076,0.568 0.209,0.806 m 44.085,-1.446 c 0.122,-0.23 0.19,-0.493 0.19,-0.77 0,-0.913 -0.739,-1.652 -1.651,-1.652 -0.818,0 -1.496,0.595 -1.628,1.375 0.909,0.32 1.943,0.672 3.089,1.047"
             style="fill:#ffffff;fill-opacity:1;fill-rule:nonzero;stroke:none"
             id="path1490" />
        </g>
        <g
           id="g1492"
           transform="translate(388.8784,198.2966)">
          <path
             d="m 0,0 c -0.277,0 -1.131,0.365 -2.66,2.05 -1.432,1.699 -1.81,2.66 -1.809,3.036 l 1.116,42.128 -7.19,6.923 H 8.878 L 8.034,8.033 18.795,8.424 19.3,54.137 H 31.514 L 31.4,8.658 H 42.153 L 41.938,54.137 H 61.5 l 0.094,-6.923 H 54.342 L 54.836,8.312 62.363,7.977 62.508,0.393 C 53.413,0.866 44.147,1.11 34.743,1.11 22.946,1.11 11.365,0.726 0.065,-0.013 Z m -18.749,0.154 c -1.398,-1.418 -2.201,-1.892 -2.529,-2.014 -9.304,-1.008 -18.386,-2.26 -27.204,-3.742 -0.311,0.037 -1.163,0.462 -2.625,2.141 -1.467,1.812 -1.748,2.721 -1.73,2.932 l 2.988,50.014 c 0.034,0.558 0.517,1.516 2.099,2.911 1.613,1.377 2.711,1.813 3.384,1.813 h 24.328 c 0.563,0 1.59,-0.422 3.149,-1.837 1.564,-1.418 1.954,-2.342 1.94,-2.816 L -16.611,3.13 c -0.018,-0.293 -0.457,-1.225 -2.138,-2.976 m -8.605,47.06 h -10.399 l -2.164,-43.872 10.78,1.482 z m -78.269,-66.788 0.79,8.192 7.754,2.366 5.83,65.676 -6.65,6.832 h 26.679 l -0.578,-7.937 h -7.345 l -4.895,-60.966 10.898,2.61 1.048,14.854 h 12.651 l -1.229,-19.88 c -16.044,-3.17 -31.125,-7.121 -44.953,-11.747 m 60.682,86.914 h 7.215 l -0.284,-5.564 z m 15.86,0 h 7.216 l -0.222,-5.564 z m 183.294,-80.691 -5.565,70.011 h -10.404 l 4.856,-67.261 c -6.706,1.553 -13.611,2.966 -20.69,4.23 l -0.422,7.71 7.571,-1.377 -3.582,56.698 -7.687,6.903 h 36.628 c 0.61,0 1.693,-0.428 3.344,-1.808 1.65,-1.33 2.156,-2.255 2.203,-2.782 l 5.972,-67.91 7.914,-2.45 0.775,-8.193 c -6.69,2.239 -13.672,4.319 -20.913,6.229 m -83.688,13.265 -0.167,7.581 7.467,-0.553 -1.131,40.272 -7.502,6.923 h 42.055 l 0.736,-14.068 H 99.64 l -0.354,7.145 H 88.968 l 0.585,-15.961 h 8.129 l 0.372,-8.377 h -8.166 l 0.599,-17.141 10.763,-1.269 -0.367,7.577 h 12.574 l 0.95,-17.061 c -14.031,2.241 -28.713,3.908 -43.882,4.932"
             style="fill:#ffffff;fill-opacity:1;fill-rule:nonzero;stroke:none"
             id="path1494" />
        </g>
        <g
           id="g1496"
           transform="translate(306.7646,295.134)">
          <path
             d="m 0,0 -0.228,-2.64 -2.612,-0.297 0.235,2.62 z m -1.062,-12.283 -0.224,-2.593 -2.639,-0.136 0.231,2.572 z m -4.802,5.659 -0.231,-2.574 -2.489,-0.205 0.239,2.555 z m 0.537,5.976 -0.233,-2.598 -2.475,-0.281 0.241,2.578 z m 29.004,-7.448 0.213,3.111 2.734,0.211 -0.201,-3.11 z m 6.242,7.046 0.2,3.123 2.753,0.284 -0.186,-3.121 z m -5.36,5.851 0.215,3.139 2.69,0.349 -0.202,-3.139 z m 5.784,0.748 0.202,3.139 2.726,0.352 -0.188,-3.136 z m -4.902,12.147 0.218,3.177 2.646,0.483 -0.204,-3.174 z m 9.513,-31.641 0.185,3.099 2.808,0.144 -0.171,-3.099 z m 160.714,3.243 2.809,-0.144 0.184,-3.099 -2.822,0.144 z m 5.075,13.059 2.753,-0.284 0.2,-3.123 -2.767,0.286 z m -0.398,6.683 2.725,-0.352 0.202,-3.139 -2.74,0.355 z m 4.545,18.853 2.623,-0.55 0.219,-3.199 -2.636,0.553 z m -14.742,-45.274 2.838,-0.072 0.17,-3.091 -2.852,0.072 z m 33.627,17.119 -0.176,2.36 c 4.145,0.536 8.619,0.411 12.1,-0.457 l 0.214,-2.31 c -3.391,0.896 -7.893,0.963 -12.138,0.407 m 12.679,-6.249 c -3.25,0.816 -7.996,0.837 -12.239,0.345 l -0.175,2.35 c 4.171,0.475 8.698,0.415 12.194,-0.317 z m 1.076,-11.642 c -0.809,0.124 -1.747,0.222 -2.781,0.291 l -0.202,2.369 c 0.998,-0.058 1.928,-0.143 2.761,-0.252 z m -0.76,8.225 0.218,-2.357 c -1.784,0.361 -3.968,0.515 -6.264,0.516 l -0.181,2.321 c 2.236,-0.013 4.385,-0.165 6.227,-0.48 m -41.738,12.875 2.638,-0.272 0.186,-3.122 -2.768,0.286 -0.16,2.915 z"
             style="fill:#b0baba;fill-opacity:1;fill-rule:nonzero;stroke:none"
             id="path1498" />
        </g>
        <g
           id="g1500"
           transform="translate(477.9717,202.0066)">
          <path
             d="m 0,0 14.442,-1.706 -0.393,7.873 h 4.127 L 18.75,-5.515 c -6.88,0.992 -13.906,1.849 -21.057,2.561 z m 16.157,47.271 0.434,-8.833 h -4.04 l -0.312,6.008 z M -16.522,1.439 -9.04,0.885 l -1.286,43.492 -4.349,4.006 h 8.226 l 1.706,-51.1 c -3.865,0.365 -7.768,0.69 -11.705,0.971 z m -47.491,-1.933 c -7.063,-0.126 -14.041,-0.388 -20.92,-0.782 l 2.514,3.371 14.257,0.519 0.439,45.769 h 4.029 z m -24.736,-1.014 c -0.223,0.198 -0.689,0.582 -1.367,1.323 -0.64,0.761 -0.996,1.299 -1.181,1.635 l -0.098,0.19 1.071,42.744 -4.161,3.999 h 8.149 l -1.111,-49.809 z m -48.554,-5.537 c -0.27,0.235 -0.621,0.688 -1.205,1.359 -0.661,0.818 -1.01,1.376 -1.181,1.702 l 2.843,49.757 c 0.185,0.277 0.666,0.815 1.359,1.427 0.699,0.595 1.216,0.926 1.565,1.101 0.173,0.087 0.29,0.128 0.353,0.145 h 0.956 l -3.013,-55.213 z m -40.053,-8.7 2.552,3.986 14.623,3.507 0.997,14.429 h 4.298 l -1.141,-16.763 c -7.334,-1.559 -14.453,-3.282 -21.329,-5.159 m -14.542,-1 7.764,2.373 5.953,68.183 -3.856,3.954 h 8.159 l -6.229,-74.273 c -4.131,-1.163 -8.172,-2.383 -12.116,-3.657 z m 191.421,41.03 h 5.245 l 0.121,-2.991 h -8.162 z m -61.03,-24.74 2.337,3.226 h 14.4 l -0.283,45.612 h 4.045 l 0.455,-48.966 c -4.562,0.116 -9.163,0.175 -13.797,0.175 -2.395,0 -4.78,-0.016 -7.157,-0.047 m -54.638,-0.339 1.833,45.207 4.023,2.929 -1.953,-50.802 c -7.021,-0.795 -14.004,-1.798 -20.777,-2.883 l 2.5,3.571 z m 181.357,57.532 6.14,-73.231 c -1.384,0.39 -2.779,0.773 -4.183,1.15 L 61.565,53.879 Z M 47.25,-10.57 c -3.893,0.827 -7.848,1.608 -11.859,2.34 l -0.182,3.228 7.596,-1.383 -3.891,60.19 -4.496,4.03 h 8.179 z"
             style="fill:#b0baba;fill-opacity:1;fill-rule:nonzero;stroke:none"
             id="path1502" />
        </g>
      </g>
    </g>
  </g>
</svg>
