<?xml version="1.0" encoding="UTF-8" standalone="no"?>
<!-- Created with Inkscape (http://www.inkscape.org/) -->

<svg
   version="1.1"
   id="svg1357"
   width="660"
   height="580"
   viewBox="0 0 660 580"
   xmlns="http://www.w3.org/2000/svg"
   xmlns:svg="http://www.w3.org/2000/svg">
  <defs
     id="defs1361" />
  <g
     id="g1365"
     transform="matrix(1.3333333,0,0,-1.3333333,0,1056)">
    <g
       id="g1367"
       transform="matrix(0.1,0,0,0.1,-37.849463,292.38711)">
      <path
         d="m 4631.32,3878.19 h 635.59 v 936.59 H 3352.98 v -337.46 h -50.76 c 0,0 11.44,12.16 10.73,130.12 -1.43,140.13 -134.41,207.34 -201.62,207.34 -82.94,0 -1504.26,0 -1504.26,0 v 145.85 H 1070.14 V 4814.78 H 402.379 v -387.51 h 45.758 v -155.14 h -45.758 v -392.51 h 653.461 654.19 l 1427.75,-342.46 940.17,341.74 553.37,-0.71"
         style="fill:#ffffff;fill-opacity:1;fill-rule:evenodd;stroke:none"
         id="path1369" />
      <path
         d="m 3207.85,2212.35 c 0,0 -384.64,-159.43 -464.72,-193.75 -80.08,-34.31 -96.52,-72.21 -104.38,-99.37 -12.16,-42.19 -32.89,-183.75 -72.21,-243.09 -58.63,-88.65 -80.79,-91.51 -111.54,-87.22 -18.59,2.85 -21.45,45.04 -21.45,62.2 0,25.74 -4.28,100.8 -55.05,162.29 -25.73,31.46 -37.17,38.61 -115.82,5.01 -79.36,-33.61 -112.96,-37.9 -129.4,-116.54 -15.73,-77.93 -51.48,-269.54 -62.21,-336.03 -10,-66.49 -24.3,-161.58 -27.88,-195.18 -2.86,-33.6 -2.14,-260.959 -5.72,-299.565 -5,-52.191 -21.45,-102.957 -66.49,-10.726 -19.3,38.605 -35.75,105.816 -52.9,233.791 -17.88,127.97 -21.45,208.05 -21.45,286.7 -0.72,77.93 3.57,205.19 -7.15,275.97 -11.44,70.77 -27.89,168.72 -51.48,217.34 -28.6,57.91 -57.2,100.81 -105.81,171.59 -49.33,70.78 -91.51,125.12 -135.85,198.75 -44.32,72.93 -73.63,127.27 -117.96,215.21 -60.77,120.82 -31.46,178.73 40.03,115.11 7.87,-7.16 100.82,-130.13 230.93,-254.53 32.18,-30.74 192.33,-181.6 307.44,-242.37 19.3,-10.73 102.24,-47.19 237.36,33.6 134.41,78.65 273.11,180.89 310.29,225.22 31.46,37.17 24.31,55.76 -43.61,27.17 -53.62,-22.17 -147.28,-64.35 -225.93,-107.25 -78.64,-43.61 -187.32,-100.09 -228.78,-90.08 -40.75,10.01 -84.37,16.44 -75.07,178.02 9.29,161.58 7.86,208.76 42.18,331.02 34.32,122.26 62.2,208.77 80.08,268.82 17.87,59.34 20.01,65.07 22.16,86.51 2.86,21.45 4.29,17.16 -41.47,39.32 -45.04,22.17 -152.28,70.07 -260.95,122.26 -107.96,52.2 -262.39,132.99 -353.19,200.19 -91.51,67.2 -173.02,128.69 -237.36,198.04 -63.64,69.35 -130.84,152.28 -170.88,263.82 -40.75,111.53 -56.48,163.01 46.47,189.46 103.67,27.17 318.15,75.07 464.72,85.8 147.28,11.43 305.29,26.45 448.27,12.86 143,-13.58 308.15,-35.75 455.43,-65.06 147.28,-29.31 292.41,-53.62 453.28,-114.39 0,0 235.22,142.99 422.54,188.03 188.02,44.33 225.2,52.2 291.7,48.62 12.15,-0.72 12.87,-24.31 1.42,-28.6 -15.01,-6.43 -160.14,-70.06 -242.36,-175.16 -82.94,-105.1 -85.08,-125.83 -88.66,-137.99 -2.86,-12.87 11.44,-12.15 26.46,-8.58 15.01,3.57 219.49,49.33 327.44,66.49 107.96,17.88 367.49,51.48 544.08,40.04 176.6,-12.15 238.8,-67.21 146.57,-147.28 -92.95,-80.07 -222.35,-214.49 -286.7,-283.12 -63.63,-69.35 -153,-184.46 -214.48,-268.82 -61.49,-84.37 -148,-205.91 -223.78,-212.35 0,0 7.86,-172.3 -161.58,-457.56 0,0 144.41,-326.73 170.87,-386.79 25.02,-56.48 32.17,-76.5 47.91,-117.25 28.59,-73.65 5,-120.83 -83.66,-76.5 -67.92,33.6 -449.7,205.9 -449.7,205.9"
         style="fill:#030706;fill-opacity:1;fill-rule:evenodd;stroke:none"
         id="path1371" />
      <path
         d="m 2611.58,3773.8 22.16,78.65 42.19,-88.65 28.59,77.93 45.04,-88.66 37.18,81.51 41.47,-95.09 43.61,74.36 45.04,-105.81 39.33,75.78 47.9,-110.82 25.02,90.09 c 0,0 85.08,-93.67 107.96,-161.59 0,0 52.9,19.3 108.67,55.77 111.53,73.64 127.26,78.64 207.34,111.53 80.07,33.61 153.71,66.49 319.58,101.53 165.15,35.74 277.4,41.46 422.54,40.75 137.27,-0.72 192.32,-19.3 194.46,-37.9 1.43,-18.58 0.72,-25.73 -72.92,-88.65 -72.93,-62.92 -183.03,-153 -287.42,-247.37 -105.09,-93.66 -237.36,-213.77 -270.24,-250.95 -32.89,-37.17 -120.12,-112.96 -191.61,-114.39 -71.5,-1.43 -120.11,13.58 -158.01,12.15 -37.89,-1.43 -60.05,-40.75 -47.9,-73.64 12.16,-33.6 57.91,-158 55.77,-280.97 -0.72,-65.06 2.14,-96.52 -42.18,-213.77 0,0 72.21,-61.49 158.72,-205.91 25.74,-42.18 119.39,-188.75 174.45,-346.04 10,-29.31 0,-36.46 -18.59,-29.31 -19.31,6.43 -479.02,220.92 -479.02,220.92 0,0 -368.2,-159.43 -496.18,-212.34 -115.82,-48.62 -110.82,-124.4 -134.41,-214.49 -14.3,-55.05 -34.32,-150.85 -93.66,-190.17 -16.44,-11.45 -15.73,-9.3 -16.44,25.02 -1.43,100.09 -71.5,188.03 -85.8,196.61 -48.61,32.17 -98.66,12.87 -173.73,-22.88 -61.49,-29.31 -94.37,-50.04 -105.1,-92.22 -10.01,-42.19 -56.48,-273.12 -75.06,-399.66 -17.88,-125.83 -27.17,-187.32 -27.17,-317.44 V 860.379 c 0,0 -20.02,22.879 -41.48,183.751 -21.44,160.14 -28.59,233.07 -27.16,364.62 0.71,130.83 2.86,265.25 -37.89,408.23 -35.04,120.83 -150.86,257.39 -239.51,398.95 -88.66,141.56 -130.12,198.76 -179.45,340.31 0,0 195.89,-230.93 422.53,-419.67 16.44,-13.59 125.84,-117.97 237.36,-117.97 77.93,0 201.62,67.92 260.25,100.81 57.91,32.18 219.49,144.42 257.38,175.16 35.75,28.6 47.9,32.18 28.6,49.33 -14.3,12.87 -37.18,30.74 -37.18,30.74 0,0 162.3,106.54 230.93,163.02 18.59,15.01 137.99,127.26 33.6,220.2 -12.15,10.73 -21.45,5.72 -22.16,-27.16 0,-6.44 -0.72,-52.91 -78.64,-115.11 -77.93,-62.21 -165.88,-132.98 -257.39,-180.89 -90.8,-48.61 -175.88,-93.65 -264.53,-140.84 -88.65,-47.19 -149.43,-88.66 -186.6,-69.35 -30.03,15.72 -33.61,124.4 -6.44,187.31 30.75,70.07 66.5,140.13 100.1,215.92 31.45,69.35 86.5,183.74 115.11,253.81 28.59,69.35 60.05,145.13 46.46,168.01 -13.57,22.88 -49.32,40.76 -122.25,67.21 -73.64,25.74 -158.01,46.47 -223.78,70.06 -65.77,23.6 -148.71,51.48 -178.02,87.23 -13.59,16.44 -20.02,32.88 -9.3,40.75 l -95.8,87.94 103.66,-37.89 7.87,13.58 -82.22,100.81 110.1,-45.76 11.44,16.45 -82.93,97.94 109.38,-55.76 12.88,11.44 -61.49,88.65 88.66,-69.35 19.3,10.73 -51.48,100.8 107.96,-72.93 17.16,5.73 -50.05,84.36 100.09,-76.5 11.44,2.86 -34.31,73.64 89.37,-70.06 -19.31,61.48 72.93,-61.48 17.87,-0.72 c 0,0 -7.15,30.03 -17.87,40.75 0,0 53.62,-34.32 57.2,-38.6 4.28,-5.01 3.56,6.43 2.85,12.87 -0.72,6.43 -5.72,22.16 2.15,19.3 8.58,-2.86 27.16,-22.16 37.18,-32.17 4.29,-4.29 17.87,-2.86 17.87,5 0,7.15 -4.3,33.6 5,30.03 10.01,-2.86 17.16,-0.72 33.61,-32.89 1.43,-3.57 39.32,-6.43 50.04,-2.14 l -62.2,65.06 c 0,0 -37.17,22.16 -45.76,21.44 -7.86,-0.71 -10,-23.59 -16.44,-24.3 -7.15,-0.72 -42.18,47.18 -57.91,52.19 -5.72,2.14 -9.3,-40.04 -9.3,-40.04 0,0 -40.03,75.07 -81.5,79.36 -5.72,0.72 12.16,-35.03 6.43,-52.19 0,0 -45.75,70.78 -97.23,83.65 l 10.01,-60.05 -70.06,67.2 -31.47,6.43 21.46,-67.2 -77.93,65.06 -28.6,-2.86 30.74,-75.79 -79.35,61.49 -27.18,-9.3 38.61,-88.65 -89.37,67.92 -32.17,-20.02 60.05,-94.37 -101.52,64.35 -29.31,-23.6 90.8,-115.11 -131.55,62.92 -20.02,-39.32 115.82,-109.39 -132.98,40.75 c 0,0 -2.86,-26.45 -2.86,-48.61 0,-22.17 -5,-21.45 -16.45,-15.74 -10.72,5.73 -142.98,80.08 -224.49,170.88 -81.5,90.8 -129.41,146.56 -168.73,266.68 -24.31,75.07 -2.14,82.93 47.91,90.79 49.33,8.59 190.17,20.74 324.58,12.16 134.42,-7.86 271.68,-25.03 381.07,-43.62 108.67,-19.3 212.34,-36.45 334.6,-66.48 122.97,-30.75 369.63,-90.81 369.63,-90.81"
         style="fill:#ffffff;fill-opacity:1;fill-rule:evenodd;stroke:none"
         id="path1373" />
      <path
         d="M 772.723,4688.23 H 527.496 v -138.7 h 46.473 v -401.08 h -46.473 v -143.71 h 245.227 v 260.96 h 103.668 v -260.96 h 166.589 c 0,45.76 0.71,69.35 404.66,144.42 h -372.49 v 246.66 H 946.453 l 85.087,148.71 h 70.06 v 143.7 H 913.57 L 772.723,4395.82 v 292.41"
         style="fill:#ed1c24;fill-opacity:1;fill-rule:evenodd;stroke:none"
         id="path1375" />
      <path
         d="m 1195.26,4835.51 h 104.38 V 4729.7 h -104.38 v 105.81"
         style="fill:#ed1c24;fill-opacity:1;fill-rule:evenodd;stroke:none"
         id="path1377" />
      <path
         d="m 1376.86,4835.51 h 103.67 V 4729.7 h -103.67 v 105.81"
         style="fill:#ed1c24;fill-opacity:1;fill-rule:evenodd;stroke:none"
         id="path1379" />
      <path
         d="m 1300.36,4585.28 h 75.07 v -282.4 h -75.07 z m -56.48,102.95 h 185.89 c 42.89,0 77.21,-35.03 77.21,-77.93 V 4280 c 0,-42.91 -34.32,-77.93 -77.21,-77.93 h -185.89 c -42.9,0 -77.93,35.02 -77.93,77.93 v 330.3 c 0,42.9 35.03,77.93 77.93,77.93"
         style="fill:#ed1c24;fill-opacity:1;fill-rule:evenodd;stroke:none"
         id="path1381" />
      <path
         d="m 1709.31,4589.57 h 35.03 v 98.66 h -209.48 v -98.66 h 33.6 v -284.55 h -33.6 v -102.95 h 367.49 v 185.88 H 1770.8 v -82.93 h -61.49 v 284.55"
         style="fill:#ed1c24;fill-opacity:1;fill-rule:evenodd;stroke:none"
         id="path1383" />
      <path
         d="m 2093.24,4688.23 h -162.29 v -98.66 h 34.31 v -284.55 h -34.31 v -102.95 h 163.72 v 246.65 l 129.4,-246.65 h 130.84 v 387.5 h 30.03 v 98.66 h -160.87 v -242.37 l -130.83,242.37"
         style="fill:#ed1c24;fill-opacity:1;fill-rule:evenodd;stroke:none"
         id="path1385" />
      <path
         d="m 2768.87,4535.95 v 152.28 h -361.05 v -98.66 h 33.6 v -284.55 h -33.6 v -102.95 h 368.91 v 165.86 h -120.82 v -62.91 h -78.65 v 100.8 h 105.81 v 92.23 h -105.81 v 91.52 h 78.65 v -53.62 h 112.96"
         style="fill:#ed1c24;fill-opacity:1;fill-rule:evenodd;stroke:none"
         id="path1387" />
      <path
         d="m 3648.26,4498.05 v 190.18 h -169.44 v -98.66 h 32.88 v -284.55 h -32.88 v -98.66 c 0,0 81.5,29.3 169.44,29.3 v 160.16 h 75.07 V 4227.8 c 0,0 9.3,-2.14 20.73,-25.73 h 150.86 v 102.95 h -35.75 v 284.55 h 35.75 v 98.66 h -171.59 v -190.18 h -75.07"
         style="fill:#ed1c24;fill-opacity:1;fill-rule:evenodd;stroke:none"
         id="path1389" />
      <path
         d="m 4146.58,4604.58 h -5.72 l -28.6,-198.76 h 66.49 z m -183.74,-299.56 h -39.32 v -102.95 h 163 l 17.88,119.39 h 83.64 l 15.74,-119.39 h 157.29 v 102.95 h -34.32 l -75.79,383.21 h -221.64 l -66.48,-383.21"
         style="fill:#ed1c24;fill-opacity:1;fill-rule:evenodd;stroke:none"
         id="path1391" />
      <path
         d="m 4557.68,4589.57 h 32.89 v 98.66 H 4386.8 v -98.66 h 34.32 v -284.55 h -34.32 v -102.95 h 203.77 v 102.95 h -32.89 v 284.55"
         style="fill:#ed1c24;fill-opacity:1;fill-rule:evenodd;stroke:none"
         id="path1393" />
      <path
         d="m 4625.59,4688.23 v -141.56 h 46.48 V 4150.59 H 3736.2 c 0,0 -140.85,-64.35 -209.48,-145.85 h 1615.07 v 232.35 h -169.44 v -86.5 h -109.39 v 140.12 h 147.28 v 127.98 h -147.28 v 127.98 h 109.39 v -73.64 h 159.43 v 215.2 h -506.19"
         style="fill:#ed1c24;fill-opacity:1;fill-rule:evenodd;stroke:none"
         id="path1395" />
      <path
         d="m 3281.49,4150.59 h -933.01 c 0,0 364.62,-55.77 632.01,-139.42 0,0 42.18,23.6 137.28,70.78 69.34,35.03 163.72,68.64 163.72,68.64"
         style="fill:#ed1c24;fill-opacity:1;fill-rule:evenodd;stroke:none"
         id="path1397" />
      <path
         d="m 2972.63,4583.85 h 78.64 v -92.23 h -78.64 z m -168.73,104.38 v -98.66 h 33.6 v -284.55 h -33.6 v -102.95 h 168.73 v 197.32 h 78.64 v -155.86 c 0,-19.3 15.02,-41.46 30.75,-41.46 15.72,0.71 137.98,0 137.98,0 v 102.95 h -32.89 c 0,120.11 -15.72,124.4 -67.2,139.41 -1.43,0 67.2,21.45 67.2,91.52 v 70.06 c 0,32.89 -37.89,82.22 -83.65,82.22 H 2803.9"
         style="fill:#ed1c24;fill-opacity:1;fill-rule:evenodd;stroke:none"
         id="path1399" />
      <path
         d="m 1760.79,4014.75 c 0,35.75 30.74,65.05 67.91,65.05 37.19,0 67.93,-29.3 67.93,-65.05 0,-35.75 -30.74,-64.35 -67.93,-64.35 -37.17,0 -67.91,28.6 -67.91,64.35"
         style="fill:#ffffff;fill-opacity:1;fill-rule:evenodd;stroke:none"
         id="path1401" />
      <path
         d="m 1785.09,4008.31 c 0,19.3 13.59,34.32 30.75,34.32 17.16,0 31.46,-15.02 31.46,-34.32 0,-18.59 -14.3,-33.6 -31.46,-33.6 -17.16,0 -30.75,15.01 -30.75,33.6"
         style="fill:#030706;fill-opacity:1;fill-rule:evenodd;stroke:none"
         id="path1403" />
      <path
         d="M 1070.14,4960.63 V 4814.78 H 402.379 v -387.51 h 45.758 v -155.14 h -45.758 v -396.8 h 730.681 c 0,0 -17.16,37.18 -16.45,81.5 H 483.883 v 233.8 h 46.472 v 314.57 h -46.472 v 228.07 H 816.34 V 4591 l 68.633,142.27 h 265.957 v 146.57 h 373.92 v -146.57 h 263.82 v -188.74 h -35.75 V 4433 h 168.02 v 111.53 h -33.61 v 188.74 h 232.36 l 60.06,-112.24 v 112.24 h 917.99 c 75.79,0 132.99,-65.77 132.99,-125.83 0,-61.49 0,-77.21 0,-77.21 0,-34.32 -10.01,-58.63 -30.75,-83.66 0,0 30.75,-28.59 30.75,-100.09 h 34.31 v -155.85 h 156.58 c 0,0 10.01,4.28 13.58,4.28 v 151.57 h 32.89 v 198.05 h -32.89 v 188.74 h 503.33 v -188.74 h -35.75 v -198.05 h 22.16 l 67.92,386.79 h 295.28 l 75.78,-386.79 h 13.59 v 198.05 h -34.32 v 188.74 h 832.2 v -306 h -120.1 v -146.56 h 131.55 V 3956.83 H 4173.03 l 256.67,-82.93 c 0,-0.72 65.77,0 65.77,0 -10,-62.2 -50.04,-83.65 -92.93,-123.69 -97.24,-90.79 -245.95,-240.94 -347.48,-368.2 -101.52,-126.55 -248.8,-353.18 -327.44,-371.77 0,0 3.58,-145.14 -153,-416.82 0,0 62.92,-158.72 122.26,-285.98 58.62,-127.98 117.96,-270.25 101.52,-315.29 -15.01,-40.04 -51.48,-39.32 -63.63,-42.18 0,0 85.08,-49.33 135.84,-53.62 51.48,-5.01 90.08,27.88 82.93,72.2 -25.74,163.73 -163,388.94 -225.92,569.82 0,0 151.57,258.81 150.85,421.83 0,0 40.76,7.14 120.12,104.38 33.6,40.75 130.84,169.44 175.16,223.78 43.61,53.62 270.96,308.14 359.62,391.08 88.66,82.93 150.14,107.95 97.95,194.46 h 635.59 v 940.88 H 3352.98 v -337.46 h -50.76 c 0,0 11.44,12.16 10.73,130.12 -1.43,140.13 -134.41,207.34 -201.62,207.34 -82.94,0 -1504.26,0 -1504.26,0 v 145.85 h -536.93"
         style="fill:#030706;fill-opacity:1;fill-rule:evenodd;stroke:none"
         id="path1405" />
      <path
         d="m 3327.25,2115.83 -120.12,50.05 c 0,0 -378.2,-155.86 -434.69,-179.45 -57.19,-22.88 -89.37,-46.47 -102.95,-106.53 -13.58,-60.06 -30.74,-235.94 -124.4,-306.71 0,0 -7.15,-88.65 78.64,-82.23 85.79,5.73 151.57,98.67 175.16,216.64 23.6,117.96 26.46,196.61 129.41,239.51 102.96,42.89 398.95,168.72 398.95,168.72"
         style="fill:#030706;fill-opacity:1;fill-rule:evenodd;stroke:none"
         id="path1407" />
      <path
         d="m 2358.48,1646.11 c 15.73,61.49 22.17,109.39 -29.31,141.56 -18.58,12.15 -127.97,-40.75 -137.99,-68.63 -13.58,-39.33 -18.58,-82.22 -43.61,-213.06 -25.02,-130.84 -44.32,-204.47 -50.76,-268.11 -6.43,-63.62 -13.58,-152.99 -12.86,-215.2 0.71,-61.482 6.43,-175.158 -10.73,-210.904 0,0 26.45,-107.961 94.37,-102.961 33.61,2.148 65.78,10.011 70.07,107.961 4.29,97.953 7.86,198.044 22.88,326.734 15.01,129.41 27.88,181.6 53.62,302.43 25.74,120.82 28.6,138.7 44.32,200.18"
         style="fill:#030706;fill-opacity:1;fill-rule:evenodd;stroke:none"
         id="path1409" />
    </g>
  </g>
</svg>
