<?xml version="1.0" encoding="UTF-8" standalone="no"?>
<!-- Created with Inkscape (http://www.inkscape.org/) -->

<svg
   version="1.1"
   id="svg9"
   width="650"
   height="650"
   viewBox="0 0 650 650"
   xmlns="http://www.w3.org/2000/svg"
   xmlns:svg="http://www.w3.org/2000/svg">
  <defs
     id="defs13">
    <clipPath
       clipPathUnits="userSpaceOnUse"
       id="clipPath27">
      <path
         d="M 0,0 H 5450 V 4720 H 0 Z"
         id="path25" />
    </clipPath>
  </defs>
  <g
     id="g17"
     transform="matrix(1.3333333,0,0,-1.3333333,0,1056)">
    <g
       id="g19"
       transform="matrix(0.1,0,0,0.1,-28.387097,320.77421)">
      <g
         id="g21">
        <g
           id="g23"
           clip-path="url(#clipPath27)">
          <path
             d="m 1473.74,2810.12 c 0,0 84.11,100.16 168.77,166.73 84.67,66.55 225.61,192.95 391.78,213.11 166.17,20.16 445.85,33.6 445.85,33.6 l 525.94,-100.16 1160.79,473.28 c 0,0 -25.16,-225.92 -59.85,-266.24 -34.7,-40.32 -79.16,-163.59 -136.38,-195.39 -57.22,-31.81 -43.77,-164.93 -43.77,-164.93 l -93.45,-166.72 -26.88,-16.22 -2.44,-116.9 -76.61,-113.6 -39.21,-37.33 1213.39,435.99 c 0,0 -54.49,-244.73 -81.37,-264.9 -26.88,-20.16 -202.73,-283.09 -202.73,-283.09 l -23.83,-110.83 -59.83,-166.72 -86.73,-112.95 -30.61,-26.68 -172.75,-343.76 c 0,0 -25.39,-144.4 -46.49,-182.85 -21.1,-38.44 -55.61,-113.4 -55.61,-113.4 l -1219.39,-446.281 -935.63,-29.32 -400,242.121 c 0,0 -82.91,79.22 -140.07,58.09 -3.32,-1.81 -4.51,-2.49 -5.24,-7.09 -7.06,-43.74 -119.44,-401.282 -136.46,-430.789 C 1284.7,701.832 1206.86,616.52 1206.86,616.52 L 1007.18,517 966.859,543.242 773.262,570.129 653.578,656.852 593.281,771.539 576.07,813.93 706.699,716.68 840.461,677 l 79.148,25.859 32.926,48.02 93.395,124.742 108.18,190.819 16.73,262.02 -37.26,174.78 -86.77,208.48 -24.52,149.43 c 0,0 113.33,287.42 43.89,451.83 -51.44,121.82 -78.235,159.12 -133.582,205.79 -29.957,25.26 -151.192,162.64 -151.192,162.64 0,0 -108.304,22.48 -154.707,-11.13 -46.402,-33.6 -179.515,-93.43 -179.515,-93.43 0,0 -27.528,120.31 99.515,173.43 127.039,53.12 207.039,59.84 207.039,59.84 l 34.582,48.77 291.07,-125.66 -265.812,236.89 -96.449,88.39 -156.992,-15.11 -169.551,-69.87 c 0,0 35.793,116.27 82.832,143.15 47.043,26.88 193.602,59.84 193.602,59.84 l 53.117,6.72 41.07,34.46 8.75,21.95 c 0,0 268.673,-128.27 331.443,-193.46 68.56,-71.19 154.72,-189.81 203.02,-282.14 47.18,-90.17 83.52,-234.72 83.52,-234.72 l 65.64,54.23 20.16,226.56 v 0"
             style="fill:#ffffff;fill-opacity:1;fill-rule:nonzero;stroke:none"
             id="path29" />
          <path
             d="m 3502.04,2449.54 1408.71,512.43 c 0,0 11.11,-310.18 -294.59,-553.02 0,0 -1000.78,-375.62 -1008.94,-368.84 -16.2,13.44 33.81,161.52 -105.18,409.43 v 0"
             style="fill:#1b458f;fill-opacity:1;fill-rule:nonzero;stroke:none"
             id="path31" />
          <path
             d="m 3588.44,2032.6 1038.21,381.38 c 0,0 -0.84,-257.11 -193.43,-410.1 0,0 -874.28,-338.55 -874.84,-331.89 -3.75,45.08 79.9,380.63 30.06,360.61 v 0"
             style="fill:#ffffff;fill-opacity:1;fill-rule:nonzero;stroke:none"
             id="path33" />
          <path
             d="m 3520.82,1653.21 904.83,343.59 c 0,0 27.35,-177.35 -138.55,-331 0,0 -845.15,-333.01 -848.36,-333.62 -34.28,-6.58 108.11,331.78 82.08,321.03 v 0"
             style="fill:#1b458f;fill-opacity:1;fill-rule:nonzero;stroke:none"
             id="path35" />
          <path
             d="m 3390.2,2638.37 425.43,155.44 c 0,0 47.64,-114.18 -118.27,-267.83 l -195.32,-76.44 c 1.96,-2.62 -85.82,199.58 -111.84,188.83 v 0"
             style="fill:#ffffff;fill-opacity:1;fill-rule:nonzero;stroke:none"
             id="path37" />
          <path
             d="m 3423.15,1327.73 829.75,325.31 c 0,0 37.37,-151.12 -128.52,-304.77 L 2931.42,910.512 c 1.96,-2.633 517.76,427.968 491.73,417.218 v 0"
             style="fill:#ffffff;fill-opacity:1;fill-rule:nonzero;stroke:none"
             id="path39" />
          <path
             d="m 2138.91,3236.75 2318.34,863.02 c 0,0 11.1,-310.18 -294.59,-553.02 0,0 -1221.22,-449.81 -1210.61,-449.9 10.61,-0.1 -283.75,130 -813.14,139.9 v 0"
             style="fill:#1b458f;fill-opacity:1;fill-rule:nonzero;stroke:none"
             id="path41" />
          <path
             d="m 2955.49,3102.21 1217.65,449.57 c 0,0 -0.84,-257.11 -193.41,-410.1 0,0 -769.37,-289.68 -762.69,-289.74 6.69,-0.06 -211.71,270.29 -261.55,250.27 v 0"
             style="fill:#ffffff;fill-opacity:1;fill-rule:nonzero;stroke:none"
             id="path43" />
          <path
             d="m 3240.03,2863.2 712.34,264.37 c 0,0 27.36,-177.35 -138.55,-331 0,0 -399.93,-152.52 -396.7,-152.98 3.25,-0.46 -151.08,230.37 -177.09,219.61 v 0"
             style="fill:#1b458f;fill-opacity:1;fill-rule:nonzero;stroke:none"
             id="path45" />
          <path
             d="m 1657.42,1110.21 c 0,0 406.63,181.82 140.88,924.41 0,0 241.74,-292.08 231.89,-345.05 0,0 106.56,118.34 5.32,366.25 0,0 236.82,-226.62 257.89,-767.69 0,0 264.97,484.76 24.05,843.8 0,0 262.44,-179.69 341.44,-632.64 0,0 109.64,250.16 -16.97,538.06 0,0 194.89,-312.93 213.49,-403.47 0,0 17.27,449.23 -136.3,659.97 0,0 362.93,-241.18 416.07,-810.62 0,0 117.87,308.28 3.67,654.07 0,0 300,-520.77 338.8,-498.78 0,0 -169.5,609.3 -149.84,662.37 0,0 204.85,-296.69 216.27,-222.25 0,0 61.63,-1051.8 -932.58,-1233.851 -691.43,-126.617 -932.56,236.721 -932.56,236.721 l -21.52,28.7 v 0"
             style="fill:#1b458f;fill-opacity:1;fill-rule:nonzero;stroke:none"
             id="path47" />
          <path
             d="m 2478.93,2867.81 c -66.4,39.76 -126.37,-5.63 -186.02,-26.96 -3.46,-1.23 -56.97,-1.3 -42.11,15.96 12.25,14.2 45.14,26.32 63.08,32.95 -17.29,-4.64 -54.55,-11.33 -70.49,2.61 -83.62,-41.87 -113.1,-36.37 -41.76,32.74 -42.03,-4.97 -287.39,-284.27 -209.25,-132.5 -23.81,-22 -48.89,-47.97 -77.7,-63.73 -3.86,-2.11 -12.76,-6.07 -11.43,2.22 1.9,11.85 10.93,23.91 17.6,33.61 l -69.9,-62.26 -1.05,17.26 -27.59,-19.77 -5.28,23.23 c -20.22,-51.47 -83.49,-79.27 -89.99,-133.24 7.58,-1.66 13.56,12.5 15.57,15.58 21.27,32.49 134.42,43.35 169.59,34.61 26.54,-6.6 60.19,-11.22 83.06,8.64 7.59,-0.29 38.35,23.65 75.38,55.01 -0.03,-0.92 -0.13,-1.82 -0.13,-2.77 0,-68.35 103.61,-68.19 103.61,0 0,32.41 -23.36,49.41 -47.89,51.04 16.8,14.86 33.25,29.59 48.07,42.92 1.07,-0.49 2.23,-1.07 3.27,-1.52 l -2.86,1.88 c 9.91,8.92 19.02,17.14 27.04,24.37 10.12,-11.13 18.92,-45.15 -24.18,-26.25 l 7.64,-5.04 14.25,-9.85 c 25.52,-18.62 42.18,-86.04 27.68,-114.21 -40.61,-78.93 -116.74,-92.95 -187.13,-43.23 -0.61,0.03 -0.52,-1.25 -0.25,-1.78 1.8,-3.67 6.17,-7.69 8.76,-10.03 l 12.22,-10.29 c 24.11,-18.87 50.74,-14.11 78.15,-19.46 60.58,-11.84 113.81,58.74 112.48,114.21 -0.81,34.19 -12.69,107.16 -49.03,126.46 18.77,16.93 31.19,28.08 31.83,28.09 23.49,0.16 39.92,-143.7 35.34,-76.81 64,-257.89 -188.47,-270.29 -276.23,-146.94 11.92,-47.04 71.34,-75.13 112.74,-88.27 224.67,-71.32 374.54,409.92 520.86,211.12 -55.99,140.1 -259.61,85.78 -147.95,120.4"
             style="fill:#231f20;fill-opacity:1;fill-rule:nonzero;stroke:none"
             id="path49" />
          <path
             d="m 2541.17,2701.35 c -58.36,-29.62 -123.43,-79.9 -148.94,-141.22 -69.63,-167.34 -338.61,-167.17 -427.26,5.28 l -15.67,31.22 c -1.62,3.55 -7.41,19.05 -1.22,13.93 74.87,-62 126.21,-170.09 262.17,-119 125.16,47.04 183.68,150.05 205.72,158.24 42.54,15.83 75.58,58.16 125.2,51.55 v 0"
             style="fill:#231f20;fill-opacity:1;fill-rule:nonzero;stroke:none"
             id="path51" />
          <path
             d="m 2326.56,436.809 -187.75,30.871 -0.07,132.199 188.26,-30.938 z m 1.61,-99.649 0.47,-100.808 110.27,-18.34 -2.52,415.66 -406.96,67.687 0.31,-415.308 112.42,-18.699 -0.41,100.808 186.42,-31 v 0"
             style="fill:#ed192d;fill-opacity:1;fill-rule:evenodd;stroke:none"
             id="path53" />
          <path
             d="m 2159.31,485.09 146.82,-24.141 0.3,90.582 -147.17,24.188 z m 187.68,-72.418 -228.68,37.59 -0.09,173.777 229.34,-37.699 z m 2.08,-158.934 69.19,-11.496 -2.27,374.039 -366.03,60.879 0.27,-373.719 71.33,-11.871 -0.41,100.809 227.45,-37.828 z m 110.5,-59.957 -151.35,25.18 -0.47,100.809 -145.39,24.179 0.41,-100.82 -153.53,25.543 -0.33,456.887 447.88,-74.5 2.78,-457.278"
             style="fill:#ffffff;fill-opacity:1;fill-rule:nonzero;stroke:none"
             id="path55" />
          <path
             d="M 3652.6,942.57 3539.96,901.949 V 744.621 l -146.98,-53 v 157.34 L 3280.35,808.34 V 389.879 l 112.63,40.621 v 164.031 l 146.98,53.008 V 483.512 l 112.64,40.609 v 418.449 0"
             style="fill:#ed192d;fill-opacity:1;fill-rule:nonzero;stroke:none"
             id="path57" />
          <path
             d="m 3300.35,794.289 v -375.93 l 72.63,26.192 v 164.031 l 186.98,67.438 V 511.98 l 72.64,26.192 V 914.09 l -72.64,-26.192 V 730.57 L 3372.98,663.141 V 820.48 Z m -40,-432.879 v 460.981 l 152.63,55.039 V 720.102 l 106.98,38.57 v 157.34 l 152.64,55.027 V 510.07 L 3519.96,455.031 V 619.059 L 3412.98,580.48 V 416.449 L 3260.35,361.41"
             style="fill:#ffffff;fill-opacity:1;fill-rule:nonzero;stroke:none"
             id="path59" />
          <path
             d="M 3767.35,889.461 3959.39,962.5 V 1054 L 3654.73,938.129 V 519.68 l 308.6,117.359 v 91.5 l -195.98,-74.527 v 81.457 L 3947.56,804 v 77.559 l -180.21,-68.528 v 76.43 0"
             style="fill:#ed192d;fill-opacity:1;fill-rule:nonzero;stroke:none"
             id="path61" />
          <path
             d="M 3674.73,924.352 V 548.68 l 268.6,102.152 v 48.707 l -195.98,-74.527 v 124.25 l 180.21,68.527 v 34.77 L 3747.35,784.02 v 119.23 l 192.04,73.039 V 1025 Z m -40,-433.68 v 461.25 l 344.66,131.088 V 948.711 l -192.04,-73.039 v -33.641 l 180.21,68.539 V 790.211 L 3787.35,721.68 v -38.66 l 195.98,74.531 V 623.25 l -348.6,-132.578"
             style="fill:#ffffff;fill-opacity:1;fill-rule:nonzero;stroke:none"
             id="path63" />
          <path
             d="m 4075.41,1097.67 -112.64,-40.62 V 638.602 l 112.64,40.617 v 418.451 0"
             style="fill:#ed192d;fill-opacity:1;fill-rule:nonzero;stroke:none"
             id="path65" />
          <path
             d="M 3982.77,1043 V 667.082 l 72.64,26.188 v 375.92 z m -40,-432.871 V 1071.1 l 152.64,55.04 V 665.172 l -152.64,-55.043"
             style="fill:#ffffff;fill-opacity:1;fill-rule:nonzero;stroke:none"
             id="path67" />
          <path
             d="m 4176.79,1035.28 3.38,1.22 108.12,-281.82 97.42,35.129 107,359.401 3.94,1.42 -11.26,-324.88 112.63,40.621 v 418.449 l -183.02,-65.99 -76.59,-290.408 -3.95,-1.434 -80.52,233.752 -178.52,-64.37 V 677.922 l 112.63,40.617 -11.26,316.741 v 0"
             style="fill:#ed192d;fill-opacity:1;fill-rule:nonzero;stroke:none"
             id="path69" />
          <path
             d="M 4095.42,1082.31 V 706.398 l 72.12,26 -11.26,316.742 35.54,12.83 108.12,-281.829 69.48,25.07 107.01,359.369 41.24,14.94 -11.26,-324.93 71.61,25.832 v 375.928 l -146.36,-52.78 -76.59,-290.398 -32.9,-11.891 -80.54,233.769 z m -40,-432.869 v 460.979 l 210.82,76.02 67.71,-196.53 64.39,244.17 219.68,79.22 V 852.309 l -153.64,-55.399 7.34,211.67 -69.72,-234.158 -125.36,-45.203 -76.01,198.082 7.92,-222.629 -153.13,-55.231"
             style="fill:#ffffff;fill-opacity:1;fill-rule:nonzero;stroke:none"
             id="path71" />
          <path
             d="m 2965.46,620.359 4.5,1.332 120.48,-282.961 192.01,56.469 -1.41,414.141 -112.63,-33.129 7.85,-316.059 -4.5,-1.332 -122.17,282.461 -190.33,-55.972 1.42,-414.137 112.63,33.117 -7.85,316.07 v 0"
             style="fill:#ed192d;fill-opacity:1;fill-rule:nonzero;stroke:none"
             id="path73" />
          <path
             d="m 2879.31,670.359 1.29,-372.488 72.34,21.27 -7.85,316.07 36.3,10.699 120.48,-282.969 160.53,47.211 -1.28,372.489 -72.34,-21.282 7.85,-316.058 -36.2,-10.672 -122.17,282.473 z m -38.54,-425.89 -1.56,455.793 221.71,65.199 93.09,-215.25 -5.97,240.848 152.91,44.98 1.55,-455.801 -223.49,-65.718 -91.28,214.371 5.95,-239.461 -152.91,-44.961"
             style="fill:#ffffff;fill-opacity:1;fill-rule:nonzero;stroke:none"
             id="path75" />
          <path
             d="m 2544.78,551.238 4.51,0.504 119.38,-308.004 192.03,21.524 v 418.449 l -112.62,-12.621 6.75,-320.61 -4.5,-0.511 -121.08,307.812 -190.34,-21.32 V 218.012 l 112.63,12.609 -6.76,320.617 v 0"
             style="fill:#ed192d;fill-opacity:1;fill-rule:nonzero;stroke:none"
             id="path77" />
          <path
             d="M 2458.91,618.57 V 240.371 l 72.25,8.098 -6.76,320.64 37.98,4.2 119.37,-307.977 158.95,17.809 v 378.211 l -72.24,-8.102 6.75,-320.598 -37.88,-4.273 -121.08,307.82 z m -40,-422.929 V 654.34 l 223.35,25.031 90.48,-230.051 -5.04,239.621 153,17.129 V 247.379 l -225.1,-25.231 -88.7,228.821 5.02,-238.188 -153.01,-17.14"
             style="fill:#ffffff;fill-opacity:1;fill-rule:nonzero;stroke:none"
             id="path79" />
          <path
             d="m 1602.61,790.57 3.38,-1.48 114.59,-367.871 97.43,-42.387 100.52,274.25 3.94,-1.723 -4.79,-315.91 112.63,-49.019 -8.44,418.449 -183.02,79.652 -71.29,-229.449 -3.94,1.719 -85.83,297.828 -178.52,77.68 8.44,-418.438 112.63,-49.031 -17.73,325.73 v 0"
             style="fill:#ed192d;fill-opacity:1;fill-rule:nonzero;stroke:none"
             id="path81" />
          <path
             d="m 1937.88,348.469 71.81,-31.25 -7.56,374.441 -150.8,65.629 -71.29,-229.469 -33.03,14.41 -85.83,297.821 -141.28,61.469 7.55,-374.43 71.16,-30.981 -17.74,325.762 41.49,-18.101 114.59,-367.86 69.58,-30.281 100.53,274.269 35.61,-15.527 z m 113.06,-92.84 -153.46,66.801 3.4,224.39 -71.4,-194.8 -125.27,54.511 -73.51,235.989 11.38,-208.95 -154.1,67.071 -9.33,462.468 215.75,-93.898 72.09,-250.16 59.88,192.73 215.24,-93.672 9.33,-462.48"
             style="fill:#ffffff;fill-opacity:1;fill-rule:nonzero;stroke:none"
             id="path83" />
          <path
             d="m 1919.96,338.121 102.42,-44.57 -8.22,407.469 -174.97,76.14 -71.28,-229.469 -11.22,4.891 -85.84,297.828 -169.2,73.641 8.22,-407.461 102.26,-44.488 -17.74,325.687 12.91,-5.59 114.6,-367.867 90.46,-39.383 100.53,274.25 11.86,-5.148 z m 112.73,-59.961 -122.83,53.461 4.59,302.777 -96.35,-262.847 -104.38,45.429 -107.33,344.52 16.61,-305.039 -123,53.519 -8.66,429.461 187.83,-81.742 84.01,-291.519 69.77,224.59 191.08,-83.149 z m 2047.7,815.37 V 685.699 l 102.51,36.973 -11.27,316.748 11.42,4.12 108.12,-281.821 90.44,32.613 107,359.398 13.27,4.78 -11.26,-324.881 102.37,36.93 v 407.811 l -173.85,-62.69 -76.6,-290.418 -11.17,-4.012 -80.54,233.74 z M 3772.32,732.699 V 661.93 l 185.42,70.519 v 224.75 l -185.42,-70.508 v -65.742 l 180.21,68.531 v -88.25 z m 195.98,3.77 v -89.891 l 102.07,36.82 v 407.822 l -102.63,-37.01 V 736.262 Z m -308.6,198.883 v -407.75 l 298.04,113.347 v 80.813 l -195.42,-74.34 v 92.168 l 180.21,68.531 v 66.848 l -180.21,-68.528 v 87.141 l 192.04,73.027 v 80.801 z m -373.68,-129.602 1.39,-407.32 100.55,36.261 v 164.028 l 156.97,56.601 V 491.289 l 102.63,37.012 v 407.82 L 3544.93,899.109 V 741.77 l -156.97,-56.598 v 157.34 z m -421.77,-123.512 1.38,-403.707 102.55,30.141 -7.85,316.066 12.45,3.672 120.48,-282.961 182.06,53.531 v 404.141 l -101.84,-29.949 7.85,-316.082 -12.43,-3.641 -122.17,282.449 z m -422.58,-49.047 v -408.39 l 102.53,11.488 -6.76,320.602 12.87,1.461 119.39,-308 183.76,20.589 v 408.391 l -102.53,-11.492 6.76,-320.598 -12.86,-1.461 -1.39,3.578 -119.69,304.243 z m -10,-419.582 v 428.532 l 198.59,22.238 117.01,-297.457 -6.54,309.848 113.5,12.949 198.16,58.273 L 3170.9,474 l -7.62,306.602 122.7,36.078 v -0.309 l 111.98,40.379 V 699.398 l 136.97,49.403 v 157.34 l 122.63,44.218 v -5.129 l 300.18,114.17 v 1.84 l 122.63,44.22 v -1.31 l 176.61,63.69 78.84,-228.84 74.98,284.3 2.47,0.9 189.72,68.41 V 863.531 l -122.88,-44.312 10.62,306.591 -100.97,-339.181 -104.41,-37.649 -102.93,268.27 10.73,-301.52 -122.76,-44.269 v 1.309 L 3968.3,635.961 V 634.27 L 3649.7,513.09 v 5.351 l -114.77,-41.39 V 641.082 L 3397.96,591.691 V 427.66 l -122.64,-44.219 v 5.118 l -187.78,-55.219 -116.78,274.301 7.62,-306.391 -114.92,-33.789 v -5.469 l -200.31,-22.441 -115.29,297.441 6.53,-309.633 -122.72,-13.75"
             style="fill:#231f20;fill-opacity:1;fill-rule:nonzero;stroke:none"
             id="path85" />
          <path
             d="m 2143.63,471.84 177.98,-29.27 -1.39,122.532 -178.44,29.328 z m 187.88,-40.801 -197.53,32.481 -2.15,142.46 198.07,-32.558 z m 0.07,-190.238 100.48,-16.699 -2.47,405.75 -397.2,66.07 0.3,-405.402 102.63,-17.071 -0.41,100.813 196.2,-32.641 z m 110.32,-28.242 -120.05,19.961 -0.48,100.82 -176.64,29.371 0.41,-100.813 -122.22,20.344 -0.31,425.199 5.69,-0.941 411.02,-68.371 2.58,-425.57"
             style="fill:#231f20;fill-opacity:1;fill-rule:nonzero;stroke:none"
             id="path87" />
          <path
             d="m 2864.45,3808.49 -189.4,-69.48 5.37,143.58 189.91,69.66 z m -2.46,-107.36 -3.67,-109.26 111.23,40.57 14.55,450.16 -410.51,-149.76 -16.79,-450.97 113.41,41.37 3.74,109.28 188.04,68.61 v 0"
             style="fill:#ed192d;fill-opacity:1;fill-rule:evenodd;stroke:none"
             id="path89" />
          <path
             d="m 2701.13,3867.54 -3.65,-97.66 146.31,53.67 4,97.79 z m -48.51,-159.41 7.09,189.51 233.16,85.52 -7.75,-189.73 z m -58.32,209.64 -15.08,-405.09 70.24,25.62 3.72,109.28 231.12,84.31 -3.67,-109.26 68.14,24.86 13.07,404.36 z m -59.92,-466.71 18.5,496.85 453.49,165.44 -16.04,-495.96 -154.31,-56.29 3.67,109.26 -144.98,-52.89 -3.73,-109.29 -156.6,-57.12"
             style="fill:#ffffff;fill-opacity:1;fill-rule:nonzero;stroke:none"
             id="path91" />
          <path
             d="m 2683.46,3878.3 -3.17,-131.97 179.19,65.74 3.64,132.14 z m -13.66,-146.61 3.7,153.76 200.16,73.42 -4.24,-153.95 z m -93.23,196.85 -16.38,-440.04 103.13,37.62 3.73,109.29 198.31,72.33 -3.67,-109.25 100.97,36.82 14.2,439.24 z m -27.06,-454.72 17.19,461.9 420.76,153.49 -14.9,-461.07 -121.5,-44.31 3.68,109.26 -177.81,-64.86 -3.73,-109.28 -123.69,-45.13"
             style="fill:#231f20;fill-opacity:1;fill-rule:nonzero;stroke:none"
             id="path93" />
          <path
             d="m 1407.04,2896.4 c 62.5,96.53 183.32,165.05 265.88,227.9 116.59,83.68 101.64,119.23 103.28,241.98 l 1.26,94 c 1.71,127.54 -48.18,154.99 -161.68,111.72 l -206.37,-78.66 z m 109.59,534.16 95.04,36.22 c 38.02,14.49 54.69,8.94 53.92,-49.14 l 1.3,-122.25 c -0.63,-47.3 -8.83,-81.78 -43.89,-109.74 l -105.98,-72.6 -0.39,317.51 v 0"
             style="fill:#ed192d;fill-opacity:1;fill-rule:evenodd;stroke:none"
             id="path95" />
          <path
             d="m 1533.65,3418.84 0.33,-273.55 78.88,54.03 c 26.66,21.47 36.36,46.75 37.02,96.29 l -1.3,121.85 c 0.44,33.76 -5.62,38.38 -5.87,38.56 -0.42,0.28 -4.67,2.61 -24.98,-5.13 z m -33.6,-338.03 -0.44,361.46 106,40.41 c 18.67,7.11 39.99,12.82 56.58,1.22 18.59,-12.99 20.74,-40.9 20.4,-66.49 l 1.31,-121.84 c -0.67,-50.58 -9.48,-90.67 -50.3,-123.22 l -0.99,-0.73 z m -73.68,400.79 -2.12,-534.36 c 49.4,56.96 115.74,103.47 175.6,145.44 22.43,15.72 43.62,30.58 62.76,45.15 96.7,69.41 96.64,99.78 96.45,189.94 -0.03,11.93 -0.05,24.77 0.13,38.74 l 1.26,94 c 0.76,56.36 -8.74,90.65 -29.01,104.82 -20.28,14.17 -56.15,11.16 -109.6,-9.22 z m -36.57,-643.12 2.65,666.59 217.27,82.83 c 65.7,25.03 110.57,26.72 141.2,5.31 30.64,-21.41 44.48,-63.72 43.55,-133.16 l -1.26,-94 c -0.19,-13.77 -0.16,-26.45 -0.13,-38.2 0.19,-94.78 0.28,-138.05 -110.25,-217.37 -19.28,-14.69 -40.74,-29.73 -63.45,-45.66 -71.27,-49.97 -152.06,-106.6 -198.07,-177.67 l -31.51,-48.67"
             style="fill:#ffffff;fill-opacity:1;fill-rule:nonzero;stroke:none"
             id="path97" />
          <path
             d="m 1947.9,3695.04 -108.53,-41.32 -7.26,-460.19 110,52.77 5.79,448.74 v 0"
             style="fill:#ed192d;fill-opacity:1;fill-rule:nonzero;stroke:none"
             id="path99" />
          <path
             d="m 1857.25,3641.18 -6.61,-418.71 73.54,35.28 5.3,410.94 z m -43.68,-476.59 7.92,501.66 144.82,55.15 -6.27,-486.54 -146.47,-70.27"
             style="fill:#ffffff;fill-opacity:1;fill-rule:nonzero;stroke:none"
             id="path101" />
          <path
             d="m 2124.23,3665.79 185,70.43 1.25,98.11 -293.5,-111.75 -5.73,-448.65 297.29,113.19 1.26,98.1 -188.8,-71.88 1.12,87.34 173.61,66.1 1.06,83.15 -173.61,-66.1 1.05,81.96 v 0"
             style="fill:#ed192d;fill-opacity:1;fill-rule:nonzero;stroke:none"
             id="path103" />
          <path
             d="m 2034.9,3710.06 -5.24,-409.78 260.97,99.36 0.75,59.23 -188.8,-71.88 1.62,126.21 173.61,66.1 0.56,44.28 -173.6,-66.1 1.54,120.83 185,70.43 0.76,59.23 z m -42.07,-462.49 6.23,487.53 329.84,125.58 -1.75,-136.98 -185,-70.43 -0.55,-43.08 173.61,66.09 -1.56,-122.02 -173.61,-66.1 -0.62,-48.47 188.8,71.89 -1.76,-136.98 -333.63,-127.03"
             style="fill:#ffffff;fill-opacity:1;fill-rule:nonzero;stroke:none"
             id="path105" />
          <path
             d="m 3141.71,4036.46 95.42,34.81 c 38.17,13.93 54.68,8.08 52.77,-50.16 l -3.09,-94.29 c -1.56,-47.44 -17.24,-82.23 -57.59,-96.96 l -95.42,-34.81 z m -120.39,-385.68 221.92,80.96 c 113.96,41.57 151.85,112.95 155.89,236.05 l 3.09,94.28 c 4.2,127.91 -44.98,156.26 -158.94,114.69 l -207.2,-75.59 -14.76,-450.39 v 0"
             style="fill:#ed192d;fill-opacity:1;fill-rule:evenodd;stroke:none"
             id="path107" />
          <path
             d="m 3162.49,4021.42 -6.42,-195.61 65.86,24.03 c 19.36,7.06 41.81,22.27 43.63,77.67 l 3.09,94.29 c 0.8,24.41 -2.22,32.44 -3.34,34.54 -1.9,0.1 -7.43,-0.13 -20.9,-5.04 z m -50.97,-257.12 9.41,287.22 108.91,39.73 c 19.79,7.22 42.42,12.84 60.41,-0.2 19.98,-14.47 21.78,-43.83 20.9,-70.64 l -3.09,-94.29 c -1.99,-60.52 -26.06,-99.63 -71.56,-116.23 z m -54.65,321.83 -13.28,-404.59 192.37,70.17 c 99.46,36.29 137.93,95.04 141.92,216.78 l 3.09,94.28 c 1.78,54.38 -6.7,88.75 -25.22,102.16 -18.67,13.53 -53.07,10.85 -105.18,-8.14 z m -57.83,-466.11 16.26,496.2 220.7,80.51 c 67.28,24.56 113.27,25.4 144.7,2.64 31.52,-22.83 45.11,-66.68 42.77,-137.99 l -3.09,-94.28 c -4.57,-139.01 -53.78,-212.99 -169.85,-255.33 l -251.49,-91.75"
             style="fill:#ffffff;fill-opacity:1;fill-rule:nonzero;stroke:none"
             id="path109" />
          <path
             d="m 3567.84,4295.16 -109.05,-39.78 -14.77,-450.4 279.72,102.05 3.42,104.49 -170.66,-62.27 11.34,345.91 v 0"
             style="fill:#ed192d;fill-opacity:1;fill-rule:nonzero;stroke:none"
             id="path111" />
          <path
             d="m 3479.57,4240.33 -13.27,-404.59 236.66,86.33 1.92,58.69 -170.65,-62.26 11.34,345.9 z m -57.82,-466.11 16.26,496.21 152.11,55.48 -11.34,-345.9 170.65,62.26 -4.91,-150.29 -322.77,-117.76"
             style="fill:#ffffff;fill-opacity:1;fill-rule:nonzero;stroke:none"
             id="path113" />
          <path
             d="m 3884.57,4313.39 185.93,67.82 3.22,98.49 -294.97,-107.61 -14.77,-450.39 298.79,109 3.24,98.49 -189.75,-69.22 2.87,87.67 174.48,63.66 2.74,83.47 -174.47,-63.65 2.69,82.27 v 0"
             style="fill:#ed192d;fill-opacity:1;fill-rule:nonzero;stroke:none"
             id="path115" />
          <path
             d="m 3799.53,4357.05 -13.27,-404.59 255.73,93.29 1.73,52.68 -189.74,-69.22 4.37,133.48 174.48,63.66 1.24,37.66 -174.47,-63.65 4.19,128.08 185.93,67.83 1.73,52.68 z m -57.82,-466.1 16.26,496.19 338.03,123.32 -4.72,-144.29 -185.93,-67.83 -1.2,-36.46 174.47,63.64 -4.23,-129.27 -174.48,-63.66 -1.37,-41.86 189.75,69.22 -4.74,-144.3 -341.84,-124.7"
             style="fill:#ffffff;fill-opacity:1;fill-rule:nonzero;stroke:none"
             id="path117" />
          <path
             d="m 4127.08,4054.16 109.05,39.79 3.92,119.49 84.51,30.83 c 32.72,11.94 45.05,-6.11 42.86,-40.13 l -2.07,-63.05 109.05,39.77 2.97,90.68 c 1.68,51.05 -26.33,67.53 -70.98,53.02 l 0.15,4.81 c 78.08,48.06 79.51,91.9 81.98,166.96 3.68,112.3 -41.95,117.61 -136.21,85 l -210.46,-76.78 z m 116.39,263.77 3.99,121.91 84.52,30.84 c 35.99,13.12 44.89,5.09 43.56,-35.14 -1.67,-51.05 -0.67,-69.66 -47.56,-86.77 l -84.51,-30.84 v 0"
             style="fill:#ed192d;fill-opacity:1;fill-rule:evenodd;stroke:none"
             id="path119" />
          <path
             d="m 4268.24,4424.8 -2.5,-76.1 54.95,20.04 c 31.83,11.61 31.98,16.43 33.44,62.48 l 0.16,5.01 c 0.33,9.92 -0.13,15.56 -0.63,18.68 -2.71,-0.47 -7.22,-1.59 -14.39,-4.21 z m -47.05,-137.63 5.49,167.72 98.02,35.75 c 18.13,6.62 38.84,11.82 54.88,0.19 16.36,-11.85 17.93,-33.92 17.21,-55.99 l -0.16,-4.96 c -1.52,-47.95 -2.52,-79.62 -61.37,-101.08 z m -58.56,202.33 -13.27,-404.58 65.99,24.08 3.92,119.49 98.01,35.75 c 26.26,9.59 42.78,3.39 51.98,-3.49 14.63,-10.95 21.15,-30.46 19.38,-57.98 l -1.01,-30.93 65.99,24.07 2.5,76.32 c 0.55,16.48 -2.56,28.11 -8.74,32.75 -6.23,4.67 -18.77,4.44 -34.42,-0.64 l -28.81,-9.36 1.51,46.5 9.74,5.99 c 68.34,42.07 69.44,75.75 71.87,149.55 1.33,40.87 -4.16,66.16 -16.34,75.13 -17.22,12.71 -60.56,-0.16 -91.66,-10.92 z m -57.83,-466.1 16.26,496.19 223.97,81.71 c 56.5,19.56 100.25,27.86 131.12,5.08 24.82,-18.28 35.49,-53.48 33.62,-110.75 -1.97,-59.9 -3.5,-106.63 -47.62,-150.33 4.23,-1.88 7.8,-4.09 10.78,-6.33 12.44,-9.35 26.98,-28.76 25.69,-68.13 l -3.43,-105.02 -152.12,-55.49 3.1,94.51 c 1.07,16.74 -2.15,21.48 -2.49,21.93 -0.04,-0.02 -0.25,0 -0.74,0 -1.41,0 -4.87,-0.2 -11.09,-2.47 l -71.02,-25.91 -3.92,-119.49 -152.11,-55.5"
             style="fill:#ffffff;fill-opacity:1;fill-rule:nonzero;stroke:none"
             id="path121" />
          <path
             d="m 4252.41,4436.26 -3.63,-110.99 77.46,28.26 c 42.12,15.36 42.57,29.69 44.07,77.18 l 0.17,4.99 c 0.64,19.73 -1.31,30.16 -6.35,33.81 -4.69,3.41 -14.35,2.26 -30.41,-3.6 z m -14.26,-125.65 4.36,132.82 87.73,32 c 20.31,7.4 31.85,8.07 39.84,2.28 8.27,-5.99 11.32,-18.25 10.52,-42.34 l -0.16,-4.98 c -1.49,-47.15 -2.17,-68.67 -50.72,-86.38 z m -91.35,190.35 -14.41,-439.47 98.79,36.04 3.92,119.5 87.72,32.01 c 15.63,5.69 28,5.28 36.73,-1.25 9.97,-7.47 14.33,-22.27 12.93,-43.98 l -1.82,-55.4 98.79,36.04 2.86,87.26 c 0.74,22.53 -4.37,38.08 -15.2,46.22 -10.8,8.12 -27.8,8.75 -49.16,1.81 l -6.86,-2.22 0.48,14.73 2.32,1.43 c 75.76,46.63 77.11,87.9 79.57,162.81 1.56,47.84 -5.73,76.02 -22.92,88.7 -18.51,13.64 -49.4,11.13 -106.57,-8.65 z m -25.03,-454.13 15.12,461.3 213.69,77.96 c 44.52,15.4 89.32,26.91 115.96,7.25 20.14,-14.83 28.72,-45.71 27.03,-97.18 -2.33,-71.43 -3.8,-116.18 -71.11,-162.49 16.69,2.56 30.57,0.01 40.74,-7.65 13.62,-10.23 20.09,-28.62 19.23,-54.64 l -3.07,-94.1 -119.32,-43.53 2.32,70.55 c 1.16,17.99 -1.92,30.16 -8.87,35.37 -5.83,4.35 -14.97,4.31 -27.19,-0.16 l -81.3,-29.65 -3.92,-119.5 z m -338.07,321.68 -14.4,-439.48 288.52,105.26 2.87,87.57 -189.74,-69.22 3.23,98.59 174.48,63.65 2.38,72.56 -174.48,-63.65 3.06,93.18 185.93,67.83 2.86,87.58 z m -25.03,-454.13 15.13,461.3 305.23,111.35 -3.58,-109.4 -185.93,-67.83 -2.33,-71.35 174.47,63.64 -3.1,-94.38 -174.48,-63.65 -2.51,-76.76 189.75,69.22 -3.6,-109.4 z m -294.93,337.41 -14.4,-439.48 269.45,98.3 3.06,93.57 -170.66,-62.25 11.34,345.9 z m -25.03,-454.14 15.13,461.31 119.31,43.52 -11.33,-345.9 170.65,62.26 -3.78,-115.4 z m -292.05,235.23 -7.55,-230.5 88.37,32.25 c 35.38,12.9 52.63,42.25 54.27,92.35 l 3.09,94.29 c 0.88,27.08 -2.4,42.93 -10.04,48.46 -6.26,4.57 -17.37,3.56 -35.93,-3.21 z m -18.17,-245.15 8.27,252.32 98.63,35.99 c 15.79,5.75 33.52,10.48 45.36,1.9 10.86,-7.87 15.25,-25.45 14.21,-57 l -3.09,-94.29 c -1.77,-54.02 -21.69,-87.24 -60.91,-101.55 z m -87.45,309.86 -14.41,-439.48 214.87,78.39 c 105.59,38.52 148.36,103.41 152.57,231.46 l 3.09,94.28 c 1.99,60.93 -8.44,98.81 -31.91,115.8 -23.68,17.16 -61.9,15.24 -120.23,-6.04 z m -25.03,-454.14 15.12,461.31 210.41,76.76 c 61.81,22.53 102.98,24.04 129.66,4.73 26.76,-19.39 38.22,-58.89 36.08,-124.34 l -3.09,-94.28 c -4.37,-132.97 -49,-200.44 -159.21,-240.65 z m -995.57,74.69 -5.86,-438.18 287.43,109.57 1.16,87.3 -188.99,-72.04 1.32,98.31 173.78,66.24 0.97,72.33 -173.79,-66.24 1.25,92.92 185.18,70.6 1.17,87.3 z m -16.19,-452.95 6.15,459.96 303.99,115.87 -1.46,-109.09 -185.19,-70.59 -0.94,-71.13 173.78,66.24 -1.26,-94.12 -173.78,-66.25 -1.03,-76.52 189,72.04 -1.46,-109.09 z m -159.55,385.95 -7.3,-448.9 99.88,47.96 5.85,438.47 z m -17.7,-465.13 7.68,472.15 118.79,45.28 -6.15,-459.66 z m -305.3,241.06 0.37,-304.42 98.07,67.18 c 33.85,27.02 41.09,60.47 41.69,105.62 l -1.31,122.13 c 0.36,27.08 -3.23,42.82 -10.97,48.23 -6.39,4.46 -17.52,3.3 -36.07,-3.76 z m -9.74,-323.62 -0.4,330.59 98.3,37.47 c 15.75,6.01 33.46,11 45.49,2.6 11,-7.69 15.72,-25.13 15.3,-56.54 l 1.3,-122.13 c -0.62,-46.9 -8.64,-84.13 -45.79,-113.75 z m -97.5,386.39 -2.29,-576.98 c 49.18,68.13 126.14,122.08 194.53,170.04 22.54,15.8 43.82,30.72 63.15,45.43 101.41,72.79 101.34,107.28 101.15,199.47 -0.02,11.86 -0.05,24.65 0.14,38.55 l 1.26,94 c 0.81,60.62 -10.35,98.16 -34.12,114.77 -24.11,16.85 -62.46,14.35 -120.7,-7.85 z m -12.56,-610.69 2.46,617.68 209.61,79.9 c 61.66,23.51 103.01,25.65 130.11,6.69 27.1,-18.93 39.32,-58.09 38.44,-123.21 l -1.26,-94 c -0.18,-13.84 -0.15,-26.58 -0.13,-38.39 0.2,-93.28 0.28,-131.89 -105.26,-207.63 -19.37,-14.76 -40.73,-29.73 -63.35,-45.59 -72.16,-50.59 -153.96,-107.94 -201.23,-180.96 l -9.39,-14.49"
             style="fill:#231f20;fill-opacity:1;fill-rule:nonzero;stroke:none"
             id="path123" />
          <path
             d="m 4741.28,2553.64 -1111.05,-402.8 c -7.24,112.86 -25.02,216.59 -51.79,311.41 l 1317.65,479.31 c -3.06,-56.08 -23.64,-222.02 -154.81,-387.92 z M 4496.79,2087.95 3603.21,1747.3 c 19.79,90.32 30.53,185.56 30.72,285.3 23.5,7.39 64.59,22.03 139.19,48.94 84.06,30.34 200.66,73.11 346.56,127.15 220.68,81.75 442.96,165.04 491.56,183.27 -4.37,-52.56 -24.29,-189.43 -114.45,-304.01 z m -171.01,-359.68 -857.53,-332.81 c 46.83,81.85 84.91,170.62 112.79,265.46 l 831.92,315.9 c 1.3,-40.67 -4.84,-144.78 -87.18,-248.55 z M 4177.12,1428.61 3160.99,1039.28 c 85.69,67.73 163.25,147.06 229.56,236.93 22.24,19.77 34.69,31.81 41.29,39.71 l 5.29,2.08 c 0.24,-0.01 0.47,-0.08 0.71,-0.08 1.17,0 2.37,0.11 3.57,0.34 1.65,0.31 4.52,0.89 800.11,314.35 2.86,-33.73 0.68,-113.7 -64.4,-204 z m -702.19,1288.41 c -34.91,63.56 -74.71,121.43 -118.41,173.87 14.45,5.5 29.74,11.32 45.77,17.41 l 348.35,129.29 189.06,69.71 c 0.58,-18.17 -0.25,-48.7 -8.52,-85.86 -9.42,-42.37 -30.36,-100.23 -76.2,-159.16 z m -387.84,405.59 544.68,213.12 c 187.34,69.27 379.29,140.07 525.94,194.09 -4.48,-53.38 -25.08,-193.92 -118.83,-309.52 l -729.16,-276.82 c -67.49,70.93 -142.64,130.46 -222.63,179.13 z m -686.62,170.56 c -30.26,-1.57 -60.25,-4.18 -89.92,-7.65 l 2132.03,793.67 c -3.16,-57.23 -24.54,-227.86 -161.85,-396.47 L 2972.98,3183.34 c -183.98,85.08 -384.81,119.56 -572.51,109.83 z m 1338.98,-702.16 -179.2,-70.58 c -16.64,49.83 -35.69,97.21 -57.19,141.86 32.57,12.59 72.6,27.98 115.2,44.33 l 187.66,68.56 c 4.82,-27.33 6.19,-95.12 -66.47,-184.17 z m -2438.99,-161.52 -6.46,3.47 c -12.64,-20.66 -20.49,-43.59 -27.49,-66.97 -50.54,98.89 -73.36,359.09 -336.151,547.73 -133.203,95.62 -209.468,146.32 -160.078,310.61 7.883,-5.24 16.383,-12.71 24.985,-16.62 53.804,-24.46 105.343,-38.08 157.347,-69.58 C 1153.89,3016.2 1319.9,2757.46 1383.1,2529.17 Z M 602.363,778.172 c 10.418,-26.883 123.274,-87.16 152.903,-95.293 46.875,-12.848 96.531,-9.52 143.816,-19.91 2.648,-10.739 5.266,-19.028 7.856,-25.367 4.468,-18.36 12.91,-36.954 25.875,-55.911 C 814.734,576.73 629.59,660.18 602.363,778.172 Z M 458.676,2610.94 c 41.308,112.61 159.304,176.46 276.058,170.91 -1.609,-27.21 0.985,-50.97 6.77,-72.27 -58.266,1.35 -265.867,-52.94 -282.828,-98.64 z m 227.304,512.33 c -0.839,-6.82 -0.722,-13.75 0.266,-20.79 -2.762,-3.71 -4.051,-9.14 -2.855,-17.03 -47.313,-10.4 -96.875,-7.27 -143.825,-19.91 -28.336,-7.63 -130.113,-58.9 -139.898,-85.38 26.793,116.29 178.816,185.06 292.434,173.79 -2.809,-10.2 -4.868,-20.52 -6.122,-30.68 z m 4238.93,-160.79 -0.69,19.47 -1180.67,-429.47 c 111.71,122.82 94.46,216.53 87.22,240.75 144.23,138.83 139.89,292.38 136.52,328.63 6.03,2.27 11.87,4.46 17.43,6.56 l 2.08,0.78 1.74,1.38 c 186.97,148.53 198.08,387.74 198.73,418.14 291.45,242.55 284.25,548.44 284.14,551.56 l -0.71,19.63 -2311.32,-860.42 c -453.82,-103.63 -791.61,-414.58 -725.07,-668.54 l -35.59,-42.94 c -58.54,322.7 -312.67,624.09 -632.622,706.81 -19.442,-10.12 -35.219,-25.33 -47.59,-43.22 -21.945,-0.2 -53.836,-4.74 -68.918,-7.3 -126.582,-21.49 -243.797,-84.14 -276.539,-217.7 L 360,2930.68 c 57.629,35.31 122.449,72.73 187.035,92.73 40.012,12.39 80.399,16.38 122.09,15.01 5.949,-0.19 38.938,-4.31 39.699,5.82 l 6.442,-7.93 0.496,1.29 c 47.715,-66.85 144.804,-142.23 240.879,-227.17 -79.59,44.51 -162.243,73.74 -204.879,60.65 -2.914,-9.66 -5.321,-18.9 -7.481,-27.92 -125.289,-8.63 -304.199,-106.63 -312.215,-225.78 -1.336,-19.82 0.168,-41.17 0.254,-61.11 73.93,41.03 214.77,117.22 299.551,108.93 10.402,-1.02 20.652,-3.21 30.906,-5.4 50.461,-83.62 156.422,-129.17 224.192,-233.3 217.201,-333.76 -31.199,-478.18 23.641,-661.91 27.6,-92.5 81.53,-170.7 105.65,-264.39 105.57,-410.01 -65.44,-605.001 -167.35,-734.688 -13.75,-17.512 -19.816,-8.903 -23.75,-16.25 -5.48,-10.282 -10.015,-20.524 -13.535,-30.774 -4.715,1 -15.602,-8.066 -19.926,-8.226 -44.742,-1.582 -85.824,1.379 -128.965,14.75 -68.156,21.097 -141.726,68.168 -201.461,107.738 l 18.586,-75.359 C 616.23,614.48 762.41,553.211 894.543,528.59 c 19.82,-3.692 75.891,-12.871 95.648,-10.121 l -2.246,3.191 c 7.801,-6.801 16.115,-13.64 25.125,-20.57 125.29,31.879 246.25,125.922 296.49,245.609 l -11.06,8.852 c -24.85,-89.86 -187.16,-166.34 -269.94,-196.93 -29.497,33.899 -106.626,131.078 -74.728,175.879 221.278,310.78 318.048,318.24 209.528,738.83 -34.73,134.62 -143.46,261.36 -119.38,408.4 33.79,206.31 119.71,373.93 -8.88,574.73 -109.745,171.39 -233.44,137.03 -245.846,364.04 79.098,3.48 195.945,-54.77 282.286,-120.24 49.25,-52.87 91.49,-108.97 117.37,-168.51 8.2,-18.87 41.78,-141.41 72.69,-182.37 -6.75,-23.41 -13.47,-46.87 -23.93,-68.62 -86.43,-179.66 -36.84,-532.96 176.81,-615.24 -0.01,74.53 34.81,145.28 89.82,209.38 30.44,-91.09 32.78,-204.05 7.73,-294.96 44.59,-95.49 151.9,-309.04 282.26,-296.61 l -27.78,57.53 c -70.05,29.52 -226.05,153.54 -219.73,241.43 5.78,80.33 22.92,143.99 11.32,226.83 -5.48,39.11 -6.54,79.36 -2.31,118.76 144.21,132.56 366.74,228.54 511.14,256.42 l -80.04,25.62 c 66.51,85.41 451.8,83.08 400.95,216.27 25.94,8.19 -45.03,10.5 -181.78,-16.53 -141.86,-28.04 -336.7,104.49 -446.19,178.47 -232.23,-39.66 -41.44,-21.04 -270.23,75.79 l 4.14,123.61 c 567.81,851.7 2004.45,326.26 2004.45,-762.3 0,-106.17 -14.22,-209.95 -40.95,-309.07 -2.69,-9.95 30.71,-81.41 21.52,-86 0,0 1.36,5.35 -19.89,17.84 0,0 -15.7,20.08 -16.7,16.91 -145.95,-458.24 -562.1,-804.879 -1070.75,-804.879 -271.19,0 -533.07,103.469 -734.16,281.859 -33.7,29.91 -37.44,49.92 -143.38,74.71 l -47.33,-42.82 c 85.65,6.76 124.7,-57.35 124.7,-57.35 391.93,-390.77 928.56,-429.969 1356.23,-223.489 l 0.91,-1.101 6.19,3.859 -0.47,-0.418 91.48,34.707 1103.63,404.982 2.66,0.98 2.08,1.92 c 143.91,133.29 140.41,264.42 134.96,305.55 7.75,3.05 15.43,6.08 23.33,9.2 l 2.49,0.97 1.95,1.81 c 152.39,141.14 147.23,300.08 143.8,336.17 l 1.51,1.21 c 187.03,148.58 198.1,387.88 198.73,418.17 149.52,124.45 218.97,264.26 250.78,361.15 35.82,109.05 33.48,187.1 33.36,190.38"
             style="fill:#231f20;fill-opacity:1;fill-rule:nonzero;stroke:none"
             id="path125" />
          <path
             d="m 729.648,3018.6 -14.382,17.71 -0.036,-0.08 z"
             style="fill:#231f20;fill-opacity:1;fill-rule:nonzero;stroke:none"
             id="path127" />
          <path
             d="m 1602.4,2366.64 c -31.14,20.15 -68.54,34.38 -105.78,34.12 -37.47,-0.26 -18.19,18.2 -0.88,30.64 12.34,-2.94 81.28,-18.56 86.54,-8.44 30.42,-11.69 98.84,-45.77 20.12,-56.32 z m -231.15,-468.7 c 6.13,-15.4 8.56,-22.15 -12.06,-24.14 -1.21,-0.12 -4.19,8.17 -4.44,8.95 -8.45,25.73 -7.03,56.1 7.12,79.57 25.03,41.54 80.16,52.35 124.76,54.51 -21.28,-15.87 -125.05,-94.56 -115.38,-118.89 z m 979.23,508.84 c -278.1,-47.93 -373.31,3.2 -606.09,151.08 l -84.83,-62.88 c -113.44,128.36 -212.14,115.42 -272.17,-30.09 98.69,-76.34 -5.74,-54.78 -58.02,-44.33 l 14.27,-43.57 c -164.11,-241.01 -150.09,-439.74 43.71,-656.05 17.63,44.51 33.94,98.09 54.91,135.37 1.34,2.4 4.05,6.1 7.72,10.67 102.8,140.68 249.54,374.32 408.48,437.56 -45.03,-32.41 -94,-66.67 -132.44,-106.66 -66.23,-68.9 145.88,43.43 189.48,65.92 84.06,43.35 267.65,110.67 358.57,97.78 20.44,-2.89 46.29,18.16 57.05,32.61 -12.09,-19.72 -25.92,-37.56 -49.08,-43.44 -3.41,-0.86 -11.16,4.56 -14.35,5.61 -17.07,5.57 -36.34,2.74 -53.55,-0.51 -98.18,-18.58 -198.28,-67.25 -288.18,-108.79 -103.25,-47.7 -271.33,-147.5 -333.92,-248.81 1.79,-2.07 5.51,-6.43 8.72,-11.04 147.58,122.26 259.98,151.34 398.04,256.68 83.21,63.48 224.64,55.87 313.78,104.6 11.1,6.06 70.36,36.86 37.9,58.29"
             style="fill:#ed192d;fill-opacity:1;fill-rule:nonzero;stroke:none"
             id="path129" />
        </g>
      </g>
    </g>
  </g>
</svg>
