<?xml version="1.0" encoding="UTF-8" standalone="no"?>
<!-- Created with Inkscape (http://www.inkscape.org/) -->

<svg
   version="1.1"
   id="svg2"
   width="750"
   height="600"
   viewBox="0 0 750 600"
   xmlns="http://www.w3.org/2000/svg"
   xmlns:svg="http://www.w3.org/2000/svg">
  <defs
     id="defs6">
    <clipPath
       clipPathUnits="userSpaceOnUse"
       id="clipPath18">
      <path
         d="M 0,1296 H 1296 V 0 H 0 Z"
         id="path16" />
    </clipPath>
  </defs>
  <g
     id="g10"
     transform="matrix(1.3333333,0,0,-1.3333333,0,1728)">
    <g
       id="g12"
       transform="translate(-370.06453,404.12904)">
      <g
         id="g14"
         clip-path="url(#clipPath18)">
        <g
           id="g20"
           transform="translate(453.3271,886.7197)">
          <path
             d="m 0,0 v -296.13 c 0,-23.398 3.007,-32.406 10.201,-44.922 l 0.405,-0.704 0.449,-0.672 c 41.729,-62.293 111.038,-99.482 185.404,-99.482 74.359,0 143.666,37.188 185.396,99.48 l 0.452,0.673 0.404,0.704 c 7.191,12.508 10.199,21.515 10.199,44.923 V 0 Z"
             style="fill:#ffffff;fill-opacity:1;fill-rule:evenodd;stroke:none"
             id="path22" />
        </g>
        <g
           id="g24"
           transform="translate(620.0659,767.3979)">
          <path
             d="m 0,0 0.05,-0.079 0.062,-0.07 c 0.253,-0.284 0.781,-0.875 0.781,-3.99 0,-0.324 -0.015,-0.681 -0.034,-1.045 3.489,1.004 11.878,3.328 14.117,3.117 2.849,-0.265 5.903,-3.857 5.903,-3.857 L 53.372,-36.885 94.846,-11.36 C 77.046,3.474 54.152,12.401 29.17,12.401 16.801,12.401 4.943,10.213 -6.039,6.204 -2.597,3.662 -0.695,1.098 0,0"
             style="fill:#fbc707;fill-opacity:1;fill-rule:evenodd;stroke:none"
             id="path26" />
        </g>
        <g
           id="g28"
           transform="translate(728.1777,742.7622)">
          <path
             d="m 0,0 c -14.17,-10.34 -56.646,-41.223 -60.018,-42.377 -4.052,-1.388 -7.378,-1.353 -7.378,-1.353 l -60.823,25.291 c 0,0 -3.546,1.934 -5.652,5.283 -1.523,2.42 0.56,7.176 1.831,9.629 -14.057,-0.008 -21.531,3.211 -21.877,3.364 l -0.102,0.049 c -0.992,0.499 -1.875,0.997 -2.699,1.493 -15.501,-17.979 -24.875,-41.391 -24.875,-66.994 0,-56.696 45.956,-102.661 102.652,-102.661 56.692,0 102.651,45.965 102.651,102.661 C 23.71,-40.661 14.804,-17.791 0,0"
             style="fill:#fbc707;fill-opacity:1;fill-rule:evenodd;stroke:none"
             id="path30" />
        </g>
        <g
           id="g32"
           transform="translate(823.043,792.6104)">
          <path
             d="m 0,0 c -0.161,-0.072 -0.305,-0.148 -0.461,-0.222 v -77.712 -73.345 -50.74 c 0,-20.187 -2.342,-24.941 -7.053,-33.134 -35.974,-53.702 -96.787,-88.991 -165.744,-88.991 -68.963,0 -129.775,35.289 -165.748,88.991 -4.709,8.193 -7.055,12.947 -7.055,33.134 v 46.36 75.21 150.903 h 345.6 V 15.532 c 4.019,1.739 7.643,3.279 10.63,4.505 v 61.047 h -366.86 v -168.632 -81.28 -33.191 c 0,-21.455 2.581,-28.187 8.469,-38.431 l 0.182,-0.317 0.202,-0.302 c 39.305,-58.676 104.568,-93.706 174.581,-93.706 70.007,0 135.269,35.03 174.574,93.706 l 0.203,0.3 0.181,0.317 c 5.888,10.238 8.468,16.969 8.468,38.433 v 34.048 83.785 88.881 C 6.94,3.174 3.305,1.483 0,0"
             style="fill:#0a1d3d;fill-opacity:1;fill-rule:nonzero;stroke:none"
             id="path34" />
        </g>
        <g
           id="g36"
           transform="translate(835.7344,798.499)">
          <path
             d="m 0,0 v -90.788 -84.748 -32.373 c 0,-22.074 -2.682,-29.047 -8.803,-39.692 l -0.224,-0.39 -0.25,-0.373 c -39.777,-59.375 -105.822,-94.823 -176.671,-94.823 -70.856,0 -136.904,35.448 -176.677,94.823 l -0.251,0.375 -0.225,0.39 c -6.121,10.651 -8.803,17.623 -8.803,39.69 v 31.984 81.968 171.675 H 0 V 15.169 c 2.615,1.041 4.509,1.727 5.416,1.936 0.171,0.039 0.329,0.057 0.48,0.061 v 66.448 h -383.697 v -178.164 -84.73 -28.629 c 0,-23.385 3.071,-31.287 9.588,-42.627 l 0.326,-0.567 0.364,-0.543 c 40.87,-61.011 108.749,-97.437 181.575,-97.437 72.82,0 140.696,36.426 181.569,97.437 l 0.362,0.541 0.326,0.567 c 6.517,11.334 9.587,19.236 9.587,42.629 v 28.829 87.191 94.712 C 4.757,2.272 2.621,1.245 0,0"
             style="fill:#0a1d3d;fill-opacity:1;fill-rule:evenodd;stroke:none"
             id="path38" />
        </g>
        <g
           id="g40"
           transform="translate(589.2339,638.6797)">
          <path
             d="M 0,0 Z M 6.906,7.63 Z"
             style="fill:#ffffff;fill-opacity:1;fill-rule:nonzero;stroke:none"
             id="path42" />
        </g>
        <g
           id="g44"
           transform="translate(699.5781,661.3423)">
          <path
             d="M 0,0 V 0 C 0,0 0,0 0,0"
             style="fill:#ffffff;fill-opacity:1;fill-rule:nonzero;stroke:none"
             id="path46" />
        </g>
        <g
           id="g48"
           transform="translate(676.3115,725.5986)">
          <path
             d="M 0,0 C 0.262,0.742 -0.467,1.518 -0.665,2.213 L 2.928,0.422 C 7.07,-1.576 17.293,3.83 16.537,6.096 19.397,11.859 94.278,55.899 97.458,57.772 95.954,57.211 94.288,56.686 92.857,55.93 83.2,50.816 73.458,45.834 63.86,40.584 58.347,37.572 52.802,34.318 47.398,31.066 41.697,27.633 35.94,24.061 30.346,20.402 24.664,16.69 19.092,12.705 13.471,8.885 9.82,6.402 3.436,1.658 -0.899,3.432 c -2.77,1.123 -7.256,6.82 -9.702,9.148 l -22.725,21.682 c -0.777,0.74 -1.929,1.82 -3.023,1.648 C -28.462,27.619 -0.486,0.229 0,0"
             style="fill:#0a1d3d;fill-opacity:1;fill-rule:evenodd;stroke:none"
             id="path50" />
        </g>
        <g
           id="g52"
           transform="translate(637.2979,744.7451)">
          <path
             d="M 0,0 C -2.021,1.572 -4.31,2.934 -6.413,4.369 -8.137,5.545 -5.996,7.275 -4.797,6.361 -0.916,3.404 3.195,0.561 6.946,-2.584 8.151,-3.598 26.77,-19.459 27.239,-20.975 26.505,-20.936 2.33,-1.812 0,0 m 21.472,-24.525 c -3.573,2.373 -7.029,4.964 -10.687,7.173 -1.689,1.026 -3.677,1.725 -5.291,2.784 -0.33,0.218 -0.346,0.625 -0.241,1 2.369,2.177 15.185,-9.409 17.041,-10.959 z M 148.104,35.241 C 135.337,28.449 122.661,21.412 109.944,14.5 c -0.908,-0.494 -6.08,-3.59 -6.777,-3.051 1.502,1.975 3.6,3.237 5.59,4.483 4.629,2.892 58.711,33.506 73.279,42.166 C 125.946,33.289 61.455,-7.09 57.459,-12.629 l 1.137,-0.928 c -1.541,-1.924 -11.547,-7.66 -14.041,-8.672 -5.657,-2.294 -8.851,3.713 -12.46,7.381 L 0.264,17.48 c -2.607,2.647 -9.87,-0.016 -17.197,-4.482 -0.428,-4.75 -0.604,-10.527 -1.221,-12.381 -0.686,-2.062 -3.069,-3.201 -4.82,-3.767 -4.578,-1.489 -9.868,-2.452 -15.239,-2.842 -1.711,-2.496 -2.693,-4.766 -2.618,-6.535 0.091,-2.1 1.463,-3.995 3.167,-4.719 4.256,-1.813 8.985,-2.967 13.353,-4.492 9.282,-3.229 18.532,-6.69 27.499,-10.879 L 25.13,-42.873 c 3.07,-1.432 5.629,-2.094 8.881,-0.592 10.934,5.055 20.512,13.84 30.411,20.832 30.983,21.875 62.886,41.99 95.78,59.914 11.875,6.473 45.779,25.68 45.779,25.68 -65.334,-31.779 -38.925,-17.635 -57.877,-27.72"
             style="fill:#0a1d3d;fill-opacity:1;fill-rule:evenodd;stroke:none"
             id="path54" />
        </g>
        <g
           id="g56"
           transform="translate(616.3403,746.376)">
          <path
             d="m 0,0 1.339,13.34 c 0.118,1.17 0.739,4.31 0.593,5.236 -0.172,1.072 -1.366,2.254 -2.176,2.748 1.497,-4.302 -0.368,-13.84 -0.909,-18.767 -0.13,3.656 -0.164,17.375 -0.834,19.923 -1.413,5.354 -21.47,10.597 -26.217,10.026 -1.802,-0.217 -6.397,-2.447 -7.338,-4.262 -0.726,-1.404 -2.031,-10.998 -2.532,-13.402 l -5.349,-0.625 1.579,2.994 c 1.71,3.266 0.469,10.033 3.366,11.998 1.45,0.988 2.18,1.595 3.342,3.056 -1.804,-0.329 -11.64,-1.693 -12.412,-5.269 -0.464,-2.144 -3.516,-16.996 -3.089,-20.041 0.169,-1.203 0.934,-2.412 2.003,-2.75 0.434,0.957 0.335,2.6 1.13,3.25 2.096,1.723 9.527,1.299 12.177,1.121 C -38.769,8.027 -42.401,7.875 -45.589,6.113 -52.194,-5.85 -6.16,-8.033 0,0"
             style="fill:#0a1d3d;fill-opacity:1;fill-rule:evenodd;stroke:none"
             id="path58" />
        </g>
        <g
           id="g60"
           transform="translate(616.3589,810.1694)">
          <path
             d="m 0,0 c 6.018,0 10.897,-5.273 10.897,-11.775 0,-6.504 -4.879,-11.776 -10.897,-11.776 -6.016,0 -10.898,5.272 -10.898,11.776 C -10.898,-5.273 -6.016,0 0,0 m -17.996,-30.099 c 6.18,-1.402 10.466,-3.373 10.783,-3.527 0.354,-0.171 0.693,-0.347 1.029,-0.524 5.43,2.153 11.066,3.893 16.89,5.133 0.023,0.022 0.046,0.043 0.069,0.066 v -0.051 c 4.805,1.02 9.729,1.714 14.748,2.058 L 25.504,42.865 H 10.645 l 0.06,-36.406 c -3.937,3.852 -9.187,6.184 -14.918,6.184 -12.258,0 -22.197,-10.735 -22.197,-23.977 0,-7.61 3.295,-14.374 8.414,-18.765"
             style="fill:#e31449;fill-opacity:1;fill-rule:nonzero;stroke:none"
             id="path62" />
        </g>
        <g
           id="g64"
           transform="translate(674.7832,788.4966)">
          <path
             d="m 0,0 v 49.001 h 9.56 c 4.195,0 7.599,-3.586 7.599,-8.007 0,-4.42 -3.404,-8.004 -7.599,-8.004 H 4.586 V 19.404 h 9.118 c 5.084,0 8.932,-4.322 8.932,-9.682 C 22.456,4.184 19.232,0.363 13.704,0 Z m 16.351,-13.177 c 12.12,0.209 21.873,9.902 21.873,21.728 0,8.602 -2.876,14.736 -12.529,19.457 3.916,3.852 6.311,9.013 6.311,14.684 0,5.137 -1.876,9.858 -5.156,13.565 -3.416,3.963 -9.461,5.722 -17.636,5.722 h -24.479 v -67.49 c 10.732,-1.034 21.001,-3.67 30.568,-7.666 z"
             style="fill:#e31449;fill-opacity:1;fill-rule:nonzero;stroke:none"
             id="path66" />
        </g>
        <g
           id="g68"
           transform="translate(773.4258,786.1729)">
          <path
             d="M 0,0 C 4.206,1.914 9.105,4.138 14.318,6.492 V 66.283 H 0 Z"
             style="fill:#e31449;fill-opacity:1;fill-rule:nonzero;stroke:none"
             id="path70" />
        </g>
        <g
           id="g72"
           transform="translate(749.3594,794.3555)">
          <path
             d="m 0,0 c 0,-4.517 -3.762,-8.178 -8.396,-8.178 -4.638,0 -8.395,3.661 -8.395,8.178 v 27.117 h -14.585 v -30 c 0,-10.156 10.262,-18.389 22.927,-18.389 12.666,0 22.933,8.233 22.933,18.389 v 30 H 0 Z"
             style="fill:#e31449;fill-opacity:1;fill-rule:nonzero;stroke:none"
             id="path74" />
        </g>
        <g
           id="g76"
           transform="translate(797.6328,852.4561)">
          <path
             d="m 0,0 v -55.342 c 4.806,2.155 9.667,4.322 14.32,6.377 V 0 Z"
             style="fill:#e31449;fill-opacity:1;fill-rule:nonzero;stroke:none"
             id="path78" />
        </g>
        <g
           id="g80"
           transform="translate(536.6641,828.395)">
          <path
             d="m 0,0 c 0,12.273 -9.662,22.221 -21.581,22.221 -0.364,0 -2.03,-0.007 -2.39,-0.026 h -25.101 v -75.217 h 15.238 V 9.22 l 9.086,0.081 c 5.628,0 9.901,-4.407 9.901,-9.844 0,-5.436 -4.562,-9.843 -10.186,-9.843 l -3.539,-0.083 v -17.912 l 15.22,-24.641 H 4.606 L -16.44,-21.588 C -7.003,-19.213 0,-10.448 0,0"
             style="fill:#e31449;fill-opacity:1;fill-rule:nonzero;stroke:none"
             id="path82" />
        </g>
        <g
           id="g84"
           transform="translate(562.3511,813.499)">
          <path
             d="M 0,0 C 4.957,0 8.976,-4.11 8.976,-9.179 H -8.978 C -8.978,-4.11 -4.96,0 0,0 m 18.18,-32.435 0.04,0.005 c 0.154,0.022 0.307,0.037 0.461,0.058 1.376,1.422 2.567,3.013 3.536,4.76 l -11.93,5.626 c -1.521,-3.357 -5.07,-5.713 -9.21,-5.713 -5.522,0 -9.999,4.195 -9.999,9.367 0,0.335 -0.132,0.2 -0.095,0.524 l 32.463,-0.015 c 0.099,1.028 0.149,2.079 0.141,3.155 0.222,16.264 -10.304,25.186 -23.716,25.186 -13.413,0 -24.288,-11.255 -24.288,-25.135 0,-13.884 10.878,-25.154 24.291,-25.154 1.464,0 2.876,0.108 4.244,0.296 1.562,5.304 11.101,6.73 14.062,7.04"
             style="fill:#e31449;fill-opacity:1;fill-rule:nonzero;stroke:none"
             id="path86" />
        </g>
        <g
           id="g88"
           transform="translate(738.4006,646.0963)">
          <path
             d="m 0,0 c -0.15,0.227 -0.299,0.45 -0.445,0.668 -0.181,0.27 -0.365,0.543 -0.591,0.89 -0.86,1.281 -1.612,2.403 -1.979,3.399 1.74,-0.174 3.595,-0.352 5.509,-0.43 z m 183.178,-28.824 -0.017,0.038 c -0.117,0.253 -0.288,0.618 -0.366,0.811 -0.107,0.537 -0.186,1.168 -0.269,1.832 l -0.013,0.099 c -0.202,1.599 -0.412,3.252 -1.098,4.859 -1.071,2.499 -3.491,4.347 -6.181,4.881 -0.206,1.107 -0.675,1.922 -0.963,2.337 -1.685,2.436 -4.232,4.131 -6.12,5.386 -0.523,0.348 -1.115,0.742 -1.333,0.929 l -0.518,0.399 c -1.244,0.99 -2.738,1.512 -4.336,1.512 -2.64,0 -5.456,-1.65 -7.166,-3.814 -0.295,0.767 -0.782,2.565 -1.058,3.584 -0.379,1.396 -0.737,2.714 -1.11,3.745 l -0.055,0.143 c -0.049,0.122 -0.096,0.251 -0.163,0.436 -0.698,1.872 -2.331,6.256 -7.235,7.074 -1.331,0.217 -2.647,0.272 -3.821,0.321 -2.379,0.101 -3.294,0.469 -3.613,0.661 0.062,0.212 0.181,0.547 0.398,1.076 0.441,1.076 0.751,2 1.001,2.978 0.999,3.393 1.699,8.326 0.899,12.648 1.141,-0.164 2.42,-0.286 3.7,-0.286 4.026,0 8.25,0.865 11.894,2.436 l 0.203,0.094 c 7.203,3.499 14.305,11.516 13.933,21.535 l -0.019,0.285 c -0.826,8.667 -5.659,16.864 -14.713,24.965 2.337,0.627 4.871,1.417 7.156,3.006 6.546,4.398 9.375,12.279 7.763,21.62 l -0.141,0.627 c -1.041,4.789 -4.569,5.161 -5.624,5.161 -1.402,0 -2.77,-0.549 -3.841,-1.536 -0.217,-0.2 -0.44,-0.41 -0.679,-0.638 -0.547,-0.521 -1.166,-1.111 -1.676,-1.403 -1.404,-0.829 -3.438,-1.255 -5.606,-1.709 -1.627,-0.34 -3.472,-0.727 -5.265,-1.346 -8.118,-2.797 -13.245,-7.177 -15.242,-13.024 -1.205,-3.545 -0.676,-7.829 1.454,-11.753 l 0.167,-0.284 c 2.486,-3.931 5.98,-7.276 9.071,-10.236 4.376,-4.193 8.509,-8.154 9.356,-12.919 0.144,-0.866 0.412,-2.462 -2.482,-4.647 -1.144,-0.64 -2.731,-0.992 -4.495,-0.992 -2.577,0 -5.474,0.728 -7.749,1.946 l -0.123,0.064 c -3.568,1.785 -7.155,4.181 -10.673,6.532 -5.641,3.772 -11.471,7.671 -18.254,9.884 -3.133,1.371 -6.446,2.042 -9.378,2.636 -3.72,0.754 -7.233,1.466 -9.721,3.417 l -0.349,0.25 c -1.081,0.705 -2.194,1.509 -3.272,2.289 -3.266,2.363 -6.963,5.037 -11.422,6.22 -1.726,0.567 -3.356,0.799 -4.677,0.988 -1.699,0.242 -2.692,0.404 -3.393,0.905 -0.728,0.52 -1.458,1.054 -2.191,1.589 l -0.111,0.082 c -3.054,2.234 -6.21,4.544 -9.569,6.222 -5.642,2.82 -11.43,4.214 -17.783,5.602 -0.331,0.078 -1.198,1.133 -1.776,1.837 -0.95,1.156 -2.124,2.585 -3.757,3.731 -4.746,3.745 -10.145,7.185 -17.416,7.185 -0.65,0 -1.309,-0.027 -1.88,-0.076 -4.373,-0.292 -8.084,-3.118 -10.506,-5.227 -5.331,-4.668 -11.136,-8.869 -16.75,-12.932 -8.687,-6.287 -17.67,-12.789 -25.519,-21.352 -8.222,-8.513 -11.206,-19.093 -13.841,-28.433 -0.38,-1.344 -0.76,-2.687 -1.173,-4.095 -0.717,-2.576 -1.369,-5.202 -2.005,-7.755 -3.226,-12.96 -6.274,-25.201 -18.383,-33.065 -1.944,-1.263 -2.998,-3.455 -2.752,-5.719 0.247,-2.279 1.804,-4.277 3.959,-5.088 0.958,-0.362 2.623,-0.732 4.645,-0.744 0.072,-1.331 0.569,-2.58 1.443,-3.593 0.851,-0.985 2.452,-2.185 5.255,-2.306 l 0.212,-0.004 c 8.35,0 14.284,4.796 19.402,9.761 1.832,-1.585 4.086,-3.279 7.162,-3.913 l 0.828,-0.158 0.913,0.106 c 3.035,0.423 5.696,0.756 8.355,0.631 2.45,-0.765 4.957,-1.709 7.456,-2.65 1.906,-0.717 3.878,-1.459 5.888,-2.142 l 0.994,-0.306 0.872,0.033 c 5.462,0.203 8.522,5.018 9.674,6.831 l 0.222,0.349 0.161,0.382 c 0.184,0.436 0.329,0.868 0.439,1.29 0.004,-0.014 0.008,-0.029 0.013,-0.044 l 0.33,-1.15 c 0.714,-2.535 1.451,-5.156 3.108,-7.099 1.539,-1.798 3.64,-2.747 6.07,-2.747 h 0.009 c 0.9,0 1.712,0.127 2.298,0.219 0.104,0.015 0.195,0.029 0.276,0.04 0.086,-0.092 0.175,-0.188 0.256,-0.274 0.954,-1.026 2.389,-2.569 4.747,-3.291 2.218,-0.739 4.456,-1.324 6.657,-1.9 2.667,-0.699 5.426,-1.423 7.913,-2.392 l 0.281,-0.099 c 1.965,-0.632 4.116,-1.252 6.393,-1.206 3.542,0.012 5.728,1.384 7.563,2.866 3.002,2.425 4.205,5.08 4.886,7.659 0.458,0.067 0.963,0.186 1.64,0.41 3.713,1.232 7.339,8.054 7.374,8.121 0.253,0.488 0.552,0.955 0.811,1.347 0.918,1.388 1.373,2.848 1.353,4.341 -0.052,3.586 -2.83,6.371 -6.424,6.476 l -0.582,0.019 c -0.295,0.002 -7.275,0.036 -9.283,-0.003 l -0.174,-0.006 c -0.878,-0.049 -1.671,-0.215 -2.402,-0.456 -0.043,0.056 -0.08,0.116 -0.125,0.171 -0.536,0.658 -1.108,2.154 -1.871,2.532 0.056,0.047 0.212,0.09 0.267,0.138 l 1.953,-0.209 c 1.246,-0.125 2.523,-0.188 3.796,-0.188 4.439,0 8.477,0.728 12.382,1.432 3.441,0.62 6.901,0.282 10.375,0.282 0.351,0 0.707,-0.007 1.074,-0.021 l 0.191,-0.003 c 1.496,0 2.99,-0.134 4.614,-0.279 1.625,-0.147 3.467,-0.313 5.358,-0.313 0.682,0 1.325,0.02 1.964,0.062 1.823,0.088 3.539,0.398 5.109,0.907 0.149,-0.87 0.347,-1.937 0.605,-3.26 l 0.253,-1.096 c 0.902,-3.907 2.266,-9.812 9.276,-14.363 l 1.051,-0.687 c 3.249,-2.132 5.209,-3.419 10.08,-4.154 1.248,-0.188 3.58,-0.142 5.051,0.214 6.123,1.327 12.965,-0.273 18.439,-4.261 l 0.478,-0.308 c 0.443,-0.25 1.054,-0.768 1.66,-1.28 1.262,-1.066 2.827,-2.388 4.938,-3.171 1.375,-0.548 2.865,-0.83 4.43,-0.842 h 0.106 c 3,0 4.641,0.918 5.842,1.589 0.008,0.004 0.014,0.008 0.022,0.012 0.196,-0.264 0.406,-0.558 0.589,-0.814 0.861,-1.207 1.929,-2.707 3.477,-4.128 2.963,-2.833 6.647,-3.161 9.168,-3.161 1.182,0 2.318,0.081 3.313,0.152 0.36,0.025 0.752,0.043 1.124,0.061 0.697,0.032 1.345,0.069 1.777,0.119 0.74,0.088 1.235,0.195 1.477,0.254 1.302,-0.947 2.665,-1.079 3.279,-1.079 0.526,0 1.051,0.076 1.563,0.226 l 5.811,1.908 c 1.65,0.516 2.985,1.704 3.65,3.23 1.252,2.817 0.012,5.467 -0.893,7.402"
             style="fill:#ffffff;fill-opacity:1;fill-rule:nonzero;stroke:none"
             id="path90" />
        </g>
        <g
           id="g92"
           transform="translate(567.8712,652.1282)">
          <path
             d="m 0,0 c -0.236,-0.219 -0.48,-0.442 -0.727,-0.668 -1.355,-1.239 -3.08,-2.817 -4.421,-4.814 -0.968,1.628 -1.613,2.819 -2.134,3.914 2.213,0.315 4.422,0.991 6.206,1.777 C -0.69,0.218 -0.308,0.236 0.07,0.26 0.046,0.174 0.023,0.087 0,0 m 71.156,-13.677 -3.051,1.522 c -2.631,1.595 -4.386,4.54 -6.255,7.678 -0.879,1.474 -1.788,2.998 -2.783,4.396 -0.952,1.392 -2.285,2.585 -3.357,3.545 -0.191,0.171 -0.438,0.393 -0.642,0.581 -3.276,8.999 -6.75,19.489 -7.598,30.905 -0.214,2.848 -1.87,7.719 -3.693,10.859 l -0.062,0.104 C 38.508,54.396 26.416,68.47 25.712,69.219 25.256,69.702 24.758,70.19 24.324,70.615 L 24.006,70.925 2.47,88.844 2.146,89.092 c -4.541,3.179 -6.181,3.911 -9.711,5.192 -5.534,2.01 -13.236,1.728 -18.794,-0.655 l -0.364,-0.174 c -1.866,-0.988 -3.601,-2.096 -5.295,-3.178 -2.571,-1.642 -4.999,-3.194 -7.465,-4.017 l -0.458,-0.179 c -2.103,-0.943 -4.516,-1.69 -6.85,-2.411 -5.091,-1.575 -10.861,-3.36 -15.631,-7.738 -1.169,-1.072 -2.125,-1.974 -2.931,-2.734 -1.152,-1.087 -2.244,-2.117 -2.696,-2.421 -0.129,-0.012 -0.393,-0.028 -0.927,-0.028 -8.063,0 -14.057,-2.085 -20.043,-6.973 l -0.198,-0.171 c -3.648,-3.316 -7.234,-6.4 -11.016,-7.713 -1.557,-0.54 -3.518,-0.766 -5.677,-0.981 l -0.215,-0.019 c -3.61,-0.315 -4.4,-0.401 -7.89,-1.231 -6.126,-1.413 -12.061,-6.03 -16.828,-9.739 -2.114,-1.644 -3.48,-2.669 -4.061,-3.047 -0.42,-0.274 -0.935,-0.595 -1.349,-0.837 -5.241,-3.067 -9.766,-5.715 -15.219,-5.715 l -0.272,0.004 c -2.986,0.263 -5.783,2.343 -6.733,5.003 -0.897,3.463 0.157,6.915 2.976,9.735 1.818,1.818 3.967,3.645 6.046,5.414 3.693,3.142 7.182,6.109 9.795,9.618 4.085,5.481 3.667,14.045 -0.93,19.089 -3.531,3.876 -9.647,5.757 -14.57,6.962 l -0.415,0.102 c -0.236,0.059 -0.565,0.121 -0.892,0.173 l -0.288,0.054 c -0.554,0.108 -1.1,0.206 -1.642,0.302 -0.947,0.169 -1.844,0.329 -2.7,0.536 -1.685,0.476 -3.413,1.671 -5.242,2.936 -1.304,0.901 -2.652,1.834 -4.163,2.648 l -4.001,2.155 -2.482,-3.807 c -1.886,-2.891 -2.674,-6.121 -2.406,-9.872 l 0.026,-0.272 c 0.862,-6.774 6.237,-13.859 12.782,-16.846 l 0.149,-0.065 c 0.233,-0.097 0.467,-0.189 0.703,-0.277 1.515,-0.63 3.005,-0.905 4.39,-1.021 -3.538,-2.968 -7.07,-6.122 -10.159,-9.911 -6.028,-6.643 -6.389,-17.422 -3.628,-24.646 3.52,-9.467 13.052,-14.74 20.966,-15.78 1.383,-0.215 2.761,-0.319 4.206,-0.319 2.474,0 4.849,0.325 7.097,0.772 0.001,-0.031 0.002,-0.061 0.004,-0.092 0.162,-3.563 0.275,-5.818 0.536,-7.197 0.563,-2.977 1.909,-6.265 2.798,-8.442 0.031,-0.075 0.061,-0.148 0.09,-0.219 -1.764,-1.114 -4.36,-2.168 -5.367,-2.431 -1.395,-0.167 -2.909,-0.247 -4.023,-0.305 -0.776,-0.04 -1.389,-0.08 -1.707,-0.117 -1.66,-0.192 -3.167,-0.902 -4.364,-2.059 -1.531,-1.486 -2.448,-3.836 -3.716,-7.086 -0.507,-1.299 -1.031,-2.639 -1.532,-3.733 -0.419,-0.635 -0.997,-1.206 -1.677,-1.746 -0.863,1.556 -2.272,2.687 -3.163,3.398 l -0.007,0.005 -0.143,0.113 c -2.23,1.786 -5.658,1.846 -8.134,0.153 -0.367,-0.249 -0.735,-0.493 -1.102,-0.736 l -0.296,-0.197 c -1.558,-1.031 -3.325,-2.201 -5.196,-3.768 -1.234,-1.031 -2.131,-2.585 -2.536,-4.302 -0.439,-0.067 -0.875,-0.168 -1.303,-0.341 -2.932,-1.207 -6.258,-4.641 -6.518,-8.09 -0.093,-1.253 -0.264,-3.541 -0.441,-4.19 -0.046,-0.058 -0.135,-0.165 -0.303,-0.353 -1.994,-2.222 -2.579,-6.198 -0.037,-8.753 1.725,-1.725 8.375,-3.507 9.68,-3.507 h 0.322 l 0.82,0.107 0.372,0.11 c 0.423,0.125 0.798,0.281 1.14,0.466 l 1.537,-0.141 c 0.811,-0.074 1.745,-0.275 2.869,-0.517 1.747,-0.379 3.728,-0.808 5.857,-0.808 2.277,0 4.369,0.505 6.22,1.501 3.357,1.615 5.019,4.473 6.241,6.573 0.351,0.603 0.709,1.219 1.057,1.706 0.188,-0.048 0.381,-0.099 0.549,-0.144 0.912,-0.242 2.046,-0.542 3.311,-0.614 5.401,-0.298 10.131,2.763 12.463,4.611 0.92,0.727 1.792,1.543 2.584,2.284 0.882,0.826 1.791,1.677 2.589,2.228 0.824,0.332 1.938,0.501 3.318,0.501 2.341,0 5.022,-0.494 7.208,-0.905 4.735,-1.196 9.81,-0.631 13.638,1.538 2.061,1.167 4.131,2.252 5.8,3.126 l 0.282,0.148 c 0.912,0.48 1.718,0.904 2.363,1.258 3.883,2.13 6.814,6.769 8.594,10.292 0.869,1.729 2.18,4.955 2.541,5.853 0.354,-0.019 0.719,-0.029 1.095,-0.029 h 0.006 c 2.541,0 5.196,0.419 7.538,0.788 1.615,0.256 3.14,0.496 4.305,0.55 l 0.204,0.014 c 0.455,0.04 0.927,0.061 1.402,0.061 2.339,0 5.744,-0.279 8.292,-0.561 2.137,-0.237 3.582,-0.442 6.399,-0.576 0.381,-0.018 0.791,-0.051 1.222,-0.086 0.894,-0.072 1.908,-0.154 3.007,-0.154 2.863,0 5.201,0.681 7.119,1.623 0.544,-0.53 1.44,-1.79 2.042,-2.302 -0.09,-10e-4 -0.176,-0.004 -0.267,-0.004 -1.835,0 -3.519,-0.745 -4.682,-1.981 -1.591,0.765 -4.218,0.766 -6.623,0.569 -2.839,-0.229 -5.406,-0.651 -8.263,-1.263 -2.123,-0.453 -3.681,-1.488 -4.556,-3.426 -0.9,-1.998 -0.775,-4.286 0.343,-6.275 1.472,-2.627 2.889,-5.004 4.388,-7.52 l 0.661,-1.109 c 0.689,-1.156 2.382,-3.095 5.978,-3.095 0.445,0 0.933,0.029 1.477,0.067 0.051,0.003 0.102,0.007 0.152,0.011 0.093,-0.164 0.186,-0.333 0.28,-0.504 1.079,-1.945 2.416,-4.357 4.819,-6.254 2.407,-2.063 5.74,-3.242 9.174,-3.242 1.516,0 2.999,0.223 4.405,0.665 6.5,2.039 12.853,4.139 19.042,7.309 l 0.811,0.001 0.504,0.027 c 0.398,0.041 0.804,0.071 1.215,0.101 2.484,0.183 6.237,0.459 9.114,3.489 l 0.268,0.282 0.22,0.32 c 1.129,1.641 2.169,3.283 3.135,4.953 0.044,-0.192 0.097,-0.393 0.161,-0.599 l 0.044,-0.133 c 1.461,-4.286 5.864,-6.203 9.581,-6.203 h 0.006 l 0.216,0.005 c 4.211,0.186 7.872,1.51 11.101,2.677 l 0.222,0.08 c 0.455,0.165 0.91,0.329 1.378,0.493 l 0.32,0.125 c 2.445,1.054 6.015,1.238 10.325,0.534 l 0.553,-0.09 0.56,0.036 c 4.541,0.289 8.041,2.49 10.932,4.833 5.481,-5.776 12.437,-8.704 20.681,-8.704 0.301,0 0.606,0.004 0.924,0.012 l 1.342,0.097 0.373,0.087 c 2.694,0.634 4.515,2.686 4.753,5.348 0.047,0.525 0.026,1.043 -0.06,1.545 0.5,0.055 0.993,0.137 1.474,0.243 2.549,0.563 4.447,2.539 4.835,5.036 0.417,2.684 -0.79,5.084 -3.15,6.264"
             style="fill:#ffffff;fill-opacity:1;fill-rule:nonzero;stroke:none"
             id="path94" />
        </g>
        <g
           id="g96"
           transform="translate(775.9692,637.2485)">
          <path
             d="m 0,0 c -0.312,0.383 -0.946,0.441 -1.298,0.441 -0.15,0 -0.301,-0.01 -0.439,-0.029 -1.09,-0.138 -2.085,-0.203 -3.127,-0.203 -0.588,0 -1.111,0.021 -1.596,0.04 -0.427,0.015 -0.826,0.031 -1.213,0.031 -0.644,0 -1.166,-0.042 -1.691,-0.139 L -9.478,0.12 -9.538,0.018 c -0.085,-0.149 -2.099,-3.68 -1.823,-5.888 0.287,-2.397 2.741,-2.891 4.589,-3.262 0.663,-0.134 1.433,-0.276 2.202,-0.276 1.322,0 2.208,0.44 2.65,1.329 1.105,2.866 1.763,5.217 2.071,7.383 C 0.222,-0.359 0.107,-0.132 0,0"
             style="fill:#e31449;fill-opacity:1;fill-rule:nonzero;stroke:none"
             id="path98" />
        </g>
        <g
           id="g100"
           transform="translate(908.6083,629.3175)">
          <path
             d="m 0,0 c -1.148,1.659 -3.157,2.994 -4.77,4.066 -0.744,0.495 -1.387,0.923 -1.839,1.311 l -0.324,0.239 c -0.377,0.318 -0.817,0.48 -1.311,0.48 -1.81,0 -3.795,-2.178 -3.833,-2.932 -0.058,-1.097 1.499,-3.037 3.54,-5.46 l 0.438,-0.521 c 1.029,-1.224 2.144,-1.887 3.313,-1.971 l 0.019,-10e-4 c 1.183,0 2.118,0.397 3.121,1.325 C -0.904,-2.777 0.739,-1.064 0,0"
             style="fill:#e31449;fill-opacity:1;fill-rule:nonzero;stroke:none"
             id="path102" />
        </g>
        <g
           id="g104"
           transform="translate(917.1022,615.1788)">
          <path
             d="m 0,0 c -0.305,0.658 -0.597,1.279 -0.699,1.72 -0.177,0.808 -0.284,1.665 -0.388,2.494 -0.169,1.336 -0.326,2.596 -0.742,3.572 -0.502,1.173 -1.877,2.058 -3.198,2.058 -0.466,0 -0.912,-0.105 -1.325,-0.312 -2.001,-0.999 -3.177,-2.06 -2.853,-4.307 1.086,-3.268 1.64,-5.63 2.358,-8.845 0.086,-0.495 0.416,-2.11 1.193,-2.11 0.057,0 0.114,0.008 0.175,0.027 l 5.724,1.882 c 0.291,0.091 0.497,0.265 0.607,0.52 C 1.19,-2.545 0.585,-1.251 0,0"
             style="fill:#e31449;fill-opacity:1;fill-rule:nonzero;stroke:none"
             id="path106" />
        </g>
        <g
           id="g108"
           transform="translate(533.3298,632.4807)">
          <path
             d="m 0,0 c -0.148,0.253 -0.316,0.539 -0.483,0.899 -0.501,0.965 -0.788,1.969 -1.041,2.856 -0.511,1.784 -0.944,3.312 -2.861,3.038 -2.74,-0.393 -5.393,-0.576 -8.35,-0.576 -0.04,0 -0.965,-0.007 -1.248,-0.648 -0.33,-0.749 0.417,-1.438 1.207,-2.166 0.449,-0.411 0.912,-0.838 1.235,-1.305 0.55,-0.795 1.074,-1.953 1.581,-3.073 0.802,-1.774 1.494,-3.306 2.312,-3.562 0.332,-0.104 0.716,-0.157 1.141,-0.157 1.847,0 4.42,1.003 6.263,2.444 C 0.801,-1.367 0.465,-0.794 0,0"
             style="fill:#e31449;fill-opacity:1;fill-rule:nonzero;stroke:none"
             id="path110" />
        </g>
        <g
           id="g112"
           transform="translate(399.8027,635.251)">
          <path
             d="m 0,0 -0.15,0.118 c -0.56,0.449 -1.588,0.389 -2.271,-0.078 -0.477,-0.324 -0.954,-0.639 -1.431,-0.955 -1.524,-1.01 -3.101,-2.053 -4.768,-3.449 -0.602,-0.503 -0.933,-1.473 -0.994,-2.21 -0.05,-0.583 0.057,-1.058 0.299,-1.342 0.138,-0.154 1.35,-1.509 1.61,-1.724 0.399,-0.33 1.034,-0.77 1.94,-0.77 0.515,0 1.063,0.145 1.631,0.432 2.941,1.483 5.991,6.945 6.108,7.267 C 2.295,-1.828 1.282,-1.022 0,0"
             style="fill:#e31449;fill-opacity:1;fill-rule:nonzero;stroke:none"
             id="path114" />
        </g>
        <g
           id="g116"
           transform="translate(386.5552,610.3443)">
          <path
             d="m 0,0 v 0 -0.005 z m 3.534,11.953 c -0.606,0.86 -2.622,3.22 -3.756,3.22 -0.101,0 -0.193,-0.017 -0.278,-0.052 C -2.063,14.478 -3.879,12.443 -3.971,11.234 -4.365,5.937 -4.515,5.378 -5.965,3.758 -6.369,3.308 -6.646,2.264 -6.185,1.8 -5.783,1.399 -0.574,-0.259 0,-0.259 l 0.117,0.015 c 0.47,0.138 0.85,1.331 1.905,4.984 0.567,1.967 1.211,4.196 1.93,6.216 0.047,0.129 0.057,0.324 -0.418,0.997"
             style="fill:#e31449;fill-opacity:1;fill-rule:nonzero;stroke:none"
             id="path118" />
        </g>
        <g
           id="g120"
           transform="translate(605.8384,663.0665)">
          <path
             d="m 0,0 c -0.206,-1.315 -0.518,-1.949 -0.694,-2.259 -0.175,-0.31 -0.476,-1.005 -1.45,-1.008 -1.067,-0.004 -0.987,1.255 -0.998,1.427 0,0 -0.127,3.489 -0.796,4.959 -0.727,1.601 -4.237,6.109 -6.261,5.92 -0.513,-0.048 -1.832,-0.836 -2.817,-2.117 -1.191,-1.547 -1.187,-1.734 -1.554,-1.97 -0.366,-0.234 -0.843,-0.11 -1.003,0.801 -0.161,0.91 -0.324,1.654 0.101,3.398 0.427,1.745 0.85,2.124 1.362,3.373 0,0 1.057,2.439 1.455,3.044 1.086,1.651 2.547,1.544 2.547,1.544 0.394,-0.028 1.643,0.138 2.989,-1.551 1.558,-1.952 1.226,-1.775 1.664,-2.465 0.438,-0.691 0.902,-1.409 2.19,-2.811 C -1.975,8.884 -0.552,6.146 -0.161,4.45 0.23,2.755 0.206,1.314 0,0 m -9.715,-22.329 c 0,0 -0.17,-1.609 -0.924,-2.294 -0.755,-0.684 -3.462,-1.061 -4.88,-1.006 -1.419,0.055 -1.911,0.253 -2.209,0.691 -0.333,0.49 0.207,1.445 0.207,1.445 0.171,0.355 1.844,3.815 5.191,4.719 0,0 1.084,0.396 2.11,-0.112 1.025,-0.507 0.546,-3.08 0.505,-3.443 m -35.701,56.571 c -0.117,-0.416 -0.374,-0.686 -0.655,-0.686 -0.125,0 -0.426,0.057 -0.531,0.591 -1.11,5.677 -1.783,8.471 -3.076,11.087 -0.418,0.844 -0.93,1.546 -1.382,2.165 -0.953,1.304 -1.776,2.43 -0.85,3.951 0.272,0.447 0.952,0.749 1.692,0.749 0.362,0 0.706,-0.074 0.997,-0.212 1.095,-0.519 2.159,-1.846 3.255,-4.055 2.741,-5.598 0.572,-13.511 0.55,-13.59 m 76.395,-63.278 c -1.478,0.738 -3.209,1.602 -3.209,1.602 -3.801,2.218 -5.997,5.903 -8.119,9.467 -0.833,1.396 -1.694,2.841 -2.63,4.157 -0.615,0.899 -1.655,1.83 -2.574,2.653 -0.801,0.717 -1.559,1.397 -1.696,1.768 -3.473,9.484 -7.256,20.64 -8.177,33.032 -0.142,1.901 -1.47,6.044 -3.038,8.746 -4.934,8.04 -16.739,21.812 -17.383,22.497 -0.411,0.435 -0.861,0.875 -1.248,1.254 l -0.318,0.31 -21.243,17.655 c -4.225,2.959 -5.515,3.49 -8.563,4.596 -1.95,0.708 -4.26,1.083 -6.68,1.083 -3.009,0 -6.013,-0.578 -8.479,-1.636 -1.69,-0.894 -3.34,-1.948 -4.937,-2.968 -2.714,-1.734 -5.521,-3.528 -8.57,-4.546 -2.373,-1.064 -4.935,-1.858 -7.412,-2.624 -4.819,-1.491 -9.802,-3.033 -13.75,-6.657 -1.149,-1.054 -2.089,-1.94 -2.878,-2.685 -3.645,-3.439 -4.026,-3.799 -7.018,-3.799 -6.919,0 -11.817,-1.695 -16.917,-5.86 -4.041,-3.673 -8.054,-7.105 -12.719,-8.724 -2.091,-0.725 -4.409,-0.991 -6.868,-1.236 -3.53,-0.309 -4.073,-0.345 -7.425,-1.142 -5.037,-1.162 -10.377,-5.303 -14.904,-8.825 -1.48,-1.15 -3.464,-2.679 -4.398,-3.287 -0.482,-0.314 -1.074,-0.683 -1.55,-0.961 -5.617,-3.286 -10.923,-6.391 -17.715,-6.391 -0.17,0 -0.341,0.002 -0.5,0.006 -5.067,0.361 -9.688,3.862 -11.235,8.5 -1.429,5.217 0.106,10.565 4.211,14.672 1.959,1.959 4.186,3.853 6.339,5.685 3.475,2.955 6.757,5.748 9.035,8.806 2.647,3.553 2.357,9.539 -0.622,12.807 -2.968,3.259 -9.604,4.881 -12.101,5.492 l -0.433,0.107 c -0.246,0.062 -0.69,0.111 -0.922,0.17 -1.585,0.309 -3.096,0.525 -4.644,0.906 -3.949,1.079 -7.002,4.13 -10.501,6.015 -1.347,-2.065 -1.796,-4.309 -1.617,-6.822 0.67,-5.272 5.056,-10.747 9.931,-12.972 0.205,-0.086 0.412,-0.167 0.621,-0.243 1.544,-0.662 3.167,-0.752 4.692,-0.752 0.329,0 0.658,0.004 0.986,0.008 0.328,0.004 0.655,0.007 0.982,0.007 0.944,0 2.063,0.008 3.092,-0.258 0.946,-0.245 1.926,-1.179 2.059,-2.374 0.078,-0.7 -0.238,-1.24 -1.129,-1.934 -0.819,-0.688 -1.646,-1.371 -2.475,-2.055 -4.193,-3.465 -8.529,-7.048 -12.054,-11.4 -4.72,-5.097 -4.933,-13.951 -2.739,-19.692 2.812,-7.563 10.585,-11.783 17.035,-12.61 1.152,-0.182 2.298,-0.27 3.505,-0.27 3.8,0 7.421,0.914 10.924,1.797 0.129,0.033 0.237,0.049 0.331,0.049 0.162,0 0.463,0 0.518,-0.805 0.106,-1.561 0.186,-3.334 0.264,-5.048 0.126,-2.79 0.246,-5.424 0.456,-6.534 0.47,-2.483 1.701,-5.496 2.517,-7.489 0.345,-0.846 0.618,-1.512 0.712,-1.845 0.319,-1.135 0.024,-2.363 -0.734,-3.057 -2.659,-2.436 -8.059,-4.379 -9.051,-4.503 -1.601,-0.201 -3.302,-0.292 -4.545,-0.357 -0.631,-0.033 -1.13,-0.06 -1.395,-0.091 -0.59,-0.068 -1.078,-0.296 -1.491,-0.697 -0.759,-0.735 -1.591,-2.868 -2.555,-5.336 -0.58,-1.485 -1.18,-3.019 -1.783,-4.297 -1.69,-2.816 -4.535,-4.462 -7.288,-6.055 -0.689,-0.398 -1.372,-0.793 -2.031,-1.203 l -0.081,-0.08 c -1.132,-1.79 -2.268,-3.504 -3.72,-4.784 -1.134,-1.049 -2.585,-1.296 -3.975,-1.46 l -0.098,-0.011 -0.064,-0.074 c -2.14,-2.46 -2.833,-5.73 -3.505,-8.894 -0.102,-0.484 -0.205,-0.967 -0.314,-1.451 l -0.09,-0.45 0.282,-0.026 c 1.123,-0.104 2.259,-0.35 3.462,-0.609 1.579,-0.343 3.211,-0.696 4.811,-0.696 1.514,0 2.821,0.319 3.978,0.965 2.054,0.945 3.15,2.828 4.209,4.648 0.696,1.197 1.416,2.434 2.41,3.394 0.582,0.636 1.274,0.932 2.18,0.932 0.799,0 1.678,-0.234 2.529,-0.461 0.775,-0.206 1.579,-0.42 2.343,-0.464 3.785,-0.208 7.371,2.162 9.127,3.554 0.767,0.605 1.531,1.321 2.271,2.013 1.146,1.074 2.332,2.185 3.59,2.973 1.536,0.734 3.399,1.091 5.696,1.091 2.847,0 5.869,-0.566 8.279,-1.019 1.291,-0.339 2.614,-0.511 3.931,-0.511 2.298,0 4.442,0.526 6.199,1.521 2.113,1.197 4.232,2.308 5.937,3.202 0.996,0.523 1.873,0.983 2.567,1.364 3.035,1.665 5.594,6.275 6.555,8.179 0.892,1.774 2.43,5.62 2.445,5.658 l 0.071,0.179 -3.532,2.697 -0.146,-0.242 c -0.023,-0.037 -2.335,-3.853 -3.839,-5.62 -6.22,-8.482 -16.366,-9.569 -24.501,-9.57 -0.563,0.021 -1.124,0.032 -1.682,0.032 -10.083,0 -18.205,-3.384 -24.141,-10.06 -0.28,-0.315 -0.759,-0.362 -0.966,-0.099 -0.127,0.159 -0.157,0.418 -0.085,0.725 0.165,0.697 0.236,0.902 0.665,1.676 6.315,8.955 17.081,10.285 25.767,10.443 6.417,0.428 11.087,1.541 15.143,3.61 5.207,2.649 9.064,8.515 10.577,13.153 0.993,3.05 1.479,6.302 1.949,9.447 0.373,2.499 0.759,5.083 1.391,7.454 0.111,0.334 0.444,0.509 0.714,0.509 0.074,0 0.142,-0.011 0.256,-0.051 0.33,-0.055 0.953,-0.298 0.957,-0.781 -0.874,-4.925 -2.072,-11.671 0.182,-17.303 1.046,-2.229 3.28,-3.312 6.833,-3.312 2.149,0 4.497,0.371 6.767,0.729 1.755,0.277 3.413,0.538 4.847,0.605 0.597,0.052 1.213,0.079 1.835,0.079 2.827,0 5.556,-0.549 8.195,-1.081 2.304,-0.463 4.685,-0.943 7.129,-1.059 0.434,-0.02 0.901,-0.057 1.386,-0.097 0.846,-0.068 1.721,-0.138 2.61,-0.138 2.065,0 3.526,0.406 4.595,1.278 0.748,0.609 0.485,1.52 0.154,2.672 l -0.059,0.208 c -0.056,0.195 -0.124,0.411 -0.196,0.643 -0.474,1.526 -1.191,3.832 0.009,4.892 0.168,0.134 0.425,0.221 0.657,0.221 0.202,0 0.461,-0.063 0.554,-0.365 0.135,-0.44 0.261,-0.884 0.388,-1.329 0.524,-1.843 1.065,-3.75 2.251,-5.379 2.471,-3.165 6.308,-6.161 11.07,-8.65 3.058,-2.111 6.764,-5.671 7.054,-10.626 0,-2.247 -2.178,-3.814 -3.799,-4.788 -2.55,-1.275 -6.564,-2.819 -8.994,-2.7 -1.631,0.081 -2.985,1.118 -3.079,1.204 -2.487,2.283 -2.203,3.069 -3.825,5.786 -0.86,1.442 -1.751,2.935 -2.873,4.25 -1.548,1.719 -3.498,2.372 -6.127,2.158 -2.537,-0.205 -4.872,-0.677 -7.66,-1.274 -0.58,-0.124 -1.022,-0.464 -1.244,-0.958 -0.249,-0.552 -0.195,-1.219 0.148,-1.829 1.439,-2.568 2.84,-4.918 4.323,-7.407 l 0.661,-1.109 c 0.36,-0.605 1.115,-0.683 1.732,-0.683 0.338,0 0.709,0.026 1.096,0.053 0.413,0.029 0.839,0.059 1.261,0.059 1.287,0 2.103,-0.302 2.632,-0.961 0.442,-0.676 0.847,-1.408 1.239,-2.116 0.968,-1.746 1.968,-3.551 3.642,-4.839 1.526,-1.346 3.725,-2.118 6.032,-2.118 1.015,0 2,0.148 2.925,0.439 6.656,2.088 13.142,4.236 19.303,7.534 l 2.024,0.003 c 0.447,0.047 0.903,0.08 1.36,0.114 2.131,0.157 4.333,0.318 5.895,1.963 1.98,2.88 3.666,5.759 5.153,8.801 1.336,2.735 1.347,5.401 0.031,7.507 -3.927,6.284 -4.623,7.938 -6.23,12.222 l -0.045,0.119 -0.122,0.035 c -0.466,0.138 -0.927,0.319 -1.373,0.495 -0.966,0.38 -1.965,0.773 -3.122,0.773 l -0.15,-0.003 c -1.35,-0.041 -2.26,-0.462 -2.637,-1.216 l -0.058,-0.114 7.126,-14.064 c 0.458,-1.103 0.982,-2.212 0.708,-3.853 -0.274,-1.641 -3.777,-7.136 -4.824,-7.84 -0.261,-0.174 -0.463,-0.26 -0.618,-0.26 -0.086,0 -0.453,0.072 -0.212,0.9 0.665,2.277 1.498,7.647 1.275,9.37 -0.256,1.994 -6.224,11.877 -6.478,12.298 l -0.108,0.176 c -0.922,1.502 -1.876,3.057 -1.792,4.887 0,0.837 0.776,1.423 1.345,1.638 1.039,0.391 2.022,0.539 3.089,0.774 2.535,0.557 5.157,1.135 6.09,2.553 2.859,4.342 4.559,8.87 5.68,15.138 0.05,0.277 0.246,0.8 0.643,0.8 0.233,-0.002 0.463,-0.079 0.558,-0.62 1.045,-5.933 -0.375,-12.162 -3.896,-17.092 -0.204,-0.285 -0.356,-0.844 -0.252,-1.36 0.083,-0.504 0.65,-0.909 0.65,-0.909 1.376,-0.933 6.368,-0.4 9.988,1.508 2.764,-0.059 5.378,0.433 7.899,0.907 0.802,0.15 1.594,0.299 2.383,0.429 0.251,-0.146 0.448,-0.364 0.497,-0.548 -2.121,-2.405 -3.423,-5.099 -4.089,-8.468 -0.587,-0.603 -1.244,-1.202 -1.879,-1.782 -2.325,-2.127 -4.83,-4.503 -4.946,-7.548 0,0 -0.074,-1.089 1.105,-1.178 0.375,-0.028 0.791,0.168 1.192,0.333 0.435,0.177 0.894,0.354 1.23,0.309 0.384,-0.064 0.649,-0.361 0.679,-0.75 l -2.646,-3.882 c -0.997,-1.619 -0.575,-3.345 -0.169,-5.015 0.297,-0.926 0.163,-1.646 0.414,-2.454 0.661,-1.937 3.02,-2.858 4.907,-2.857 3.46,0.154 6.604,1.291 9.644,2.39 0.542,0.195 1.082,0.392 1.639,0.587 3.332,1.437 7.784,1.74 13.08,0.873 4.259,0.272 7.46,3.08 10.555,5.82 1.319,-0.036 2.701,-0.821 4.107,-2.336 4.603,-4.942 10.25,-7.344 17.266,-7.344 0.258,0 0.521,0.003 0.795,0.01 l 0.712,0.055 c 0.73,0.171 0.922,0.528 0.962,0.983 0.051,0.553 -0.374,1.087 -1.159,1.463 l -3.926,2.086 c -3.137,1.997 -6.563,4.393 -7.505,7.561 -1.021,3.37 -2.915,6.811 -4.325,9.104 -0.277,0.45 -0.584,0.891 -0.91,1.358 -0.556,0.799 -1.13,1.624 -1.53,2.482 l 0.017,0.016 c 4.282,-1.535 6.672,-4.699 9.56,-9.969 2.145,-3.919 7.736,-8.15 13.026,-8.15 0.695,0.001 1.376,0.073 2.023,0.217 0.572,0.126 0.942,0.479 1.017,0.968 0.068,0.431 0.014,0.84 -0.476,1.085"
             style="fill:#e31449;fill-opacity:1;fill-rule:nonzero;stroke:none"
             id="path122" />
        </g>
        <g
           id="g124"
           transform="translate(750.748,718.3062)">
          <path
             d="m 0,0 c -0.822,-0.782 -1.677,-1.563 -2.545,-2.355 -3.041,-2.772 -6.183,-5.639 -8.254,-8.886 -0.98,-1.33 -1.698,-2.859 -2.396,-4.338 -0.077,-0.153 -0.245,-0.493 -0.586,-0.493 -0.156,0 -0.31,0.074 -0.458,0.221 -0.589,0.589 -0.101,4.672 0.657,6.717 1.676,4.534 5.493,9.276 10.474,13.01 0.525,0.333 1.203,0.527 1.837,0.527 0.945,0 1.655,-0.428 1.955,-1.173 C 1.301,2.23 1.065,1.068 0,0 m -35.873,-50.393 c -0.479,-0.634 -1.229,-1.09 -1.945,-0.733 -0.674,0.241 -1.283,1.108 -1.659,1.778 -0.47,0.832 -0.853,1.561 -1.963,1.474 -0.081,0.002 0,0 -0.174,-0.015 -0.982,-0.087 -1.72,-0.567 -2.497,-1.168 -0.397,-0.306 -1.965,-1.482 -2.358,-1.814 -2.13,-1.8 -4.276,-3.653 -4.79,-6.178 -0.22,-0.911 -0.22,-0.911 -0.296,-1.343 -0.153,-0.884 -0.313,-1.796 -1.055,-2.267 l -0.066,-0.029 c -0.104,-0.03 -0.214,-0.046 -0.326,-0.046 -0.321,0 -0.653,0.129 -0.915,0.353 -0.27,0.231 -0.435,0.466 -0.442,0.85 -0.381,4.338 1.099,8.242 4.131,11.004 1.971,1.615 3.557,3.65 5.092,5.618 0.746,0.96 1.521,1.952 2.32,2.869 0.612,0.612 1.602,0.089 3.244,-1.697 0.69,-0.75 2.831,-4.39 3.809,-6.792 0.362,-1.058 -0.11,-1.864 -0.11,-1.864 m -1.877,-30.056 c -0.34,-0.605 -1.137,-0.952 -2.183,-0.952 -0.917,0 -1.889,0.272 -2.479,0.69 -1.369,0.972 -2.158,2.606 -2.282,4.721 -0.026,0.488 -0.055,0.989 0.603,1.49 0.341,0.196 0.519,0.196 0.916,0.196 1.301,0 3.391,-0.836 4.507,-2.189 0.08,-0.103 1.809,-2.393 0.918,-3.956 m 193.995,-27.233 c -0.42,3.445 -1.337,6.676 -2.884,10.169 l -0.073,0.161 -0.174,-0.011 c -3.312,-0.202 -5.371,2.484 -7.354,5.072 -0.656,0.857 -1.276,1.668 -1.932,2.366 -1.03,1.196 -2.17,2.197 -3.177,3.079 -1.163,1.022 -2.169,1.904 -2.558,2.711 -0.47,0.972 -0.979,2.846 -1.47,4.658 -0.352,1.298 -0.686,2.524 -0.988,3.358 -0.066,0.168 -0.132,0.344 -0.198,0.526 -0.596,1.598 -1.333,3.587 -3.402,3.932 -1.044,0.17 -2.157,0.217 -3.236,0.262 -2.992,0.126 -5.998,0.652 -7.545,2.794 -1.426,1.975 -0.833,3.802 -0.033,5.756 0.35,0.852 0.601,1.584 0.807,2.41 1.079,3.607 1.439,8.095 0.629,11.246 -0.131,0.506 -0.297,1.008 -0.46,1.494 -0.437,1.312 -0.944,3.298 -0.615,3.91 0.327,0.608 0.672,0.712 1.27,0.712 0.527,0 1.123,-0.171 1.699,-0.337 0.408,-0.117 0.723,-0.173 1.104,-0.265 1.489,-0.36 3.704,-0.764 5.738,-0.764 3.368,0 6.893,0.72 9.937,2.033 5.759,2.798 11.444,9.106 11.155,16.907 -0.753,7.907 -5.644,15.548 -14.952,23.362 -0.223,0.193 -0.46,0.388 -0.7,0.587 -1.214,0.998 -2.667,2.255 -2.708,3.384 -0.042,1.123 2.864,1.803 4.691,2.219 0.421,0.096 0.806,0.184 1.123,0.267 l 0.471,0.123 c 2.319,0.605 4.715,1.232 6.681,2.6 6.643,4.463 6.398,12.341 5.649,16.676 -0.034,0.108 -0.066,0.255 -0.099,0.413 -0.123,0.568 -0.275,1.274 -0.795,1.274 -0.165,0 -0.328,-0.077 -0.5,-0.236 -0.197,-0.18 -0.397,-0.37 -0.603,-0.566 -0.755,-0.719 -1.609,-1.534 -2.581,-2.088 -2.107,-1.244 -4.644,-1.775 -7.097,-2.289 -1.558,-0.327 -3.172,-0.664 -4.677,-1.183 -6.602,-2.276 -10.697,-5.621 -12.172,-9.942 -0.763,-2.243 -0.36,-5.083 1.118,-7.806 2.158,-3.412 5.281,-6.404 8.304,-9.299 4.759,-4.56 9.682,-9.275 10.821,-15.681 0.624,-3.727 -0.897,-6.868 -4.626,-9.591 -1.945,-1.182 -4.443,-1.805 -7.226,-1.805 -3.403,0 -7.076,0.921 -10.082,2.531 -3.864,1.933 -7.597,4.43 -11.21,6.845 -5.43,3.63 -11.044,7.384 -17.273,9.369 -2.703,1.221 -5.699,1.828 -8.593,2.415 -4.122,0.835 -8.381,1.699 -11.79,4.371 -1.171,0.764 -2.337,1.608 -3.464,2.423 -3.101,2.243 -6.306,4.561 -9.937,5.485 -1.351,0.462 -2.679,0.652 -3.964,0.835 -1.982,0.283 -3.856,0.55 -5.572,1.778 -0.78,0.557 -1.561,1.129 -2.346,1.703 -2.889,2.114 -5.876,4.298 -8.86,5.789 -5.128,2.564 -10.605,3.879 -16.714,5.214 -1.952,0.463 -3.165,1.94 -4.449,3.502 -0.862,1.049 -1.752,2.135 -2.883,2.898 -4.712,3.734 -8.978,6.22 -14.477,6.22 -0.511,0 -1.032,-0.021 -1.549,-0.064 -2.883,-0.194 -5.707,-2.384 -7.58,-4.015 -5.494,-4.81 -11.398,-9.084 -17.108,-13.217 -8.506,-6.156 -17.302,-12.523 -24.818,-20.737 -7.392,-7.627 -10.083,-17.165 -12.685,-26.389 -0.384,-1.36 -0.769,-2.719 -1.167,-4.076 -0.699,-2.515 -1.346,-5.112 -1.971,-7.624 -3.387,-13.609 -6.894,-27.189 -20.486,-36.016 -0.893,-0.58 -0.58,-1.722 0.262,-2.039 0.361,-0.136 6.84,-2.079 11.729,3.656 3.549,4.163 5.344,8.176 9.456,12.581 0.14,0.137 0.615,0.587 0.999,0.472 0.284,-0.085 0.413,-0.252 0.279,-0.756 -0.472,-1.768 -1.606,-3.308 -2.652,-4.811 -1.067,-1.535 -2.171,-3.121 -2.717,-4.942 -1.301,-3.903 -4.945,-7.058 -8.161,-9.842 0,0 -0.508,-0.331 -0.808,-0.703 -0.3,-0.372 -0.286,-0.535 -0.286,-0.535 -0.09,-0.867 0.592,-1.389 1.967,-1.448 h 0.002 c 7.618,0 13.036,5.417 18.274,10.657 0.227,0.227 0.504,0.333 0.874,0.333 0.276,0 0.48,0.036 0.838,-0.14 0.356,-0.173 1.155,-0.967 1.773,-1.519 1.714,-1.528 3.484,-3.107 5.776,-3.579 l 0.041,-0.009 0.046,0.006 c 2.776,0.387 5.281,0.706 7.849,0.706 0.733,0 1.447,-0.028 2.071,-0.071 2.78,-0.839 5.554,-1.884 8.236,-2.894 1.896,-0.714 3.854,-1.452 5.816,-2.118 l 0.045,-0.015 0.046,0.001 c 2.538,0.095 4.362,2.458 5.687,4.544 0.622,1.475 0.328,2.932 0.042,4.34 -0.176,0.869 -0.343,1.691 -0.3,2.501 0.471,0.24 1.107,0.195 1.799,0.091 0.602,-0.089 1.488,0.002 1.784,0.042 0.663,0.093 1.365,0.866 1.166,1.864 -0.506,2.541 -1.777,4.109 -3.046,6.061 -1.111,1.655 -2.161,3.219 -2.697,4.987 -0.845,2.327 -2.616,4.256 -4.329,6.121 -1.987,2.164 -3.866,4.21 -4.424,6.817 0,0 -0.179,0.552 0.022,0.753 0.201,0.201 0.73,-0.036 0.73,-0.036 0.909,-0.665 1.828,-1.413 2.717,-2.136 2.886,-2.347 5.869,-4.774 9.499,-5.321 3.384,-0.338 7.082,-0.755 10.693,-0.456 0.956,0.157 1.44,0.988 1.204,1.802 -1.438,3.047 -2.922,6.322 -3.835,9.901 -0.77,2.692 -2.454,9.781 -0.732,15.125 0.168,0.52 0.525,0.702 0.833,0.702 0.037,0 0.073,-0.005 0.128,-0.024 0.581,-0.145 0.983,-0.83 1.063,-1.384 l 0.051,-0.695 c 0.507,-7.282 0.99,-14.16 5.45,-20.018 1.187,-1.888 2.888,-2.897 4.536,-3.874 1.138,-0.674 2.435,-1.262 3.264,-2.317 0.929,-1.183 1.098,-3.216 0.444,-4.456 l -5.461,-8.057 c -1.288,-1.837 -2.539,-3.814 -2.995,-5.826 -0.408,-2.032 -0.232,-4.003 -0.065,-5.908 l 0.04,-0.459 c -0.125,0.05 -0.274,0.211 -0.402,0.44 -2.205,3.991 -2.648,7.365 -1.531,9.948 0.729,1.685 5.169,7.984 6.471,10.056 0.416,0.656 0.751,1.327 0.397,1.785 -0.433,0.559 -3.776,1.996 -4.645,1.996 -0.067,0 -0.125,-0.008 -0.175,-0.022 -0.783,-0.224 -1.287,-0.942 -1.73,-1.575 -0.095,-0.137 -0.191,-0.272 -0.304,-0.429 l -6.736,-12.225 -0.147,-0.457 c -0.394,-1.224 -0.732,-2.282 -0.398,-3.698 0.367,-1.837 0.945,-3.806 1.369,-5.245 0.116,-0.398 0.23,-0.799 0.343,-1.199 0.597,-2.119 1.164,-4.12 2.105,-5.223 0.595,-0.696 1.334,-1.021 2.325,-1.02 0.504,0 1.032,0.081 1.541,0.16 0.841,0.131 1.751,0.237 2.445,0.062 1.014,-0.254 1.715,-1.008 2.455,-1.805 0.744,-0.8 1.511,-1.627 2.63,-1.953 2.081,-0.696 4.266,-1.268 6.378,-1.821 2.815,-0.739 5.727,-1.501 8.491,-2.577 1.565,-0.503 3.24,-0.975 4.864,-0.969 1.795,0.006 2.902,0.499 4.474,1.768 2.196,1.774 2.904,3.534 3.448,6.063 0.438,2.324 1.201,2.486 2.892,2.58 0.811,0.042 0.944,0.01 1.735,0.272 0.839,0.279 3.276,3.262 4.546,5.709 0.346,0.668 0.728,1.27 1.074,1.794 0.377,0.569 0.54,1.061 0.533,1.546 -0.017,1.201 -1.014,1.588 -1.664,1.608 l -0.424,0.016 c 0,0 -7.192,0.036 -9.161,-0.003 -2.952,-0.163 -4.245,-2.997 -5.278,-5.504 -0.4,-0.969 -0.776,-1.884 -1.276,-2.684 -0.775,-1.413 -2.301,-2.274 -4.184,-2.223 -0.541,0.014 -1.758,0.331 -2.384,0.486 -3.881,0.955 -7.895,1.942 -9.527,5.791 -0.153,0.663 -0.416,2.034 0.574,3.18 2.075,2.404 4.807,5.445 7.614,7.63 3.899,0.817 7.803,3.702 9.95,7.345 0.441,0.625 0.679,1.36 0.911,2.071 0.354,1.094 0.688,2.126 1.684,2.774 0.632,0.316 1.139,0.205 1.276,-0.342 0.368,-2.021 -0.4,-3.98 -1.147,-5.875 -0.168,-0.428 -0.334,-0.848 -0.484,-1.262 l -0.108,-0.305 0.323,-0.033 c 1.072,-0.107 2.184,-0.163 3.304,-0.163 3.995,0 7.813,0.688 11.505,1.353 3.655,0.659 7.434,1.339 11.35,1.339 0.415,0 0.834,-0.007 1.265,-0.023 1.734,0 3.423,-0.153 5.06,-0.299 1.601,-0.145 3.254,-0.293 4.913,-0.293 0.59,0 1.142,0.018 1.682,0.055 4.998,0.226 8.633,2.502 9.722,6.083 1.036,3.055 0.925,8.349 -0.331,15.733 -0.062,0.356 -0.1,0.581 -0.104,0.625 0.003,0.044 0.004,0.093 0.006,0.144 0.006,0.274 0.014,0.557 0.367,0.745 0.46,0.246 0.958,0 1.194,-0.597 1.9,-5.301 2.99,-11.419 3.57,-15.624 0.641,-4.083 2.352,-8.216 5.235,-12.64 3.582,-5.337 9.471,-8.398 16.157,-8.397 1.557,0 3.118,0.289 4.667,0.497 1.082,0.145 1.481,0.082 2.205,0.082 8.509,0 15.918,-3.687 21.435,-10.665 0,0 0.102,-0.129 0.089,-0.34 -0.018,-0.29 -0.431,-0.58 -0.806,-0.425 l -0.727,0.561 c -4.799,3.72 -9.767,7.566 -15.989,8.333 -1.107,0.202 -2.257,0.299 -3.515,0.299 -1.8,0 -3.568,-0.202 -5.279,-0.399 -1.709,-0.196 -3.323,-0.382 -4.97,-0.382 -2.13,0 -3.916,0.32 -5.635,1.012 -7.167,2.357 -13.016,10.597 -14.888,15.716 -0.086,0.179 -0.341,0.481 -0.753,0.481 -0.192,0 -0.394,-0.066 -0.6,-0.195 -0.832,-0.519 -0.974,-0.801 -1.097,-1.318 -0.108,-0.428 0.588,-4.102 0.893,-5.672 0.938,-3.905 1.582,-8.501 7.371,-12.26 3.824,-2.483 4.953,-3.461 9.174,-4.098 0.714,-0.107 2.487,-0.049 3.188,0.14 1.808,0.398 3.674,0.599 5.544,0.599 5.893,0 11.898,-2.01 16.933,-5.679 0.848,-0.479 1.64,-1.149 2.406,-1.797 1.085,-0.917 2.203,-1.864 3.533,-2.342 0.835,-0.341 1.74,-0.507 2.692,-0.513 2.285,-0.017 2.861,0.69 4.489,1.486 0.719,0.351 1.444,0.475 1.91,0.475 1.834,0 2.851,-1.429 4.14,-3.237 0.775,-1.087 1.653,-2.319 2.843,-3.404 1.667,-1.617 3.969,-1.824 5.786,-1.824 0.987,0 1.993,0.072 2.969,0.141 0.941,0.066 2.074,0.089 2.665,0.158 0.591,0.07 0.911,0.153 0.911,0.153 z"
             style="fill:#e31449;fill-opacity:1;fill-rule:nonzero;stroke:none"
             id="path126" />
        </g>
        <g
           id="g128"
           transform="translate(584.9655,575.498)">
          <path
             d="m 0,0 -6.432,3.659 -5.074,-8.918 6.431,-3.66 z m -25.219,-59.285 -6.431,3.66 24.417,42.913 -6.432,3.659 -22.884,-40.218 c -3.016,-5.302 -1.143,-12.121 4.158,-15.137 5.302,-3.017 12.12,-1.144 15.137,4.158 l 22.884,40.219 -6.431,3.66 z M 12.863,-7.319 6.432,-3.66 1.357,-12.578 7.789,-16.237 Z M -19.804,14.745 -31.136,9.508 c -3.358,-1.687 -6.792,-3.445 -10.09,-5.197 l -0.123,0.129 c 1.934,3.197 3.878,6.525 5.751,9.787 l 5.876,11.005 -4.216,4.457 -51.88,-49.074 4.587,-4.851 23.689,22.408 c 4.722,4.467 11.306,11.189 15.126,15.301 l 0.124,-0.13 c -4.771,-7.619 -8.199,-14.33 -12.254,-21.397 l 0.123,-0.13 c 7.281,3.656 14.178,6.699 22.05,11.039 l 0.123,-0.13 c -4.317,-3.587 -11.394,-9.787 -16.117,-14.251 l -23.689,-22.409 4.587,-4.85 51.882,49.073 z m 232.159,-35.889 4.666,5.219 -53.232,47.589 -4.932,-5.517 15.432,-13.797 c 4.697,-4.199 14.566,-12.216 19.304,-15.917 l -0.133,-0.149 c -13.32,8.957 -26.886,15.988 -39.802,24.047 l -4.666,-5.219 53.232,-47.588 4.932,5.517 -15.432,13.797 c -4.697,4.199 -14.566,12.216 -19.306,15.917 l 0.134,0.149 c 13.32,-8.958 26.887,-15.988 39.803,-24.048 m -49.012,-32.458 -13.328,20.676 9.328,6.015 -4.01,6.219 -9.328,-6.015 -13.33,20.676 12.44,8.018 -4.01,6.22 -12.439,-8.02 c -3.446,-2.22 -4.432,-6.783 -2.209,-10.228 l 30.668,-47.569 c 2.22,-3.447 6.783,-4.432 10.228,-2.21 l 12.44,8.018 -4.01,6.22 z m -58.933,42.327 9.472,-30.567 -7.068,-2.19 -9.473,30.566 -7.068,-2.19 21.135,-68.201 7.068,2.19 -9.473,30.566 7.069,2.191 9.472,-30.567 7.069,2.191 -21.135,68.201 z m -30.23,-59.19 0.335,-11.195 -7.398,-0.221 -1.692,56.577 7.396,0.222 0.335,-11.196 7.398,0.221 -0.242,8.097 c -0.183,6.098 -5.331,10.946 -11.428,10.764 -6.098,-0.183 -10.946,-5.33 -10.764,-11.428 l 1.508,-50.38 c 0.183,-6.098 5.33,-10.946 11.428,-10.764 6.096,0.183 10.945,5.331 10.763,11.428 l -0.243,8.097 z m -40.671,35.097 c -1.489,-6.121 -3.91,-18.604 -4.941,-24.528 l -0.194,0.046 c 1.622,15.971 1.431,31.25 2.452,46.441 l -6.802,1.655 -16.887,-69.378 7.191,-1.75 4.896,20.113 c 1.49,6.123 3.91,18.605 4.94,24.529 l 0.194,-0.047 c -1.622,-15.97 -1.43,-31.25 -2.452,-46.44 l 6.803,-1.656 16.887,69.378 -7.191,1.751 z"
             style="fill:#0a1d3d;fill-opacity:1;fill-rule:nonzero;stroke:none"
             id="path130" />
        </g>
      </g>
    </g>
  </g>
</svg>
