<?xml version="1.0" encoding="UTF-8" standalone="no"?>
<!-- Created with Inkscape (http://www.inkscape.org/) -->

<svg
   version="1.1"
   id="svg371"
   width="746.96185"
   height="842.48785"
   viewBox="0 0 746.96185 842.48785"
   xmlns="http://www.w3.org/2000/svg"
   xmlns:svg="http://www.w3.org/2000/svg">
  <defs
     id="defs375">
    <clipPath
       clipPathUnits="userSpaceOnUse"
       id="clipPath389">
      <path
         d="M 0,6549 H 6120 V 0 H 0 Z"
         id="path387" />
    </clipPath>
  </defs>
  <g
     id="g379"
     transform="matrix(1.3333333,0,0,-1.3333333,-38.487466,857.77998)">
    <g
       id="g381"
       transform="scale(0.1)">
      <g
         id="g383">
        <g
           id="g385"
           clip-path="url(#clipPath389)">
          <path
             d="m 5862.38,3450.51 c -471.09,51.31 -939.29,72.14 -1392.87,62.05 l 1.86,2.26 97.31,44.25 42.88,37.58 47.01,54.5 3.76,0.94 95.65,118.54 59.37,306.31 -128.29,-40.33 16.52,118.02 -209.03,-63.79 -3.33,7.73 129,216.01 155.12,92.27 23.84,-61.17 63.31,-10.31 29.63,17.96 -32.93,-109.26 130.6,-65.91 138.66,68.22 143.72,102.43 76.72,132.62 107.36,28.04 127.34,300.43 136.22,84.6 24.44,303.04 -172.05,272.68 -456.82,184.92 -136.23,303.21 -910.48,393.05 -567.18,-145.17 -271.74,227.12 -612.41,-100.57 -7.77,-1.27 -240.75,-193.36 181.3,-306.87 109.46,-201.77 -118.19,-147.35 -146.2,-278.45 -226.44,-204.98 -273.09,-638.99 203.88,53.4 -325.05,-400.18 131.31,25.22 -408.9,-426.32 151.47,20.45 -61.11,-74.92 c -189.17,-52.28 -370.24,-110.18 -538.36,-172.12 l -19.93,-7.34 0.3,-21.23 c 0.94,-68.23 1.68,-138.25 2.41,-208.79 1.44,-137.65 2.93,-279.78 6.1,-412.88 C 576.645,2508.7 340.512,2322.83 330.563,2314.94 l -41.907,-33.28 302.477,-110.66 329.39,72.82 -416.257,-356.62 264.859,-107.33 271.595,103.47 -263.267,-326.37 220.852,-90.77 116.215,61 -161.016,-386.99 144.626,-85.63 68.11,52.4 -17.02,-896.449 17.45,-8.32 c 6.17,-2.941 151.49,-72.191 170.18,-80.301 l 16.65,-7.219 14.12,11.387 c 138.98,112.16 596.51,416.461 786.69,542.043 l -16.29,-37.582 190.21,-83.879 14.43,13.059 c 6.56,5.929 632.9,569.951 1203.57,838.201 -10.08,-18.45 -14.47,-26.6 -15.66,-29.08 l -20.68,-43.31 45.03,0.36 c 13.66,-3.91 69.09,-26.06 115.2,-45.41 l 17.94,-7.52 14.19,13.3 c 1.36,1.27 138.72,129.08 395.84,295.41 392.43,253.86 783.54,417.73 1064.39,515.64 -0.36,-0.54 -0.72,-1.09 -1.07,-1.64 l -16.55,-25.32 109.35,-70.21 15.15,7.37 c 2.74,1.34 277.88,134.46 567.7,220.81 l 20.08,5.97 1.3,20.91 c 4.69,75.18 7.21,236.24 10.14,422.75 4.07,259.64 8.68,553.91 20.48,740.84 l 1.81,28.61 -28.49,3.11"
             style="fill:#ffffff;fill-opacity:1;fill-rule:nonzero;stroke:none"
             id="path391" />
          <path
             d="m 4404.8,3480.89 47.79,58.34 99.65,45.31 39.54,34.67 50.22,58.74 3.31,0.82 84.64,104.9 48.37,249.55 -125.56,-39.47 16.58,118.45 -189.71,-57.88 -20.03,46.46 140.76,235.71 192.07,114.25 30.49,-78.2 35.48,-5.78 86.99,52.73 -48.21,-159.98 94.77,-47.83 125.26,61.61 134.24,96.14 79.74,137.86 105.2,27.47 125.29,295.61 131.45,81.63 22.42,277.98 -161.56,256.06 -459.04,185.82 -136.39,303.56 -890.37,384.38 -572.14,-146.44 -273,228.16 -598.84,-98.34 -214.34,-172.14 168.36,-284.99 119.22,-219.77 -128.84,-160.64 -147.34,-280.59 -225.52,-204.15 -246.43,-576.62 233.31,61.11 -330.95,-407.44 143,27.47 -414.67,-432.34 141.61,19.12 -115.16,-141.19 c -185.04,-50.9 -368.41,-108.76 -545.19,-173.89 2.9,-209.08 3.78,-435.15 8.98,-640.63 C 593.168,2485.15 349.223,2291.44 349.223,2291.44 l 243.988,-89.25 437.799,96.77 -469.791,-402.47 208.242,-84.38 364.279,138.77 -307.693,-381.45 170.711,-70.16 177.372,93.11 -182.915,-439.63 104.725,-62.01 101.48,78.09 -17.84,-939.541 c 0,0 150.79,-71.867 169.21,-79.859 179.32,144.711 873.07,599.078 873.07,599.078 l -44.46,-102.547 145.13,-64 c 0,0 690.54,625.099 1292.6,879.609 0.42,0.17 -54.34,-99.08 -57.49,-105.66 10.1,0.07 124.1,-47.77 124.1,-47.77 0,0 546.6,512.63 1548.27,843.8 5.13,1.7 -43.49,-72.68 -43.49,-72.68 l 69.72,-44.77 c 0,0 276.74,134.53 572.26,222.58 10.99,176.41 10.11,838.88 30.62,1163.61 -520.22,56.67 -1005.17,73.23 -1454.32,60.21"
             style="fill:#231f20;fill-opacity:1;fill-rule:nonzero;stroke:none"
             id="path393" />
          <path
             d="m 1950.27,3617.42 c 171.45,39.19 341.74,72.52 507.06,100.19 l 99.22,51.48 40.46,82.53 21.8,41.34 5.66,71.88 -340.32,-140.32 104.21,336.52 -105.48,-20.27 -121.32,-67.4 -76.48,-78.15 -82.59,-159.44 16.08,-25.12 -75.66,-96.44 7.36,-96.8"
             style="fill:#ffffff;fill-opacity:1;fill-rule:nonzero;stroke:none"
             id="path395" />
          <path
             d="m 2788.66,3766.54 -127.61,61.95 -36.58,136.35 -167.14,-247.23 c 113.21,18.94 224.06,35.23 331.33,48.93"
             style="fill:#7b7979;fill-opacity:1;fill-rule:nonzero;stroke:none"
             id="path397" />
          <path
             d="m 1724.34,3562.47 c 75.31,19.46 150.73,37.77 225.93,54.95 l 192.01,236.02 -105.51,-13.33 246.11,300.66 -161.63,-31.04 -328.98,-345.71 102.27,12.93 -170.2,-214.48"
             style="fill:#7b7979;fill-opacity:1;fill-rule:nonzero;stroke:none"
             id="path399" />
          <path
             d="m 5270.04,4581.23 c -4.28,-4.73 -106.81,-168.62 -106.81,-168.62 l -172.9,-121.17 31.97,90.48 93.7,240.02 -46.87,-45.37 -178.48,-83.37 54.07,111.34 94.49,189.28 108.68,-33.4 c 0,0 36.44,-13.27 40.56,-17.66 14.79,-27.31 38.32,-57.48 62.64,-94.83 7.88,-15.15 19.4,-66.43 18.95,-66.7 v 0"
             style="fill:#ffffff;fill-opacity:1;fill-rule:nonzero;stroke:none"
             id="path401" />
          <path
             d="m 5408.66,5398.35 -417.31,168.92 -158.56,276.41 -787.93,352.27 -591.34,-132.74 -326.81,215.18 -481.44,-89.82 -66.48,-58.75 78.14,-178.82 275,-339.79 -236.36,-204.08 -170.22,-286.92 -217.52,-160.62 -113.11,-303.94 77.55,-88.84 40,-57.02 -238.61,-328.8 362.48,198.09 89.37,-77.77 -84.57,-284.3 214.98,127.04 174.72,-275.65 177,-43.06 c 150.19,14.53 295.94,35.09 422.01,38.58 l 213.57,5.44 81.28,-74.78 2.22,-77.36 34.16,-113.34 241.76,-144.19 160.98,-143.54 57.45,143.19 241.66,182.4 7.55,51.46 -190.26,136.03 -196.39,73.02 -24.07,41.62 -20.94,133.31 116.73,281.59 -21.1,128.23 118.16,174.44 640.35,233.05 354.11,-83.51 59.76,-205.95 81.29,35.16 83.95,219.98 116.17,125.05 21.53,190.48 -200.91,222.65"
             style="fill:#ffffff;fill-opacity:1;fill-rule:nonzero;stroke:none"
             id="path403" />
          <path
             d="m 2438.97,4478.69 7.66,86.53 128.08,109.07 146.85,293.89 316.92,209.46 55.59,117.21 371.54,236.75 335.87,139.97 194.01,-58.22 -394.27,-147.35 -252,-210.37 -16.02,-262.99 -468.43,-197.23 -150.31,-285.93 -189.06,-208.4 -451.74,-120.09 47.07,64.95 318.24,232.75"
             style="fill:#7b7979;fill-opacity:1;fill-rule:nonzero;stroke:none"
             id="path405" />
          <path
             d="m 2704.78,6079.83 246.56,52.06 124.35,-38.97 196.15,-132.85 -161.27,-80.77 -68.84,-106.91 -70.05,200.3 -266.9,107.14 v 0"
             style="fill:#7b7979;fill-opacity:1;fill-rule:nonzero;stroke:none"
             id="path407" />
          <path
             d="m 5318.12,5007.25 c 20.74,4.93 41.04,-5.6 45.35,-23.54 4.3,-17.94 -9.01,-36.48 -29.76,-41.42 -20.72,-4.93 -41.04,5.6 -45.36,23.55 -4.31,17.95 9.03,36.48 29.77,41.41 v 0"
             style="fill:#7b7979;fill-opacity:1;fill-rule:nonzero;stroke:none"
             id="path409" />
          <path
             d="m 5188.44,4979.98 c 20.77,4.94 41.05,-5.6 45.37,-23.54 4.29,-17.94 -9.02,-36.49 -29.77,-41.42 -20.74,-4.93 -41.04,5.6 -45.34,23.56 -4.31,17.93 9,36.47 29.74,41.4 v 0"
             style="fill:#7b7979;fill-opacity:1;fill-rule:nonzero;stroke:none"
             id="path411" />
          <path
             d="m 5098.45,5041.6 c 20.76,4.95 41.06,-5.59 45.36,-23.54 4.32,-17.92 -8.99,-36.46 -29.74,-41.4 -20.75,-4.94 -41.07,5.6 -45.36,23.53 -4.31,17.95 9.01,36.48 29.74,41.41 v 0"
             style="fill:#7b7979;fill-opacity:1;fill-rule:nonzero;stroke:none"
             id="path413" />
          <path
             d="m 5228.27,5116.3 c 25.53,6.07 50.56,-6.9 55.87,-28.98 5.29,-22.09 -11.12,-44.95 -36.68,-51.02 -25.56,-6.09 -50.57,6.9 -55.88,29 -5.3,22.08 11.13,44.92 36.69,51 v 0"
             style="fill:#7b7979;fill-opacity:1;fill-rule:nonzero;stroke:none"
             id="path415" />
          <path
             d="m 2303.97,4965.21 217.52,160.62 170.21,286.92 156.8,156.26 -219.08,353.65 -54.5,212.77 66.49,58.76 481.43,89.81 326.82,-215.18 606.38,150.5 832.69,-352.48 129.28,-289.67 392.53,-172.95 205.18,-227.42 -24.62,-194.77 -116.98,-123.58 -82.92,-222.66 -121.31,-71.59 -10.88,-23.13 -92.9,-136.81 -163.96,-119.06 -36.53,-2.06 -1.82,43.13 59.02,114.78 65.95,152.4 -36.32,-38.01 -164.82,-106.44 -36.52,-2.07 -1.83,43.14 59.02,114.78 51.4,185.18 79.71,3.88 -19.22,-78.16 -60.26,-151.19 -44.76,-44.59 55.63,18.74 61.49,46.57 89.6,136.93 23.36,39.16 33.16,-4.13 10.75,-14.71 -54.45,-190.57 -60.26,-151.19 -74.6,-85.67 46.12,28.24 100.84,78.15 89.6,136.92 15.47,89.75 23.99,-53.15 47.69,25.92 42.34,30.67 20.15,35.79 56.43,183.81 33.52,35.88 -146.37,222.79 -148.81,82.66 -234.45,53.57 -18.61,25.69 277.45,-9.5 156.22,-101.98 85.12,1.12 132.4,-21.51 -211.11,221.84 -412.01,156.2 -131.62,237.58 -149.33,71 -98.79,-32.04 -408.81,44.02 -189.53,-84.48 -119.3,-18.91 9.94,29.69 199.5,170.43 199.69,-29.83 150.31,43.31 -365.62,173.84 -604.33,-142.39 -30.77,14.85 -357.1,184.81 -88.46,5.37 -336.82,-71.79 66.87,-170.64 239.36,-275.66 85.83,21.93 192.91,-8.95 26.37,85.38 194.34,88.55 48.35,-12.92 -83.43,-53.4 -77.04,-209.34 -100.44,-71.11 -422.92,-162.78 -215.87,-319 -252.55,-350.41 -72.24,-119.22 -153.32,-46.01 192.96,435.37 v 0"
             style="fill:#7b7979;fill-opacity:1;fill-rule:nonzero;stroke:none"
             id="path417" />
          <path
             d="m 4364.51,5797.59 325.64,-90.39 4.09,-72.37 179.01,-222.78 -37.64,-17.47 -184.7,124.97 -314.3,10.77 102.4,59.79 c 0,0 -70.43,17.99 -72.03,18.42 -0.97,0.25 -41.89,64.74 -41.89,64.74 l 141.58,53.3 -102.16,71.02 v 0"
             style="fill:#231f20;fill-opacity:1;fill-rule:nonzero;stroke:none"
             id="path419" />
          <path
             d="m 4584.91,5657.88 81.05,-91.24 -100.6,53.74 -10.19,-7.77 2.37,-30.51 -22.23,1.38 c -25.34,11.95 -36.82,19.77 -49.79,31.16 -16.07,14.07 -23.32,17.42 -29.51,30.92 -3.43,7.48 -4.42,11.99 -4.33,19.69 9.8,5.27 16.14,7.77 27.86,11.04 11.94,3.3 19.27,4.59 32.31,5.59 l 91.74,0.78 -18.68,-24.78 v 0"
             style="fill:#ffffff;fill-opacity:1;fill-rule:nonzero;stroke:none"
             id="path421" />
          <path
             d="m 4224.08,3935.48 153.04,44.19 -47.9,138.77 107.32,249.48 -30.89,172.23 -99.07,65.69 -13.83,-12.33 7.36,-166.22 -101.18,-237.86 11.52,-229.01 13.63,-24.94 v 0"
             style="fill:#ed1c24;fill-opacity:1;fill-rule:nonzero;stroke:none"
             id="path423" />
          <path
             d="m 4404.17,5126.6 -147.43,-24.2 -461.08,-55.63 6.53,97.7 161.47,155.31 12.58,5.48 2.48,1.09 211.88,-36.81 -143.95,-65.92 31.13,-117.37 210.69,99.71 47.7,-20.27 91.59,-38.93 z m -9.45,-104.02 234.5,-8.62 175.55,-32.32 c -13.51,-1.34 -26.94,-2.77 -40.46,-4.25 -50.49,-5.55 -102.46,-12.24 -166.39,-21.19 -8.22,-1.15 -16.12,-2.27 -24.05,-3.39 -155.68,-21.99 -254.38,-38.26 -404.51,-74.17 -10.52,-2.51 -21.3,-5.13 -32.36,-7.85 -64.75,-15.9 -114.68,-25.95 -165.22,-39.78 l 2.48,25.72 -135.4,107.02 z m 676.13,96.89 -189.81,51.47 -74.78,20.27 c 0,0 -63.84,14.59 -148.29,32.93 -2.16,0.47 -4.31,0.94 -6.5,1.41 -13.22,2.87 -26.9,5.82 -40.91,8.81 -5.75,1.23 -11.54,2.46 -17.39,3.7 -7.31,1.56 -14.69,3.12 -22.11,4.68 -8.23,1.74 -16.52,3.47 -24.83,5.2 l -187.06,98.79 -110.38,-50.54 -205.73,38.12 149.18,64.85 119.39,51.89 -101.62,31.61 -118.79,64.57 -91.55,-85.48 -180.06,-82.47 -20.5,-14.83 -170.59,2.02 -75.5,-1.11 -2.58,-19.69 v -0.01 l 214.73,-5.79 -194.18,-140.61 3.72,-122.89 3.72,-122.89 -314.48,-62.32 -4.3,-19.38 172.55,27.9 172.53,27.89 77.03,-51.06 108.77,-72.1 -14.95,-35.8 -3.38,-8.09 c -67.86,-23.32 -154.43,-51.18 -210.49,-74.57 -3.74,-1.55 -7.34,-3.1 -10.79,-4.61 -0.36,-0.02 -0.95,-3.01 -6.95,-9.01 h 0.01 v 0 c 0,0 78.18,22.84 174.26,50.62 6.4,1.85 12.89,3.72 19.43,5.61 l -349.64,-243.78 -251.63,-601.97 -146.32,-11.08 -156.11,63.18 137.18,459.27 120.81,102.96 120.82,102.95 299.41,254.94 -356.16,-125.5 -228.68,-124.77 -262.31,-363.29 -215.93,-196.82 -8.17,-27.64 207.13,117.49 109.41,-252.8 202.47,-95.13 c 15.67,1.66 31.23,3.25 46.7,4.79 2.56,0.26 5.09,0.5 7.65,0.75 12.39,1.22 24.73,2.4 36.99,3.55 3.86,0.36 7.72,0.71 11.58,1.07 11.48,1.06 22.9,2.07 34.26,3.06 3.4,0.3 6.81,0.6 10.21,0.89 29.29,2.5 58.17,4.79 86.57,6.85 2.89,0.21 5.75,0.4 8.64,0.6 11.14,0.8 22.22,1.56 33.22,2.28 3.88,0.26 7.74,0.51 11.6,0.75 10.41,0.67 20.75,1.3 31.03,1.9 3.47,0.21 6.97,0.42 10.43,0.62 27.06,1.54 53.63,2.87 79.68,3.98 3.21,0.14 6.39,0.26 9.58,0.39 9.74,0.4 19.4,0.77 28.98,1.11 3.89,0.13 7.77,0.27 11.64,0.39 9.27,0.31 18.46,0.58 27.57,0.83 3.43,0.1 6.89,0.19 10.3,0.28 12.14,0.3 24.18,0.57 36.05,0.77 0.13,0 0.26,0.01 0.39,0.01 12.04,0.2 23.89,0.34 35.64,0.44 3.35,0.03 6.64,0.04 9.97,0.06 8.35,0.05 16.65,0.08 24.85,0.07 3.84,0 7.66,-0.01 11.46,-0.02 8.02,-0.02 15.94,-0.08 23.8,-0.16 3.34,-0.04 6.7,-0.06 10,-0.1 10.96,-0.14 21.81,-0.32 32.47,-0.57 v 0 0 l 55.11,-267.6 297.22,-99.05 170.61,-142.78 59.16,146.67 242.1,181.86 2.58,20.01 3.21,24.91 34.1,16.07 144.77,120.46 73.7,136.71 -16.61,21.21 -157.36,-56.99 46.49,57.78 15.36,38.98 -9.27,27.1 -16.51,1.84 -49.09,-18.72 -110,-36.27 -192.42,-52.6 -23.91,-11.94 62.07,-58.43 103.08,-80.02 9.46,-27.67 -0.87,-7.06 37.06,-53.67 -6.09,-35.19 -1.29,-7.5 -222.17,-169.59 -40.63,-105.69 -141.74,116.71 -213.8,120.22 1.57,229.09 -165.25,287.03 -213.91,-65.09 -110.46,-33.69 120.27,277.34 143.2,142.26 392.47,287.17 4.79,49.28 38.35,10.64 c 12.86,3.52 25.41,6.89 37.67,10.12 128.71,33.85 225.86,51.75 341.02,68.86 49.36,7.33 102.02,14.52 161.9,22.75 14.92,2.06 30.9,4.12 47.46,6.17 115.77,14.28 259.37,27.45 259.74,27.48 -59.75,-16.22 -112.33,-29.19 -161.9,-41.17 -121.58,-29.4 -224.53,-52.72 -367.16,-102.52 -172.28,-60.15 -352.56,-154.86 -434.08,-199.23 -18.81,-10.24 -32.36,-17.8 -39.35,-21.63 -70.03,-38.43 -144.46,-93.2 -216.87,-136.04 -16.71,-9.88 -33.31,-19.13 -49.73,-27.4 l 14.33,-14.65 h 0.01 v 0 c 0,0 330.42,205.67 570.92,302.2 7.76,3.11 15.43,6.11 22.98,8.98 6.18,2.36 12.27,4.68 18.3,6.97 114.38,43.48 200.73,75.72 296.4,106.51 5.04,1.62 10.1,3.24 15.2,4.85 56.02,17.75 115.83,35.2 186.66,54.22 14.7,3.95 28.53,7.62 41.78,11.1 86.76,22.76 147.44,36.56 245.45,56.27 v 0.01 l -11.71,28.81 3.92,27.01 0.37,2.59 -124.54,19.23 -124.55,19.23 -292.72,15.96 -177.11,-7.48 -184.4,-24.87 -282.41,-38.08 -11.57,9.15 0.07,1.14 1.5,22.56 444.94,51.15 192.14,28.37 63.73,-5.38 37.1,-15.78 469.95,-25.46 11.25,20.35 2.58,4.65 55.02,37.52 h -0.01 0.01"
             style="fill:#7b7979;fill-opacity:1;fill-rule:evenodd;stroke:none"
             id="path425" />
          <path
             d="m 4527.33,3886.07 -35.32,-43.89 -39.32,-36.72 3.91,-40.8 33.88,-28.29 133.87,94.9 53.85,103.21 -150.87,-48.41 v 0"
             style="fill:#ffffff;fill-opacity:1;fill-rule:nonzero;stroke:none"
             id="path427" />
          <path
             d="m 4311.73,3872.4 71.07,-47.06 75.6,48.41 92.14,84.81 36.87,47.07 -2.81,12.61 -20.92,-13.87 -120.86,-46.78 -167.39,-45.63 36.3,-39.56 v 0"
             style="fill:#ffffff;fill-opacity:1;fill-rule:nonzero;stroke:none"
             id="path429" />
          <path
             d="m 1394.28,3282.66 c 2.3,-89.71 4.17,-139.76 6.91,-231.18 -0.97,-0.36 -1.46,-0.54 -2.43,-0.9 -41.34,77.09 -62.92,121.1 -103.96,200.31 -32.89,-10.66 -49.39,-16.07 -82.51,-27.06 2.21,-114.06 4.7,-228.11 6.86,-342.18 24.41,10.61 36.5,15.77 60.47,25.85 -2.06,96.39 -3.48,135.6 -6.25,241.51 0.6,0.21 0.9,0.31 1.49,0.52 43.26,-91.46 65.1,-121.97 107.51,-200.02 31.92,12.69 47.71,18.83 79.02,30.78 -2.82,106.8 -4.91,214.22 -7.91,321.03 -23.09,-7.13 -35.98,-11.36 -59.2,-18.66"
             style="fill:#ffffff;fill-opacity:1;fill-rule:nonzero;stroke:none"
             id="path431" />
          <path
             d="m 1991.39,3303.7 c -30.89,-9 -46.29,-13.51 -77.07,-22.62 -0.11,43.71 -0.24,66.28 -0.39,111.25 30.84,8.28 46.25,12.37 77.12,20.48 4.45,-1.9 6.8,-2.77 11.14,-4.72 0.12,-37.87 0.22,-56.83 0.3,-93.71 -4.32,-4.19 -6.67,-6.4 -11.1,-10.68 z m 70.56,8.94 c -0.42,52.22 -0.73,78.93 -1.22,131.96 -16.07,6.18 -26.69,8.4 -41.98,13.94 -58.83,-14.95 -98.07,-24.83 -164.95,-42.58 0.51,-99.2 0.86,-198.41 1.3,-297.62 23.83,7.83 35.75,11.73 59.65,19.5 -0.16,41.78 -0.22,62.86 -0.33,104.33 25.79,7.83 38.69,11.72 64.57,19.5 12.29,-37.25 18.92,-55.82 30.29,-93.35 22.46,6.9 33.6,10.29 55.76,16.92 -14.33,38.73 -21.4,58.71 -35.41,97.96 10.74,10.71 21.02,18.77 32.32,29.44"
             style="fill:#ffffff;fill-opacity:1;fill-rule:nonzero;stroke:none"
             id="path433" />
          <path
             d="m 2313.04,3529.7 c 0.56,-76.46 0.99,-118.26 1.39,-196.07 -0.86,-0.21 -1.3,-0.32 -2.17,-0.53 -34.72,69.38 -52.59,106.65 -88.15,176.02 -29.16,-6.9 -43.71,-10.4 -72.74,-17.49 1.5,-93.33 2.47,-186.67 3.82,-280.01 20.71,5.92 31.03,8.83 51.61,14.55 -1.26,79.01 -1.24,116.18 -2.54,201.08 0.52,0.13 0.78,0.19 1.3,0.32 36.82,-76.21 54.46,-109.44 90.5,-177.19 28.07,7.43 42.43,11.15 69.98,18.15 -0.94,103.62 -0.88,165.85 -1.46,272.64 -20.08,-4.4 -30.62,-6.75 -51.54,-11.47"
             style="fill:#ffffff;fill-opacity:1;fill-rule:nonzero;stroke:none"
             id="path435" />
          <path
             d="m 2586.94,3355.97 c -28.23,-6.18 -42.13,-9.27 -69.69,-15.51 -0.15,31.41 -0.14,48.03 -0.2,80.31 27.73,5.91 41.73,8.84 70.11,14.64 3.87,-1.85 5.81,-2.78 9.69,-4.63 0.05,-26.54 0.05,-40.08 0.16,-65.89 -4.04,-3.57 -6.05,-5.36 -10.07,-8.92 z m -70.56,180.74 c 27.57,5.54 41.48,8.26 69.66,13.6 4.05,-2.15 6.08,-3.22 10.15,-5.4 0.24,-26.44 0.43,-40.74 0.54,-64.89 -3.87,-3.45 -5.8,-5.18 -9.66,-8.65 -28.38,-5.63 -42.37,-8.48 -70.1,-14.26 -0.11,30.13 -0.34,47.46 -0.59,79.6 z m 106.77,-76.04 c 11.53,9.93 17.32,14.85 28.97,24.54 -0.17,33.22 -0.52,53.67 -0.84,88.63 -15.38,7.07 -23,10.49 -38.12,17.09 -61.43,-10.99 -91.23,-16.78 -150,-28.82 0.58,-104.97 0.46,-168.61 1.43,-269.17 58.67,14.17 88.37,21.07 150.08,35.06 15.04,12.27 22.62,18.46 37.93,30.92 -0.27,33.83 -0.26,52.46 -0.35,88.28 -11.72,5.38 -17.53,8.09 -29.1,13.47"
             style="fill:#ffffff;fill-opacity:1;fill-rule:nonzero;stroke:none"
             id="path437" />
          <path
             d="m 2811.02,3403.55 c -0.28,29.33 -0.27,44.95 -0.38,75.2 33.95,5.94 50.94,8.84 84.94,14.47 0.01,13.52 0.02,20.27 -0.01,33.51 -34.07,-5.38 -51.09,-8.15 -85.1,-13.81 -0.18,27.32 -0.47,43.4 -0.92,74.15 44.54,7.14 67.28,10.69 111.5,17.4 -0.19,15.72 -0.29,23.15 -0.43,36.71 -67.98,-10.47 -103.1,-16.11 -171.27,-27.31 1.14,-98.64 0.96,-164.09 2.6,-255.9 68.22,13.8 102.43,20.25 170.09,32.24 -0.23,13.2 -0.29,19.99 -0.37,33.7 -44.03,-7.78 -66.34,-11.88 -110.65,-20.36"
             style="fill:#ffffff;fill-opacity:1;fill-rule:nonzero;stroke:none"
             id="path439" />
          <path
             d="m 3147.53,3547.83 c -4.46,-3.02 -6.69,-4.54 -11.16,-7.59 -27.36,-3.72 -41.03,-5.64 -68.32,-9.56 0.36,35.68 0.32,53.62 -0.1,96.93 27.42,3.78 41.15,5.63 68.66,9.22 4.47,-2.47 6.7,-3.73 11.17,-6.3 0.28,-38.94 0.21,-52.51 -0.25,-82.7 z m 59.73,-8.01 c 0.88,42.65 1,66.73 0.67,118.13 -16.58,8.11 -24.88,11.78 -41.44,18.36 -63.75,-8.24 -95.6,-12.72 -158.85,-22.02 0.96,-96.21 -0.84,-155.87 0.75,-249.3 23.7,3.92 35.55,5.83 59.29,9.57 -0.52,33.35 -0.3,50.55 0.04,84.36 20.91,3.15 31.37,4.69 52.33,7.72 13.04,-31.53 19.45,-47.31 33.38,-79 24.4,3.6 36.61,5.36 61.09,8.8 -15.73,34.02 -22.89,50.57 -37.55,83.75 12.09,7.93 18.16,11.86 30.29,19.63"
             style="fill:#ffffff;fill-opacity:1;fill-rule:nonzero;stroke:none"
             id="path441" />
          <path
             d="m 3510.64,3589.29 c -37.65,-3.14 -56.47,-4.85 -94.07,-8.51 -0.29,-12.08 -0.46,-18.11 -0.78,-30.3 16.22,1.73 24.34,2.57 40.59,4.22 -0.45,-19.08 -0.69,-28.68 -0.81,-48.71 -4.5,-2.91 -6.75,-4.37 -11.25,-7.32 -28.99,-3.39 -43.44,-5.13 -72.29,-8.71 -4.44,1.88 -6.67,2.83 -11.11,4.7 0.64,62.71 2.95,76.22 2.44,160.45 4.44,3.54 6.66,5.28 11.09,8.71 28.56,2.7 42.83,3.96 71.32,6.28 4.47,-2.68 6.71,-4.04 11.18,-6.84 0.11,-10.85 0.21,-20.29 0.24,-28.03 21.33,1.59 31.99,2.34 53.29,3.71 -0.14,13.45 -0.39,31.06 -0.7,48.46 -16.39,9.36 -24.58,13.56 -40.91,20.85 -49.91,-3.77 -75.01,-6.05 -125.26,-11.13 -16.28,-10.33 -24.41,-16.06 -40.69,-28.2 0.53,-91.53 -2.28,-121.55 -2.4,-198.69 16.28,-6.58 24.45,-9.91 40.93,-16.74 50.37,6.46 75.68,9.55 126.65,15.56 16.54,10.93 24.85,16.29 41.52,26.74 -0.44,39.82 0.39,57.22 1.02,93.5"
             style="fill:#ffffff;fill-opacity:1;fill-rule:nonzero;stroke:none"
             id="path443" />
          <path
             d="m 1695.52,3372.5 c 1.18,-100.67 2.22,-153.83 3.61,-256.17 -4.16,-4.62 -6.25,-6.94 -10.42,-11.57 -25.96,-8.74 -34.27,-11.34 -60.45,-20.37 -4.14,1.84 -6.21,2.77 -10.36,4.62 -2.09,103.74 -3.59,158.25 -5.42,260.12 -23.53,-6.86 -37.04,-11.15 -60.72,-18.21 2.14,-95.09 4.8,-190.17 7.04,-285.25 16,-5.95 23.96,-8.91 39.8,-14.8 49.26,17.58 73.61,26.01 122.11,42.53 15.4,16.54 23.1,24.78 38.52,41.14 -1.01,110.06 -1.81,166.78 -2.64,275.16 -23.15,-6.37 -37.76,-10.63 -61.07,-17.2"
             style="fill:#ffffff;fill-opacity:1;fill-rule:nonzero;stroke:none"
             id="path445" />
          <path
             d="m 1576.56,3398.7 c 6.3,-3.38 9.46,-5.06 15.75,-8.39 l 1.14,-0.61 23.08,6.29 17.56,18.44 -0.01,24.57 -1.72,0.91 c -6.45,3.42 -9.66,5.13 -16.13,8.59 l -1.12,0.6 -23.19,-6.06 -17.19,-18.75 0.12,-24.67 1.71,-0.92"
             style="fill:#ffffff;fill-opacity:1;fill-rule:nonzero;stroke:none"
             id="path447" />
          <path
             d="m 1687.43,3415.56 1.11,-0.57 22.75,5.84 16.97,17.75 0.01,1.3 c 0.05,8.22 0.09,12.36 0.18,20.7 l 0.02,1.91 -1.67,0.95 c -6.09,3.46 -9.14,5.21 -15.26,8.74 l -1.13,0.65 -22.92,-5.61 -17.64,-18.16 -0.09,-24.35 1.75,-0.91 c 6.37,-3.32 9.56,-4.97 15.92,-8.24"
             style="fill:#ffffff;fill-opacity:1;fill-rule:nonzero;stroke:none"
             id="path449" />
          <path
             d="m 4361.82,3428.41 -183.41,-223.94 -222.99,169.26 -123.06,20.73 C 2289.99,3250.34 1128.8,2743.05 472.613,2320.73 c 15.672,10.08 729.287,144.75 797.207,142.24 -29.07,-27.76 -533.504,-488.11 -570.941,-504.99 16.148,6.07 675.521,239.72 674.561,240.05 -49.96,-70.63 -422.409,-550.16 -439.397,-567.84 6.594,0.06 394.007,214.29 394.047,208.31 -19.7,-47.73 -222.72,-549.67 -266.72,-636.09 8.76,4.58 202.26,134.96 202.26,134.96 L 1250.96,307.121 c 0,0 368.8,243.199 1150.96,684.41 -3.82,-0.031 -63.49,-206.609 -63.46,-210.523 3.88,-7.84 601.27,497.772 1469.21,886.962 1.64,-1.68 -119.14,-192.25 -116.34,-190.92 -0.16,-1.12 744.48,542.61 1653.47,777.67 0,0 -57.51,-110.4 -60.91,-113.92 -0.22,-0.55 309.49,132.54 495.92,179.33 l 25.1,1050.48 c -507.84,57.9 -989.71,73.88 -1443.09,57.8"
             style="fill:#ffffff;fill-opacity:1;fill-rule:evenodd;stroke:none"
             id="path451" />
          <path
             d="m 1744.9,1335.91 c -11.21,435.4 -30.48,1360.73 -30.48,1360.73 -38.8,-12.14 -254.53,-97.83 -254.53,-97.83 0,0 23.6,-1033.55 37.95,-1523.72 3.66,-124.699 11.55,-375.61 11.55,-375.61 l 248.24,149.329 c 0,0 -8.42,319.361 -12.73,487.101"
             style="fill:#ed1c24;fill-opacity:1;fill-rule:nonzero;stroke:none"
             id="path453" />
          <path
             d="m 2462.4,1734.06 -217.3,-107.23 c 0,0 4.84,-142.44 6.12,-216.85 0.59,-34.02 -14.81,-58.08 -54.11,-80.53 -27.67,-15.82 -49.37,-20.06 -55.74,-17.58 -5.61,2.19 -8.15,10.81 -8.62,23.31 -8.35,225.34 -29.67,851.92 -29.67,851.92 -1.48,41.52 26.88,74.37 67.39,92.04 17.25,7.53 29.73,8.95 37.11,4.25 7.53,-4.8 11.73,-17.23 12.48,-36.93 2.98,-78.49 8.01,-212.47 8.01,-212.47 l 228.17,96.71 -5.31,275.97 c -2.62,96.89 -32.86,134.73 -63.51,155.11 -52.82,35.13 -141.74,17.52 -215.81,-6.89 -56.76,-18.72 -55.39,-19.18 -92.98,-34.07 -176.55,-69.9 -240.77,-227.11 -230.77,-474.54 8.07,-296.35 15.28,-556.64 23.73,-852.97 3.6,-73.92 1.42,-120.1 51.44,-150.77 49.44,-30.32 158.47,-12.66 325.23,90.31 166.77,102.98 223.88,191.94 218.13,379.86 -1.29,75.97 -3.99,221.35 -3.99,221.35"
             style="fill:#ed1c24;fill-opacity:1;fill-rule:nonzero;stroke:none"
             id="path455" />
          <path
             d="m 3640.06,2989.42 -194.92,-48.03 19.26,-1193.08 193.98,87.77 -18.32,1153.34"
             style="fill:#ed1c24;fill-opacity:1;fill-rule:nonzero;stroke:none"
             id="path457" />
          <path
             d="m 4214.85,3056.45 c -47.28,39.2 -127.44,46.06 -211.89,23.13 -185.58,-50.37 -261.46,-138.17 -257.68,-287.03 l 2.86,-208.04 c 2.4,-173.36 4.81,-341.23 7.02,-514.08 0.23,-59.34 11.69,-94.28 43.56,-115.9 18.66,-12.66 41.61,-17.7 66.55,-17.56 51.09,0.28 110.25,22.85 158.35,45.02 163.52,75.36 252.39,136.06 247.29,315.57 -0.59,103.63 -0.86,215.84 -0.83,343.02 v 10.8 l -10.22,-3.11 c -88.1,-26.82 -139.58,-42.98 -230.63,-75.11 l -5.34,-1.88 0.02,-5.72 c 0.27,-87.18 0.43,-131.23 0.79,-215.67 l 0.04,-11.77 29.51,12.28 c 8.04,3.25 24.54,9.37 32.98,12.72 0.34,-62.56 1.09,-99.53 -3.49,-160.06 -1.36,-18.06 -21.31,-37.6 -60.38,-54.88 -29.71,-13.14 -50.48,-14.16 -54.42,-11.58 -1.17,0.77 -4.73,3.1 -4.81,13.26 -1.74,213.9 -3.29,431.58 -4.73,665.48 -0.31,52.45 21.96,69.31 55.47,78.48 23.73,6.5 38.33,6.79 45.94,0.92 6.95,-5.35 10.34,-17.73 10.38,-37.81 l 0.34,-127.53 10.21,3.15 c 68.31,21.07 109.89,31.98 172.84,48.49 l 15.63,4.1 0.2,111.19 c 0.79,80.4 -14.63,126.17 -55.56,160.12"
             style="fill:#ed1c24;fill-opacity:1;fill-rule:nonzero;stroke:none"
             id="path459" />
          <path
             d="m 4697.55,2419.92 c 0,0 -100.01,-30.67 -157.48,-47.81 -0.37,83.54 -0.26,133.06 0.24,227.79 60.57,14.93 143.59,35.4 143.59,35.4 l 0.46,183.76 c 0,0 -85.69,-17.59 -142.65,-29.55 0.74,79.83 1.24,123.73 2.12,200.1 22.41,3.68 150.45,23.31 150.45,23.31 0,0 0.57,159.31 0.9,176.35 -166.96,-19.52 -340.98,-46.56 -340.98,-46.56 0,0 3.65,-998.55 3.65,-1019.16 97.95,39.23 339.89,122.83 339.89,122.83 l -0.19,173.54"
             style="fill:#ed1c24;fill-opacity:1;fill-rule:nonzero;stroke:none"
             id="path461" />
          <path
             d="m 5055.76,3016.22 -1.11,-151.46 c -0.44,-60.52 -13.42,-72.16 -57.86,-80.75 -18.16,-3.51 -28.52,-5.52 -47.54,-9.66 1.42,93.18 2.99,190.75 4.65,283.91 23.18,3.22 35.76,4.63 55.5,6.86 l 8.68,0.98 c 12.07,1.34 20.67,-0.48 26.32,-5.62 7.81,-7.14 11.54,-21.62 11.36,-44.26 z m -47.27,201.82 c -79.68,-4.13 -219.89,-19.74 -219.89,-19.74 l -14.15,-927.32 170.16,54.61 c 0,0 0.98,179.71 2.24,276.55 20.52,5.26 30.65,7.65 48.24,11.76 25.68,6.01 41.99,5.83 49.87,-0.52 5.49,-4.44 8.14,-13.12 8.09,-26.55 -0.33,-91.55 -0.06,-228.81 -0.06,-228.81 l 165.89,45.88 c 0,0 1.52,121.21 2.7,204.37 -0.56,82.69 -17.08,109.76 -84.3,120.52 63.33,31.17 86.42,82.71 89.03,189.88 l 1.88,119.35 c 4.75,62.04 -8.29,108.86 -38.75,139.15 -35.91,35.7 -93.3,45.42 -180.95,40.87"
             style="fill:#ed1c24;fill-opacity:1;fill-rule:nonzero;stroke:none"
             id="path463" />
          <path
             d="m 3637.2,3219.07 c -371.59,-65.96 -615.11,-118.66 -896.18,-192.81 l 3.46,-180.54 c 0,0 303.56,85 339.85,92.22 2.57,-176.37 26.52,-1354.06 26.52,-1354.06 l 224.77,109.6 c 0,0 -19.07,1121.17 -21.07,1297.8 99.84,23.95 322.75,78.54 322.75,78.54 l -0.1,149.25"
             style="fill:#ed1c24;fill-opacity:1;fill-rule:nonzero;stroke:none"
             id="path465" />
          <path
             d="m 5495.18,2926.19 c -46.81,12 -53.06,31.09 -52.52,75.21 l 0.63,50.09 c 0.55,42.48 10.37,58.48 40.31,60.22 40.66,2.36 41.72,-39.64 41.41,-68.64 -0.31,-28.99 -0.11,-31.27 -0.52,-41.62 71.04,7.11 139.21,8.97 139.21,8.97 0,0 0.28,64.7 -0.96,93.68 -1.32,31.05 -11.55,64.52 -30.59,85.34 -40.02,43.76 -99.04,44.08 -162.02,44.07 -55.19,-0.05 -102.23,-16.7 -130.76,-46.41 -33.07,-34.46 -41.04,-82.21 -41.25,-161.24 l -0.25,-49.03 c -3.35,-101.78 14.43,-176.08 151.58,-201.27 49.26,-7.42 61.66,-12.79 61.05,-54.21 -0.49,-33.37 -2.59,-47.35 -4.13,-80.07 -1.35,-28.74 -9.37,-51.5 -38.1,-53.83 -35.79,-2.91 -37.39,19.08 -39.18,61.92 l -0.17,45.35 c -86.82,-11.73 -139.57,-22.52 -139.57,-22.52 0.25,-14.52 -0.44,-31.46 1.44,-74.84 2.27,-52.44 12.29,-103.03 46.2,-126.4 22.38,-15.43 44.32,-21.49 78.1,-20.64 16.15,0.41 33.67,4.67 53.03,9.32 155.25,37.25 187,97.49 190.64,244.19 3.29,132.86 13.23,177.04 -163.58,222.36"
             style="fill:#ed1c24;fill-opacity:1;fill-rule:nonzero;stroke:none"
             id="path467" />
          <path
             d="m 2996.81,1721.96 c 0,0 -121.45,-56.73 -194.69,-91.19 -2.51,103.87 -5.23,205.85 -8.06,309.71 l 174.38,73.92 -5.44,255.27 -176.45,-67.8 -8.6,288.57 190.47,63.58 c 0,0 -4.09,197.35 -5.73,252.81 -65.01,-15.73 -419.58,-128.03 -419.58,-128.03 l 37.32,-1360.23 419.7,213.92 -3.32,189.47"
             style="fill:#ed1c24;fill-opacity:1;fill-rule:nonzero;stroke:none"
             id="path469" />
        </g>
      </g>
    </g>
  </g>
</svg>
