<?xml version="1.0" encoding="UTF-8"?>
<svg id="Ebene_1" data-name="Ebene 1" xmlns="http://www.w3.org/2000/svg" viewBox="0 0 455.27 260.5">
  <defs>
    <style>
      .cls-1 {
        fill: #1e274a;
      }

      .cls-1, .cls-2, .cls-3 {
        stroke-width: 0px;
      }

      .cls-2 {
        fill: #164281;
      }

      .cls-3 {
        fill: #fff;
      }
    </style>
  </defs>
  <g>
    <path class="cls-1" d="m146.35,70.38c-2.52,1.54-5.34,2.76-6.47,3.07l-1.84-3.01c1.69-.8,3.58-1.73,6-3.2,2.34-1.43,3.03-2.82,1.87-4.7-.82-1.35-1.78-1.81-4.24-1.51l-3.7.48c-3.63.48-6.25-.36-8.1-3.4-2.48-4.06-1.03-6.95,3.54-9.74,2.44-1.49,4.99-2.47,6.05-2.77l1.82,2.99c-1.57.76-3.68,1.74-5.7,2.98-2.26,1.38-3.22,2.55-2.19,4.24.77,1.27,1.71,1.58,4.15,1.25l3.33-.45c4.29-.57,6.55.1,8.72,3.64,2.32,3.8,1.11,7.48-3.23,10.13Z"/>
    <path class="cls-1" d="m164.22,60.34c-5.15,2.71-9.65,2.39-13.74-5.38l-1.52-2.89c-4.09-7.77-1.79-11.63,3.36-14.34,1.75-.92,4.31-1.82,5.35-2.07l1.71,3.24c-1.38.58-3.37,1.44-4.93,2.26-3.37,1.77-4.33,3.92-1.71,8.92l1.52,2.89c2.63,4.99,4.96,5.44,8.33,3.67,1.56-.82,3.4-1.98,4.66-2.79l1.72,3.27c-.79.72-2.99,2.29-4.75,3.21Z"/>
    <path class="cls-1" d="m184.66,50.08l-4.4-9.85-9.04,4.04,4.4,9.85-3.89,1.74-10.01-22.38,3.89-1.74,3.99,8.92,9.04-4.04-3.99-8.92,3.89-1.74,10.01,22.39-3.89,1.74Z"/>
    <path class="cls-1" d="m212.55,39.51l-5.37,1.91-7.04-11.26c-.59-.95-1.12-1.98-1.7-2.86l-.06.02c.11,1.05.36,2.18.49,3.29l1.67,13.17-5.42,1.93-11.9-21.78,4.07-1.45,7.09,13.23c.76,1.41,1.5,2.93,2.19,4.26l.12-.04c-.19-1.54-.45-3.09-.63-4.61l-1.37-10.96,4.85-1.72,5.88,9.46c.77,1.27,1.6,2.58,2.35,3.89l.12-.04c-.35-1.52-.68-3.01-.99-4.69l-2.81-14.76,3.99-1.42,4.47,24.43Z"/>
    <path class="cls-1" d="m219.39,37.45l-6.51-23.63,13.88-3.83,1.02,3.69-9.77,2.69,1.66,6.01,9.15-2.52.98,3.56-9.15,2.52,1.85,6.71,9.77-2.69,1.01,3.66-13.88,3.82Z"/>
    <path class="cls-1" d="m249.23,30.15l-10.05-12.77c-.76-.99-1.66-2.15-2.41-3.24h-.06c.34,1.36.71,2.83,1.01,4.28l2.81,13.54-3.81.79-4.98-24,4.83-1,9.96,12.49c.77.99,1.74,2.23,2.45,3.3h.06c-.38-1.41-.76-3.09-1.07-4.54l-2.71-13.05,3.84-.8,4.98,24-4.86,1.01Z"/>
    <path class="cls-1" d="m271,26.73l-9.11-13.47c-.69-1.04-1.5-2.26-2.17-3.41h-.06c.24,1.38.5,2.87.7,4.34l1.83,13.71-3.86.51-3.24-24.3,4.89-.65,9.04,13.18c.69,1.04,1.57,2.35,2.21,3.47h.06c-.28-1.43-.54-3.13-.74-4.6l-1.76-13.21,3.89-.52,3.24,24.3-4.92.65Z"/>
    <path class="cls-1" d="m280.31,25.77l-1.96-24.43,4.25-.34,1.96,24.43-4.25.34Z"/>
    <path class="cls-1" d="m301.72,24.66l-7.65-14.35c-.58-1.11-1.26-2.41-1.81-3.61h-.06c.1,1.38.2,2.9.25,4.39l.38,13.82-3.9.11-.68-24.51,4.93-.14,7.61,14.05c.58,1.11,1.32,2.5,1.84,3.68h.06c-.13-1.45-.21-3.16-.25-4.65l-.37-13.33,3.92-.11.68,24.51-4.96.14Z"/>
    <path class="cls-1" d="m319.75,25.52c-5.17-.23-9.36-2.6-8.96-11.47l.16-3.46c.43-9.36,5.37-10.78,10.05-10.57,3.31.15,6.54.89,7.23,1.16l-.16,3.53c-1.45-.2-4.97-.56-6.52-.63-3.68-.17-6.09.61-6.37,6.71l-.16,3.46c-.25,5.6,1.57,7.1,5.22,7.27,1.12.05,2.25.07,3.04.04l.43-9.46,4.05.18-.58,12.82c-1.26.24-4.17.57-7.42.42Z"/>
    <path class="cls-1" d="m331.12,25.69l2.73-24.36,14.31,1.6-.43,3.8-10.08-1.12-.69,6.2,9.44,1.05-.41,3.67-9.44-1.06-.78,6.92,10.08,1.13-.42,3.77-14.32-1.6Z"/>
    <path class="cls-1" d="m361.96,30.12l-3.32-9.81c-.61-.08-1.26-.19-1.95-.32l-2.07-.37-1.59,8.9-4.08-.73,4.32-24.13c2,.26,4.01.55,6.26.96,5.37.96,9.59,2.93,8.45,9.3l-.04.23c-.66,3.67-2.47,5.32-5.03,6l3.48,10.78-4.44-.79Zm1.91-16.89c.67-3.73-1.72-4.2-7.18-5.18l-1.42,7.93c.77.17,1.52.31,2.3.45,3.84.69,5.7.12,6.26-3l.04-.2Z"/>
  </g>
  <path class="cls-1" d="m448.76,161.06c-4.98-1.55-10.12-2.34-15.28-2.34-6.8,0-12.56,1.41-17.29,4.2l-4.09-1.47c-2.04-.73-4.73-1.7-9.3-2.27,7.42-5.01,13.02-13.48,17.3-25.87l1.54-4.46c2.82-8.14,5.9-19.89.19-27.9-3.48-4.88-10.51-7.35-18.89-7.57v-.04h-47.72c8.5-29.22,10.94-55.71,10.94-55.71-18.75-3.92-40.38-6.42-59.57-6.42-93.45,0-161.24,46.48-161.91,46.95l-2.2,1.57,6.73,16.99L0,88.88l4.14,7.42c1.04,1.85,25.45,44.92,60.97,51.11,2.52,13.93,17.74,30.93,37.66,35.12.09.02,1.66.31,3.1.52,3.3,15.4,24.06,26.45,51.55,27.3,6.32,16.57,24.24,19.76,41.04,20.66h.13c8.13,13.64,12.41,19.84,21.37,28.49l1.04,1,1.41-.32c21.44-4.92,41.08-15.22,58.63-30.64h44.67l1.57-4.43.99-2.79.11,1.19.57,6.03h24.01l1.56-4.45.94-2.67c.25.44.52.87.82,1.28,5.11,7.2,14.31,7.2,17.33,7.2,7.42,0,14.73-1.06,19.1-2.06l1.4-.32.98.29c4.29,1.27,11.18,2.09,17.53,2.09,14.13,0,24.59-7.89,29.43-22.21,3.84-11.36,1.6-19.07-7.27-24.9,2.13.14,4.1.37,6.47.65l1.21.14,5.35.63,1.73-5.1,3.59-10.58,2.19-6.46-6.51-2.03Z"/>
  <path class="cls-3" d="m412.61,131.54l1.55-4.46c6.62-19.13,2.49-26.51-12.39-26.51-6.12,0-10.2-.28-16.22.4l-19.78,56.17c5.59.68,9.82.98,15.82.98,15.19,0,24.3-7.15,31.02-26.58Zm-18.04-19.08h3.44c6.14,0,7.08,2.57,3.02,14.21l-1.55,4.46c-4.06,11.64-6.9,14.52-13.07,14.52h-3.46l11.62-33.19Z"/>
  <path class="cls-3" d="m355.71,166.72l-8.17,23.13c-1.17,3.33-2.26,6.58-2.78,8.54h-.12c.02-2.34-.07-5.06-.4-7.26l-2.64-24.42h-12.78l-20.06,56.17h12.3l8.41-23.66c.94-2.65,1.93-5.44,2.73-8.01h.18c.03,2.19.13,4.69.38,6.95l2.31,24.72h13.24l19.73-56.17h-12.32Z"/>
  <path class="cls-3" d="m389.28,192.13l-6.66,19.2c-1.22.15-2.73.15-4.13.15-5.01,0-5.96-2.95-2.11-13.99l1.87-5.37c4.29-12.32,7.95-13.83,14.49-13.83,3.88,0,10.24.38,13.4.61l3.86-11.19c-2.52-.91-9.02-2.34-15.49-2.34-9.77,0-21.32,3.1-29.61,26.76l-1.88,5.37c-7.87,22.45.07,26.76,10.69,26.76,6.82,0,13.64-.98,17.62-1.89l10.43-30.24h-12.48Z"/>
  <path class="cls-3" d="m410.01,181.62c-3.41,9.9-.59,13.68,4.61,17.16l4.61,3.17c3.08,2.04,3.74,3.03,2.86,5.6-1.13,3.33-3.25,4.91-7.27,4.91-6.46,0-10.18-.53-13.95-.91l-3.74,10.89c3.07.91,9.12,1.81,15.65,1.81,10.38,0,18.91-5.22,23.14-17.69,3.08-9.07,1.28-13.53-5.13-17.54l-4.53-2.87c-2.95-1.89-3.6-2.87-2.82-5.14,1.06-3.1,3.28-4.01,7.05-4.01,5.1,0,8.42.45,12.93.98l3.59-10.58c-2.67-.83-7.34-2.04-13.3-2.04-11.62,0-19.63,4.46-23.69,16.25Z"/>
  <polygon class="cls-3" points="365.76 100.97 353.15 100.97 352.3 100.97 332.24 157.14 332.59 157.14 361.23 157.14 365.6 144.74 350.21 144.74 365.76 100.97"/>
  <polygon class="cls-3" points="331.65 100.97 345.1 100.97 324.98 157.14 311.42 157.14 331.65 100.97"/>
  <path class="cls-3" d="m233.49,222.9h-29.6l-7.32-108.76-35.41-11.3,76.15-26.49-12.97,100.73,28.64-106.2,31.54-10.82-2.98,95.82,21.61-102.42,42.06-14.57s.1.01.15.02l-66.18,183.99h-24.46l7.87-100.08-29.09,100.08Z"/>
  <polygon class="cls-3" points="307.96 166.72 287.77 222.8 287.73 222.9 301.43 222.9 312.2 192.84 321.55 166.72 307.96 166.72"/>
  <path class="cls-1" d="m399.48,131.13l1.55-4.46c4.06-11.64,3.12-14.21-3.02-14.21h-3.44l-11.62,33.19h3.46c6.17,0,9.01-2.87,13.07-14.52Z"/>
  <g>
    <path class="cls-2" d="m139.88,200.15c-.32-.07-.65-.14-.97-.22.32.07.64.15.97.22Z"/>
    <path class="cls-2" d="m142.03,200.6c-.34-.07-.69-.13-1.03-.2.34.07.69.14,1.03.2Z"/>
    <path class="cls-2" d="m148.83,201.62c-.41-.05-.83-.09-1.23-.14.41.05.82.09,1.23.14Z"/>
    <path class="cls-2" d="m146.51,201.33c-.39-.05-.78-.11-1.17-.17.39.06.78.11,1.17.17Z"/>
    <path class="cls-2" d="m137.79,199.66c-.3-.08-.61-.15-.91-.23.3.08.6.16.91.23Z"/>
    <path class="cls-2" d="m144.24,200.99c-.37-.06-.73-.12-1.1-.18.36.06.73.12,1.1.18Z"/>
    <path class="cls-2" d="m130.04,197.23c-.21-.08-.41-.16-.62-.24.21.08.41.16.62.24Z"/>
    <path class="cls-2" d="m124.96,194.95c-.12-.06-.23-.12-.35-.18.12.06.23.12.35.18Z"/>
    <path class="cls-2" d="m126.58,195.75c-.15-.07-.3-.14-.45-.22.15.07.3.15.45.22Z"/>
    <path class="cls-2" d="m131.88,197.9c-.23-.08-.47-.17-.7-.25.23.08.46.17.7.25Z"/>
    <path class="cls-2" d="m135.76,199.12c-.28-.08-.57-.16-.84-.24.28.08.56.16.84.24Z"/>
    <path class="cls-2" d="m133.79,198.54c-.26-.08-.52-.16-.77-.25.26.08.52.17.77.25Z"/>
    <path class="cls-2" d="m128.28,196.51c-.18-.08-.36-.16-.54-.24.18.08.36.16.54.24Z"/>
    <path class="cls-2" d="m188.34,222.53c-.59-.09-1.18-.17-1.75-.27.57.1,1.16.18,1.75.27Z"/>
    <path class="cls-2" d="m182.07,221.34c-.41-.1-.81-.2-1.21-.31.39.11.8.21,1.21.31Z"/>
    <path class="cls-2" d="m185.07,221.99c-.49-.09-.98-.19-1.45-.29.47.1.96.2,1.45.29Z"/>
    <path class="cls-2" d="m192,222.98c-.74-.08-1.49-.15-2.2-.24.71.09,1.46.17,2.2.24Z"/>
    <path class="cls-2" d="m196.92,223.39c-1.27-.08-2.49-.17-3.68-.28,1.19.11,2.41.2,3.68.28Z"/>
    <path class="cls-2" d="m174.47,218.75c-.15-.07-.29-.14-.43-.21.14.07.28.15.43.21Z"/>
    <path class="cls-2" d="m179.31,220.58c-.33-.1-.65-.21-.98-.32.32.11.65.21.98.32Z"/>
    <path class="cls-2" d="m159.5,202.2c-.83,0-1.65-.01-2.46-.03.82.02,1.64.03,2.46.03Z"/>
    <path class="cls-2" d="m153.64,202.02c-.47-.03-.95-.05-1.41-.09.47.03.94.06,1.41.09Z"/>
    <path class="cls-2" d="m156.24,202.14c-.54-.02-1.09-.03-1.62-.06.54.03,1.08.04,1.62.06Z"/>
    <path class="cls-2" d="m151.2,201.85c-.44-.04-.88-.07-1.31-.12.43.04.87.08,1.31.12Z"/>
    <path class="cls-2" d="m176.78,219.72c-.25-.09-.49-.19-.73-.29.24.1.48.2.73.29Z"/>
    <path class="cls-2" d="m16.08,102.31c-.14-.19-.26-.37-.4-.55.13.18.26.36.4.55Z"/>
    <path class="cls-2" d="m15.09,100.92c-.14-.2-.28-.4-.42-.6.14.2.28.39.42.6Z"/>
    <path class="cls-2" d="m14.16,99.6c-.17-.24-.32-.47-.48-.7.16.23.31.46.48.7Z"/>
    <path class="cls-2" d="m17.14,103.75c-.12-.17-.24-.33-.36-.49.12.16.24.33.36.49Z"/>
    <path class="cls-2" d="m19.46,106.78c-.1-.13-.19-.25-.29-.37.1.12.19.25.29.37Z"/>
    <path class="cls-2" d="m18.27,105.25c-.11-.15-.22-.29-.33-.43.11.14.22.29.33.43Z"/>
    <path class="cls-2" d="m123.42,194.12c-.08-.05-.16-.09-.24-.14.08.05.16.09.24.14Z"/>
    <path class="cls-2" d="m20.7,108.35c-.08-.1-.16-.2-.24-.3.08.1.16.2.24.3Z"/>
    <path class="cls-2" d="m13.31,98.35c-.19-.28-.37-.55-.54-.81.18.27.35.53.54.81Z"/>
    <path class="cls-2" d="m12.53,97.18c-.25-.38-.49-.74-.71-1.08.22.34.46.7.71,1.08Z"/>
    <path class="cls-2" d="m74.94,154.77s0-.01-.01-.02c0,0,0,.01.01.02Z"/>
    <path class="cls-2" d="m83.92,165.01s-.01-.01-.02-.02c0,0,.01.01.02.02Z"/>
    <path class="cls-2" d="m100.97,174.05c-.38-.1-.76-.21-1.14-.32.38.12.75.22,1.14.32Z"/>
    <path class="cls-2" d="m121.97,193.25s-.07-.05-.11-.07c.04.02.07.05.11.07Z"/>
    <polygon class="cls-2" points="111.52 179.54 111.52 179.54 111.52 179.54 111.52 179.54"/>
    <path class="cls-2" d="m22.01,109.95c-.07-.08-.13-.16-.2-.24.07.08.13.16.2.24Z"/>
    <path class="cls-2" d="m96.59,172.62s-.02,0-.04-.01c.01,0,.02,0,.04.01Z"/>
    <path class="cls-2" d="m23.37,111.56c-.05-.06-.1-.11-.14-.17.05.06.09.11.14.17Z"/>
    <path class="cls-2" d="m64.32,139.16h0s-.02,0-.02,0c0,0,.01,0,.02,0Z"/>
    <path class="cls-2" d="m24.78,113.17s-.05-.06-.08-.09c.03.03.05.06.08.09Z"/>
    <polygon class="cls-2" points="70.86 144.32 70.86 144.32 70.86 144.32 70.86 144.32"/>
    <path class="cls-2" d="m145.37,104.23l-8.96-.74-124.59-7.39c.22.34.46.7.71,1.08.08.11.16.24.24.36.18.27.36.53.54.81.12.18.25.37.37.55.16.23.31.46.48.7.16.23.33.48.5.72.14.2.28.4.42.6.19.27.4.56.6.84.13.18.26.36.4.55.23.31.46.63.7.95.12.16.24.33.36.49.26.35.53.7.8,1.06.11.14.22.29.33.43.29.38.59.77.9,1.16.1.12.19.25.29.37.33.42.66.84,1,1.26.08.1.16.2.24.3.36.45.73.9,1.11,1.36.07.08.13.16.2.24.4.48.8.96,1.22,1.44.05.06.1.11.14.17.44.51.88,1.02,1.33,1.53.03.03.05.06.08.09,9.31,10.51,22.22,21.73,37.16,25.46h0c.78.2,1.57.37,2.36.52,0,0,.02,0,.02,0l90.53,2.49.08,2.66h-84.08,0c.41,3.25,1.84,6.86,4.08,10.44,0,0,0,.01.01.02,2.24,3.57,5.29,7.11,8.96,10.22,0,0,.01.01.02.02,3.67,3.1,7.94,5.76,12.63,7.6.01,0,.02,0,.04.01.93.36,1.88.69,2.85.99.14.04.26.08.4.12.38.11.76.22,1.14.32.5.12,1.02.23,1.63.31,1.26.15,2.81.13,2.81.13l62.68.37.16,2.33-56.73,2.35s0,0,0,0c.66,5.19,4.41,9.88,10.34,13.63.04.02.07.05.11.07.4.25.81.49,1.22.73.08.05.16.09.24.14.39.22.79.44,1.19.65.12.06.23.12.35.18.38.2.77.39,1.17.58.15.07.3.15.45.22.38.18.77.35,1.16.52.18.08.36.16.54.24.38.16.76.32,1.15.47.21.08.41.16.62.24.38.15.76.29,1.14.43.23.08.46.17.7.25.37.13.75.26,1.13.38.26.08.52.17.77.25.37.12.75.23,1.13.34.28.08.56.16.84.24.37.1.74.21,1.12.31.3.08.6.16.91.23.37.09.74.19,1.12.27.32.07.64.15.97.22.37.08.74.16,1.12.24.34.07.69.14,1.03.2.37.07.74.14,1.12.21.36.06.73.12,1.1.18.37.06.73.12,1.1.18.39.06.78.11,1.17.17.36.05.72.1,1.08.15.41.05.82.09,1.23.14.35.04.71.08,1.06.12.43.04.87.08,1.31.12.34.03.69.06,1.03.09.47.03.94.06,1.41.09.32.02.65.04.97.06.54.03,1.08.04,1.62.06.27,0,.53.02.8.03.82.02,1.64.03,2.46.03l2.08.07,16.26.55.04,2.12-14.72,2.45c2.01,4.88,5.54,8.54,10.87,11.14.14.07.28.15.43.21.51.24,1.04.46,1.58.68.24.1.48.2.73.29.5.19,1.02.37,1.55.55.32.11.65.21.98.32.5.15,1.02.3,1.55.45.4.11.8.21,1.21.31.51.12,1.02.24,1.54.36.47.1.96.2,1.45.29.5.1,1,.19,1.53.28.57.1,1.16.18,1.75.27.48.07.96.14,1.46.21.71.09,1.46.17,2.2.24.41.04.81.09,1.24.13,1.19.11,2.41.2,3.68.28v-1.49c-1.52-33.8-7.41-104.02-7.41-104.02,0,0-27.53-9.89-44.13-13.65Z"/>
  </g>
</svg>