<?xml version="1.0" encoding="UTF-8" standalone="no"?>
<!-- Created with Inkscape (http://www.inkscape.org/) -->

<svg
   version="1.1"
   id="svg521"
   width="291.02399"
   height="334.57642"
   viewBox="0 0 291.02398 334.57641"
   sodipodi:docname="logo_.svg"
   inkscape:version="1.2.1 (9c6d41e410, 2022-07-14)"
   xmlns:inkscape="http://www.inkscape.org/namespaces/inkscape"
   xmlns:sodipodi="http://sodipodi.sourceforge.net/DTD/sodipodi-0.dtd"
   xmlns="http://www.w3.org/2000/svg"
   xmlns:svg="http://www.w3.org/2000/svg">
  <defs
     id="defs525">
    <clipPath
       clipPathUnits="userSpaceOnUse"
       id="clipPath537">
      <path
         d="M 0,340.157 H 340.157 V 0 H 0 Z"
         id="path535" />
    </clipPath>
    <clipPath
       clipPathUnits="userSpaceOnUse"
       id="clipPath549">
      <path
         d="M 0,340.157 H 340.157 V 0 H 0 Z"
         id="path547" />
    </clipPath>
    <clipPath
       clipPathUnits="userSpaceOnUse"
       id="clipPath569">
      <path
         d="M 0,340.157 H 340.157 V 0 H 0 Z"
         id="path567" />
    </clipPath>
    <clipPath
       clipPathUnits="userSpaceOnUse"
       id="clipPath581">
      <path
         d="M 0,340.157 H 340.157 V 0 H 0 Z"
         id="path579" />
    </clipPath>
    <clipPath
       clipPathUnits="userSpaceOnUse"
       id="clipPath593">
      <path
         d="M 0,340.157 H 340.157 V 0 H 0 Z"
         id="path591" />
    </clipPath>
  </defs>
  <sodipodi:namedview
     id="namedview523"
     pagecolor="#ffffff"
     bordercolor="#000000"
     borderopacity="0.25"
     inkscape:showpageshadow="2"
     inkscape:pageopacity="0.0"
     inkscape:pagecheckerboard="0"
     inkscape:deskcolor="#d1d1d1"
     showgrid="false"
     inkscape:zoom="1.8454714"
     inkscape:cx="145.22035"
     inkscape:cy="166.89503"
     inkscape:window-width="1920"
     inkscape:window-height="1017"
     inkscape:window-x="-8"
     inkscape:window-y="-8"
     inkscape:window-maximized="1"
     inkscape:current-layer="g529">
    <inkscape:page
       x="0"
       y="0"
       id="page527"
       width="291.02399"
       height="334.57642" />
  </sodipodi:namedview>
  <g
     id="g529"
     inkscape:groupmode="layer"
     inkscape:label="Page 1"
     transform="matrix(1.3333333,0,0,-1.3333333,-81.259865,394.05948)">
    <g
       id="g531">
      <g
         id="g533"
         clip-path="url(#clipPath537)">
        <g
           id="g539"
           transform="translate(268.9717,198.1575)">
          <path
             d="m 0,0 v -0.015 c -0.011,0.15 -0.022,0.299 -0.036,0.447 l -0.007,0.014 c -2.002,23.386 -11.568,43.645 -28.7,60.777 -18.525,18.529 -40.824,28.208 -66.899,29.038 -19.201,5.485 -38.932,3.163 -59.192,-6.964 l -0.158,-0.072 -0.166,-0.036 c -12.107,-2.205 -21.383,-7.398 -27.828,-15.578 -0.311,-3.538 0.088,-7.312 1.195,-11.321 l 0.138,-0.526 -0.31,-0.468 c -9.51,-13.774 -15.692,-30.108 -18.545,-49.002 l 3.623,1.815 -0.339,-2.261 c -0.312,-2.067 -0.535,-3.868 -0.67,-5.402 V 0.439 0.432 c -0.013,-0.136 -0.024,-0.273 -0.036,-0.411 V 0 c -0.24,-2.957 -0.36,-5.96 -0.36,-9.01 -0.001,-9.085 1.06,-17.729 3.184,-25.933 l 0.374,-1.492 h -9.226 v -21.677 l 5.157,-0.015 0.014,-75.202 -5.135,-1.801 0.007,-12.725 c 30.413,11.552 65.347,17.326 104.802,17.32 39.463,-0.005 74.595,-5.785 105.4,-17.342 l -0.029,12.711 -5.286,1.88 0.101,75.116 5.214,-0.015 -0.043,21.75 h -9.449 l 0.375,1.492 c 2.128,8.204 3.191,16.848 3.189,25.933 C 0.359,-5.959 0.24,-2.956 0,0"
             style="fill:#0a2345;fill-opacity:1;fill-rule:evenodd;stroke:none"
             id="path541" />
        </g>
      </g>
    </g>
    <g
       id="g543">
      <g
         id="g545"
         clip-path="url(#clipPath549)">
        <g
           id="g551"
           transform="translate(225.1641,219.3875)">
          <path
             d="M 0,0 -0.004,-0.02 0,-0.04 c 1.082,-5.826 1.409,-11.629 0.972,-17.25 l -0.029,-0.358 0.221,0.283 c 0.914,1.174 1.886,2.489 2.892,3.91 L 7.988,-18.624 7.77,0.78 7.769,0.838 7.72,0.869 C 7.668,0.903 7.51,1.023 7.057,1.398 V 8.153 H 6.87 c 0.159,0.392 0.389,0.933 0.687,1.624 0.221,0.875 0.726,2.608 1.503,5.155 0.317,-1.526 0.751,-3.259 1.293,-5.161 0.108,-0.342 0.223,-0.669 0.34,-0.972 L 10.902,8.26 v 3.386 h -0.126 c 0.107,0.293 0.235,0.68 0.384,1.161 0.647,3.347 1.237,6.435 1.803,9.419 0.648,-3.385 1.234,-6.471 1.786,-9.418 l 0.003,-0.012 c 0.146,-0.482 0.274,-0.86 0.389,-1.15 H 15.004 L 15,11.543 c -0.01,-0.2 -0.01,-1.085 -10e-4,-2.706 l 0.003,-0.51 0.204,0.467 c 0.131,0.299 0.258,0.626 0.381,0.982 0.475,1.85 0.906,3.589 1.283,5.175 0.771,-2.604 1.272,-4.345 1.493,-5.188 0.274,-0.676 0.508,-1.216 0.698,-1.61 H 18.824 V 1.404 l -0.763,-0.533 0.058,-18.392 5.474,7.542 0.018,0.026 0.08,2.288 0.663,2.192 0.758,-2.223 0.058,-2.176 4.551,-6.557 2.506,3.64 2.397,0.038 -0.022,0.125 C 31.355,5.064 22.885,20.86 9.423,34.322 0.53,43.215 -9.424,49.974 -20.162,54.41 l -0.528,0.219 0.412,-0.397 c 4.536,-4.354 8.581,-9.831 12.037,-16.299 C 0.291,28.589 3.064,15.827 0,0"
             style="fill:#b5cfee;fill-opacity:1;fill-rule:nonzero;stroke:none"
             id="path553" />
        </g>
        <g
           id="g555"
           transform="translate(251.4092,191.8201)">
          <path
             d="m 0,0 c 3.023,0.301 6.485,0.458 10.288,0.468 h 0.117 l -0.009,0.116 c -0.029,0.36 -0.07,0.945 -0.123,1.756 L 10.268,2.433 10.176,2.44 C 7.315,2.69 3.243,2.735 -1.93,2.578 -8.324,2.348 -13.267,1.873 -16.625,1.163 c -4.362,-1.18 -6.583,-2.52 -6.789,-4.101 -0.17,-1.304 1.034,-2.68 3.688,-4.211 0.1,-0.047 0.196,-0.094 0.285,-0.142 h 10e-4 c 1.587,-0.825 2.935,-1.615 4.005,-2.347 0.862,-0.611 1.242,-1.208 1.129,-1.774 -0.264,-1.332 -3.139,-2.633 -8.543,-3.866 -0.159,-0.034 -0.32,-0.07 -0.482,-0.108 -2.885,-0.61 -6.346,-1.087 -10.285,-1.417 l -0.058,-0.005 -0.028,-0.05 c -2.46,-4.419 -5.495,-8.828 -9.02,-13.106 l -0.145,-0.177 h 32.603 l 0.021,0.01 c 10.634,4.798 16.691,9.382 18.006,13.628 1.097,3.582 -0.73,6.745 -5.431,9.402 -1.017,0.571 -2.184,1.127 -3.471,1.656 -4.623,1.754 -5.499,2.838 -5.42,3.439 C -6.477,-1.382 -5.271,-0.529 0,0"
             style="fill:#b5cfee;fill-opacity:1;fill-rule:nonzero;stroke:none"
             id="path557" />
        </g>
        <g
           id="g559"
           transform="translate(169.8589,67.6223)">
          <path
             d="m 0,0 c -39.455,0.006 -74.389,-5.768 -104.802,-17.32 l -0.007,12.725 5.135,1.801 -0.014,75.202 -5.157,0.015 v 21.678 h 9.225 l -0.374,1.491 c -2.123,8.204 -3.184,16.848 -3.183,25.933 0,3.05 0.12,6.053 0.36,9.01 v 0.022 c 0.011,0.137 0.023,0.274 0.036,0.41 v 0.007 0.007 c 0.135,1.535 0.358,3.335 0.67,5.402 l 0.338,2.262 -3.623,-1.816 c 2.854,18.895 9.036,35.229 18.545,49.003 l 0.31,0.467 -0.137,0.526 c -1.108,4.009 -1.506,7.783 -1.195,11.321 6.445,8.181 15.721,13.373 27.828,15.578 l 0.166,0.036 0.158,0.072 c 20.26,10.127 39.991,12.449 59.192,6.964 26.074,-0.83 48.374,-10.509 66.899,-29.038 17.131,-17.132 26.698,-37.391 28.7,-60.777 l 0.007,-0.014 c 0.013,-0.148 0.025,-0.296 0.036,-0.446 v 0.014 c 0.24,-2.956 0.359,-5.959 0.359,-9.01 0.002,-9.085 -1.061,-17.729 -3.189,-25.933 l -0.375,-1.491 h 9.449 l 0.043,-21.75 -5.214,0.014 -0.102,-75.116 5.287,-1.88 0.029,-12.711 C 74.595,-5.785 39.462,-0.005 0,0 m 104.254,0.13 v 68.288 h 5.079 v 29.55 h -8.536 c 1.71,7.593 2.565,15.539 2.565,23.839 0,28.557 -10.097,52.933 -30.291,73.128 -19.522,19.521 -42.957,29.606 -70.305,30.255 -19.062,5.361 -39.029,2.833 -59.898,-7.584 -13.528,-2.455 -23.738,-8.423 -30.63,-17.904 -0.498,-4.765 -0.207,-8.993 0.871,-12.682 -10.912,-16.072 -17.492,-35.181 -19.74,-57.328 l 3.579,1.815 c -0.264,-3.179 -0.396,-6.412 -0.396,-9.7 0,-8.258 0.845,-16.166 2.535,-23.724 0.009,-0.038 0.016,-0.077 0.022,-0.115 h -8.023 v -29.55 h 5.192 l -0.36,-68.489 -4.71,-1.686 h -0.079 V -23.01 c 32.317,12.637 68.694,18.955 109.13,18.955 40.42,0 76.785,-6.313 109.095,-18.94 v 21.267 z"
             style="fill:#b5cfee;fill-opacity:1;fill-rule:evenodd;stroke:none"
             id="path561" />
        </g>
      </g>
    </g>
    <g
       id="g563">
      <g
         id="g565"
         clip-path="url(#clipPath569)">
        <g
           id="g571"
           transform="translate(118.4595,140.0159)">
          <path
             d="M 0,0 -11.336,-0.144 -11.466,-65.148 0,-63.203 Z m -43.917,-9.167 h 8.591 l 0.231,-61.714 11.235,3.032 -0.115,55.232 -3.724,3.478 13.244,-0.115 v 9.283 h -6.279 C -20.753,0.029 -20.763,0.02 -20.763,0 V 0.029 H -43.917 Z M 8.577,15.247 h 3.709 V 6.115 h 1.664 v 9.132 h 3.73 v 1.569 H 8.577 Z m -11.048,1.569 c -0.228,0 -0.442,-0.043 -0.64,-0.129 -0.195,-0.083 -0.366,-0.197 -0.512,-0.338 v 0.006 c -0.165,-0.139 -0.29,-0.305 -0.375,-0.496 -0.077,-0.19 -0.115,-0.386 -0.115,-0.59 v -3.04 c 0,-0.223 0.038,-0.429 0.115,-0.62 0.085,-0.171 0.21,-0.334 0.375,-0.489 0.146,-0.138 0.316,-0.241 0.512,-0.309 v 0.006 c 0.198,-0.089 0.412,-0.135 0.64,-0.136 H 3.003 V 7.692 H -2.622 V 9.039 H -4.286 V 7.67 C -4.285,7.445 -4.237,7.239 -4.142,7.051 -4.057,6.875 -3.941,6.709 -3.796,6.555 -3.645,6.417 -3.465,6.313 -3.255,6.244 V 6.252 C -3.057,6.161 -2.852,6.115 -2.644,6.115 H 3.024 C 3.238,6.114 3.452,6.157 3.666,6.244 3.86,6.313 4.031,6.417 4.177,6.555 4.327,6.709 4.442,6.874 4.522,7.051 4.623,7.239 4.673,7.445 4.674,7.67 v 3.032 C 4.673,10.908 4.623,11.107 4.522,11.3 L 4.53,11.293 C 4.446,11.483 4.329,11.648 4.177,11.79 4.03,11.926 3.86,12.039 3.666,12.129 3.452,12.211 3.238,12.251 3.024,12.251 h -5.473 v 2.996 h 5.452 v -1.383 h 1.671 v 1.405 C 4.673,15.474 4.623,15.673 4.522,15.866 L 4.53,15.859 c -0.084,0.19 -0.201,0.353 -0.353,0.49 -0.146,0.141 -0.317,0.255 -0.511,0.338 -0.214,0.087 -0.428,0.13 -0.642,0.129 z m -10.55,5.158 c -0.798,6.16 -1.187,11.499 -1.167,16.016 -3.862,5.608 -7.083,11.273 -9.665,16.997 -0.94,-5.94 -1.041,-12.561 -0.302,-19.863 3.022,-5.338 6.733,-9.723 11.134,-13.15 M -3.58,61.267 C -3.958,55.184 -3.968,48.733 -3.608,41.916 -0.653,37.663 3.095,33.561 7.634,29.607 10.423,40.646 17.186,50.106 27.921,57.99 19.089,55.509 11.967,51.846 6.553,47 3.241,50.263 -0.137,55.018 -3.58,61.267 m -18.753,44.429 c -5.136,-10.413 -7.926,-19.826 -8.369,-28.239 1.262,-7.845 3.545,-15.334 6.849,-22.47 0.494,7.817 1.646,16.378 3.457,25.682 0,0.003 0,0.007 0,0.014 1.207,-6.829 3.646,-14.35 7.317,-22.563 v -0.015 c -0.003,0.001 -0.005,0.003 -0.007,0.008 -0.901,-8.592 -1.266,-15.297 -1.095,-20.115 3.465,-5.71 7.457,-10.226 11.977,-13.547 -1.008,6.162 -1.479,11.979 -1.412,17.45 -3.581,4.64 -6.738,10.051 -9.47,16.233 -0.016,6.139 0.752,13.524 2.305,22.153 -1.646,7.741 -2.11,14.163 -1.391,19.265 -3.683,-5.843 -6.425,-12.133 -8.224,-18.869 -2.787,9.681 -3.433,18.018 -1.937,25.013 m -8.376,-28.275 c -1.604,3.363 -2.606,7.502 -3.003,12.416 -6.807,-19.87 -6.471,-37.707 1.008,-53.51 -0.411,5.213 -0.464,10.941 -0.159,17.184 -0.134,3.929 0.584,11.899 2.154,23.91 M 115.648,-1.692 c -1.138,-1.099 -1.707,-2.403 -1.707,-3.911 l -0.051,-14.498 c 0.082,-1.732 0.713,-3.319 1.895,-4.759 l 16.261,-20.476 0.122,-13.28 -8.634,1.844 0.151,9.304 -9.917,5.222 v -16.838 c -0.033,-2.139 0.451,-3.757 1.455,-4.854 1.002,-1.104 2.176,-1.797 3.522,-2.082 5.481,-1.122 10.866,-2.425 16.153,-3.91 5.022,-1.473 7.426,2.824 7.21,12.891 l 0.028,14.498 c -0.019,2.06 -0.835,3.992 -2.448,5.797 l -15.563,18.235 -0.073,5.33 -4.465,3.744 12.754,0.058 -0.028,-5.79 9.888,-4.479 0.029,13.935 c 0,1.661 -0.525,3.027 -1.577,4.098 -1.071,1.056 -2.543,1.585 -4.415,1.585 h -16.197 c -1.729,0 -3.193,-0.555 -4.393,-1.664 m -9.882,0.389 c -1.238,1.018 -3.029,1.527 -5.372,1.527 H 76.39 l 0.015,-60.612 c 2.756,-0.147 5.886,-0.399 9.39,-0.756 l 0.087,23.341 5.769,-0.273 6.64,-24.501 c 4.401,-0.601 8.177,-1.177 11.329,-1.729 l -7.814,25.351 c 1.815,0.154 3.234,0.694 4.256,1.621 0.965,0.975 1.459,2.223 1.483,3.744 l 0.015,28.477 c 0,1.613 -0.598,2.884 -1.794,3.81 m -19.739,-11.645 -4.955,3.809 16.65,-0.087 -0.1,-19.56 -11.567,0.469 z m -57.94,3.536 0.144,-5.251 10.04,-4.241 0.071,13.842 c 0.02,3.5 -1.985,5.249 -6.013,5.249 H 13.604 C 11.78,0.187 10.284,-0.328 9.117,-1.36 8.061,-2.302 7.533,-3.507 7.533,-4.977 L 7.389,-53.272 c 0.041,-5.861 2.895,-8.521 8.563,-7.98 5.672,0.541 11.618,0.969 17.839,1.282 2.785,0.197 4.247,2.259 4.386,6.187 l -0.144,27.395 -14.735,0.058 0.05,-8.066 c 1.268,0 2.84,0.004 4.717,0.014 h 0.116 4.299 l -4.199,-3.363 -0.1,-12.999 -10.702,-0.685 0.151,38.675 -4.228,3.644 z m 26.841,-3.753 -5.033,4.135 20.071,-0.137 V 0.058 H 44.961 l -0.022,-59.675 c 3.846,0.119 7.673,0.14 11.48,0.064 3.807,-0.075 8.311,-0.215 13.511,-0.417 l 0.036,9.542 -15.138,0.382 -0.043,15.614 13.777,0.007 v 7.879 l -13.619,0.18 z M 50.283,16.816 H 48.62 V 7.67 c 0,-0.223 0.041,-0.43 0.122,-0.619 0.08,-0.175 0.202,-0.341 0.367,-0.496 0.146,-0.138 0.319,-0.242 0.519,-0.311 v 0.008 c 0.194,-0.091 0.406,-0.137 0.634,-0.137 h 6.467 c 0.229,0 0.441,0.046 0.641,0.137 V 6.244 c 0.195,0.069 0.365,0.173 0.511,0.311 0.151,0.155 0.264,0.321 0.338,0.496 0.106,0.188 0.158,0.394 0.159,0.619 v 9.146 h -1.67 V 7.692 H 50.283 Z M 34.691,29.334 C 33.092,26.895 31.995,25.421 31.4,24.912 44.627,23.106 55.596,24.173 64.305,28.109 40.755,29.972 27.84,35.302 25.559,44.098 20.849,39.455 18.144,32.783 17.443,24.083 c 3.788,3.486 9.537,5.236 17.248,5.251 M 38.667,16.816 38.66,16.803 34.288,6.115 h 1.67 l 0.008,0.014 0.987,2.434 h 5.084 l 0.987,-2.434 0.007,-0.014 h 1.664 l -4.365,10.688 -0.007,0.013 z m 2.715,-6.682 h -3.781 l 1.908,4.616 z M 30.564,13 v 1.195 c 0.001,1.748 -0.918,2.621 -2.758,2.621 H 21.584 V 6.115 h 1.67 v 4.256 h 3.501 l 2.096,-4.242 0.007,-0.014 h 1.843 l -2.139,4.314 c 1.335,0.214 2.002,1.07 2.002,2.571 m -1.922,-0.8 c -0.19,-0.167 -0.499,-0.251 -0.93,-0.252 h -4.458 v 3.299 h 4.458 c 0.431,0 0.74,-0.084 0.93,-0.252 0.187,-0.184 0.281,-0.477 0.28,-0.879 v -1.044 c 10e-4,-0.401 -0.093,-0.694 -0.28,-0.879 z m 23.759,30.047 c -1.119,-1.45 -2.055,-2.324 -2.809,-2.622 0.326,4.006 0.139,7.789 -0.562,11.351 -0.3,1.521 -0.694,3.003 -1.181,4.443 -1.04,-1.844 -1.899,-3.606 -2.578,-5.286 -0.835,-2.068 -1.399,-4.012 -1.693,-5.834 1.071,-0.595 2.003,-1.231 2.795,-1.908 -3.587,0.233 -6.725,2.1 -9.413,5.603 -0.584,0.758 -1.145,1.593 -1.686,2.506 -0.083,-1.055 -0.078,-2.053 0.015,-2.996 0.629,-6.223 5.13,-10.078 13.503,-11.566 9.666,-1.685 15.811,-2.761 18.438,-3.227 4.513,2.68 6.826,8.151 6.941,16.414 L 63.499,37.04 63.21,39.935 c -4.445,0.058 -8.048,0.828 -10.809,2.312 M 98.644,16.355 c -0.16,-0.139 -0.283,-0.305 -0.367,-0.496 -0.081,-0.19 -0.122,-0.386 -0.123,-0.59 V 7.67 c 0.001,-0.223 0.042,-0.43 0.123,-0.619 0.085,-0.177 0.207,-0.342 0.367,-0.496 0.15,-0.138 0.323,-0.242 0.519,-0.311 v 0.008 c 0.194,-0.091 0.405,-0.137 0.633,-0.137 h 6.129 c 0.229,-0.001 0.45,0.042 0.662,0.129 0.201,0.069 0.373,0.173 0.519,0.311 0.145,0.154 0.259,0.32 0.339,0.496 h 0.007 c 0.083,0.189 0.123,0.396 0.123,0.619 v 4.127 h -4.718 V 10.22 h 3.047 V 7.692 h -6.086 v 7.555 h 6.086 v -1.383 h 1.671 v 1.405 c 0,0.204 -0.04,0.4 -0.123,0.59 -0.083,0.19 -0.199,0.353 -0.346,0.49 -0.146,0.141 -0.318,0.255 -0.519,0.338 -0.212,0.087 -0.433,0.13 -0.662,0.129 h -6.129 c -0.228,0 -0.439,-0.043 -0.633,-0.129 -0.195,-0.083 -0.368,-0.197 -0.519,-0.338 z M 84.837,16.816 H 83.182 V 6.115 h 1.67 v 8.225 l 6.763,-8.218 0.008,-0.007 h 1.656 V 16.816 H 91.615 V 8.6 l -6.77,8.21 z m -6.524,0 H 76.642 V 6.115 h 1.671 z M 71.81,10.918 c -0.143,0.208 -0.314,0.371 -0.512,0.49 -0.179,0.127 -0.378,0.226 -0.597,0.295 0.413,0.188 0.717,0.464 0.915,0.829 0.201,0.374 0.301,0.869 0.301,1.484 v 0.179 c 0.001,1.748 -0.918,2.621 -2.757,2.621 H 63.247 V 6.115 h 6.222 c 1.839,0 2.759,0.866 2.758,2.6 v 0.533 c 0,0.356 -0.03,0.673 -0.093,0.95 -0.083,0.276 -0.191,0.516 -0.324,0.72 m -6.921,1.361 v 2.99 h 4.22 c 0.411,0 0.714,-0.091 0.907,-0.274 0.174,-0.184 0.26,-0.477 0.26,-0.879 v -0.684 c -10e-4,-0.387 -0.082,-0.673 -0.245,-0.857 h 0.008 C 69.863,12.393 69.584,12.294 69.203,12.279 Z M 70.327,7.937 C 70.137,7.754 69.836,7.663 69.426,7.663 h -4.537 v 3.097 h 4.537 c 0.41,10e-4 0.711,-0.091 0.901,-0.274 0.191,-0.172 0.287,-0.457 0.288,-0.856 V 8.787 c 0,-0.383 -0.097,-0.666 -0.288,-0.85 M 88.36,79.855 c -3.568,2.019 -6.564,3.301 -8.988,3.846 -1.583,-7.079 -2.836,-14.159 -3.759,-21.239 4.306,4.509 8.555,10.306 12.747,17.393 m 13.208,19.719 c 0.034,1.061 -0.163,2.084 -0.591,3.068 -3.024,2.272 -6.154,3.659 -9.391,4.163 2.055,0.706 3.736,1.121 5.041,1.246 -0.854,0.758 -1.86,1.435 -3.017,2.031 -2.055,1.061 -4.552,1.31 -7.49,0.749 0.563,-4.67 -1.509,-8.681 -6.215,-12.035 -2.325,1.021 -4.092,0.541 -5.301,-1.44 -0.959,-1.625 -1.482,-3.709 -1.57,-6.252 7.039,-3.288 13.861,-5.65 20.467,-7.086 1.21,0.638 2.15,1.287 2.817,1.944 -0.136,2.942 -1.96,5.356 -5.474,7.246 3.283,0.218 6.28,-0.612 8.989,-2.493 0.711,1.268 1.163,2.486 1.353,3.652 -1.808,2.671 -5.019,4.529 -9.636,5.574 4.156,1.195 7.495,1.073 10.018,-0.367 M 49.649,88.663 c -3.442,-0.355 -7.237,-1.145 -11.386,-2.369 -0.225,-5.267 0.725,-11.55 2.852,-18.848 2.027,2.857 4.871,9.929 8.534,21.217 m 9.276,-3.241 c 0.03,-1.181 0.145,-2.134 0.346,-2.859 2.028,-0.086 5.329,-0.603 9.902,-1.548 -0.01,0.089 0.609,0.954 1.859,2.592 0.041,-2.466 0.616,-4.36 1.728,-5.682 1.508,1.858 2.797,4.11 3.867,6.756 -4.099,1.569 -8.063,2.64 -11.889,3.212 -3.832,0.537 -7.843,0.751 -12.035,0.64 -0.149,-3.163 0.457,-5.759 1.815,-7.785 2.04,0.509 3.51,2.067 4.407,4.674 m -9.672,27.49 c 0.196,1.726 1.082,3.351 2.658,4.876 -2.129,2.392 -5.367,3.441 -9.715,3.147 1.652,-0.876 2.8,-2.581 3.442,-5.113 -7.754,4.571 -13.705,4.465 -17.854,-0.318 6.449,0.977 11.716,-1.27 15.801,-6.74 -8.089,3.581 -14.5,2.129 -19.229,-4.358 6.967,3.265 13.778,2.291 20.433,-2.924 -14.405,0.034 -19.703,-4.849 -15.895,-14.648 11.571,6.841 24.042,8.882 37.413,6.122 2.009,4.595 1.553,7.723 -1.368,9.384 -4.151,2.251 -6.326,2.386 -6.524,0.403 -2.582,0.917 -5.052,2.727 -7.412,5.43 -1.357,1.433 -1.94,3.013 -1.75,4.739 m -29.441,16.557 c 0.091,0.058 0.185,0.118 0.281,0.18 1.215,0.821 2.285,1.524 3.212,2.11 0.062,1.177 -0.96,1.805 -3.068,1.887 0.404,1.1 1.928,1.731 4.573,1.894 3.62,0.178 7.711,-1.248 12.273,-4.277 4.556,-3.025 7.504,-4.055 8.843,-3.09 1.258,0.917 0.931,3.263 -0.979,7.036 l -0.079,0.158 c -0.241,0.178 -0.517,0.373 -0.829,0.584 -2.083,1.464 -4.311,2.506 -6.683,3.125 0.202,-0.177 0.394,-0.357 0.576,-0.54 1.772,-1.762 2.754,-3.836 2.945,-6.222 0.025,-0.308 0.037,-0.622 0.037,-0.943 -0.034,0.047 -1.44,1.406 -4.221,4.076 -0.949,0.908 -2.037,1.712 -3.262,2.412 -2.356,1.351 -5.223,2.311 -8.599,2.881 -0.005,-0.004 -0.344,-0.139 -1.016,-0.403 -0.666,-0.268 -1.348,-0.557 -2.045,-0.864 -0.693,-0.308 -1.224,-0.553 -1.592,-0.735 l -0.526,-0.259 0.008,0.014 c -0.008,-0.008 -0.018,-0.013 -0.029,-0.014 -0.001,-0.005 -0.004,-0.008 -0.007,-0.008 -2.176,-1.431 -3.203,-3.034 -3.083,-4.81 0.062,-0.889 0.41,-1.82 1.045,-2.795 0.489,-0.681 1.123,-1.22 1.901,-1.613 z m 57.436,0.302 c -0.063,0.034 -0.13,0.07 -0.203,0.108 -3.495,1.451 -6.626,2.245 -9.39,2.384 h -0.023 c 3.026,-1.56 5.215,-3.32 6.569,-5.279 1.335,-1.935 2.326,-3.606 2.974,-5.012 2.176,0.952 4.097,1.582 5.762,1.887 1.669,0.301 3.544,0.368 5.624,0.202 -2.343,2.88 -4.41,4.779 -6.201,5.696 0.365,-1.843 0.503,-3.469 0.411,-4.876 -0.946,1.883 -2.787,3.513 -5.523,4.89"
             style="fill:#ffffff;fill-opacity:1;fill-rule:evenodd;stroke:none"
             id="path573" />
        </g>
      </g>
    </g>
    <g
       id="g575">
      <g
         id="g577"
         clip-path="url(#clipPath581)">
        <g
           id="g583"
           transform="translate(140.4395,258.8406)">
          <path
             d="m 0,0 c -5.629,-1.763 -10.143,-5.352 -13.54,-10.767 0.271,7.138 2.531,13.514 6.777,19.128 -7.77,-5.041 -12.842,-13.482 -15.217,-25.321 -2.189,2.471 -3.433,5.481 -3.731,9.031 -4.005,-10.491 -3.46,-21.325 1.635,-32.503 3.441,-7.731 10.076,-13.408 19.906,-17.032 -11.154,11.701 -15.271,23.712 -12.351,36.031 2.22,-11.974 9.209,-19.843 20.964,-23.608 C -10.726,-29.858 -12.208,-14.845 0,0 m -25.596,-76.923 c 0.003,0.005 0.003,0.009 0,0.014 h 0.008 c -0.36,6.818 -0.35,13.268 0.028,19.351 -3.705,7.059 -6.105,13.399 -7.201,19.02 -1.553,-8.629 -2.321,-16.013 -2.305,-22.152 2.732,-6.183 5.889,-11.594 9.47,-16.233 m -16.78,38.781 c 10e-4,-0.006 10e-4,-0.011 0,-0.014 -1.811,-9.303 -2.963,-17.864 -3.457,-25.682 2.582,-5.724 5.803,-11.389 9.665,-16.996 v 0.014 c 0.002,-0.003 0.004,-0.006 0.007,-0.007 -0.171,4.819 0.194,11.524 1.095,20.115 0.002,-0.004 0.004,-0.006 0.007,-0.007 v 0.014 c -3.671,8.213 -6.11,15.734 -7.317,22.563 m 0.698,-4.623 c -0.002,-0.019 -0.005,-0.038 -0.007,-0.057 v 0.057 z m -11.004,1.397 c -10e-4,-0.013 -0.003,-0.025 -0.007,-0.036 -1.57,-12.011 -2.288,-19.98 -2.154,-23.91 1.411,-6.541 4.314,-12.67 8.708,-18.387 -0.739,7.303 -0.638,13.924 0.302,19.863 -3.304,7.136 -5.587,14.626 -6.849,22.47 M 64.147,-60.733 c -0.708,-0.745 -1.444,-1.489 -2.21,-2.233 -0.494,-10.744 -3.817,-20.51 -9.968,-29.298 0.13,0.074 0.26,0.151 0.388,0.231 2.414,1.478 4.86,3.979 7.339,7.504 2.831,4.013 5.707,9.355 8.628,16.025 0.672,-1.595 0.97,-3.606 0.894,-6.036 2.405,4.585 4.184,9.281 5.336,14.087 1.416,5.901 1.884,11.967 1.404,18.2 -1.859,-6.039 -5.797,-12.199 -11.811,-18.48 M 18.509,26.092 c -0.501,0.014 -0.996,0.026 -1.484,0.036 C 9.729,26.292 4.111,26.009 0.173,25.279 -4.171,24.467 -8.236,23.365 -12.02,21.973 c -3.785,-1.397 -7.741,-3.641 -11.869,-6.734 -11.904,-0.992 -20.023,-4.337 -24.357,-10.032 -0.014,-3.807 1.052,-7.343 3.198,-10.608 -0.723,4.186 -0.7,7.427 0.072,9.722 4.309,3.223 9.484,4.882 15.527,4.976 -6.862,-6.414 -10.083,-14.897 -9.665,-25.451 2.378,9.635 7.136,17.123 14.275,22.463 -0.024,-0.919 0.014,-1.803 0.115,-2.651 0.157,-1.313 0.465,-2.543 0.922,-3.687 1.346,2.835 3.068,5.452 5.163,7.85 1.635,1.871 3.498,3.61 5.589,5.215 4.756,3.649 8.325,5.858 10.709,6.625 0.008,0 0.014,0.003 0.022,0.007 l -0.008,-0.014 0.526,0.259 c 0.368,0.182 0.899,0.427 1.592,0.735 0.697,0.308 1.379,0.596 2.045,0.864 0.672,0.264 1.011,0.399 1.016,0.403 -0.005,0 -0.01,0 -0.015,0 5.102,1.914 10.326,3.306 15.672,4.177 M 55.065,11.055 c 0.073,-0.038 0.14,-0.075 0.203,-0.108 -1.589,1.538 -3.273,2.907 -5.049,4.105 -1.518,0.984 -3.102,1.867 -4.753,2.65 -1.849,0.874 -3.76,1.599 -5.734,2.175 -2.117,0.6 -4.273,1.03 -6.466,1.29 -2.132,0.244 -4.274,0.355 -6.425,0.331 -2.194,-0.024 -4.374,-0.159 -6.539,-0.404 -0.074,-0.009 -0.151,-0.016 -0.23,-0.021 l -3.22,-0.469 c -0.046,-0.006 -0.091,-0.014 -0.137,-0.021 -0.508,-0.091 -1.012,-0.178 -1.512,-0.259 0.269,-0.202 0.519,-0.406 0.749,-0.613 -0.182,0.183 -0.374,0.363 -0.576,0.54 2.372,-0.619 4.6,-1.661 6.683,-3.125 0.312,-0.211 0.588,-0.405 0.829,-0.584 0.033,-0.019 0.146,-0.115 0.179,-0.129 4.691,-2.156 8.462,-6.592 11.315,-13.309 3.336,0.309 6.041,-0.477 8.116,-2.355 -5.394,0.111 -8.162,-1.128 -8.304,-3.716 0.318,-1.56 2.022,-2.67 5.114,-3.327 2.588,1.541 5.485,1.089 8.693,-1.354 2.76,-2.075 5.845,-2.442 9.254,-1.102 1.565,0.384 2.97,0.419 4.213,0.108 -2.66,4.061 -6.585,6.913 -11.776,8.556 0.443,5.454 -0.921,9.974 -4.089,13.561 0.023,-0.015 0.047,-0.027 0.072,-0.037 2.764,-0.139 5.895,-0.933 9.39,-2.383"
             style="fill:#6386cc;fill-opacity:1;fill-rule:evenodd;stroke:none"
             id="path585" />
        </g>
      </g>
    </g>
    <g
       id="g587">
      <g
         id="g589"
         clip-path="url(#clipPath593)">
        <g
           id="g595"
           transform="translate(106.6553,154.1965)">
          <path
             d="M 0,0 -32.2,0.115 V -5.848 H 0 Z m 126.638,0 v -5.848 h 32.2 V 0.115 Z M 79.523,40.432 c -0.475,3.813 -2.826,6.708 -7.05,8.685 1.829,-2.506 1.814,-5.415 -0.043,-8.728 -1.105,9.602 -7.306,13.066 -18.603,10.392 2.261,-1.258 3.322,-3.863 3.183,-7.814 l 2.751,3.385 c 2.083,-1.569 3.535,-4.522 4.358,-8.859 0.229,-1.209 0.408,-2.527 0.539,-3.953 4.619,-1.191 9.084,-1.789 13.396,-1.794 1.297,3.29 1.787,6.185 1.469,8.686 m 17.875,59.163 c 1.968,0.38 3.088,1.844 3.364,4.394 -3.275,0.667 -5.851,0.434 -7.728,-0.699 1.756,-0.784 3.21,-2.015 4.364,-3.695 m -46.178,8.931 1.03,1.347 c -2.43,2.405 -5.623,4.006 -9.579,4.803 -1.215,-1.656 -1.597,-3.646 -1.145,-5.97 3.145,1.575 6.376,1.515 9.694,-0.18"
             style="fill:#d22027;fill-opacity:1;fill-rule:evenodd;stroke:none"
             id="path597" />
        </g>
      </g>
    </g>
  </g>
</svg>
