<?xml version="1.0" encoding="UTF-8" standalone="no"?>
<!-- Created with Inkscape (http://www.inkscape.org/) -->

<svg
   version="1.1"
   id="svg493"
   width="600"
   height="630"
   viewBox="0 0 600 630"
   xmlns="http://www.w3.org/2000/svg"
   xmlns:svg="http://www.w3.org/2000/svg">
  <defs
     id="defs497" />
  <g
     id="g501"
     transform="matrix(1.3333333,0,0,-1.3333333,0,982.68)">
    <g
       id="g503"
       transform="translate(217.23313,279.71441)">
      <path
         d="m 0,0 c -40.818,0 -65.932,20.468 -75.822,39.624 l -3.302,6.39 c -11.294,8.123 -21.799,17.681 -31.237,28.419 -10.223,11.631 -19.294,24.763 -26.516,38.349 l -1.88,-3.57 -8.929,10.14 c -0.377,0.424 -9.58,10.946 -14.287,30.953 -3.928,16.696 -5.564,44.134 8.503,80.755 -7.883,9.991 -10.526,24.308 -11.346,34.696 l -14.261,-5.113 7.14,18.881 c 0.338,0.894 8.515,21.862 29.6,25.615 1.328,0.236 2.712,0.415 4.138,0.537 v 5.254 c 0,1.627 -0.11,2.748 -0.236,3.495 l -0.221,-0.034 -23.02,-4.109 c -3.245,-0.622 -6.464,-0.942 -9.514,-0.942 -9.018,0 -16.878,2.696 -23.363,8.015 -15.041,12.331 -17.562,34.557 -18.043,54.672 l -0.002,9.667 c 0.293,11.942 2.04,29.06 8.696,43.388 8.523,18.353 23.44,28.46 42.001,28.46 h 13.275 c 4.177,0 6.267,-0.004 7.311,-0.008 0.275,-10e-4 0.535,-0.012 0.782,-0.031 0.36,0.026 0.737,0.039 1.129,0.039 l 27.046,-0.008 c 7.594,-0.059 18.07,-1.234 23.853,-4.306 1.786,2.719 5.863,4.306 11.498,4.306 l 31.542,0.008 c 14.027,-0.002 28.686,-0.008 42.85,-0.015 l 4.817,0.012 20.032,0.004 70.596,-0.003 c 0.37,0 0.715,-0.018 1.035,-0.052 v 0.044 l 61.556,0.01 c 5.466,-10e-4 8.124,-0.262 9.68,-0.957 3.079,0.635 6.302,0.955 9.62,0.955 l 27.368,0.003 c 9.174,0 10.506,-5.568 10.507,-10.655 l 0.003,-33.21 c 0,-9.286 -5.478,-10.657 -10.506,-10.657 0,0 -9.921,0 -10.105,-0.002 0.451,-0.644 0.946,-1.338 1.483,-2.08 l 0.252,-0.359 c 1.517,-2.239 2.928,-4.271 4.181,-6.077 l 0.276,-0.399 c 8.6,-12.362 14.814,-21.297 14.399,-40.242 l -0.014,-1.379 -0.022,-0.313 c -1.025,-15.457 -5.691,-26.275 -14.262,-33.052 -5.678,-4.486 -12.62,-6.761 -20.636,-6.761 -2.775,0 -5.714,0.281 -8.729,0.836 l -27.355,4.64 c -0.382,0.065 -0.734,0.098 -1.054,0.098 -2.084,0 -2.308,-2.084 -2.308,-2.98 v -5.275 c 1.424,-0.122 2.806,-0.301 4.136,-0.537 21.086,-3.752 29.261,-24.721 29.599,-25.612 l 7.143,-18.885 -14.262,5.114 c -0.819,-10.389 -3.464,-24.708 -11.348,-34.699 7.987,-20.858 15.494,-51.05 8.504,-80.752 -4.627,-19.667 -13.324,-29.869 -14.3,-30.966 l -8.948,-10.071 -1.847,3.514 C 129.655,99.201 120.587,86.07 110.361,74.433 100.923,63.695 90.419,54.138 79.123,46.016 L 75.82,39.622 C 65.929,20.468 40.818,0 0,0"
         style="fill:#ffffff;fill-opacity:1;fill-rule:nonzero;stroke:none"
         id="path505" />
    </g>
    <g
       id="g507"
       transform="translate(419.99613,682.95441)">
      <path
         d="M 0,0 H 0.796 0"
         style="fill:#231f20;fill-opacity:1;fill-rule:nonzero;stroke:none"
         id="path509" />
    </g>
    <g
       id="g511"
       transform="translate(217.23413,284.65041)">
      <path
         d="m 0,0 c -38.637,0 -62.269,19.098 -71.5,36.971 l -3.849,7.452 -0.14,0.101 c -11.302,8.028 -21.808,17.534 -31.229,28.252 -11.749,13.372 -21.931,28.761 -29.444,44.505 l -0.607,1.271 -3.002,-5.706 -4.274,4.856 c -0.358,0.402 -8.756,9.993 -13.182,28.808 -3.851,16.36 -5.376,43.546 9.219,80.166 l 0.17,0.425 -0.31,0.334 c -9.909,10.695 -11.831,29.191 -12.096,39.266 l -0.025,0.986 -10.477,-3.756 3.363,8.893 c 0.298,0.782 7.494,19.242 25.889,22.515 2.316,0.412 4.829,0.635 7.471,0.658 l 0.702,0.006 v 12.69 c 0,5.622 -2.468,6.059 -3.224,6.059 -0.138,0 -0.216,-0.014 -0.216,-0.014 l -2.628,-0.405 -23.133,-4.126 c -3.005,-0.577 -5.919,-0.868 -8.668,-0.868 -7.872,0 -14.7,2.326 -20.291,6.913 -13.499,11.067 -15.785,31.97 -16.239,50.957 v 9.546 c 0.28,11.347 1.935,27.738 8.231,41.289 7.674,16.525 21.023,25.625 37.589,25.625 h 15.941 c 2.855,0 4.266,-0.004 4.961,-0.007 v -0.064 l 0.761,0.041 c 0.264,0.02 0.543,0.03 0.833,0.03 l 27.045,-0.006 c 7.979,-0.065 18.202,-1.513 22.293,-4.153 1.244,-0.804 2.268,-1.195 3.128,-1.195 1.69,0 2.303,1.513 2.303,2.53 0,2.773 4.911,2.816 4.962,2.817 l 34.209,0.007 c 14.025,-10e-4 28.684,-0.007 42.846,-0.015 l 4.83,0.012 20.022,0.004 27.697,-0.005 c 0,0 42.695,0.004 43.292,0.003 v -0.004 l 0.643,-0.005 46.9,0.011 17.321,-0.002 c 2.919,0 4.139,-0.202 4.628,-0.335 l -0.428,-1.483 1.225,0.341 c 3.504,0.979 7.276,1.477 11.209,1.477 l 28.036,0.002 c 4.905,0 4.961,-4.815 4.961,-5.02 l 0.003,-34.61 c 0,-4.937 -4.753,-5.019 -4.956,-5.019 h -12.868 c -4.438,0 -5.364,-0.584 -5.685,-1.154 -0.198,-0.353 -0.134,-0.706 -0.009,-0.919 0.542,-0.921 2.354,-3.747 5.335,-7.863 l 0.204,-0.292 c 1.53,-2.263 2.994,-4.37 4.287,-6.229 l 0.162,-0.233 c 8.364,-12.028 13.89,-19.975 13.51,-37.297 l -0.012,-1.311 -0.011,-0.142 c -0.929,-13.996 -4.985,-23.648 -12.401,-29.509 -4.799,-3.793 -10.732,-5.717 -17.632,-5.717 -2.489,0 -5.132,0.255 -7.857,0.759 l -30.052,5.096 c -0.452,0.078 -0.891,0.117 -1.302,0.117 -4.046,0 -5.115,-3.671 -5.115,-5.613 v -12.711 l 0.703,-0.006 c 2.641,-0.023 5.153,-0.246 7.468,-0.658 18.41,-3.275 25.594,-21.733 25.891,-22.515 l 3.363,-8.893 -10.477,3.756 -0.025,-0.986 c -0.264,-10.074 -2.189,-28.57 -12.095,-39.267 l -0.31,-0.334 0.169,-0.424 c 8.05,-20.235 16.185,-50.567 9.222,-80.166 -4.448,-18.898 -12.827,-28.409 -13.181,-28.804 l -4.293,-4.831 -2.988,5.677 -0.606,-1.271 C 128.647,101.536 118.465,86.147 106.716,72.776 97.297,62.059 86.79,52.552 75.488,44.524 L 75.347,44.423 71.499,36.971 C 62.267,19.098 38.637,0 0,0"
         style="fill:#231f20;fill-opacity:1;fill-rule:nonzero;stroke:none"
         id="path513" />
    </g>
    <g
       id="g515"
       transform="translate(398.33513,667.66641)">
      <path
         d="m 0,0 c -6.128,8.435 -9.966,14.874 -9.968,18.688 v 0.332 c -0.002,3.81 2.221,7.857 6.169,7.773 h 19.945 c -0.003,8.901 0.003,14.408 0,23.31 -8.533,0 -16.071,-0.003 -22.525,-0.003 -18.05,0 -26.985,-12.97 -26.985,-30.778 v -0.956 c 0,-11.008 3.296,-13.735 18.411,-35.897 5.394,-7.444 7.844,-11.743 7.926,-17.429 v -0.334 c 0.004,-4.508 -2.195,-4.992 -6.535,-4.235 -7.6,1.489 -20.8,4.283 -32.194,6.303 0.002,-8.334 0.007,-15.439 0.008,-23.775 l 36.271,-6.013 c 18.493,-3.412 24.512,8.218 25.605,24.639 v 0.878 C 16.505,-21.335 11.44,-16.87 0,0"
         style="fill:#ffffff;fill-opacity:1;fill-rule:nonzero;stroke:none"
         id="path517" />
    </g>
    <g
       id="g519"
       transform="translate(347.51313,648.83741)">
      <path
         d="m 0,0 c 6.189,22.976 11.963,46.07 18.561,68.93 -7.599,10e-4 -15.199,10e-4 -22.797,-0.001 -2.424,-11.646 -4.667,-23.33 -6.91,-35.013 -2.255,11.688 -4.548,23.368 -7.028,35.008 -7.942,-0.003 -15.887,-0.007 -23.83,-0.003 6.723,-22.116 12.945,-44.351 18.962,-66.672 -0.004,-12.242 0.007,-24.07 0,-36.312 7.699,-0.951 15.37,-2.001 23.042,-3.149 C 0.005,-24.67 -0.004,-12.542 0,0"
         style="fill:#ffffff;fill-opacity:1;fill-rule:nonzero;stroke:none"
         id="path521" />
    </g>
    <g
       id="g523"
       transform="translate(299.91913,717.76841)">
      <path
         d="m 0,0 c -7.676,-0.001 -15.571,-0.002 -23.246,-0.002 v -98.586 c 14.056,-0.963 28.182,-2.199 42.19,-3.712 0,7.569 0,15.139 0.001,22.709 C 12.633,-79.028 6.318,-78.504 0,-78.012 V 0"
         style="fill:#ffffff;fill-opacity:1;fill-rule:nonzero;stroke:none"
         id="path525" />
    </g>
    <g
       id="g527"
       transform="translate(250.52713,642.42241)">
      <path
         d="m 0,0 c 8.497,22.928 11.928,32.355 20.723,56.25 -0.01,6.364 -0.018,12.727 -0.029,19.091 -15.573,0.004 -31.268,0.008 -46.841,0.003 V 53.387 c 6.999,0.024 14.106,0.014 21.106,0 -7.177,-18.623 -13.83,-37.148 -21.106,-55.73 -0.004,-6.34 0.004,-12.679 0,-19.018 15.895,-0.167 31.119,-0.691 46.99,-1.574 -0.01,7.347 -0.023,14.694 -0.034,22.041 C 13.675,-0.531 7.138,-0.233 0,0"
         style="fill:#ffffff;fill-opacity:1;fill-rule:nonzero;stroke:none"
         id="path529" />
    </g>
    <g
       id="g531"
       transform="translate(171.76013,695.80941)">
      <path
         d="M 0,0 H 21.752 C 14.429,-18.953 7.181,-37.883 0,-56.89 c -0.003,-6.353 0.003,-12.704 0,-19.054 15.888,0.759 31.812,1.162 47.717,1.2 0.002,7.312 -10e-4,14.623 0,21.934 -7.158,0.003 -14.359,-0.106 -21.516,-0.265 7.103,18.684 14.312,37.337 21.516,55.983 0.002,6.345 -10e-4,12.689 0,19.033 C 32.071,21.948 15.647,21.957 0,21.959 -0.004,14.631 0.004,7.328 0,0"
         style="fill:#ffffff;fill-opacity:1;fill-rule:nonzero;stroke:none"
         id="path533" />
    </g>
    <g
       id="g535"
       transform="translate(143.07513,617.93341)">
      <path
         d="M 0,0 C 7.739,0.644 15.535,1.19 23.287,1.636 V 99.835 C 15.544,99.835 7.743,99.833 0,99.83 V 0"
         style="fill:#ffffff;fill-opacity:1;fill-rule:nonzero;stroke:none"
         id="path537" />
    </g>
    <g
       id="g539"
       transform="translate(138.41313,683.45841)">
      <path
         d="m 0,0 c 0,0.637 0.001,0.955 0.001,1.59 0.285,8.616 -2.383,17.742 -8.333,23.985 -6.343,6.657 -16.444,8.658 -25.211,8.728 -7.671,0.004 -15.323,0.006 -22.994,0.007 V -72.7 c 7.628,1.168 15.556,2.238 23.211,3.21 v 31.849 c 0.333,0.033 0.528,0.05 0.861,0.083 2.964,-10.268 5.995,-20.513 9.101,-30.737 8.229,0.918 16.461,1.746 24.707,2.494 -4.358,12.675 -8.598,25.387 -12.761,38.128 C -3.091,-20.178 -0.687,-10.984 0,0 m -23.861,-2.814 c 0.415,-5.856 -2.013,-13.697 -8.809,-14.126 -0.279,-0.017 -0.377,-0.026 -0.656,-0.043 v 30.204 c 0.224,0.002 0.193,0.003 0.418,0.006 6.84,0.19 9.5,-7.371 9.043,-13.211 0.002,-1.131 0.003,-1.697 0.004,-2.83"
         style="fill:#ffffff;fill-opacity:1;fill-rule:nonzero;stroke:none"
         id="path541" />
    </g>
    <g
       id="g543"
       transform="translate(19.988126,661.37241)">
      <path
         d="m 0,0 v -8.978 c 0.521,-21.776 3.352,-52.323 32.806,-46.667 l 23.409,4.134 v 63.51 C 47.16,11.482 37.813,10.893 28.765,10.257 v -25.143 c 2.622,0.331 4.037,0.494 6.661,0.813 0.008,-6.937 0.015,-13.051 0.023,-19.989 -0.274,-0.203 -0.98,-0.661 -1.643,-0.744 -11.142,-1.397 -10.233,21.272 -10.402,28.032 0.001,3.815 0.001,5.73 0.002,9.546 0.307,9.678 0.412,29.074 14.281,29.855 5.251,0.295 6.395,0.377 18.528,0.459 v 23.31 H 35.347 C 6.927,56.396 0.576,23.278 0,0"
         style="fill:#ffffff;fill-opacity:1;fill-rule:nonzero;stroke:none"
         id="path545" />
    </g>
    <g
       id="g547"
       transform="translate(394.90313,606.42241)">
      <path
         d="m 0,0 c -1.73,0 -3.623,0.187 -5.627,0.558 l -34.185,6.106 -0.007,18.335 c 4.848,-1.017 12.533,-2.457 19.361,-3.736 3.898,-0.731 7.45,-1.397 9.881,-1.871 1.313,-0.231 2.327,-0.337 3.204,-0.337 2.01,0 3.502,0.575 4.564,1.756 1.061,1.183 1.554,2.816 1.553,5.139 v 0.332 c -0.092,6.345 -2.659,10.935 -8.379,18.829 -2.297,3.371 -4.345,6.323 -6.153,8.929 -9.778,14.098 -11.805,17.019 -11.805,25.569 v 0.956 c 0,17.791 9.213,28.412 24.647,28.412 l 20.184,0.003 V 90.403 l -17.726,10e-4 c -2.554,0 -4.821,-1.233 -6.386,-3.472 -1.273,-1.823 -2.002,-4.254 -2.001,-6.671 V 79.932 C -8.873,75.9 -5.755,69.893 1.548,59.841 3.154,57.471 4.694,55.261 6.055,53.311 14.168,41.677 17.526,36.862 17.223,23.802 L 17.221,22.925 C 16.168,7.299 10.695,0 0,0 m -348.855,0.984 c -19.952,0.001 -23.188,22.771 -23.722,45.045 v 8.92 c 0.25,10.048 1.668,24.454 7.009,35.919 5.598,12.017 14.345,18.112 25.999,18.112 h 18.53 V 90.386 c -9.742,-0.077 -11.338,-0.166 -15.872,-0.422 l -0.447,-0.025 c -15.547,-0.875 -16.139,-20.563 -16.458,-31.141 l -0.031,-1.001 -0.002,-9.622 c 0.015,-0.606 0.021,-1.265 0.027,-2.007 l 0.002,-0.208 c 0.08,-9.167 0.245,-28.246 11.745,-28.246 0.4,0 0.821,0.027 1.252,0.081 1.239,0.156 2.328,0.878 2.739,1.183 l 0.958,0.711 -0.026,23.855 c 0,0 -4.818,-0.583 -6.661,-0.807 v 20.26 c 7.383,0.51 15.036,0.996 22.774,1.446 V 5.428 l -21.473,-3.793 c -2.258,-0.433 -4.389,-0.651 -6.343,-0.651 m 38.166,107.994 20.655,-0.006 c 7.307,-0.059 17.326,-1.495 23.529,-8.005 5.092,-5.343 7.963,-13.666 7.679,-22.262 l -0.003,-1.616 c -0.568,-9.002 -2.25,-18.413 -10.633,-25.958 l -1.149,-1.034 0.482,-1.478 c 4.156,-12.716 8.016,-24.274 11.792,-35.301 -6.671,-0.621 -13.341,-1.297 -19.848,-2.013 -2.829,9.338 -5.696,19.036 -8.526,28.837 l -0.543,1.883 -4.901,-0.485 V 9.633 c -6.899,-0.886 -12.977,-1.724 -18.534,-2.551 z m 18.534,-16.379 V 57.536 l 3.135,0.196 c 2.856,0.181 5.369,1.438 7.269,3.639 3.154,3.65 3.998,9.087 3.737,12.958 l -0.002,2.66 c 0.274,3.682 -0.559,8.909 -3.726,12.375 -1.951,2.138 -4.511,3.268 -7.405,3.268 -0.099,0 -3.008,-0.033 -3.008,-0.033 M -49.727,7.942 c -6.115,0.895 -12.286,1.737 -18.366,2.503 V 44.98 l -0.083,0.308 c -6.63,24.593 -12.377,44.861 -18.055,63.68 3.242,0 14.028,10e-4 18.777,0.003 2.382,-11.277 4.591,-22.564 6.623,-33.094 l 2.33,-11.045 0.713,3.039 c 1.691,8.803 5.613,29.237 8.061,41.106 l 17.785,10e-4 C -36.001,94.755 -39.808,80.271 -43.494,66.253 l -0.028,-0.112 c -1.987,-7.558 -4.042,-15.373 -6.124,-23.103 l -0.082,-0.306 c 0,0 0.001,-27.585 0.001,-34.79 m -28.652,3.732 c -12.265,1.295 -24.877,2.402 -37.513,3.294 v 94.009 l 18.568,0.003 V 31.142 l 2.159,-0.167 c 5.807,-0.454 11.45,-0.921 16.787,-1.389 z m -171.11,97.301 18.609,0.003 V 15.379 c -6.219,-0.372 -12.473,-0.81 -18.609,-1.302 z m 123.614,-93.413 c -14.454,0.773 -28.31,1.236 -42.309,1.418 l -0.001,16.223 c 3.946,10.093 7.77,20.326 11.471,30.225 l 0.073,0.198 c 3.037,8.128 6.177,16.533 9.401,24.9 l 1.241,3.221 -3.416,0.005 c -3.914,0.008 -7.862,0.016 -11.806,0.016 -2.325,0 -4.65,-0.002 -6.963,-0.009 v 17.218 l 42.166,-0.002 0.026,-16.303 -6.798,-18.485 c -4.422,-12.035 -7.916,-21.541 -13.777,-37.357 l -1.146,-3.091 3.26,-0.105 c 5.784,-0.19 11.531,-0.432 18.551,-0.782 z m -94.93,16.497 c 6.732,17.813 13.795,36.285 21.591,56.465 l 1.248,3.228 h -22.838 l -0.002,17.225 c 13.886,-0.001 28.319,-0.008 42.225,-0.015 l 0.816,-0.001 V 92.74 l -0.196,-0.507 c -6.969,-18.039 -14.176,-36.691 -21.164,-55.072 l -1.251,-3.295 3.485,0.079 c 7.279,0.163 13.38,0.246 19.126,0.261 V 17.002 c -14.22,-0.065 -28.692,-0.429 -43.039,-1.081 l -0.001,16.138"
         style="fill:#f25c19;fill-opacity:1;fill-rule:nonzero;stroke:none"
         id="path549" />
    </g>
    <g
       id="g551"
       transform="translate(329.86713,582.29641)">
      <path
         d="m 0,0 c 3.71,-0.499 6.666,0.493 8.81,2.039 v 9.291 l -9.303,1.253 V 8.38 L 3.478,7.846 V 5.331 C 2.666,4.877 1.623,4.723 0.232,4.91 -2.985,5.343 -5.274,8.048 -5.274,11.421 v 0.059 c 0,3.167 2.26,5.348 5.188,4.954 2.028,-0.273 3.449,-1.176 4.897,-2.614 l 3.304,3.639 c -2.145,2.183 -4.665,3.617 -8.231,4.098 -6.26,0.842 -10.896,-3.267 -10.896,-9.304 v -0.06 C -11.012,5.921 -6.318,0.851 0,0 m -31.424,14.828 v 5.001 l 3.721,-0.386 c 1.863,-0.192 3.054,-1.145 3.054,-2.801 v -0.059 c 0,-1.51 -1.135,-2.338 -3.024,-2.144 z m -5.644,-10.187 5.644,-0.583 v 6.272 l 2.5,-0.259 4.101,-6.696 6.486,-0.671 -4.858,7.721 c 2.531,0.833 4.189,2.762 4.189,5.958 v 0.059 c 0,2.042 -0.611,3.673 -1.804,5.011 -1.366,1.531 -3.519,2.583 -6.631,2.904 l -9.627,0.997 z m -18.75,1.007 c 5.804,-0.409 9.567,2.286 9.567,8.942 v 11.481 l -5.716,0.403 V 14.815 c 0,-2.9 -1.488,-4.155 -3.791,-3.994 -2.276,0.16 -3.764,1.685 -3.764,4.674 v 11.509 l -5.716,0.403 V 15.778 c 0,-6.48 3.647,-9.724 9.42,-10.13 m -23.297,8.189 v -0.059 c 0,-1.214 -0.964,-1.857 -2.717,-1.789 l -4.381,0.172 v 3.817 l 4.323,-0.168 c 1.899,-0.075 2.775,-0.849 2.775,-1.973 m -0.818,7.725 c 0,-1.213 -0.992,-1.767 -2.717,-1.7 l -3.563,0.139 v 3.64 l 3.709,-0.144 c 1.666,-0.065 2.571,-0.723 2.571,-1.875 z M -91.735,7.759 -81.189,7.349 c 4.879,-0.19 7.742,1.859 7.742,5.409 v 0.059 c 0,2.811 -1.578,4.293 -4.06,5.219 1.81,0.728 3.154,2.095 3.154,4.492 v 0.059 c 0,1.421 -0.496,2.535 -1.314,3.425 -1.198,1.229 -3.008,1.951 -5.58,2.051 l -10.488,0.409 z m -16.87,-0.202 c 4.971,-0.029 8.274,2.466 8.274,6.698 v 0.059 c 0,3.876 -2.923,5.433 -7.602,6.495 -2.864,0.667 -3.566,1.085 -3.566,2.031 v 0.059 c 0,0.77 0.672,1.329 2.046,1.32 1.813,-0.01 3.86,-0.701 5.73,-2.074 l 2.837,4.038 c -2.223,1.818 -4.942,2.78 -8.419,2.8 -4.913,0.027 -7.924,-2.736 -7.924,-6.583 v -0.06 c 0,-4.231 3.362,-5.492 7.719,-6.524 2.806,-0.695 3.478,-1.144 3.478,-2.03 v -0.059 c 0,-0.889 -0.819,-1.416 -2.368,-1.409 -2.368,0.015 -4.59,0.885 -6.637,2.524 l -3.157,-3.799 c 2.543,-2.292 5.964,-3.466 9.589,-3.486 m -32.856,-0.11 5.67,0.139 v 7.397 l 9.675,0.236 v 4.763 l -9.675,-0.234 v 3.52 l 10.697,0.261 v 5.031 l -16.367,-0.399 z m -23.857,-1.18 15.561,0.825 v 5.031 l -9.897,-0.525 v 15.681 l -5.664,-0.3 z m -19.706,3.236 c -3.118,-0.26 -5.244,2.165 -5.244,5.153 v 0.059 c 0,2.99 2.068,5.706 5.186,5.969 3.117,0.26 5.215,-2.138 5.215,-5.156 v -0.06 c 0,-2.988 -2.068,-5.705 -5.157,-5.965 m -0.058,-5.183 c 6.293,0.529 11.013,5.746 11.013,11.694 v 0.058 c 0,5.948 -4.662,10.321 -10.955,9.794 -6.293,-0.528 -11.013,-5.745 -11.013,-11.694 v -0.059 c 0,-5.947 4.661,-10.32 10.955,-9.793 m -41.932,-4.389 4.903,0.614 4.091,12.438 4.062,-11.415 4.903,0.617 6.789,21.712 -5.832,-0.732 -3.539,-12.429 -3.917,11.552 -4.845,-0.608 -3.917,-12.535 -3.54,11.541 -5.948,-0.748 6.79,-20.007"
         style="fill:#ffffff;fill-opacity:1;fill-rule:nonzero;stroke:none"
         id="path553" />
    </g>
    <g
       id="g555"
       transform="translate(169.08713,505.73841)">
      <path
         d="m 0,0 c -24.513,-12.368 -21.438,-45.041 -20.635,-52.689 2.055,3.948 4.729,5.523 4.729,5.523 0,0 -3.753,-31.803 12.033,-52.076 -6.665,38.752 11.631,63.425 11.631,63.425 0,0 -0.558,-2.85 -0.558,-8.799 9.638,5.524 36.588,5.524 36.588,5.524 0,0 1.228,23.454 -7.367,26.505 C 27.827,-9.538 0.351,-23.682 0,0"
         style="fill:#f9a672;fill-opacity:1;fill-rule:nonzero;stroke:none"
         id="path557" />
    </g>
    <g
       id="g559"
       transform="translate(265.38213,505.73841)">
      <path
         d="m 0,0 c 24.513,-12.368 21.438,-45.041 20.635,-52.689 -2.055,3.948 -4.729,5.523 -4.729,5.523 0,0 3.753,-31.803 -12.033,-52.076 6.665,38.752 -11.631,63.425 -11.631,63.425 0,0 0.558,-2.85 0.558,-8.799 -9.638,5.524 -36.588,5.524 -36.588,5.524 0,0 -1.228,23.454 7.367,26.505 C -27.827,-9.538 -0.351,-23.682 0,0"
         style="fill:#f9a672;fill-opacity:1;fill-rule:nonzero;stroke:none"
         id="path561" />
    </g>
    <g
       id="g563"
       transform="translate(263.66213,363.81641)">
      <path
         d="m 0,0 c -2.634,-15.946 -8.382,-29.53 -13.756,-38.241 -5.469,-1.931 -19.876,-4.312 -32.671,-4.249 -12.796,-0.063 -27.203,2.318 -32.673,4.249 -5.373,8.711 -11.121,22.295 -13.756,38.241 -13.119,-36.532 13.328,-53.326 13.328,-53.326 0,0 -3.87,-0.426 -8.131,0.223 2.53,-4.194 15.368,-13.17 41.232,-13.17 25.862,0 38.701,8.976 41.23,13.17 -4.261,-0.649 -8.13,-0.223 -8.13,-0.223 0,0 26.446,16.794 13.327,53.326"
         style="fill:#f9a672;fill-opacity:1;fill-rule:nonzero;stroke:none"
         id="path565" />
    </g>
    <g
       id="g567"
       transform="translate(217.23513,520.18541)">
      <path
         d="m 0,0 c -23.742,0 -37.986,-14.329 -33.602,-16.858 1.118,-0.644 6.285,1.078 13.268,2.826 0.955,3.665 4.292,6.383 8.296,6.383 2.899,0 5.449,-1.427 7.006,-3.599 1.668,0.157 3.35,0.268 5.032,0.29 1.681,-0.022 3.362,-0.133 5.03,-0.29 1.557,2.172 4.108,3.599 7.007,3.599 4.005,0 7.341,-2.718 8.297,-6.383 6.981,-1.749 12.148,-3.472 13.267,-2.826 C 37.984,-14.329 23.741,0 0,0"
         style="fill:#ffffff;fill-opacity:1;fill-rule:nonzero;stroke:none"
         id="path569" />
    </g>
    <g
       id="g571"
       transform="translate(257.64413,453.85741)">
      <path
         d="m 0,0 c -29.528,7.725 -40.41,2.498 -40.41,2.498 0,0 -10.881,5.227 -40.409,-2.498 0,-9.439 1.32,-24.029 7.13,-38.265 2.327,24.71 8.623,30.574 8.623,30.574 l 5.55,-6.947 6.514,6.435 6.513,-6.435 6.079,6.007 6.08,-6.007 6.513,6.435 6.514,-6.435 5.55,6.947 c 0,0 6.295,-5.864 8.623,-30.574 C -1.32,-24.029 0,-9.439 0,0"
         style="fill:#ffffff;fill-opacity:1;fill-rule:nonzero;stroke:none"
         id="path573" />
    </g>
    <g
       id="g575"
       transform="translate(346.79413,566.70741)">
      <path
         d="m 0,0 c -20.185,-0.225 -45.064,-17.94 -45.064,-17.94 0,0 -42.248,24.668 -84.495,8.969 h -0.001 0.001 c -0.007,0.003 -0.014,0.005 -0.021,0.008 -13.298,4.937 -26.592,5.872 -38.57,4.841 -26.332,-2.15 -45.904,-13.818 -45.905,-13.818 -0.001,0 -2.589,1.84 -6.758,4.337 -0.582,0.349 -1.193,0.708 -1.834,1.08 -0.636,0.368 -1.298,0.744 -1.988,1.128 -0.833,0.464 -1.701,0.937 -2.603,1.415 -0.083,0.044 -0.165,0.087 -0.249,0.131 -8.931,4.703 -20.939,9.729 -31.632,9.849 -0.003,0 -0.006,0 -0.009,0 -2.758,-0.001 -5.056,-0.402 -7.002,-1.087 -0.07,-0.024 -0.138,-0.051 -0.207,-0.076 -0.498,-0.184 -0.974,-0.384 -1.423,-0.606 -0.218,-0.105 -0.431,-0.213 -0.639,-0.327 -0.198,-0.111 -0.39,-0.227 -0.578,-0.346 -14.957,-9.106 -1.874,-40.872 2.627,-43.06 -0.004,0.041 -0.005,0.078 -0.01,0.118 0.033,-0.04 0.063,-0.077 0.096,-0.118 6.878,9.518 10.317,12.918 14.1,15.297 l -12.208,-5.1 c 0,0 -3.937,12.83 7.455,17.244 0.205,0.042 0.409,0.098 0.615,0.121 8.918,0.897 30.277,-8.522 30.277,-8.522 0,0 -15.96,-8.522 -27.226,-26.24 11.731,2.018 14.55,0.898 14.552,0.897 -0.003,-0.002 -20.42,-26.24 -15.256,-64.137 2.135,3.401 3.748,4.897 4.69,5.554 0.065,0.045 0.126,0.086 0.185,0.124 0.102,0.066 0.194,0.121 0.276,0.165 0.312,0.171 0.482,0.211 0.482,0.211 0,0 -2.817,-35.657 38.023,-66.83 -0.001,0 -0.001,10e-4 -0.001,10e-4 0,0 0.001,0 0.001,-10e-4 -17.275,50.313 -6.572,78.043 -6.572,78.043 0,0 2.194,-3.935 6.572,-7.176 0,27.392 10.668,43.758 24.247,53.497 -12.422,3.074 -16.428,9.835 -16.428,9.835 0,0 3.447,9.907 17.362,16.044 -8.282,4.466 -30.814,-9.671 -30.814,-9.671 0,0 21.541,23.702 46.941,14.137 15.85,-5.968 14.195,-13.208 36.286,-16.379 0.219,-0.008 0.464,-0.015 0.661,-0.025 l 2.485,7.913 2.484,-7.913 c 0.197,0.01 0.44,0.017 0.66,0.025 22.092,3.171 20.437,10.411 36.287,16.379 25.4,9.565 46.942,-14.137 46.942,-14.137 0,0 -22.534,14.137 -30.815,9.671 13.915,-6.137 17.362,-16.044 17.362,-16.044 0,0 -4.006,-6.761 -16.428,-9.835 13.58,-9.739 24.247,-26.105 24.247,-53.497 0,-33.812 -16.256,-51.999 -16.256,-51.999 0,0 10.404,3.272 22.125,11.991 -1.643,-12.308 -5.266,-27.001 -14.043,-37.486 10.39,7.175 18.438,14.522 24.715,21.666 6.06,6.801 10.449,13.509 13.609,19.733 0.01,0.019 0.019,0.039 0.029,0.058 0.378,0.749 0.744,1.491 1.088,2.224 6.9,14.498 7.122,25.681 7.018,28.838 2.996,-1.771 5.684,-3.684 9.082,-6.231 3.267,27.704 -9.285,49.289 -18.922,65.196 -0.023,0.029 -0.045,0.056 -0.045,0.056 0,0 0.01,0.004 0.014,0.006 -0.002,0.003 -0.003,0.005 -0.005,0.008 0.001,-0.001 0.01,-0.003 0.013,-0.005 0.225,0.079 3.26,1.033 14.53,-0.906 -11.267,17.718 -28.165,25.791 -28.165,25.791 0,0 16.898,16.82 25.818,15.922 6.103,-0.672 8.684,-8.297 8.684,-8.297 0,0 3.052,6.502 2.113,8.297 7.745,-1.121 10.562,-23.098 10.562,-23.098 C 13.144,-34.087 26.053,0 0,0"
         style="fill:#f25c19;fill-opacity:1;fill-rule:nonzero;stroke:none"
         id="path577" />
    </g>
    <g
       id="g579"
       transform="translate(246.46713,364.24341)">
      <path
         d="m 0,0 c -3.793,-18.479 -9.507,-25.139 -9.507,-25.139 l -4.44,6.917 -5.211,-5.149 -5.211,5.149 -4.863,-4.806 -4.864,4.806 -5.211,-5.149 -5.21,5.149 -4.44,-6.917 c 0,0 -5.715,6.66 -9.508,25.139 -4.648,-11.39 -1.719,-28.894 0,-31.444 1.06,-2.095 11.912,-3.543 20.087,-4.347 3.047,-0.217 6.14,-0.342 9.146,-0.327 3.004,-0.015 6.098,0.11 9.145,0.327 8.175,0.804 19.026,2.252 20.087,4.347 1.72,2.55 4.647,20.054 0,31.444"
         style="fill:#ffffff;fill-opacity:1;fill-rule:nonzero;stroke:none"
         id="path581" />
    </g>
    <g
       id="g583"
       transform="translate(193.16013,399.51041)">
      <path
         d="m 0,0 c 0,0 17.975,-10.133 20.061,-12.665 2.087,-2.533 4.014,-12.665 4.014,-12.665 0,0 2.596,10.88 4.011,12.665 1.415,1.783 20.063,4.221 20.063,4.221 0,0 -7.879,-26.314 -12.037,-29.552 -4.159,-3.239 -17.903,-4.189 -24.075,0 C 5.866,-33.808 0,0 0,0"
         style="fill:#f25c19;fill-opacity:1;fill-rule:nonzero;stroke:none"
         id="path585" />
    </g>
    <g
       id="g587"
       transform="translate(184.50413,522.18341)">
      <path
         d="m 0,0 c -6.495,3.856 -8.231,5.43 -11.576,9.873 -6.622,0.802 -15.11,-5.399 -15.11,-5.399 0,0 2.198,-2.018 6.143,-3.708 0.945,2.359 3.262,4.034 5.985,4.034 3.518,0 6.365,-2.785 6.436,-6.245 C -5.619,-1.329 -2.912,-0.904 0,0"
         style="fill:#ffffff;fill-opacity:1;fill-rule:nonzero;stroke:none"
         id="path589" />
    </g>
    <g
       id="g591"
       transform="translate(276.65113,526.65741)">
      <path
         d="m 0,0 c 0,0 -8.489,6.202 -15.112,5.399 -3.343,-4.442 -5.08,-6.016 -11.574,-9.873 2.91,-0.904 5.618,-1.329 8.122,-1.444 0.07,3.459 2.918,6.245 6.435,6.245 2.723,0 5.041,-1.675 5.986,-4.035 C -2.199,-2.018 0,0 0,0"
         style="fill:#ffffff;fill-opacity:1;fill-rule:nonzero;stroke:none"
         id="path593" />
    </g>
    <g
       id="g595"
       transform="translate(146.73313,343.42041)">
      <path
         d="M 0,0 C -1.212,3.704 -2.392,10.637 -2.392,13.079 -18.572,21.927 -27.662,30.512 -42.99,45.041 -36.603,30.342 -11.435,6.715 0,0"
         style="fill:#f25c19;fill-opacity:1;fill-rule:nonzero;stroke:none"
         id="path597" />
    </g>
    <g
       id="g599"
       transform="translate(287.73713,343.42041)">
      <path
         d="M 0,0 C 1.212,3.704 2.391,10.637 2.391,13.079 18.57,21.927 27.66,30.512 42.988,45.041 36.602,30.342 11.434,6.715 0,0"
         style="fill:#f25c19;fill-opacity:1;fill-rule:nonzero;stroke:none"
         id="path601" />
    </g>
    <g
       id="g603"
       transform="translate(217.23513,557.73641)">
      <path
         d="m 0,0 c -43.281,15.609 -84.496,-8.969 -84.496,-8.969 0,0 -24.879,17.715 -45.064,17.941 -29.414,-0.207 -12.476,-42.954 -7.231,-45.504 -0.005,0.041 -0.006,0.078 -0.01,0.118 0.033,-0.04 0.062,-0.077 0.096,-0.118 6.878,9.518 10.317,12.919 14.101,15.298 l -12.21,-5.1 c 0,0 -3.935,12.83 7.455,17.245 0.205,0.041 0.409,0.096 0.615,0.12 8.919,0.896 30.277,-8.523 30.277,-8.523 0,0 -15.96,-8.522 -27.226,-26.238 11.737,2.019 14.552,0.897 14.552,0.897 0,0 -20.419,-26.239 -15.255,-64.138 3.521,5.605 5.632,6.054 5.632,6.054 0,0 -2.815,-35.657 38.023,-66.83 -15.96,26.912 -26.287,34.986 -24.879,82.529 1.635,2.368 -2.816,0.672 -7.746,-0.449 2.479,21.461 5.399,35.881 23.237,51.581 -3.285,0.897 -7.51,0 -10.327,0 C -67.597,3.588 -35.677,4.485 0,0"
         style="fill:#ffffff;fill-opacity:1;fill-rule:nonzero;stroke:none"
         id="path605" />
    </g>
  </g>
</svg>
